<svg width="52" height="52" viewBox="0 0 52 52" fill="none" xmlns="http://www.w3.org/2000/svg">
<circle cx="26.0001" cy="26" r="26" fill="#FF6163"/>
<path d="M33.1575 41C37.4888 41 41.0001 37.4888 41.0001 33.1575C41.0001 28.8261 37.4888 25.3149 33.1575 25.3149C28.8262 25.3149 25.315 28.8261 25.315 33.1575C25.315 37.4888 28.8262 41 33.1575 41Z" fill="white"/>
<path d="M18.4484 36.7825C20.4504 36.7825 22.0734 35.1595 22.0734 33.1575C22.0734 31.1554 20.4504 29.5325 18.4484 29.5325C16.4463 29.5325 14.8234 31.1554 14.8234 33.1575C14.8234 35.1595 16.4463 36.7825 18.4484 36.7825Z" fill="white"/>
<path d="M33.1575 23.4675C35.9296 23.4675 38.1767 21.2204 38.1767 18.4483C38.1767 15.6763 35.9296 13.4291 33.1575 13.4291C30.3855 13.4291 28.1383 15.6763 28.1383 18.4483C28.1383 21.2204 30.3855 23.4675 33.1575 23.4675Z" fill="white"/>
<path d="M18.4484 24.8966C22.0097 24.8966 24.8967 22.0096 24.8967 18.4483C24.8967 14.887 22.0097 12 18.4484 12C14.8871 12 12.0001 14.887 12.0001 18.4483C12.0001 22.0096 14.8871 24.8966 18.4484 24.8966Z" fill="white"/>
</svg>
