<svg width="52" height="53" viewBox="0 0 52 53" fill="none" xmlns="http://www.w3.org/2000/svg">
<g clip-path="url(#clip0_654_25)">
<path d="M26 0.850006C11.64 0.850006 0 12.49 0 26.85C0 41.21 11.64 52.85 26 52.85C40.36 52.85 52 41.21 52 26.85C52 12.49 40.36 0.850006 26 0.850006Z" fill="#FF4053"/>
<path d="M18.5849 40.6619C23.8784 40.6619 28.1697 36.3707 28.1697 31.0771C28.1697 25.7836 23.8784 21.4922 18.5849 21.4922C13.2913 21.4922 9 25.7836 9 31.0771C9 36.3707 13.2913 40.6619 18.5849 40.6619Z" fill="white"/>
<path d="M35.209 39.4538C38.4073 39.4538 41 36.8611 41 33.6629C41 30.4646 38.4073 27.8718 35.209 27.8718C32.0107 27.8718 29.4179 30.4646 29.4179 33.6629C29.4179 36.8611 32.0107 39.4538 35.209 39.4538V39.4538Z" fill="white"/>
<path d="M20.4171 20.2485C22.3966 20.2485 24.0014 18.6437 24.0014 16.6642C24.0014 14.6846 22.3966 13.0799 20.4171 13.0799C18.4376 13.0799 16.8328 14.6846 16.8328 16.6642C16.8328 18.6437 18.4376 20.2485 20.4171 20.2485V20.2485Z" fill="white"/>
<path d="M32.9577 26.6235C37.2615 26.6235 40.7504 23.1346 40.7504 18.8308C40.7504 14.527 37.2615 11.0381 32.9577 11.0381C28.6539 11.0381 25.1649 14.527 25.1649 18.8308C25.1649 23.1346 28.6539 26.6235 32.9577 26.6235Z" fill="white"/>
</g>
<defs>
<clipPath id="clip0_654_25">
<rect width="52" height="52" fill="white" transform="translate(0 0.850006)"/>
</clipPath>
</defs>
</svg>
