<svg width="52" height="52" viewBox="0 0 52 52" fill="none" xmlns="http://www.w3.org/2000/svg">
<mask id="mask0_5_124" style="mask-type:alpha" maskUnits="userSpaceOnUse" x="0" y="0" width="52" height="52">
<path d="M26.0001 1C39.7901 1 51.0001 12.21 51.0001 26C51.0001 39.79 39.7901 51 26.0001 51C12.2101 51 1.00006 39.79 1.00006 26C1.00006 12.21 12.2101 1 26.0001 1ZM26.0001 0C11.6401 0 6.10352e-05 11.64 6.10352e-05 26C6.10352e-05 40.36 11.6401 52 26.0001 52C40.3601 52 52.0001 40.36 52.0001 26C52.0001 11.64 40.3601 0 26.0001 0Z" fill="#00AAFF"/>
</mask>
<g mask="url(#mask0_5_124)">
<mask id="mask1_5_124" style="mask-type:alpha" maskUnits="userSpaceOnUse" x="0" y="0" width="52" height="52">
<circle cx="26.0001" cy="26" r="26" fill="#D9D9D9"/>
</mask>
<g mask="url(#mask1_5_124)">
<rect x="-11.9999" y="-13" width="38" height="38" fill="#00AAFF"/>
<rect x="26.0001" y="25" width="38" height="38" fill="#97CF26"/>
<rect x="26.0001" y="-13" width="38" height="38" fill="#FF6163"/>
<rect x="-11.9999" y="25" width="38" height="38" fill="#A169F7"/>
</g>
</g>
<path d="M33.1575 41C37.4888 41 41.0001 37.4888 41.0001 33.1575C41.0001 28.8261 37.4888 25.3149 33.1575 25.3149C28.8262 25.3149 25.315 28.8261 25.315 33.1575C25.315 37.4888 28.8262 41 33.1575 41Z" fill="#97CF26"/>
<path d="M18.4484 36.7825C20.4504 36.7825 22.0734 35.1595 22.0734 33.1575C22.0734 31.1554 20.4504 29.5325 18.4484 29.5325C16.4463 29.5325 14.8234 31.1554 14.8234 33.1575C14.8234 35.1595 16.4463 36.7825 18.4484 36.7825Z" fill="#A169F7"/>
<path d="M33.1575 23.4675C35.9296 23.4675 38.1767 21.2204 38.1767 18.4483C38.1767 15.6763 35.9296 13.4291 33.1575 13.4291C30.3855 13.4291 28.1383 15.6763 28.1383 18.4483C28.1383 21.2204 30.3855 23.4675 33.1575 23.4675Z" fill="#FF6163"/>
<path d="M18.4484 24.8966C22.0097 24.8966 24.8967 22.0096 24.8967 18.4483C24.8967 14.887 22.0097 12 18.4484 12C14.8871 12 12.0001 14.887 12.0001 18.4483C12.0001 22.0096 14.8871 24.8966 18.4484 24.8966Z" fill="#00AAFF"/>
</svg>
