<svg width="52" height="53" viewBox="0 0 52 53" fill="none" xmlns="http://www.w3.org/2000/svg">
<g clip-path="url(#clip0_654_22)">
<path d="M18.5849 40.6619C23.8784 40.6619 28.1697 36.3707 28.1697 31.0771C28.1697 25.7836 23.8784 21.4922 18.5849 21.4922C13.2913 21.4922 9 25.7836 9 31.0771C9 36.3707 13.2913 40.6619 18.5849 40.6619Z" fill="#04E061"/>
<path d="M35.209 39.4538C38.4073 39.4538 41 36.8611 41 33.6629C41 30.4646 38.4073 27.8718 35.209 27.8718C32.0107 27.8718 29.4179 30.4646 29.4179 33.6629C29.4179 36.8611 32.0107 39.4538 35.209 39.4538V39.4538Z" fill="#FF4053"/>
<path d="M20.4171 20.2485C22.3967 20.2485 24.0014 18.6437 24.0014 16.6642C24.0014 14.6846 22.3967 13.0799 20.4171 13.0799C18.4376 13.0799 16.8329 14.6846 16.8329 16.6642C16.8329 18.6437 18.4376 20.2485 20.4171 20.2485V20.2485Z" fill="#965EEB"/>
<path d="M32.9577 26.6235C37.2615 26.6235 40.7504 23.1346 40.7504 18.8308C40.7504 14.527 37.2615 11.0381 32.9577 11.0381C28.6539 11.0381 25.1649 14.527 25.1649 18.8308C25.1649 23.1346 28.6539 26.6235 32.9577 26.6235Z" fill="#00AAFF"/>
<mask id="mask0_654_22" style="mask-type:alpha" maskUnits="userSpaceOnUse" x="0" y="1" width="52" height="52">
<path d="M26.0001 2C39.7901 2 51.0001 13.21 51.0001 27C51.0001 40.79 39.7901 52 26.0001 52C12.2101 52 1.00006 40.79 1.00006 27C1.00006 13.21 12.2101 2 26.0001 2ZM26.0001 1C11.6401 1 6.10352e-05 12.64 6.10352e-05 27C6.10352e-05 41.36 11.6401 53 26.0001 53C40.3601 53 52.0001 41.36 52.0001 27C52.0001 12.64 40.3601 1 26.0001 1Z" fill="#00AAFF"/>
</mask>
<g mask="url(#mask0_654_22)">
<mask id="mask1_654_22" style="mask-type:alpha" maskUnits="userSpaceOnUse" x="0" y="1" width="52" height="52">
<path d="M26.0001 53C40.3595 53 52.0001 41.3594 52.0001 27C52.0001 12.6406 40.3595 1 26.0001 1C11.6407 1 9.15527e-05 12.6406 9.15527e-05 27C9.15527e-05 41.3594 11.6407 53 26.0001 53Z" fill="#D9D9D9"/>
</mask>
<g mask="url(#mask1_654_22)">
<path d="M26.0001 -12H-11.9999V26H26.0001V-12Z" fill="#965EEB"/>
<path d="M64.0001 26H26.0001V64H64.0001V26Z" fill="#FF4053"/>
<path d="M64.0001 -12H26.0001V26H64.0001V-12Z" fill="#00AAFF"/>
<path d="M26.0001 26H-11.9999V64H26.0001V26Z" fill="#04E061"/>
</g>
</g>
</g>
<defs>
<clipPath id="clip0_654_22">
<rect width="52" height="52" fill="white" transform="translate(0 0.850006)"/>
</clipPath>
</defs>
</svg>
