<svg width="52" height="52" viewBox="0 0 52 52" fill="none" xmlns="http://www.w3.org/2000/svg">
<g clip-path="url(#clip0_655_72)">
<path d="M26 0C11.64 0 0 11.64 0 26C0 40.36 11.64 52 26 52C40.36 52 52 40.36 52 26C52 11.64 40.36 0 26 0Z" fill="#4D338D"/>
<path d="M25.0402 12.1119L24.5045 12.1476L24.0134 12.2192L23.5223 12.2953L23.0759 12.3848L22.6295 12.4743L22.25 12.5772L21.8705 12.6801L21.5804 12.7696L21.2902 12.8591L20.7188 13.0872L20.1518 13.3154L19.6697 13.557L19.192 13.7987L18.7679 14.0537L18.3438 14.3132L18.0223 14.528L17.7054 14.7427L17.2411 15.1096L16.7813 15.4765L16.0848 16.1745L15.3929 16.8725L15.0357 17.3423L14.6786 17.8121L14.4732 18.1029L14.2679 18.3937L14.0313 18.7964L13.7991 19.1991L13.5134 19.7584L13.2322 20.3177L13.058 20.7651L12.8839 21.2125L12.7411 21.66L12.6027 22.1074L12.5625 22.264L12.5179 22.4206L12.4777 22.5995L12.433 22.7785L12.3661 23.1186L12.2947 23.4586L12.2009 24.1253L12.1027 24.7919L12.1072 26V27.208L12.2009 27.8344L12.2902 28.4608L12.3795 28.9083L12.4688 29.3557L12.558 29.6913L12.6473 30.0268L12.7768 30.4295L12.9107 30.8322L13.0982 31.302L13.2857 31.7718L13.5491 32.2908L13.8125 32.8098L14.0402 33.1857L14.2679 33.5615L14.3393 33.6868L14.4152 33.8166L14.7679 34.2908L15.125 34.7696L15.1697 34.8233L15.2188 34.8725L15.4197 35.123L15.6205 35.3736L16.1563 35.9016L16.692 36.4295L16.9598 36.6488L17.2277 36.8725L17.25 36.8949L17.2723 36.9217L17.4509 37.0559L17.6295 37.1946L18.1875 37.5705L18.7455 37.9418L19.1473 38.17L19.5491 38.3982L19.7947 38.5145L20.0402 38.6353L20.3527 38.774L20.6652 38.9127L20.9107 39.0067L21.1563 39.0962L21.5536 39.2259L21.9509 39.3557L22.3572 39.4676L22.7634 39.5749L23.1027 39.6421L23.4464 39.7136L24.0848 39.8076L24.7277 39.906H26H27.2723L27.9152 39.8076L28.5536 39.7136L28.8973 39.6421L29.2366 39.5749L29.4152 39.5302L29.5938 39.4899L29.75 39.4452L29.9063 39.4004L30.2634 39.2931L30.6205 39.1812L30.9777 39.0515L31.3393 38.9217L31.7143 38.7561L32.0938 38.5906L32.5625 38.34L33.0313 38.0895L33.1875 37.991L33.3438 37.8926L33.7456 37.6331L34.1473 37.3736L34.5268 37.0783L34.9063 36.783L35.2411 36.4877L35.5759 36.1924L35.8438 35.9239L36.1116 35.6555L36.3348 35.4139L36.5625 35.1723L36.8304 34.8367L37.0982 34.5011L37.2054 34.3445L37.3125 34.1879L37.3482 34.1432L37.3839 34.0984L37.5313 33.8971L37.6786 33.6957L37.9286 33.2707L38.1786 32.8456L38.4197 32.3758L38.6563 31.906L38.8214 31.5257L38.9822 31.1454L39.058 30.9441L39.1339 30.7427L39.2589 30.3624L39.3839 29.9821L39.5 29.4899L39.6205 28.9978L39.6429 28.8948L39.6652 28.7919L39.7277 28.4251L39.7902 28.0582L39.8661 27.3646L39.942 26.6756L39.9152 25.6644L39.8884 24.6577L39.8438 24.3445L39.7947 24.0313L39.7456 23.7181L39.7009 23.4049L39.6339 23.0693L39.567 22.7338L39.4777 22.3803L39.3884 22.0268L39.2143 21.4944L39.0402 20.9664L39.0045 20.8993L38.9643 20.8322L36.808 22.9978L34.6473 25.1633L34.6384 26.0984L34.625 27.0291L34.5536 27.4541L34.4822 27.8792L34.3973 28.2371L34.308 28.5951L34.2188 28.8635L34.1339 29.132L34.0134 29.4183L33.8973 29.7047L33.7277 30.0492L33.5536 30.3937L33.4286 30.613L33.3036 30.8322L33.125 31.1007L32.9509 31.3691L32.9197 31.3915L32.8929 31.4139L32.7634 31.5928L32.6295 31.7718L32.6072 31.7942L32.5848 31.8166L32.2813 32.1611L31.9777 32.5101L31.567 32.8501L31.1563 33.1902L31.067 33.2662L30.9777 33.3378L30.7322 33.4989L30.4866 33.66L30.3036 33.7763L30.1205 33.8926L29.6518 34.1163L29.1875 34.34L28.7143 34.5011L28.2411 34.6577L27.8214 34.7472L27.4063 34.8367L26.8929 34.8859L26.3795 34.9396L25.6429 34.9127L24.9063 34.8859L24.5491 34.8143L24.192 34.7472L23.9018 34.6756L23.6116 34.604L23.433 34.5459L23.2545 34.4877L22.8973 34.3445L22.5402 34.2058L22.0804 33.9597L21.6205 33.7181L21.3438 33.5302L21.067 33.3468L20.7545 33.0962L20.442 32.8456L20.3125 32.7338L20.1786 32.6219L19.8929 32.3311L19.6072 32.0403L19.4018 31.7718L19.1964 31.5034L19.1384 31.4452L19.0804 31.387L18.9464 31.1857L18.808 30.9888L18.5982 30.6219L18.3839 30.2506L18.2366 29.9463L18.0893 29.6376L18 29.4318L17.9107 29.2215L17.808 28.9083L17.7054 28.5951L17.6339 28.3042L17.5625 28.0134L17.5 27.6555L17.433 27.2975L17.3839 26.6488L17.3304 25.9955L17.3795 25.4631L17.4286 24.9306L15.8036 23.311L14.1786 21.6957L16.6384 19.2394L19.1027 16.7785L20.0402 17.7271L20.9777 18.6801H21.0134L21.0491 18.6846L21.2366 18.5548L21.4241 18.4295L21.7143 18.255L22.0045 18.0805L22.3393 17.915L22.6741 17.7494L22.9197 17.6555L23.1652 17.557L23.4197 17.4765L23.6741 17.3915L23.9777 17.3199L24.2813 17.2483L24.3705 17.2259L24.4598 17.208L24.9732 17.1409L25.4866 17.0738H26.0045H26.5223L26.8973 17.1186L27.2723 17.1678L27.5402 17.217L27.808 17.2662L28.2277 17.3736L28.6473 17.481L28.942 17.5928L29.2366 17.7047L29.7902 17.9776L30.3438 18.2461L30.7634 18.5324L31.1875 18.8233L33.0179 16.9978L34.8438 15.1723L34.6072 14.9933L34.3706 14.8143L34.3482 14.7875L34.3259 14.7606L33.9152 14.4832L33.5 14.2103L33.0938 13.9642L32.6875 13.7226L32.2768 13.5212L31.8705 13.3244L31.6473 13.2215L31.4241 13.123L31.067 12.9933L30.7098 12.8591L30.442 12.774L30.1786 12.6846L29.7723 12.5772L29.3705 12.4698L28.9241 12.3803L28.4777 12.2908L28.0313 12.2237L27.5848 12.1566L26.875 12.1074L26.1652 12.0626L25.8705 12.0671L25.5759 12.0761L25.0402 12.1119Z" fill="#6FB31A"/>
<path d="M26.1384 25.727L19.1206 18.7069L19.0982 18.6845L19.0759 18.6666L16.0536 21.6957L26.1429 31.7718H26.1563H26.1652L47.0357 10.9038L44.0179 7.90154H43.9956L43.9688 7.90602L26.1384 25.727Z" fill="white"/>
<path d="M26 1C39.79 1 51 12.21 51 26C51 39.79 39.79 51 26 51C12.21 51 1 39.79 1 26C1 12.21 12.21 1 26 1ZM26 0C11.64 0 0 11.64 0 26C0 40.36 11.64 52 26 52C40.36 52 52 40.36 52 26C52 11.64 40.36 0 26 0Z" fill="#4D338D"/>
</g>
<defs>
<clipPath id="clip0_655_72">
<rect width="52" height="52" fill="white"/>
</clipPath>
</defs>
</svg>
