<svg width="52" height="52" viewBox="0 0 52 52" fill="none" xmlns="http://www.w3.org/2000/svg">
<path d="M26.0001 0C11.6401 0 6.10352e-05 11.64 6.10352e-05 26C6.10352e-05 40.36 11.6401 52 26.0001 52C40.3601 52 52.0001 40.36 52.0001 26C52.0001 11.64 40.3601 0 26.0001 0Z" fill="#2E6BE5"/>
<path fill-rule="evenodd" clip-rule="evenodd" d="M17.7648 29.1059L19.2746 23.6C18.451 23.1765 17.7648 22.6118 17.7648 21.6235C17.7648 20.3529 19.0001 19.6471 19.9608 19.6471H22.1569V38H28.3334V29.9529H37.255V24.3059H28.3334V19.7882H40.0001V14H20.0981C15.8432 14 12.0001 16.8235 12.0001 21.6235C12.0001 25.5765 14.4706 28.2588 17.7648 29.1059Z" fill="white"/>
</svg>
