<svg width="52" height="52" viewBox="0 0 52 52" fill="none" xmlns="http://www.w3.org/2000/svg">
<path d="M26 0C11.64 0 0 11.64 0 26C0 40.36 11.64 52 26 52C40.36 52 52 40.36 52 26C52 11.64 40.36 0 26 0Z" fill="#19AA1E"/>
<path d="M25.9539 0C40.3573 0 52 11.68 52 25.9777C52 40.3244 40.3573 52 25.9539 52C11.6888 52.0015 0 40.3215 0 25.9747C0 11.6785 11.6888 0 25.9539 0ZM26.0461 9.10268C17.4841 9.10268 11.7007 15.8068 11.7007 22.9727C11.7007 25.8406 12.3373 28.3852 13.8427 31.5287C22.8123 31.5733 24.3593 37.2644 24.8621 42.0735L25.0897 44.2009H26.9565L27.184 42.0735C27.6853 37.2644 29.1877 31.5748 38.4786 31.5287C40.0256 28.3852 40.3008 25.8406 40.3008 23.0219C40.3008 15.7591 34.6067 9.10268 26.0461 9.10268Z" fill="#19AA1E"/>
<path d="M11.7007 22.9727C11.7007 15.8068 17.4841 9.10268 26.0461 9.10268C34.6067 9.10268 40.3008 15.7591 40.3008 23.0219C40.3008 25.8406 40.0256 28.3852 38.4786 31.5287C29.1877 31.5748 27.6853 37.2644 27.184 42.0735L26.9565 44.2009H25.0896L24.8621 42.0735C24.3593 37.2644 22.8123 31.5733 13.8427 31.5287C12.3373 28.3852 11.7007 25.8406 11.7007 22.9727Z" fill="white"/>
</svg>
