<svg width="52" height="52" viewBox="0 0 52 52" fill="none" xmlns="http://www.w3.org/2000/svg">
<path d="M26 1C39.79 1 51 12.21 51 26C51 39.79 39.79 51 26 51C12.21 51 1 39.79 1 26C1 12.21 12.21 1 26 1ZM26 0C11.64 0 0 11.64 0 26C0 40.36 11.64 52 26 52C40.36 52 52 40.36 52 26C52 11.64 40.36 0 26 0Z" fill="#19AA1E"/>
<path d="M11.7007 22.9727C11.7007 15.8068 17.4841 9.10268 26.0461 9.10268C34.6067 9.10268 40.3008 15.7591 40.3008 23.0219C40.3008 25.8406 40.0256 28.3852 38.4786 31.5287C29.1877 31.5748 27.6853 37.2644 27.184 42.0735L26.9565 44.2009H25.0896L24.8621 42.0735C24.3593 37.2644 22.8123 31.5733 13.8427 31.5287C12.3373 28.3852 11.7007 25.8406 11.7007 22.9727Z" fill="#19AA1E"/>
</svg>
