<svg width="52" height="52" viewBox="0 0 52 52" fill="none" xmlns="http://www.w3.org/2000/svg">
<mask id="mask0_26_22" style="mask-type:alpha" maskUnits="userSpaceOnUse" x="0" y="0" width="52" height="52">
<circle cx="26" cy="26" r="26" fill="#D9D9D9"/>
</mask>
<g mask="url(#mask0_26_22)">
<path fill-rule="evenodd" clip-rule="evenodd" d="M-6.89324 58.7786H-23V-6.00357H-6.89324L25.5005 26.3875L-6.89324 58.7786Z" fill="#FBBE2F"/>
<path fill-rule="evenodd" clip-rule="evenodd" d="M57.8932 -6.00357H-6.89323L25.5005 26.3875L57.8932 -6.00357Z" fill="#EC4235"/>
<path fill-rule="evenodd" clip-rule="evenodd" d="M57.8932 -6.00357H74V58.7786H57.8932L25.5005 26.3875L57.8932 -6.00357Z" fill="#4385F6"/>
<path fill-rule="evenodd" clip-rule="evenodd" d="M-6.89323 58.7786H57.8932L25.5005 26.3875L-6.89323 58.7786Z" fill="#34A855"/>
</g>
<path fill-rule="evenodd" clip-rule="evenodd" d="M26.5588 17.3005C28.8168 17.3005 30.8855 18.1086 32.4906 19.4504L36.9743 14.9857C34.2172 12.5079 30.5649 11 26.5588 11C17.9656 11 11 17.9393 11 26.5C11 35.0607 17.9656 42 26.5588 42C38.4643 42 42.5242 31.9153 41.0622 23.57L26.5222 23.5625V29.7033H34.797C34.3323 31.4266 33.4286 32.9056 31.9548 33.9655C30.4369 35.0565 28.5726 35.6995 26.5577 35.6995C21.4586 35.6995 17.3244 31.5809 17.3244 26.5011C17.3244 21.4212 21.4586 17.3027 26.5577 17.3027L26.5588 17.3005Z" fill="#FEFEFE"/>
</svg>
