<?xml version="1.0" encoding="utf-8"?>
<!-- Generator: Adobe Illustrator 24.2.0, SVG Export Plug-In . SVG Version: 6.00 Build 0)  -->
<svg version="1.1" id="Layer_1" xmlns="http://www.w3.org/2000/svg" xmlns:xlink="http://www.w3.org/1999/xlink" x="0px" y="0px"
	 viewBox="0 0 52 52" style="enable-background:new 0 0 52 52;" xml:space="preserve">
<style type="text/css">
	.st0{fill:#34A853;}
	.st1{fill:#FBBC04;}
	.st2{fill:#4285F4;}
	.st3{fill:#1A73E8;}
	.st4{fill:#EA4335;}
</style>
<g>
	<g>
		<path class="st0" d="M20.7,34.5c1,1.2,2,2.8,2.5,3.7c0.6,1.2,0.9,2,1.4,3.5c0.3,0.8,0.5,1.1,1.1,1.1c0.6,0,0.9-0.4,1.1-1.1
			c0.4-1.4,0.8-2.4,1.3-3.4c2.1-4,5.5-6.8,7.5-10.6c0,0,1.3-2.4,1.3-5.7c0-3.1-1.3-5.2-1.3-5.2L20.7,34.5L20.7,34.5z"/>
		<path class="st1" d="M15.7,27.2c1.2,2.7,3.5,5.1,5.1,7.2l8.3-9.8c0,0-1.2,1.5-3.3,1.5c-2.4,0-4.3-1.9-4.3-4.2c0-1.6,1-2.8,1-2.8
			C16.4,20.1,16.7,21.5,15.7,27.2L15.7,27.2z"/>
		<path class="st2" d="M29.1,11.3c2.8,0.9,5.1,2.8,6.5,5.5L29,24.7c0,0,1-1.1,1-2.8c0-2.4-2-4.2-4.2-4.2c-2.1,0-3.3,1.5-3.3,1.5
			C23,18,28.2,11.7,29.1,11.3L29.1,11.3z"/>
		<path class="st3" d="M17.2,14.7c1.6-2,4.5-4,8.5-4c1.9,0,3.4,0.5,3.4,0.5l-6.6,7.9C22,18.9,17.6,15.5,17.2,14.7L17.2,14.7z"/>
		<path class="st4" d="M15.7,27.2c0,0-1.1-2.2-1.1-5.3c0-2.9,1.2-5.5,2.6-7.2l5.3,4.4L15.7,27.2L15.7,27.2z"/>
	</g>
	<g>
		<g>
			<path class="st0" d="M26,52C11.7,52,0,40.3,0,26S11.7,0,26,0s26,11.7,26,26S40.3,52,26,52z M26,1C12.2,1,1,12.2,1,26
				s11.2,25,25,25s25-11.2,25-25S39.8,1,26,1z"/>
		</g>
		<path class="st2" d="M43,7.7l0.6-0.8c-2.5-2.3-5.4-4.1-8.7-5.3l-0.5,0.9C37.6,3.6,40.5,5.4,43,7.7z"/>
		<path class="st3" d="M26,1c3.5,0,6.8,0.7,9.9,2l0.7-0.8C33.3,0.8,29.8,0,26,0C19,0,12.6,2.8,8,7.3l0.8,0.6C13.2,3.6,19.3,1,26,1z"
			/>
		<path class="st1" d="M4.1,38.1c-0.2,0.4-0.4,0.7-0.5,1.1c1.7,2.9,3.9,5.4,6.5,7.4l0.6-0.8C8,43.8,5.8,41.1,4.1,38.1z"/>
		<path class="st4" d="M1,26c0-7.4,3.2-14,8.3-18.6L8.5,6.8C3.3,11.5,0,18.4,0,26c0,5.3,1.6,10.3,4.4,14.5l0.7-0.8
			C2.5,35.8,1,31.1,1,26z"/>
	</g>
</g>
</svg>
