<svg width="52" height="52" viewBox="0 0 52 52" fill="none" xmlns="http://www.w3.org/2000/svg">
<g clip-path="url(#clip0_2705_289)">
<path d="M26 1C39.79 1 51 12.21 51 26C51 39.79 39.79 51 26 51C12.21 51 1 39.79 1 26C1 12.21 12.21 1 26 1ZM26 0C11.64 0 0 11.64 0 26C0 40.36 11.64 52 26 52C40.36 52 52 40.36 52 26C52 11.64 40.36 0 26 0Z" fill="#002B11"/>
<path d="M42.059 20.9279L45.1964 17.5144H38.2389C34.7557 15.1352 30.5492 13.7495 25.9999 13.7495C21.4564 13.7495 17.2616 15.1382 13.7843 17.5144H6.80933L9.94676 20.9279C8.02366 22.6825 6.81807 25.2099 6.81807 28.0162C6.81807 33.312 11.1118 37.6057 16.4076 37.6057C18.9234 37.6057 21.2154 36.6354 22.9265 35.0492L26 38.3958L29.0735 35.0521C30.7846 36.6383 33.0737 37.6057 35.5895 37.6057C40.8854 37.6057 45.1848 33.312 45.1848 28.0162C45.1877 25.207 43.9821 22.6796 42.059 20.9279ZM16.4105 34.506C12.8256 34.506 9.92067 31.601 9.92067 28.0162C9.92067 24.4313 12.8257 21.5263 16.4105 21.5263C19.9952 21.5263 22.9003 24.4313 22.9003 28.0162C22.9003 31.601 19.9952 34.506 16.4105 34.506ZM26.0029 27.8273C26.0029 23.5569 22.8974 19.8908 18.7984 18.325C21.0149 17.3982 23.4464 16.884 25.9999 16.884C28.5535 16.884 30.9878 17.3982 33.2044 18.325C29.1084 19.8937 26.0029 23.557 26.0029 27.8273ZM35.5924 34.506C32.0076 34.506 29.1025 31.601 29.1025 28.0162C29.1025 24.4313 32.0076 21.5263 35.5924 21.5263C39.1773 21.5263 42.0822 24.4313 42.0822 28.0162C42.0822 31.601 39.1772 34.506 35.5924 34.506ZM35.5924 24.6114C33.7128 24.6114 32.1906 26.1337 32.1906 28.0133C32.1906 29.8928 33.7128 31.415 35.5924 31.415C37.4719 31.415 38.9942 29.8928 38.9942 28.0133C38.9941 26.1366 37.4719 24.6114 35.5924 24.6114ZM19.8122 28.0162C19.8122 29.8957 18.29 31.418 16.4105 31.418C14.531 31.418 13.0087 29.8957 13.0087 28.0162C13.0087 26.1366 14.531 24.6143 16.4105 24.6143C18.29 24.6114 19.8122 26.1366 19.8122 28.0162Z" fill="#002B11"/>
</g>
<defs>
<clipPath id="clip0_2705_289">
<rect width="52" height="52" fill="white"/>
</clipPath>
</defs>
</svg>
