<?xml version="1.0" encoding="UTF-8"?>
<svg id="_Слой_2" data-name="Слой 2" xmlns="http://www.w3.org/2000/svg" viewBox="0 0 52 52">
  <defs>
    <style>
      .cls-1 {
        fill: #07f;
      }

      .cls-2 {
        fill: #fff;
      }
    </style>
  </defs>
  <g id="_Слой_1-2" data-name="Слой 1">
    <path class="cls-1" d="M26,0C11.64,0,0,11.64,0,26s11.64,26,26,26,26-11.64,26-26S40.36,0,26,0Z"/>
    <path class="cls-2" d="M27.43,35.99c-10.94,0-17.18-7.5-17.44-19.98h5.48c.18,9.16,4.22,13.04,7.42,13.84v-13.84h5.16v7.9c3.16-.34,6.48-3.94,7.6-7.9h5.16c-.86,4.88-4.46,8.48-7.02,9.96,2.56,1.2,6.66,4.34,8.22,10.02h-5.68c-1.22-3.8-4.26-6.74-8.28-7.14v7.14h-.62Z"/>
  </g>
</svg>