<svg width="52" height="52" viewBox="0 0 52 52" fill="none" xmlns="http://www.w3.org/2000/svg">
<path d="M26 0C11.64 0 0 11.64 0 26C0 40.36 11.64 52 26 52C40.36 52 52 40.36 52 26C52 11.64 40.36 0 26 0Z" fill="#FC3F1E"/>
<path d="M34.537 40.391H29.421V14.975H27.137C22.95 14.975 20.751 17.089 20.751 20.219C20.751 23.771 22.274 25.421 25.403 27.535L27.983 29.269L20.54 40.391H15L21.682 30.453C17.833 27.704 15.676 25.04 15.676 20.515C15.676 14.848 19.609 11 27.095 11H34.538V40.391H34.537Z" fill="white"/>
</svg>
