<svg width="52" height="52" viewBox="0 0 52 52" fill="none" xmlns="http://www.w3.org/2000/svg">
<path d="M26.0001 0C11.6401 0 6.10352e-05 11.64 6.10352e-05 26C6.10352e-05 40.36 11.6401 52 26.0001 52C40.3601 52 52.0001 40.36 52.0001 26C52.0001 11.64 40.3601 0 26.0001 0Z" fill="#ED484A"/>
<path fill-rule="evenodd" clip-rule="evenodd" d="M39.7834 39.9701C41.5834 40.4901 39.2734 34.0701 39.2734 34.0701C40.3034 30.9901 41.3234 20.4701 40.6834 17.2701C40.0434 14.0601 37.6434 14.1701 33.2334 13.3001C28.7434 12.4001 17.4534 11.8901 15.0034 12.0201C12.5634 12.1501 10.7734 13.8101 11.0234 17.1501C11.2834 20.4801 15.1834 32.8901 17.1234 35.9701C19.0534 39.0501 21.9034 38.5101 23.6134 38.3101C25.9434 38.0201 34.7334 35.9701 34.7334 35.9701C33.9434 34.9601 37.9934 39.4501 39.7834 39.9701ZM28.0034 20.5901L29.5634 17.2701H34.2434L29.1234 27.0101V32.7501H23.7534V27.0101L20.8934 21.5601L18.6334 17.2601H23.3134L26.4334 23.8801L27.9934 20.5801L28.0034 20.5901Z" fill="white"/>
</svg>
