<svg width="52" height="52" viewBox="0 0 52 52" fill="none" xmlns="http://www.w3.org/2000/svg">
<circle cx="26" cy="26" r="26" fill="#7653BD"/>
<path d="M34.5292 12H17.4708C14.4446 12 12 14.4446 12 17.4708V34.5292C12 37.5446 14.4446 40 17.4708 40H34.5292C37.5446 40 40 37.5554 40 34.5292V17.4708C40 14.4446 37.5554 12 34.5292 12ZM20.68 30.7708C20.0769 30.7708 19.5062 30.6846 18.9569 30.5231L16.6308 34.5292L14.5308 32.7738L16.5446 29.22C15.2308 28.0677 14.4015 26.3877 14.4015 24.5138C14.4015 21.0677 17.2123 18.2569 20.6692 18.2569C24.1262 18.2569 26.9369 21.0677 26.9369 24.5138C26.9477 27.96 24.1369 30.7708 20.68 30.7708ZM36.5323 28.94C35.3262 30.3938 31.4815 34.5185 31.4815 34.5185C31.4815 34.5185 28.6923 31.5246 27.1308 29.7477L28.66 27.3462C29.36 28.1108 30.3723 28.5954 31.4815 28.5954C33.5923 28.5954 35.3046 26.8831 35.3046 24.7831C35.3046 22.6831 33.5923 20.9708 31.4815 20.9708C30.4477 20.9708 29.5 21.3908 28.8108 22.0585L27.4646 19.6246C28.5738 18.7631 29.9631 18.2462 31.4815 18.2462C35.0892 18.2462 38.0292 21.1754 38.0292 24.7831C38.0292 26.3554 37.4692 27.8092 36.5323 28.94ZM20.68 21.1862C18.8492 21.1862 17.3523 22.6723 17.3523 24.5031C17.3523 26.3338 18.8492 27.82 20.68 27.82C22.5108 27.82 24.0077 26.3338 24.0077 24.5031C24.0077 22.6723 22.5108 21.1862 20.68 21.1862Z" fill="white"/>
</svg>
