<?xml version="1.0" encoding="utf-8"?>
<!-- Generator: Adobe Illustrator 24.2.0, SVG Export Plug-In . SVG Version: 6.00 Build 0)  -->
<svg version="1.1" id="Layer_1" xmlns="http://www.w3.org/2000/svg" xmlns:xlink="http://www.w3.org/1999/xlink" x="0px" y="0px"
	 viewBox="0 0 52 52" style="enable-background:new 0 0 52 52;" xml:space="preserve">
<style type="text/css">
	.st0{fill:url(#SVGID_1_);}
	.st1{clip-path:url(#SVGID_3_);fill:#FFFFFF;}
</style>
<g>
	<linearGradient id="SVGID_1_" gradientUnits="userSpaceOnUse" x1="26" y1="52" x2="26" y2="-9.094947e-13">
		<stop  offset="0" style="stop-color:#0057A5"/>
		<stop  offset="1" style="stop-color:#24BAE4"/>
	</linearGradient>
	<circle class="st0" cx="26" cy="26" r="26"/>
	<g>
		<g>
			<defs>
				<path id="SVGID_2_" d="M16.1,20.3L16.1,20.3c0,2.1,0.4,4.6,0.9,6.4h1.5c6.9,0.5,6.6,8.1,6.6,15.8c0,0,1-0.1,1.6-0.2
					c0-7.6,0-14.9,6.6-15.6H35c0.5-1.8,0.9-4.3,0.9-6.4h0c0-5.4-4.5-9.8-9.9-9.8C20.6,10.5,16.1,14.9,16.1,20.3z"/>
			</defs>
			<clipPath id="SVGID_3_">
				<use xlink:href="#SVGID_2_"  style="overflow:visible;"/>
			</clipPath>
			<rect x="16.1" y="10.5" class="st1" width="19.7" height="32"/>
		</g>
	</g>
</g>
</svg>
