<?xml version="1.0" encoding="utf-8"?>
<!-- Generator: Adobe Illustrator 24.2.0, SVG Export Plug-In . SVG Version: 6.00 Build 0)  -->
<svg version="1.1" id="Layer_1" xmlns="http://www.w3.org/2000/svg" xmlns:xlink="http://www.w3.org/1999/xlink" x="0px" y="0px"
	 viewBox="0 0 51 51" style="enable-background:new 0 0 51 51;" xml:space="preserve">
<style type="text/css">
	.st0{fill:#BB162B;}
</style>
<path class="st0" d="M42.9,28C42.9,28,42.9,28,42.9,28c0-2.4-0.2-4-0.9-4.7c-0.7-0.7-2.1-1.6-2.5-1.9c0.1-0.1,0.2-0.3,0.3-0.4
	c0,0,0.1,0,0.2,0c0.6,0,1.9-0.1,2-0.9c0-0.6-0.5-1.1-1.4-1.4l0,0c-0.7-0.2-1.2-0.2-1.5,0c-0.3,0.2-0.3,0.4-0.3,0.6l0,0
	c-0.2,0.6-0.1,1-0.1,1.2c-0.2-0.2-0.4-0.6-0.5-0.9c-0.1-0.1-1.6-3.2-3.2-4.4l0,0c-0.6-0.4-1.1-0.4-1.2-0.4c-0.2,0-2.8-0.6-8.1-0.6
	c-5.3,0-7.9,0.6-8.1,0.6c-0.1,0-0.7,0-1.2,0.4l0,0c-1.6,1.2-3.2,4.3-3.2,4.4c-0.2,0.3-0.4,0.7-0.5,0.9c0.1-0.2,0.1-0.6-0.1-1.2l0,0
	c0-0.2-0.1-0.4-0.3-0.6c-0.3-0.2-0.8-0.2-1.5,0l0,0c-1,0.3-1.5,0.8-1.4,1.4c0.1,0.8,1.4,0.9,2,0.9c0.1,0,0.1,0,0.2,0
	c0.1,0.1,0.2,0.3,0.2,0.4c-0.4,0.3-1.8,1.2-2.5,1.9C8.3,24,8.1,25.6,8.1,28c0,0,0,0,0,0c-0.2,0.9-0.3,2.5-0.3,4.8c0,0,0,4,1.3,4h3.4
	c0.2,0,0.3-0.1,0.5-0.2c0.3-0.3,0.4-1,0.4-1.3c0.3,0,1,0,1.4-0.1c1.4-0.1,10.5,0.2,10.6,0.2l0,0l0,0c0.1,0,9.3-0.3,10.6-0.2
	c0.4,0.2,1.1,0.1,1.4,0.1c0,0.3,0,1,0.4,1.3c0.1,0.1,0.3,0.2,0.5,0.2h3.4c1.3,0,1.3-4,1.3-4C43.2,30.5,43.1,28.9,42.9,28z
	 M16.4,15.5c3.3-0.6,5.6-0.2,9.1-0.4c3.6,0.1,5.8-0.2,9.1,0.4c0.8,0.4,2.5,3.8,2.9,4.9c-0.8-0.1-12-0.3-12-0.3s-11.2,0.2-12,0.3
	C13.8,19.3,15.6,15.9,16.4,15.5z M22,25.8c0,0,0.6,0,1.1,0.2c0.3,0.1,0.6,0.1,0.6,0.1h1.7h0h1.7c0,0,0.3,0,0.6-0.1
	c0.5-0.2,1.1-0.2,1.1-0.2s3.3-0.2,5.4-0.1c1.2,0.1,1.7,0.7,1.7,0.7s0.5,0.4,0.1,1c-0.2,0.2-1.1,1-2.1,1.1c-0.5,0.1-3.5,0.3-4.1,0.3
	c-0.6,0.1-1.2,0-1.7-0.3c-0.4-0.3-0.9-0.3-0.9-0.3h-1.8h0h-1.8c0,0-0.5,0-0.9,0.3C22.2,29,21.7,29,21,29c-0.6-0.1-3.6-0.3-4.1-0.3
	c-1-0.2-1.9-1-2.1-1.1c-0.4-0.6,0.1-1,0.1-1s0.5-0.6,1.7-0.7C18.7,25.6,22,25.8,22,25.8z M17,20.6h1.6c0,0,0.4-0.1,0.5,0.3
	c0.2,0.5,0.1,0.4-0.3,0.5c-1.7,0-1.9-0.1-2.1-0.4C16.4,20.6,17,20.6,17,20.6z M24.3,24.8c0-0.2,0.5-0.4,1.2-0.4s1.2,0.2,1.2,0.4
	s-0.5,0.4-1.2,0.4S24.3,25,24.3,24.8z M31.9,20.9c0.1-0.4,0.5-0.3,0.5-0.3H34c0,0,0.6,0,0.3,0.3c-0.2,0.3-0.5,0.4-2.1,0.4
	C31.8,21.3,31.8,21.4,31.9,20.9z M9.8,22.9c0,0,0.3-0.2,0.5-0.1c0.7,0.3,2.8,1.1,3.2,1.2c0.5,0.2,1.1,0.7,1.2,0.8
	c0.3,0.3,0.1,0.6,0.1,0.6s-0.2,0.3-0.6,0.3c-2.3,0-3.4,0.7-3.4,0.7s-0.2,0.2-0.5,0c-1-0.4-1-1.6-1-1.9C9.1,23.6,9.8,22.9,9.8,22.9z
	 M10.7,28c0.2,0.1,0.3,0.2,0.4,0.2c0.3,0.2,0.5,0.4,0.8,0.9c0.3,0.8,0,1.9,0,1.9s-0.2,0.9-0.4,1.4c-0.8,1.6-1.9,0.1-2-0.4
	c-0.1-0.6-0.1-3.5,0-3.7c0,0,0-0.1,0-0.1c0,0,0,0,0,0s0.1-0.6,0.9-0.6c2.1,0,3.3,0.7,3.3,0.7S11.6,27.9,10.7,28z M37,33
	c-2,0.8-4.7,0.8-4.7,0.8s-14,0-14.4,0c-0.4,0-3-0.4-3.7-0.7c-0.2-0.1-0.8-0.3,0.2-1.6c0.5-0.7,1.4-0.6,1.7-0.6c9.4,0.2,19,0,19,0
	s0.8-0.1,1.4,0.6C37.3,32.6,37.2,32.9,37,33z M41.5,32c-0.1,0.6-1.2,2-2,0.4c-0.2-0.5-0.4-1.4-0.4-1.4s-0.3-1.1,0-1.9
	c0.3-0.6,0.5-0.7,0.8-0.9c0,0,0.2-0.1,0.4-0.2c-0.9-0.1-3,0.4-3,0.4s1.3-0.8,3.3-0.7c0.8,0.1,0.9,0.6,0.9,0.6s0,0,0,0
	c0,0,0,0.1,0,0.1C41.6,28.5,41.6,31.4,41.5,32z M40.8,26.6c-0.3,0.2-0.5,0-0.5,0s-1.1-0.8-3.4-0.7c-0.4,0-0.6-0.3-0.6-0.3
	s-0.3-0.3,0.1-0.6c0.1-0.2,0.7-0.6,1.2-0.8c0.4-0.1,2.5-0.9,3.2-1.2c0.2-0.1,0.5,0.1,0.5,0.1s0.7,0.7,0.6,1.7
	C41.8,24.9,41.8,26.2,40.8,26.6z"/>
</svg>
