<svg version="1.1" id="Layer_1" xmlns="http://www.w3.org/2000/svg" xmlns:xlink="http://www.w3.org/1999/xlink" x="0px" y="0px"
	 viewBox="0 0 51 51" style="enable-background:new 0 0 51 51;" xml:space="preserve">
<g id="krug-car-2">
	<g>
		<path class="st0" d="M43.6,19.7c0-0.1,0-0.1-0.1-0.2c-0.2-0.3-0.4-0.5-0.7-0.6c-0.6-0.2-1.2-0.3-1.8-0.4c-0.1,0-0.2,0-0.3,0
			c-0.3,0-0.4,0.2-0.4,0.5c0,0.4,0,0.7,0,1.1c0,0.1,0,0.2,0,0.2c-0.1,0-0.3,0-0.4,0.1c-0.2,0-0.3,0-0.3-0.2
			c-0.1-0.2-0.2-0.4-0.3-0.7c-0.3-0.7-0.5-1.4-0.8-2.1c-0.5-1.1-1-2.2-1.7-3.2c-0.3-0.4-0.7-0.8-1.1-1c-0.2-0.1-0.2-0.2-0.3-0.4
			c-0.2-0.5-0.5-0.7-1-0.6c-0.1,0-0.3,0.1-0.4,0.1c-0.3,0.2-0.6,0.2-0.9,0.2c-0.2,0-0.4,0-0.6,0c-0.1,0-0.2,0-0.3-0.1
			c-0.1,0-0.3-0.1-0.4-0.1c-0.4,0-0.7,0-1.1,0c-0.7,0-1.5,0-2.2-0.1c-0.1,0-0.2,0-0.2,0c-0.2,0-0.3-0.1-0.5-0.1
			c-0.4,0-0.8,0-1.2,0.1c-0.6,0-1.3,0-1.9,0c-0.1,0-0.2,0-0.3,0c-0.4-0.1-0.8-0.1-1.2,0c-0.2,0.1-0.5,0.1-0.7,0.1
			c-0.6,0-1.2,0-1.8,0.1c-0.1,0-0.1,0-0.2,0c-0.4-0.1-0.7,0-1.1,0c-0.1,0-0.1,0-0.2,0.1c-0.1,0-0.3,0.1-0.4,0.1c-0.2,0-0.4,0-0.5,0
			c-0.4,0.1-0.7,0.1-1-0.2c0,0,0,0,0,0c-0.6-0.3-1.1-0.2-1.3,0.5c0,0.1-0.1,0.2-0.2,0.3c-0.4,0.2-0.7,0.5-1,0.8
			c-0.5,0.6-0.9,1.3-1.3,2c-0.6,1.2-1.1,2.4-1.5,3.7c-0.1,0.3-0.2,0.5-0.3,0.8c-0.2,0-0.4-0.1-0.7-0.1c0-0.1,0-0.2,0-0.3
			c0-0.3,0-0.7,0-1c0-0.3-0.1-0.4-0.4-0.4c-0.1,0-0.1,0-0.2,0c-0.5,0.1-0.9,0.1-1.3,0.2C8.6,18.8,8.3,18.9,8,19
			c-0.3,0.1-0.5,0.4-0.6,0.7c0.5,0,1,0.1,1.5,0.1c0,0.2-0.1,0.3-0.3,0.3c-0.2,0-0.5,0-0.7,0c-0.2,0-0.4,0-0.6,0
			c0,0.4,0.2,0.6,0.5,0.8c0.4,0.2,0.8,0.3,1.2,0.3c0.6,0,1.2,0,1.8,0c0.1,0,0.2,0,0.3,0c-0.2,0.3-0.3,0.5-0.4,0.8
			c-0.4,0.8-0.9,1.6-1.6,2.3c-0.2,0.2-0.3,0.4-0.5,0.6c-0.4,0.5-0.3,1.1-0.4,1.7l0,0.5c0,0.4,0,0.9-0.1,1.3c0,2.1,0,4.2,0.2,6.3
			c0.1,0.6,0.2,1.2,0.3,1.7c0.1,0.3,0.2,0.5,0.5,0.6v1.5c0,0.2,0.2,0.4,0.4,0.4h5.4c0.2,0,0.4-0.2,0.4-0.4v-1.2c0.2,0,0.4,0,0.6,0
			c0.1,0,0.2,0,0.2,0c0.2-0.1,0.4-0.1,0.6-0.1c0.5,0,1,0,1.5,0c0.1,0,0.2,0,0.3,0.1c0.3,0.1,0.6,0.1,0.9,0c0.2-0.1,0.4-0.1,0.6-0.1
			c0.5,0,1,0,1.4,0c0.1,0,0.2,0,0.3,0c0.4,0.2,0.8,0.2,1.1,0c0.1,0,0.1,0,0.2,0c0.6,0,1.1,0,1.7,0c0.1,0,0.2,0,0.3,0.1
			c0.3,0.2,0.7,0.1,1,0c0.2-0.1,0.4-0.1,0.5-0.1c0.5,0,1,0,1.4,0c0.1,0,0.2,0,0.3,0.1c0.3,0.2,0.6,0.1,1,0.1c0.2,0,0.4-0.1,0.6-0.1
			c0.5,0,0.9,0,1.4,0c0.2,0,0.3,0,0.5,0.1c0.3,0.1,0.6,0.1,0.8,0c0.2-0.1,0.4-0.1,0.6-0.1c0.4,0,0.8,0,1.2,0c0.3,0,0.5,0,0.8,0.1
			c0.1,0,0.1,0,0.2,0c0.2,0,0.3,0,0.5,0v1.2c0,0.2,0.2,0.4,0.4,0.4h5.4c0.2,0,0.4-0.2,0.4-0.4v-1.4c0.3-0.1,0.5-0.3,0.6-0.6
			c0.1-0.3,0.2-0.6,0.2-0.9c0.1-0.9,0.2-1.7,0.2-2.6c0.1-1.9,0.1-3.9,0-5.8l0-0.6c0-0.2,0-0.4,0-0.6c0-0.5-0.1-0.9-0.4-1.3
			c-0.1-0.2-0.3-0.4-0.5-0.6c-0.9-0.8-1.4-1.9-1.9-2.9c0,0,0,0,0-0.1c0.1,0,0.2,0,0.3,0c0.6,0,1.1,0,1.7,0c0.4,0,0.8-0.1,1.2-0.3
			c0.3-0.2,0.5-0.4,0.4-0.8C43.7,20,43.7,19.8,43.6,19.7z M12.7,19.5c0.1-0.5,0.3-1,0.4-1.5c0.4-1.2,0.9-2.3,1.5-3.4
			c0.1-0.2,0.3-0.4,0.5-0.6c0.1-0.1,1.1-0.2,1.2-0.2c1.5-0.1,3.1-0.2,4.6-0.3c0.2,0,0.4,0,0.7,0c0.3,0,0.5,0,0.8,0
			c2.1,0,4.2,0,6.3,0c0.1,0,0.1,0,0.2,0c1.3-0.2,2.5,0,3.8,0.1c0.7,0,1.3,0.1,2,0.1c0.1,0,0.9,0.1,1.1,0.2c0.2,0.1,0.4,0.3,0.5,0.5
			c0.9,1.6,1.6,3.2,2,4.9c0,0,0,0.1,0,0.1c0,0.3,0,0.5-0.3,0.5c-0.3,0.1-0.5,0.1-0.8,0.1c-0.8,0.1-1.7,0.1-2.5,0.2
			c-0.2,0-0.4,0-0.9,0.1c-5.5,0.1-11,0.1-16.5,0c-0.2,0-0.7,0-0.9-0.1c-1-0.1-2-0.2-2.9-0.2c-0.1,0-0.2,0-0.3-0.1
			C12.7,20,12.6,19.8,12.7,19.5z M27.1,26.6c0.3,0,0.6-0.2,0.8-0.3c0.3-0.2,0.6-0.2,1-0.2c1.8,0,3.6,0,5.4,0c0.3,0,0.5,0,0.8,0.1
			c0.4,0.1,0.7,0.4,0.7,0.8c0.1,0.8-0.1,1.6-0.4,2.3c-0.2,0.4-0.5,0.6-0.9,0.7c-1.3,0.2-2.5,0.4-3.8,0.6c-0.5,0.1-1,0.2-1.4,0.2
			c-0.2,0-0.3,0-0.5,0c-0.3-0.1-0.5-0.5-0.8-0.6c-0.2-0.1-0.4-0.1-0.6-0.1c-1.2,0-2.5,0-3.7,0c-0.2,0-0.5,0.1-0.7,0.1
			c-1,0.4-1,0.7-2.1,0.5c-1.2-0.2-2.4-0.4-3.6-0.5c-0.3,0-0.5-0.1-0.8-0.1c-0.4-0.1-0.8-0.3-0.9-0.7c-0.3-0.7-0.4-1.4-0.4-2.2
			c0-0.6,0.4-0.9,0.8-0.9c0.2,0,0.4-0.1,0.6-0.1c0.9,0,1.8,0,2.8,0c0,0,0,0,0,0c0.9,0,1.9,0,2.8,0c0.2,0,0.4,0,0.6,0.1
			c0.4,0.2,0.8,0.4,1.3,0.4C25.1,26.6,26.1,26.6,27.1,26.6z M24.2,25.4c0-0.2,0.2-0.3,0.4-0.4c0.6-0.3,1.3-0.3,1.9,0
			c0.1,0,0.1,0.1,0.2,0.1c0.2,0.2,0.2,0.3,0,0.5c-0.2,0.2-0.5,0.2-0.7,0.3c-0.1,0-0.4,0-0.4,0s-0.5,0-0.9-0.2
			C24.4,25.7,24.2,25.6,24.2,25.4z M10.7,22.3c0.2-0.3,0.4-0.6,0.6-0.9c0.1-0.2,0.3-0.2,0.4-0.1c0.2,0.1,0.3,0.3,0.5,0.5
			c0.3,0.3,0.6,0.6,1,0.8c0.4,0.2,0.9,0.4,1.3,0.6c0.4,0.2,0.8,0.4,1.2,0.6c0.3,0.2,0.6,0.4,0.7,0.8c0.2,0.5,0.1,0.7-0.4,0.9
			c0,0-0.1,0-0.1,0c-0.7,0.2-1.3,0.2-2,0.2c-0.8,0-1.6-0.2-2.4-0.4c-0.4-0.1-0.8-0.2-1-0.7l0-0.4c0-0.4,0-0.8,0-1.1
			C10.5,22.7,10.6,22.5,10.7,22.3z M10.5,28.7c0.5,0,1,0,1.5,0c0.4,0,0.7,0.2,0.9,0.5c0.4,0.8,0.6,1.6,0.3,2.4
			c-0.2,0.7-0.5,1.4-0.7,2.1c-0.1,0.4-0.4,0.6-0.8,0.6c-0.3,0-0.7,0-1-0.1c-0.2,0-0.8-0.1-0.9-0.5c-0.1-0.3-0.1-0.6-0.1-1
			c0-1,0-2,0-3C9.5,29.1,9.9,28.7,10.5,28.7z M14.3,36.2c0.3-0.5,0.5-1,0.8-1.3c0.4-0.5,0.8-0.7,1.5-0.7c2.5,0,4.9,0,7.4,0
			c3.2,0,6.4,0,9.7,0c0.2,0,0.5,0,0.7,0c0.6,0,1.1,0.2,1.4,0.6c0.4,0.4,0.6,0.9,0.9,1.4C29.2,36.2,21.8,36.2,14.3,36.2z M41.5,29.4
			c0,0.1,0,0.2,0,0.3c0,1,0,2,0,3c0,0.4-0.1,0.9-0.2,1.3c-0.3,0.4-1.3,0.3-1.8,0.3c-0.4,0-0.6-0.2-0.8-0.5c-0.3-0.8-0.6-1.6-0.8-2.4
			c-0.2-0.8,0-1.6,0.5-2.3c0.1-0.2,0.4-0.3,0.7-0.4c0.6-0.1,1.1-0.1,1.7,0C41.2,28.7,41.4,29.1,41.5,29.4z M40.3,22.2
			c0.1,0.2,0.2,0.5,0.2,0.8c0,0.3,0,0.7,0,1l0,0.4c-0.4,0.5-0.4,0.5-1,0.7c-0.9,0.2-1.7,0.3-2.6,0.4c-0.7,0-1.4,0-2.1-0.2
			c-0.4-0.1-0.4-0.3-0.4-0.7c0-0.1,0.1-0.2,0.1-0.2c0.2-0.3,0.4-0.6,0.7-0.8c0.4-0.2,0.8-0.4,1.3-0.6c0.5-0.2,1-0.4,1.5-0.7
			c0.2-0.1,0.4-0.3,0.6-0.4c0.2-0.2,0.5-0.4,0.7-0.7c0.2-0.2,0.3-0.2,0.4,0C40,21.7,40.1,21.9,40.3,22.2z"/>
	</g>
</g>
</svg>
