<?xml version="1.0" encoding="utf-8"?>
<!-- Generator: Adobe Illustrator 24.2.0, SVG Export Plug-In . SVG Version: 6.00 Build 0)  -->
<svg version="1.1" id="Layer_1" xmlns="http://www.w3.org/2000/svg" xmlns:xlink="http://www.w3.org/1999/xlink" x="0px" y="0px"
	 viewBox="0 0 52 52" style="enable-background:new 0 0 52 52;" xml:space="preserve">
<style type="text/css">
	.st0{fill:#34A853;}
	.st1{fill:#1A73E8;}
	.st2{fill:#EA4335;}
	.st3{fill:#FBBC04;}
	.st4{fill:#4285F4;}
	.st5{fill:#FFFFFF;}
	.st6{fill-rule:evenodd;clip-rule:evenodd;fill:#34A853;}
</style>
<g>
	<g>
		<path class="st0" d="M26,0C11.6,0,0,11.6,0,26c0,14.4,11.6,26,26,26s26-11.6,26-26C52,11.6,40.4,0,26,0z M31.7,18.2
			c-0.3,4.4-1.8,9.4-1.8,9.4c-0.7,0-4.5-0.1-6-0.2c-1.5-0.1-2.1,2.2-2.9-0.4c-0.8-2.6-2.2-3.8-1.2-6.8c1-3-2.4-4.2,2.5-4.5
			s3.9-0.8,6.6,0.2S32,13.8,31.7,18.2z"/>
		<g>
			<path class="st1" d="M37.5,2.7L37.5,2.7c-0.3-0.2-0.7-0.3-1-0.5C36.9,2.4,37.2,2.6,37.5,2.7z"/>
			<path class="st1" d="M26,0C19.1,0,12.8,2.7,8.2,7.1l14,11.9L36.3,2.1C33.1,0.8,29.7,0,26,0z"/>
		</g>
		<g>
			<path class="st2" d="M9.2,6.2L9.2,6.2C9.2,6.2,9.2,6.2,9.2,6.2C9.2,6.2,9.2,6.2,9.2,6.2z"/>
			<path class="st2" d="M8.5,6.8C3.3,11.5,0,18.4,0,26c0,5.3,1.6,10.1,4.2,14.2l18-21.3L8.2,7.1C8.3,7,8.4,6.9,8.5,6.8z"/>
		</g>
		<path class="st3" d="M23.3,30c-0.3,0-4-4.2-5.5-5.8L4.3,40.2c1.6,2.4,3.6,4.6,5.8,6.3l14.1-16.8C23.7,29.9,23.4,30,23.3,30z"/>
		<path class="st4" d="M27.3,16c1.5,0.6,1.9,0.8,2.6,1.8c0.4,0.7,0.6,3,0.7,4.4l13-15.4c-2.1-2-4.6-3.6-7.3-4.8L24.8,15.8
			C25.7,15.7,26.3,15.6,27.3,16z"/>
	</g>
	<g>
		<path class="st5" d="M35.4,16.5c-1.4-2.7-3.7-4.6-6.5-5.5 M28.9,11L28.9,11c0,0-1.5-0.5-3.4-0.5c-3.9,0-6.7,1.9-8.3,3.8l0,0
			c0,0-0.1,0.1-0.2,0.2c0,0,0,0,0,0v0c0,0,0,0,0,0c-0.1,0.2-0.3,0.4-0.4,0.5c0,0,0,0,0,0c-1.3,1.7-2.2,4-2.2,6.7c0,3,1,5.1,1.1,5.2
			c0,0,0,0,0,0l0,0c1.2,2.7,3.5,5.1,5.1,7.2l0,0l0,0l0,0c0,0,0,0,0,0c1,1.2,2,2.8,2.5,3.7c0.6,1.2,0.9,2,1.4,3.5
			c0.3,0.8,0.5,1.1,1.1,1.1c0.6,0,0.9-0.4,1.1-1.1c0.4-1.4,0.8-2.4,1.3-3.4c2.1-4,5.5-6.8,7.5-10.6c0,0,1.3-2.4,1.3-5.7
			c0-3.1-1.3-5.2-1.3-5.2 M28.9,24.3L28.9,24.3c-0.1,0.1-0.2,0.2-0.2,0.3l0.1-0.1c-0.1,0.1-0.2,0.2-0.4,0.3L28,25.1
			c-0.6,0.4-1.4,0.8-2.5,0.8c-2.4,0-4.3-1.9-4.3-4.2c0-1.1,0.4-1.9,0.7-2.4l0.3-0.3l0,0c0,0,0,0,0,0c0,0,0,0,0,0l-0.1-0.1
			c0.1,0,0.1,0.1,0.2,0.1l0,0c0,0,0,0,0,0c0,0,1.2-1.5,3.3-1.5c2.2,0,4.2,1.8,4.2,4.2C29.7,23,29.1,24,28.9,24.3z"/>
		<path class="st5" d="M20.5,34.2L20.5,34.2C20.5,34.2,20.5,34.2,20.5,34.2L20.5,34.2z"/>
		<polygon class="st5" points="28.9,11 28.9,11 28.9,11 		"/>
	</g>
	<path class="st6" d="M25.5,26c2.3,0,4.3-1.9,4.3-4.3c0-2.3-1.9-4.3-4.3-4.3c-2.3,0-4.3,1.9-4.3,4.3S23.1,26,25.5,26L25.5,26z"/>
</g>
</svg>
