<?xml version="1.0" encoding="utf-8"?>
<!-- Generator: Adobe Illustrator 24.2.0, SVG Export Plug-In . SVG Version: 6.00 Build 0)  -->
<svg version="1.1" id="Layer_1" xmlns="http://www.w3.org/2000/svg" xmlns:xlink="http://www.w3.org/1999/xlink" x="0px" y="0px"
	 viewBox="0 0 42.8 62" style="enable-background:new 0 0 42.8 62;" xml:space="preserve">
<style type="text/css">
	.st0{fill:#E4E3E5;}
	.st1{fill:#000000;}
	.st2{fill:#FFFFFF;}
	.st3{fill:#000000;}
</style>
<path class="st0" d="M35,58.3c0,2-6.2,3.6-13.8,3.6S7.5,60.3,7.5,58.3s6.2-3.6,13.8-3.6S35,56.3,35,58.3z"/>
<path class="st1" d="M21.4,0C9.6,0,0,9.6,0,21.4c0,12.6,21.4,37.1,21.4,37.1S42.8,35,42.8,21.4C42.8,9.6,33.2,0,21.4,0z M21.4,33.7
	c-7.3,0-13.2-5.9-13.2-13.2S14.1,7.4,21.4,7.4s13.2,5.9,13.2,13.2v0C34.6,27.8,28.7,33.7,21.4,33.7z"/>
<circle class="st2" cx="21.4" cy="21.5" r="16.7"/>
<path class="st3" d="M29.6,17.4c-2.6-1.2-5.3-1.7-8.1-1.7c-2.8-0.1-5.6,0.5-8.1,1.7c-2.2,1.1-3.4,2.5-3.4,4.1s1.2,3,3.4,4.1
	c2.6,1.2,5.3,1.7,8.1,1.7c2.8,0.1,5.6-0.5,8.1-1.7c2.2-1.1,3.4-2.5,3.4-4.1S31.8,18.5,29.6,17.4 M31.6,21.5c0,2.8-4.6,5.1-10.2,5.1
	s-10.2-2.3-10.2-5.1s4.6-5.1,10.2-5.1S31.6,18.8,31.6,21.5"/>
<path class="st3" d="M22.2,18.6h-1.9l0,0v0.3l0,0h0.2c0.1,0,0.1,0.1,0.1,0.1v0v5.3c0,0.1,0.1,0.1,0.1,0.1h1.4c0.1,0,0.1-0.1,0.1-0.1
	v-5.6C22.3,18.6,22.2,18.6,22.2,18.6C22.2,18.6,22.2,18.6,22.2,18.6z"/>
<path class="st3" d="M29,24.3l-1.9-5.6c0-0.1-0.1-0.1-0.2-0.1h-2.1l0,0v0.3l0,0H25c0.1,0,0.1,0,0.1,0.1c0,0,0,0,0,0c0,0,0,0,0,0.1
	l-1.8,5.2c0,0,0,0.1,0,0.1c0,0,0.1,0,0.1,0h1.4c0.1,0,0.1-0.1,0.2-0.1l1.2-3.6c0,0,0,0,0,0s0.1,0,0.1,0l1.2,3.6
	c0,0.1,0.1,0.1,0.2,0.1H29C29,24.4,29,24.4,29,24.3C29,24.4,29,24.3,29,24.3z"/>
<path class="st3" d="M19.5,24.3l-2-2.9c0,0,0,0,0-0.1c0,0,0,0,0-0.1l0,0l1.7-2.5c0,0,0-0.1,0-0.1c0,0-0.1-0.1-0.1-0.1h-1.5
	c-0.1,0-0.2,0.1-0.2,0.1L16,20.6c0,0-0.1,0.1-0.1,0.1l0,0c0,0-0.1,0-0.1-0.1v-1.9c0-0.1-0.1-0.1-0.1-0.1h0H14l0,0v0.3l0,0h0.2
	c0.1,0,0.1,0.1,0.1,0.1l0,0v5.3c0,0.1,0,0.1,0.1,0.1c0,0,0,0,0,0h1.4c0.1,0,0.1-0.1,0.1-0.1c0,0,0,0,0,0v-2.2c0,0,0-0.1,0.1-0.1
	c0,0,0,0,0,0c0,0,0.1,0,0.1,0.1l0,0l1.6,2.2c0.1,0.1,0.1,0.1,0.2,0.1h1.6c0,0,0.1,0,0.1-0.1C19.6,24.4,19.5,24.3,19.5,24.3z"/>
</svg>
