<svg width="28" height="34" viewBox="0 0 28 34" fill="none" xmlns="http://www.w3.org/2000/svg">
<path d="M23.8875 4.15604C18.4188 -1.37062 9.5813 -1.37062 4.11255 4.15604C-1.3562 9.6827 -1.3562 18.658 4.11255 24.1404L13.65 33.7789C13.65 33.8231 13.6938 33.8231 13.6938 33.8674C13.8688 34.0442 14.1313 34.0442 14.3063 33.8674L23.9313 24.1404C29.3563 18.6138 29.3563 9.6827 23.8875 4.15604ZM14.1313 20.3381C10.675 20.3381 7.87505 17.5084 7.87505 14.0156C7.87505 10.5228 10.675 7.6931 14.1313 7.6931C17.5875 7.6931 20.3875 10.5228 20.3875 14.0156C20.4313 17.5084 17.5875 20.3381 14.1313 20.3381Z" fill="#05141F"/>
</svg>
