<svg width="300" height="300" viewBox="0 0 300 300" fill="none" xmlns="http://www.w3.org/2000/svg"><path d="M149.5 217.553C167.282 217.553 184.339 210.49 196.914 197.913C209.49 185.339 216.554 168.282 216.554 150.5C216.554 132.715 209.49 115.659 196.914 103.086C184.339 90.5095 167.282 83.4459 149.5 83.4459C131.716 83.4459 114.659 90.5095 102.086 103.086C89.5098 115.661 82.4463 132.717 82.4463 150.5C82.4463 168.282 89.5116 185.339 102.086 197.913C114.661 210.49 131.717 217.553 149.5 217.553ZM110.121 111.122C122.363 98.8783 139.603 93.0257 156.768 95.2847C173.934 97.5441 189.073 107.66 197.729 122.653C206.386 137.647 207.577 155.816 200.953 171.812C194.326 187.808 180.638 199.813 163.914 204.293C147.191 208.775 129.334 205.224 115.598 194.683C101.862 184.144 93.8097 167.815 93.8097 150.501C93.7868 135.727 99.6574 121.554 110.12 111.123L110.121 111.122Z" /><path d="M50.7294 170.14C51.0202 171.622 51.8926 172.926 53.1509 173.761L68.5508 184.025L64.9273 202.178H64.9291C64.633 203.658 64.9379 205.197 65.7786 206.452C66.6175 207.706 67.9216 208.575 69.4038 208.866L87.5599 212.44L91.134 230.595C91.4266 232.077 92.2954 233.381 93.5503 234.22C94.8051 235.06 96.3419 235.365 97.8223 235.071L115.972 231.448L126.238 246.847C127.075 248.104 128.379 248.975 129.859 249.269C131.341 249.563 132.88 249.255 134.133 248.414L149.5 238.099L164.866 248.414H164.864C166.119 249.255 167.656 249.563 169.138 249.269C170.618 248.975 171.923 248.104 172.76 246.847L183.024 231.448L201.176 235.071C202.657 235.365 204.195 235.06 205.45 234.22C206.705 233.381 207.574 232.077 207.865 230.595L211.439 212.438L229.593 208.864C231.075 208.572 232.379 207.703 233.218 206.448C234.059 205.193 234.364 203.656 234.07 202.176L230.446 184.027L245.846 173.761C247.103 172.924 247.973 171.619 248.267 170.139C248.562 168.657 248.253 167.12 247.413 165.865L237.098 150.499L247.413 135.132V135.134C248.253 133.881 248.562 132.342 248.267 130.86C247.973 129.38 247.103 128.076 245.846 127.239L230.446 116.973L234.07 98.822C234.364 97.3416 234.059 95.8048 233.218 94.5499C232.379 93.2951 231.075 92.4245 229.593 92.1337L211.437 88.5595L207.863 70.4053C207.572 68.9231 206.701 67.6189 205.447 66.78C204.192 65.9393 202.655 65.6344 201.175 65.9305L183.025 69.554L172.759 54.1541V54.1524C171.922 52.8958 170.618 52.0252 169.138 51.7308C167.655 51.4365 166.119 51.745 164.864 52.5874L149.499 62.9025L134.133 52.5874C132.88 51.7449 131.341 51.4365 129.859 51.7308C128.378 52.0252 127.074 52.8958 126.237 54.1524L115.971 69.5522L97.8206 65.9288V65.9305C96.3402 65.6345 94.8033 65.9394 93.5485 66.78C92.2937 67.6189 91.4231 68.9231 91.1322 70.4053L87.5581 88.5613L69.4039 92.1355C67.9217 92.428 66.6175 93.2969 65.7786 94.5517C64.9379 95.8065 64.633 97.3433 64.9291 98.8238L68.5526 116.973L53.1527 127.239H53.151C51.8944 128.076 51.0238 129.38 50.7294 130.861C50.4351 132.343 50.7435 133.881 51.586 135.135L61.9011 150.499L51.586 165.866C50.74 167.119 50.4315 168.657 50.7294 170.14ZM73.4626 147.332L64.1978 133.533L78.0203 124.321H78.0221C79.9361 123.043 80.8913 120.738 80.4419 118.48L77.1903 102.187L93.4961 98.9778L93.4943 98.9761C95.7555 98.5267 97.5232 96.759 97.9726 94.4996L101.184 78.192L117.479 81.4453V81.4436C119.736 81.893 122.041 80.9378 123.319 79.0238L132.533 65.2013L146.332 74.4661L146.331 74.4643C148.246 75.7562 150.753 75.7562 152.666 74.4643L166.466 65.1995L175.678 79.0239C176.958 80.9378 179.263 81.893 181.518 81.4436L197.812 78.1903L201.023 94.4961C201.472 96.7572 203.24 98.5249 205.499 98.9743L221.807 102.185L218.555 118.48C218.106 120.738 219.063 123.043 220.975 124.321L234.798 133.535L225.535 147.334V147.332C224.243 149.248 224.243 151.754 225.535 153.668L234.798 167.468L220.975 176.68C219.061 177.959 218.106 180.264 218.555 182.52L221.809 198.813L205.503 202.024C203.242 202.474 201.474 204.242 201.025 206.501L197.813 222.81L181.518 219.557C179.261 219.107 176.956 220.062 175.678 221.976L166.464 235.799L152.665 226.536H152.666C150.752 225.244 148.246 225.244 146.331 226.536L132.531 235.799L123.317 221.976H123.319C122.041 220.062 119.736 219.107 117.479 219.557L101.185 222.81L97.9761 206.504H97.9743C97.5249 204.243 95.7572 202.475 93.4978 202.026L77.1902 198.815L80.4418 182.52C80.8912 180.264 79.936 177.959 78.0221 176.679L64.1995 167.466L73.4643 153.666L73.4626 153.668C74.7544 151.754 74.7544 149.248 73.4626 147.332Z" /><path d="M126.161 173.839C128.38 176.06 131.977 176.06 134.197 173.839L172.839 135.197L172.837 135.199C175.058 132.978 175.058 129.381 172.837 127.163C170.618 124.942 167.021 124.942 164.801 127.163L126.159 165.805L126.161 165.803C123.942 168.023 123.942 171.621 126.161 173.839Z" /><path d="M131.318 147.089C135.911 147.089 140.242 144.953 143.039 141.309C145.834 137.664 146.777 132.927 145.588 128.491C144.4 124.053 141.215 120.423 136.971 118.664C132.727 116.907 127.907 117.222 123.93 119.519C119.952 121.815 117.268 125.832 116.668 130.386C116.069 134.94 117.622 139.515 120.87 142.761C123.639 145.535 127.398 147.092 131.317 147.09L131.318 147.089ZM128.907 129.904C130.056 128.753 131.859 128.577 133.211 129.481C134.562 130.383 135.088 132.118 134.465 133.619C133.843 135.121 132.245 135.974 130.652 135.656C129.057 135.339 127.908 133.94 127.908 132.315C127.904 131.409 128.264 130.54 128.907 129.904Z" /><path d="M157.238 158.238C153.99 161.486 152.437 166.059 153.036 170.613C153.635 175.167 156.319 179.184 160.297 181.48C164.275 183.777 169.095 184.092 173.339 182.335C177.583 180.576 180.767 176.946 181.955 172.508C183.145 168.072 182.202 163.335 179.407 159.69C176.61 156.046 172.278 153.91 167.685 153.91C163.766 153.908 160.007 155.464 157.238 158.238L157.238 158.238ZM171.094 168.685C171.094 170.312 169.945 171.713 168.35 172.03C166.755 172.347 165.156 171.494 164.532 169.991C163.91 168.488 164.435 166.753 165.789 165.849C167.142 164.945 168.945 165.123 170.094 166.274C170.738 166.91 171.097 167.779 171.094 168.685Z" /><circle cx="150" cy="150" r="149" stroke-width="2"/></svg>