<svg width="300" height="300" viewBox="0 0 300 300" fill="none" xmlns="http://www.w3.org/2000/svg"><path d="M211.2 78.6C211.2 67.3481 202.052 58.2 190.8 58.2H170.4C167.595 58.2 165.396 60.5587 164.471 63.2044C162.4 69.1969 156.694 73.5 150 73.5C143.306 73.5 137.601 69.1969 135.529 63.2044C134.605 60.5587 132.405 58.2 129.6 58.2H109.2C97.9483 58.2 88.8002 67.3481 88.8002 78.6V221.4C88.8002 232.652 97.9483 241.8 109.2 241.8H129.6C132.405 241.8 134.605 239.441 135.529 236.796C137.601 230.803 143.306 226.5 150 226.5C156.694 226.5 162.4 230.803 164.471 236.796C165.396 239.441 167.595 241.8 170.4 241.8H190.8C202.052 241.8 211.2 232.652 211.2 221.4V78.6ZM124.5 190.8H175.5V109.2H124.5V190.8ZM180.6 93.9C186.242 93.9 190.8 98.4581 190.8 104.1V195.9C190.8 201.542 186.242 206.1 180.6 206.1H119.4C113.758 206.1 109.2 201.542 109.2 195.9V104.1C109.2 98.4581 113.758 93.9 119.4 93.9H180.6Z" /><circle cx="150" cy="150" r="149" stroke-width="2"/></svg>