<svg version="1.1" id="Layer_1" xmlns="http://www.w3.org/2000/svg" xmlns:xlink="http://www.w3.org/1999/xlink" x="0px" y="0px"
	 viewBox="0 0 51 51" style="enable-background:new 0 0 51 51;" xml:space="preserve">
<g>
	<path class="st0" d="M32.4,25c0-2.2-1.1-4.4-2.9-5.6l-0.8-0.5V25c0,0.1-0.1,0.3-0.2,0.3l-2.7,1.8c-0.1,0.1-0.3,0.1-0.5,0l-2.7-1.8
		c-0.1-0.1-0.2-0.2-0.2-0.3v-6.2l-0.8,0.5c-1.8,1.3-2.9,3.4-2.9,5.6c0,3,1.9,5.5,4.5,6.5V41h4.6v-9.6C30.5,30.5,32.4,28,32.4,25z"/>
	<path class="st0" d="M40.5,27.7v-5.5c0-0.2-0.1-0.4-0.3-0.4l-3.1-0.8L37,20.9c-0.1-0.4-0.3-0.7-0.4-1.1l-0.1-0.2l1.6-2.7
		c0.1-0.2,0.1-0.4-0.1-0.5l-3.9-3.9c-0.1-0.1-0.3-0.2-0.5-0.1l-2.7,1.6l-0.2-0.1c-0.4-0.2-0.7-0.3-1.1-0.4l-0.3-0.1l-0.8-3.1
		c0-0.2-0.2-0.3-0.4-0.3h-5.5c-0.2,0-0.4,0.1-0.4,0.3l-0.8,3.1l-0.3,0.1c-0.4,0.1-0.7,0.3-1.1,0.4l-0.2,0.1l-2.7-1.6
		c-0.2-0.1-0.4-0.1-0.5,0.1L13,16.4c-0.1,0.1-0.2,0.3-0.1,0.5l1.6,2.7l-0.1,0.2c-0.2,0.4-0.3,0.7-0.4,1.1l-0.1,0.3l-3.1,0.8
		c-0.2,0-0.3,0.2-0.3,0.4v5.5c0,0.2,0.1,0.4,0.3,0.4l3.1,0.8l0.1,0.3c0.1,0.4,0.3,0.7,0.4,1.1l0.1,0.2l-1.6,2.7
		c-0.1,0.2-0.1,0.4,0.1,0.5l3.9,3.9c0.1,0.1,0.3,0.2,0.5,0.1l2.7-1.6l0.2,0.1c0.4,0.2,0.7,0.3,1.1,0.4l0,0v-3.9
		c-2.8-1.5-4.5-4.4-4.5-7.6c0-1.8,0.5-3.5,1.5-4.9c1-1.4,2.3-2.5,3.9-3.1c0.4-0.2,0.9-0.1,1.3,0.1c0.4,0.3,0.6,0.7,0.6,1.2v6
		l1.3,0.9l1.3-0.9v-6c0-0.5,0.2-0.9,0.6-1.2c0.4-0.3,0.9-0.3,1.3-0.1c1.6,0.6,2.9,1.7,3.9,3.1c1,1.4,1.5,3.1,1.5,4.9
		c0,3.2-1.7,6.1-4.5,7.6v3.9l0,0c0.4-0.1,0.7-0.3,1.1-0.4l0.2-0.1l2.7,1.6c0.2,0.1,0.4,0.1,0.5-0.1l3.9-3.9c0.1-0.1,0.2-0.3,0.1-0.5
		l-1.6-2.7l0.1-0.2c0.2-0.4,0.3-0.7,0.4-1.1l0.1-0.3l3.1-0.8C40.4,28.1,40.5,27.9,40.5,27.7z"/>
</g>
</svg>
