<?xml version="1.0" encoding="utf-8"?>
<!-- Generator: Adobe Illustrator 24.2.0, SVG Export Plug-In . SVG Version: 6.00 Build 0)  -->
<svg version="1.1" id="Layer_1" xmlns="http://www.w3.org/2000/svg" xmlns:xlink="http://www.w3.org/1999/xlink" x="0px" y="0px"
	 viewBox="0 0 52 52" style="enable-background:new 0 0 52 52;" xml:space="preserve">
<style type="text/css">
	.st0{fill:#FF4433;}
	.st1{fill-rule:evenodd;clip-rule:evenodd;fill:#FF4433;}
</style>
<g>
	<path class="st0" d="M26,1c13.8,0,25,11.2,25,25S39.8,51,26,51S1,39.8,1,26S12.2,1,26,1 M26,0C11.6,0,0,11.6,0,26s11.6,26,26,26
		s26-11.6,26-26S40.4,0,26,0L26,0z"/>
	<path class="st1" d="M26,10.5c-7.1,0-12.8,5.7-12.8,12.8c0,3.4,1.3,6.6,3.7,9c2.3,2.3,7.8,5.7,8.1,9.2c0,0.5,0.4,1,1,1
		c0.5,0,0.9-0.4,1-1c0.3-3.5,5.8-6.9,8.1-9.2c2.4-2.4,3.8-5.7,3.8-9.1C38.8,16.2,33.1,10.5,26,10.5z M26,27.8L26,27.8
		c-2.5,0-4.5-2-4.5-4.5c0-2.5,2-4.5,4.5-4.5c2.5,0,4.5,2,4.5,4.5C30.5,25.8,28.5,27.8,26,27.8z"/>
</g>
</svg>
