<svg width="43" height="62" viewBox="0 0 43 62" fill="none" xmlns="http://www.w3.org/2000/svg">
<g clip-path="url(#clip0_301_12)">
<path opacity="0.2" d="M35 58.4C35 60.4 28.8 62 21.2 62C13.6 62 7.39999 60.4 7.39999 58.4C7.39999 56.4 13.6 54.8 21.2 54.8C28.8 54.7 35 56.4 35 58.4Z" fill="#05141F"/>
<path d="M21.4 0C9.6 0 0 9.6 0 21.4C0 34 21.4 58.5 21.4 58.5C21.4 58.5 42.8 35 42.8 21.4C42.8 9.6 33.2 0 21.4 0ZM21.4 33.7C14.1 33.7 8.2 27.8 8.2 20.5C8.2 13.2 14.1 7.3 21.4 7.3C28.7 7.3 34.6 13.2 34.6 20.5C34.6 27.8 28.7 33.7 21.4 33.7Z" fill="#010101"/>
<path d="M21.7 38.4C30.9232 38.4 38.4 30.9232 38.4 21.7C38.4 12.4768 30.9232 5 21.7 5C12.4768 5 5 12.4768 5 21.7C5 30.9232 12.4768 38.4 21.7 38.4Z" fill="white"/>
<path d="M21.2208 26.8313C18.121 26.8313 15.6103 24.3206 15.6103 21.2208C15.6103 18.1213 18.121 15.6105 21.2208 15.6105C24.3207 15.6105 26.8314 18.1213 26.8314 21.2208C26.8314 24.3206 24.3207 26.8313 21.2208 26.8313ZM21.2208 10C15.025 10 10 15.0249 10 21.2208C10 27.4169 15.025 32.4419 21.2208 32.4419C27.4167 32.4419 32.4416 27.4169 32.4416 21.2208C32.4416 15.0249 27.4167 10 21.2208 10Z" fill="#EE7221"/>
</g>
<defs>
<clipPath id="clip0_301_12">
<rect width="42.8" height="62" fill="white"/>
</clipPath>
</defs>
</svg>
