<?xml version="1.0" encoding="UTF-8"?>
<!DOCTYPE svg PUBLIC "-//W3C//DTD SVG 1.1//EN" "http://www.w3.org/Graphics/SVG/1.1/DTD/svg11.dtd">
<!-- Creator: CorelDRAW 2018 (64-Bit Оценочная версия) -->
<svg xmlns="http://www.w3.org/2000/svg" xml:space="preserve" width="165mm" height="24mm" version="1.1" style="shape-rendering:geometricPrecision; text-rendering:geometricPrecision; image-rendering:optimizeQuality; fill-rule:evenodd; clip-rule:evenodd"
viewBox="0 0 16500 2400"
 xmlns:xlink="http://www.w3.org/1999/xlink">
 <defs>
  <style type="text/css">
   <![CDATA[
    .fil0 {fill:#010101;fill-rule:nonzero}
    .fil1 {fill:#EE7221;fill-rule:nonzero}
   ]]>
  </style>
 </defs>
 <g id="Слой_x0020_1">
  <metadata id="CorelCorpID_0Corel-Layer"/>
  <g id="_2549038092048">
   <path class="fil0" d="M1221.81 1761.03l0 0c-309.98,0 -561.05,-251.07 -561.05,-561.05 0,-309.95 251.07,-561.03 561.05,-561.03 309.99,0 561.06,251.08 561.06,561.03 0,309.98 -251.07,561.05 -561.06,561.05zm0 -1683.13c-619.58,0 -1122.08,502.49 -1122.08,1122.08 0,619.61 502.5,1122.11 1122.08,1122.11 619.59,0 1122.08,-502.5 1122.08,-1122.11 0,-619.59 -502.49,-1122.08 -1122.08,-1122.08z"/>
   <path class="fil0" d="M7984.61 1761.03c-309.99,0 -561.03,-251.07 -561.03,-561.05 0,-309.95 251.04,-561.03 561.03,-561.03 309.98,0 561.05,251.08 561.05,561.03 0,309.98 -251.07,561.05 -561.05,561.05zm0 -1683.13c-619.59,0 -1122.08,502.49 -1122.08,1122.08 0,619.61 502.49,1122.11 1122.08,1122.11 619.58,0 1122.08,-502.5 1122.08,-1122.11 0,-619.59 -502.5,-1122.08 -1122.08,-1122.08z"/>
   <path class="fil0" d="M4057.31 77.9l-295.66 0 -265.4 0 -295.66 0 -856.68 0 0 0c0,309.84 251.17,561.06 561.05,561.06l295.63 0 0 1683.1 561.06 0 0 -1683.1 856.72 0c0,-309.88 -251.21,-561.06 -561.06,-561.06z"/>
   <path class="fil0" d="M6862.52 77.9l-834 0 -288.08 0 -272.94 0 -849.14 0 0 0c0,309.84 251.18,561.06 561.02,561.06l288.12 0 0 1683.1 561.02 0 0 -1683.1 272.95 0c309.88,0 561.05,-251.22 561.05,-561.06z"/>
   <polygon class="fil1" points="9387.22,2322.08 9948.24,2322.08 9948.24,77.92 9387.22,77.92 "/>
   <polygon class="fil1" points="11350.83,77.9 10789.84,77.9 9948.25,1199.98 10789.84,2322.06 11350.83,2322.06 10509.28,1199.98 "/>
   <path class="fil1" d="M12613.23 1199.99l140.27 -374.02 140.26 374.02 -280.53 0zm-140.26 -1122.08l-841.59 2244.16 561.06 0 210.39 -561.03 701.33 0 210.36 561.03 561.06 0 -841.59 -2244.16 -561.02 0z"/>
   <path class="fil1" d="M15839.22 919.46c0,154.94 -125.59,280.53 -280.53,280.53l-841.55 0 0 -561.05 841.55 0c154.94,0 280.53,125.58 280.53,280.52zm-280.53 -841.55l-841.55 0 -561.02 0 0 1122.08 0 718.82 0 403.26 561.02 0 0 -403.26 0 -157.79 841.55 0c464.78,0 841.59,-376.77 841.59,-841.56 0,-464.78 -376.81,-841.55 -841.59,-841.55z"/>
  </g>
 </g>
</svg>
