<svg width="570" height="174" viewBox="0 0 570 174" fill="none" xmlns="http://www.w3.org/2000/svg">
<path fill-rule="evenodd" clip-rule="evenodd" d="M180.512 32.8223C181.683 31.2992 195.154 2.59428 195.506 0.485352H78.4834C76.6091 3.18009 61.7324 37.8603 58.804 43.4841C52.7127 55.2003 44.9815 75.4695 39.1245 86.6C33.3847 97.6133 25.5364 117.765 19.4451 129.833L0 173.066H43.8101L60.0925 138.152C66.3009 122.686 76.8434 101.597 84.106 85.5455C86.8003 79.5702 89.2602 73.9464 91.9544 67.9711L108.002 32.9394H180.512V32.8223Z" fill="#ED1C24"/>
<path fill-rule="evenodd" clip-rule="evenodd" d="M188.946 32.8227L225.025 33.6428C233.576 33.6428 240.018 35.2831 238.261 45.3591C234.981 65.3939 196.911 57.6612 176.529 58.95C174.889 61.0589 134.827 149.634 130.845 158.655C128.97 162.99 125.456 169.083 124.402 173.184H164.698L182.737 133.348C186.017 127.139 188.829 119.992 191.874 113.431L201.128 93.7473C229.007 93.0443 249.975 87.3034 266.609 66.7999C284.414 44.8905 283.829 15.014 261.221 4.11782C252.552 -0.33436 244.704 0.368616 234.161 0.368616C223.619 0.368616 213.428 0.368616 203.002 0.368616C201.128 4.35215 188.829 30.7138 188.946 32.7055" fill="#034EA2"/>
<path fill-rule="evenodd" clip-rule="evenodd" d="M117.491 173.184C118.896 168.615 134.124 136.043 136.701 130.185L168.681 59.0674H125.222C123.113 64.3397 120.888 68.6747 118.779 73.4784L105.894 101.949C102.497 108.979 96.0541 124.561 93.0085 130.419L80.1232 158.89C78.2489 163.577 75.2033 168.263 73.9148 173.418H117.491V173.184Z" fill="#ED1C24"/>
<path d="M562.503 62.6991H558.052C555.826 62.6991 554.303 62.6991 553.6 62.8163C552.898 62.8163 552.078 63.2849 551.375 63.8707C550.672 64.4565 550.086 65.2767 549.618 66.214C549.266 67.1513 549.149 67.9714 549.383 68.5572C549.618 69.1431 550.086 69.4945 550.789 69.6117C551.492 69.7289 553.015 69.846 555.358 69.846H559.575L562.503 62.6991ZM553.015 86.0145L557.817 74.2982H556.646C554.889 74.2982 553.483 74.5325 552.546 75.1184C551.609 75.7042 549.735 77.2273 546.806 79.922L540.247 86.0145H533.452L539.075 80.5078C541.301 78.3989 543.058 76.8758 544.112 75.9385C545.284 75.0012 546.572 74.2982 548.095 73.5952C545.635 73.2438 544.112 72.3065 543.526 70.9005C542.941 69.4945 543.058 67.7371 543.878 65.8625C544.581 64.1051 545.635 62.6991 547.041 61.2932C548.446 60.0044 549.969 59.0671 551.492 58.5984C553.132 58.1298 555.24 57.8954 558.052 57.8954H570L558.52 85.8973H552.898L553.015 86.0145ZM527.361 74.884L527.713 64.5737L519.747 74.884H527.361ZM533.218 86.0145H527.127L527.361 79.6877H516.116L511.196 86.0145H505.222L527.478 58.0126H533.452L533.218 86.0145ZM495.616 58.0126H501.356L496.436 69.9632C497.725 69.846 498.779 69.4945 499.365 69.0259C500.068 68.5572 501.356 67.0341 503.231 64.6909C505.573 61.6446 507.565 59.77 509.088 59.0671C510.61 58.3641 512.602 58.0126 515.179 58.0126C515.296 58.0126 515.53 58.0126 515.999 58.0126L514.242 62.2305H513.422C512.25 62.2305 511.313 62.3476 510.727 62.6991C510.025 62.9334 509.439 63.4021 508.853 63.9879C508.268 64.5737 507.33 65.7453 505.925 67.6199C505.222 68.5572 504.519 69.3774 503.816 70.0804C503.113 70.7833 502.176 71.3691 500.888 71.955C502.059 72.3064 502.762 73.0094 503.113 74.0639C503.465 75.1184 503.816 76.6415 503.933 78.6332L504.636 86.2488H497.959L497.491 79.1019C497.491 79.1019 497.491 78.7504 497.491 78.5161C497.491 78.5161 497.491 77.9303 497.374 77.2273C497.256 75.8213 497.022 75.0012 496.671 74.6497C496.319 74.2982 495.734 74.0639 494.797 74.0639L489.76 86.2488H484.137L495.616 58.2469V58.0126ZM478.046 75.7042L482.848 77.3444C480.74 80.3907 478.397 82.7339 475.82 84.257C473.243 85.7802 470.432 86.4831 467.503 86.4831C463.755 86.4831 461.295 85.1943 459.889 82.7339C458.483 80.1564 458.718 76.7586 460.592 72.3065C462.466 67.6199 465.16 63.9879 468.674 61.4103C472.189 58.8327 475.82 57.5439 479.803 57.5439C483.2 57.5439 485.543 58.5984 486.948 60.5902C487.768 61.7618 488.002 63.5192 487.651 65.7453L481.56 67.0341C481.794 65.6282 481.56 64.4565 480.857 63.6364C480.154 62.8163 478.983 62.3476 477.577 62.3476C475.469 62.3476 473.477 63.0506 471.603 64.5737C469.729 66.0968 468.089 68.4401 466.683 71.8378C465.277 75.3527 464.809 77.9303 465.512 79.3362C466.215 80.8593 467.503 81.5623 469.612 81.5623C471.134 81.5623 472.54 81.0937 474.063 80.1564C475.586 79.2191 476.874 77.6959 478.28 75.7042H478.046ZM450.518 58.0126L445.715 69.9632C446.652 69.9632 447.589 69.4945 448.292 68.9087C448.995 68.3229 450.284 66.7998 452.041 64.5737C454.383 61.6446 456.258 59.77 457.78 58.9499C459.303 58.1298 461.295 57.7783 464.106 57.7783C464.223 57.7783 464.457 57.7783 464.926 57.7783L463.169 61.9961H462.349C461.178 61.9961 460.358 62.1133 459.655 62.4648C458.952 62.6991 458.366 63.1678 457.78 63.7536C457.195 64.3394 456.258 65.511 454.852 67.3856C454.149 68.3229 453.446 69.1431 452.744 69.846C452.041 70.549 451.104 71.1348 449.815 71.7206C450.869 72.0721 451.689 72.7751 452.041 73.9467C452.392 75.0012 452.744 76.5243 452.861 78.5161L453.563 86.1317H446.887L446.418 78.8676C446.418 78.8676 446.418 78.6332 446.418 78.2817C446.418 78.0474 446.418 77.6959 446.301 76.993C446.184 75.7042 445.949 74.7669 445.598 74.4154C445.247 74.0639 444.778 73.8296 444.192 73.8296L439.155 86.0145H433.65L438.687 73.8296C438.101 73.8296 437.398 74.0639 436.813 74.4154C436.227 74.7669 435.29 75.587 434.001 76.993C433.298 77.8131 432.83 78.1646 432.713 78.2817C432.478 78.5161 432.361 78.6332 432.127 78.8676L425.801 86.1317H419.125L426.036 78.5161C427.793 76.6415 429.316 75.1184 430.604 73.9467C431.893 72.7751 433.298 72.0721 434.704 71.7206C433.884 71.1348 433.416 70.549 433.298 69.846C433.181 69.2602 433.064 68.4401 433.181 67.3856C433.181 65.6282 433.181 64.4565 433.181 63.8707C433.181 63.2849 432.83 62.8163 432.478 62.5819C432.01 62.3476 431.19 62.1133 430.018 62.1133C429.901 62.1133 429.667 62.1133 429.316 62.1133L431.073 57.8954C431.073 57.8954 431.776 57.8954 431.893 57.8954C434.587 57.8954 436.461 58.3641 437.281 59.0671C438.101 59.8872 438.453 61.7618 438.335 64.5737C438.335 66.7998 438.335 68.2058 438.57 68.9087C438.804 69.4945 439.39 69.846 440.327 69.9632L445.247 58.0126H450.752H450.518ZM407.528 58.0126H427.09L415.61 86.0145H409.871L419.359 62.6991H410.925L406.005 74.6497C404.599 78.0474 403.545 80.5078 402.725 81.7966C401.905 83.2026 400.968 84.257 399.797 84.96C398.625 85.663 397.102 86.1317 395.228 86.1317C394.525 86.1317 393.354 86.1317 391.714 85.8973L393.471 81.5623H394.76C395.931 81.5623 396.751 81.4451 397.337 81.0937C397.922 80.7422 398.391 80.0392 398.859 78.7504L400.851 73.9467L407.411 58.0126H407.528ZM374.963 71.955C373.674 75.1184 373.44 77.5788 374.26 79.2191C375.08 80.8593 376.603 81.6795 378.829 81.6795C381.054 81.6795 383.28 80.8593 385.388 79.2191C387.497 77.5788 389.254 75.1184 390.543 71.955C391.831 68.7916 392.065 66.3312 391.363 64.808C390.66 63.1678 389.02 62.4648 386.677 62.4648C384.334 62.4648 382.108 63.2849 380.117 64.808C378.009 66.4483 376.369 68.7916 374.963 72.0721V71.955ZM369.106 72.1893C370.277 69.3774 371.683 66.917 373.323 65.0424C374.494 63.6364 375.9 62.3476 377.54 61.176C379.063 60.0044 380.703 59.1842 382.226 58.5984C384.334 57.8954 386.443 57.5439 388.785 57.5439C392.885 57.5439 395.697 58.8327 397.102 61.4103C398.508 63.9879 398.274 67.5028 396.4 72.0721C394.525 76.6415 391.831 80.1564 388.317 82.7339C384.803 85.3115 381.054 86.6003 376.837 86.6003C372.62 86.6003 369.809 85.3115 368.403 82.7339C366.998 80.1564 367.232 76.6415 368.989 72.1893H369.106ZM348.021 73.8296L344.975 81.328H350.247C352.238 81.328 353.644 81.328 354.229 81.2108C355.166 81.0937 355.986 80.625 356.806 80.0392C357.509 79.4534 358.212 78.6332 358.563 77.6959C358.915 76.8758 359.032 76.1728 358.798 75.587C358.681 75.0012 358.212 74.5325 357.509 74.2982C356.806 74.0639 355.166 73.9467 352.589 73.9467H348.021V73.8296ZM352.589 62.6991L349.895 69.1431H353.644C355.869 69.1431 357.275 69.1431 357.744 69.1431C358.798 69.1431 359.618 68.6744 360.438 68.0886C361.258 67.5028 361.843 66.7998 362.195 65.8625C362.546 65.0424 362.546 64.3394 362.312 63.7536C362.078 63.1678 361.492 62.9334 360.555 62.8163C359.969 62.8163 358.446 62.8163 355.752 62.8163H352.472L352.589 62.6991ZM348.841 58.0126H360.086C362.312 58.0126 363.952 58.0126 364.889 58.2469C365.943 58.4812 366.763 58.8327 367.349 59.4186C367.935 60.0044 368.403 60.8245 368.52 61.7618C368.637 62.6991 368.52 63.8707 368.052 65.0424C367.466 66.3312 366.646 67.5028 365.475 68.6744C364.303 69.7289 363.015 70.549 361.609 71.1348C363.132 71.6035 364.069 72.5408 364.538 73.7124C365.006 74.884 364.889 76.29 364.186 77.9303C363.6 79.2191 362.898 80.3907 361.726 81.6795C360.672 82.8511 359.501 83.9056 358.095 84.6085C356.806 85.3115 355.284 85.7802 353.761 85.8973C352.824 85.8973 350.481 86.0145 346.85 86.1317H337.361L348.841 58.1298V58.0126ZM317.33 71.955C316.042 75.1184 315.808 77.5788 316.628 79.2191C317.448 80.8593 318.97 81.6795 321.196 81.6795C323.422 81.6795 325.647 80.8593 327.756 79.2191C329.864 77.5788 331.621 75.1184 332.91 71.955C334.199 68.7916 334.55 66.3312 333.73 64.808C333.027 63.1678 331.387 62.4648 329.044 62.4648C326.702 62.4648 324.476 63.2849 322.367 64.808C320.259 66.4483 318.619 68.7916 317.213 72.0721L317.33 71.955ZM311.473 72.1893C312.645 69.3774 314.051 66.917 315.691 65.0424C316.862 63.6364 318.268 62.3476 319.908 61.176C321.43 60.0044 323.07 59.1842 324.593 58.5984C326.584 57.8954 328.81 57.5439 331.036 57.5439C335.136 57.5439 337.947 58.8327 339.353 61.4103C340.758 63.9879 340.524 67.5028 338.65 72.0721C336.776 76.6415 334.081 80.1564 330.567 82.7339C327.053 85.3115 323.305 86.6003 319.088 86.6003C314.871 86.6003 312.059 85.3115 310.654 82.7339C309.248 80.1564 309.482 76.6415 311.239 72.1893H311.473ZM290.388 58.0126H312.645L301.165 86.0145H295.543L305.031 62.6991H294.137L284.649 86.0145H279.026L290.506 58.0126H290.388Z" fill="#034EA2"/>
<path d="M455.321 105.933H450.869C448.644 105.933 447.121 105.933 446.418 106.05C445.715 106.05 444.895 106.518 444.192 107.104C443.49 107.69 442.904 108.51 442.435 109.447C442.084 110.502 441.967 111.205 442.201 111.791C442.435 112.377 442.904 112.728 443.607 112.845C444.31 112.962 445.832 113.08 448.175 113.08H452.392L455.321 105.933ZM445.832 129.248L450.635 117.532H449.464C447.707 117.532 446.301 117.766 445.364 118.352C444.427 118.938 442.552 120.461 439.624 123.155L433.064 129.248H426.27L431.893 123.741C434.118 121.515 435.758 120.109 436.93 119.172C438.101 118.352 439.39 117.532 440.913 116.829C438.453 116.36 436.93 115.54 436.344 114.134C435.758 112.728 435.876 111.088 436.695 109.096C437.398 107.339 438.453 105.933 439.858 104.527C441.264 103.238 442.787 102.301 444.31 101.832C445.949 101.363 448.058 101.129 450.869 101.129H462.818L451.338 129.131H445.598L445.832 129.248ZM412.448 101.246H417.719L410.105 119.875L429.081 101.246H434.704L423.224 129.248H417.953L425.45 110.853L406.591 129.248H400.968L412.448 101.246ZM390.191 105.933C386.677 114.368 383.397 120.578 380.234 124.444H390.894L398.508 105.933H390.308H390.191ZM386.677 101.246H406.005L396.517 124.561H398.977L394.525 135.34H389.84L392.3 129.248H374.729L372.269 135.34H367.583L372.035 124.561H374.377C376.486 122.218 378.477 119.406 380.117 116.243C381.757 113.08 383.631 109.096 385.623 104.292L386.794 101.363L386.677 101.246ZM353.058 124.561H358.564C360.321 124.561 361.609 124.561 362.429 124.327C363.132 124.21 363.952 123.741 364.772 123.155C365.592 122.57 366.178 121.75 366.529 120.929C366.998 119.641 366.998 118.703 366.295 118.118C365.592 117.532 364.186 117.18 361.961 117.18H356.221L353.175 124.561H353.058ZM356.924 101.246H362.546L357.978 112.377H365.475C368.989 112.377 371.215 113.197 372.152 114.837C373.089 116.477 373.089 118.469 372.152 120.812C371.332 122.687 370.277 124.327 368.755 125.733C367.232 127.022 365.709 127.959 364.303 128.428C362.898 128.896 361.023 129.131 358.681 129.131H345.444L356.924 101.129V101.246ZM331.387 101.246H351.067L339.587 129.248H333.964L343.453 105.933H335.019L330.099 117.883C328.693 121.281 327.639 123.741 326.819 125.03C325.999 126.436 325.062 127.491 323.89 128.194C322.719 128.896 321.196 129.365 319.322 129.365C318.619 129.365 317.448 129.365 315.808 129.131L317.565 124.796H318.853C320.025 124.796 320.962 124.679 321.43 124.327C322.016 123.976 322.485 123.273 323.07 121.984L325.062 117.18L331.621 101.246H331.387ZM301.282 101.246H306.554L298.94 119.875L317.916 101.246H323.539L312.176 129.248H306.905L314.402 110.853L295.543 129.248H289.92L301.4 101.246H301.282ZM279.26 101.246H298.237L296.363 105.933H283.009L273.52 129.248H267.898L279.377 101.246H279.26Z" fill="#034EA2"/>
<path d="M485.308 160.647L482.263 168.145H487.534C489.525 168.145 490.931 168.145 491.517 168.028C492.454 167.911 493.274 167.442 493.977 166.857C494.796 166.271 495.382 165.451 495.734 164.513C496.085 163.693 496.202 162.99 495.968 162.404C495.851 161.819 495.382 161.35 494.679 161.116C493.977 160.881 492.337 160.764 489.759 160.764H485.191L485.308 160.647ZM489.877 149.516L487.182 155.96H490.931C493.157 155.96 494.562 155.96 495.031 155.96C496.085 155.96 496.905 155.492 497.725 154.906C498.545 154.32 499.131 153.617 499.482 152.68C499.833 151.86 499.951 151.157 499.599 150.571C499.365 149.985 498.779 149.751 497.842 149.634C497.256 149.634 495.734 149.634 493.039 149.634H489.759L489.877 149.516ZM486.128 144.83H497.374C499.599 144.83 501.239 144.83 502.176 145.064C503.231 145.299 504.05 145.65 504.636 146.236C505.222 146.822 505.69 147.642 505.808 148.579C505.925 149.516 505.808 150.688 505.339 151.86C504.753 153.149 503.933 154.437 502.762 155.492C501.591 156.546 500.302 157.366 498.896 157.952C500.419 158.421 501.356 159.241 501.825 160.53C502.293 161.701 502.059 163.107 501.473 164.748C501.005 166.036 500.185 167.325 499.013 168.497C497.959 169.668 496.671 170.723 495.382 171.426C494.094 172.129 492.571 172.598 491.048 172.715C490.111 172.715 487.768 172.832 484.137 172.949H474.648L486.128 144.947V144.83ZM454.618 158.772C453.329 161.936 453.095 164.396 453.915 166.036C454.735 167.677 456.258 168.497 458.483 168.497C460.709 168.497 462.935 167.677 465.043 166.036C467.152 164.396 468.909 161.936 470.197 158.772C471.486 155.609 471.837 153.149 471.017 151.625C470.197 149.985 468.674 149.282 466.332 149.282C463.989 149.282 461.763 150.102 459.772 151.743C457.663 153.383 456.023 155.726 454.618 159.007V158.772ZM448.761 159.007C449.932 156.195 451.338 153.734 452.978 151.86C454.149 150.454 455.555 149.165 457.195 147.993C458.718 146.822 460.357 146.002 461.88 145.416C463.872 144.713 466.097 144.361 468.323 144.361C472.423 144.361 475.234 145.65 476.64 148.228C478.046 150.805 477.811 154.32 475.937 158.89C474.063 163.459 471.369 166.974 467.854 169.551C464.34 172.129 460.475 173.418 456.375 173.418C452.275 173.418 449.464 172.129 448.058 169.551C446.652 166.974 446.886 163.459 448.644 159.007H448.761ZM433.884 149.516L430.604 157.484H433.65C435.875 157.484 437.398 157.366 438.335 157.015C439.155 156.663 439.975 156.312 440.678 155.609C441.381 155.023 441.85 154.203 442.201 153.383C442.669 152.328 442.669 151.508 442.318 150.805C441.967 150.102 441.381 149.751 440.561 149.516C439.975 149.516 438.57 149.282 436.578 149.282H433.884V149.516ZM418.656 172.832L430.136 144.83H439.155C442.552 144.83 444.778 144.947 445.715 145.299C447.121 145.767 448.058 146.587 448.644 147.993C449.112 149.399 448.995 151.274 448.058 153.5C447.355 155.257 446.418 156.663 445.364 157.835C444.309 159.007 443.138 159.944 441.849 160.647C440.678 161.35 439.507 161.819 438.335 161.936C436.93 162.17 434.821 162.404 432.361 162.404H428.73L424.396 172.949H418.773L418.656 172.832ZM398.625 158.772C397.337 161.936 397.102 164.396 397.922 166.036C398.742 167.677 400.265 168.497 402.491 168.497C404.716 168.497 406.942 167.677 409.05 166.036C411.159 164.396 412.916 161.936 414.205 158.772C415.493 155.609 415.727 153.149 415.025 151.625C414.322 149.985 412.682 149.282 410.339 149.282C407.996 149.282 405.771 150.102 403.779 151.743C401.671 153.383 400.031 155.726 398.625 159.007V158.772ZM392.768 159.007C393.94 156.195 395.345 153.734 396.985 151.86C398.157 150.454 399.562 149.165 401.202 147.993C402.725 146.822 404.365 146.002 405.888 145.416C407.879 144.713 410.105 144.361 412.448 144.361C416.547 144.361 419.359 145.65 420.764 148.228C422.17 150.805 421.936 154.32 420.179 158.89C418.304 163.459 415.61 166.974 412.096 169.551C408.582 172.129 404.833 173.418 400.616 173.418C396.399 173.418 393.705 172.129 392.3 169.551C390.894 166.974 391.011 163.459 392.885 159.007H392.768ZM371.683 172.832L381.171 149.516H372.854L374.729 144.83H396.985L394.994 149.516H386.794L377.306 172.832H371.683ZM351.418 144.83H371.097L359.618 172.832H353.995L363.483 149.516H355.049L350.129 161.467C348.724 164.865 347.669 167.325 346.849 168.614C346.03 169.903 345.092 171.074 343.921 171.777C342.75 172.48 341.227 172.949 339.353 172.949C338.65 172.949 337.478 172.949 335.838 172.715L337.595 168.263H338.884C340.055 168.263 340.875 168.145 341.461 167.794C342.047 167.442 342.515 166.739 342.984 165.451L344.975 160.647L351.535 144.713L351.418 144.83ZM326.819 156.429H335.604C336.19 154.32 336.19 152.563 335.604 151.274C335.018 149.868 333.73 149.165 331.739 149.165C330.216 149.165 328.81 149.634 327.404 150.454C325.999 151.274 324.827 152.446 323.89 153.852L318.853 152.563C320.493 150.102 322.485 148.111 325.062 146.587C327.639 145.064 330.45 144.361 333.613 144.361C337.713 144.361 340.29 145.767 341.461 148.462C342.632 151.157 342.398 154.672 340.524 159.124C339.353 162.053 337.713 164.63 335.838 166.739C333.964 168.848 331.739 170.489 329.396 171.66C327.053 172.832 324.593 173.418 322.016 173.418C315.69 173.418 312.996 170.371 313.933 164.396L320.376 162.639C319.79 164.63 319.907 166.154 320.727 167.091C321.547 168.028 322.602 168.497 324.242 168.497C325.882 168.497 327.522 167.911 329.161 166.739C330.801 165.568 332.324 163.693 333.73 161.233H324.944L326.819 156.546V156.429ZM295.074 144.83H300.345L292.731 163.459L311.708 144.83H317.33L305.851 172.832H300.579L308.076 154.437L289.217 172.832H283.594L295.074 144.83ZM272.583 149.516L269.303 157.484H272.349C274.575 157.484 276.097 157.366 277.034 157.015C277.854 156.663 278.674 156.312 279.377 155.609C280.08 155.023 280.549 154.203 280.9 153.383C281.369 152.328 281.369 151.508 281.017 150.805C280.666 150.102 280.08 149.751 279.26 149.516C278.674 149.516 277.269 149.282 275.277 149.282H272.583V149.516ZM257.472 172.832L268.952 144.83H277.972C281.369 144.83 283.594 144.947 284.531 145.299C285.937 145.767 286.874 146.587 287.46 147.993C287.928 149.399 287.811 151.274 286.874 153.5C286.171 155.257 285.234 156.663 284.18 157.835C283.126 159.007 281.954 159.944 280.666 160.647C279.377 161.35 278.323 161.819 277.152 161.936C275.746 162.17 273.637 162.404 271.177 162.404H267.546L263.212 172.949H257.589L257.472 172.832Z" fill="#034EA2"/>
</svg>
