<svg width="43" height="62" viewBox="0 0 43 62" fill="none" xmlns="http://www.w3.org/2000/svg">
<g clip-path="url(#clip0_906_14)">
<path opacity="0.2" d="M35 58.4C35 60.4 28.8 62 21.2 62C13.6 62 7.39999 60.4 7.39999 58.4C7.39999 56.4 13.6 54.8 21.2 54.8C28.8 54.7 35 56.4 35 58.4Z" fill="#05141F"/>
<path d="M21.4 0C9.6 0 0 9.6 0 21.4C0 34 21.4 58.5 21.4 58.5C21.4 58.5 42.8 35 42.8 21.4C42.8 9.6 33.2 0 21.4 0ZM21.4 33.7C14.1 33.7 8.2 27.8 8.2 20.5C8.2 13.2 14.1 7.3 21.4 7.3C28.7 7.3 34.6 13.2 34.6 20.5C34.6 27.8 28.7 33.7 21.4 33.7Z" fill="#05141F"/>
<path d="M21.4 38.2C30.6232 38.2 38.1 30.7232 38.1 21.5C38.1 12.2768 30.6232 4.8 21.4 4.8C12.1768 4.8 4.7 12.2768 4.7 21.5C4.7 30.7232 12.1768 38.2 21.4 38.2Z" fill="white"/>
<path fill-rule="evenodd" clip-rule="evenodd" d="M25.1771 16.513C25.2852 16.3725 26.5281 13.7239 26.5606 13.5293H15.763C15.59 13.7779 14.2174 16.9778 13.9472 17.4967C13.3851 18.5778 12.6718 20.448 12.1314 21.475C11.6018 22.4912 10.8776 24.3506 10.3156 25.4641L8.52136 29.4532H12.5637L14.0661 26.2317C14.6389 24.8047 15.6117 22.8588 16.2818 21.3777C16.5304 20.8264 16.7573 20.3075 17.0059 19.7562L18.4867 16.5238H25.1771V16.513Z" fill="#ED1C24"/>
<path fill-rule="evenodd" clip-rule="evenodd" d="M25.9553 16.5128L29.2842 16.5885C30.0733 16.5885 30.6677 16.7398 30.5056 17.6695C30.203 19.5181 26.6902 18.8046 24.8096 18.9236C24.6583 19.1181 20.9618 27.2909 20.5943 28.1233C20.4214 28.5233 20.0971 29.0855 19.9998 29.4638H23.7179L25.3824 25.7882C25.6851 25.2153 25.9445 24.5558 26.2255 23.9505L27.0793 22.1343C29.6517 22.0694 31.5864 21.5397 33.1212 19.6479C34.7641 17.6263 34.7101 14.8696 32.624 13.8642C31.8242 13.4534 31.1001 13.5183 30.1273 13.5183C29.1545 13.5183 28.2142 13.5183 27.2523 13.5183C27.0793 13.8858 25.9445 16.3182 25.9553 16.502" fill="#034EA2"/>
<path fill-rule="evenodd" clip-rule="evenodd" d="M19.3622 29.4638C19.4919 29.0422 20.897 26.0369 21.1347 25.4964L24.0854 18.9344H20.0755C19.881 19.4208 19.6756 19.8208 19.4811 20.2641L18.2921 22.891C17.9787 23.5397 17.3842 24.9775 17.1032 25.518L15.9143 28.145C15.7414 28.5774 15.4603 29.0098 15.3414 29.4855H19.3622V29.4638Z" fill="#ED1C24"/>
</g>
<defs>
<clipPath id="clip0_906_14">
<rect width="42.8" height="62" fill="white"/>
</clipPath>
</defs>
</svg>
