<svg viewBox="0 0 43 62" fill="none" xmlns="http://www.w3.org/2000/svg">
<g clip-path="url(#clip0_1409_34)">
<path opacity="0.2" d="M35 58.4C35 60.4 28.8 62 21.2 62C13.6 62 7.40002 60.4 7.40002 58.4C7.40002 56.4 13.6 54.8 21.2 54.8C28.8 54.7 35 56.4 35 58.4Z" fill="#05141F"/>
<path d="M21.4 0C9.6 0 0 9.6 0 21.4C0 34 21.4 58.5 21.4 58.5C21.4 58.5 42.8 35 42.8 21.4C42.8 9.6 33.2 0 21.4 0ZM21.4 33.7C14.1 33.7 8.2 27.8 8.2 20.5C8.2 13.2 14.1 7.3 21.4 7.3C28.7 7.3 34.6 13.2 34.6 20.5C34.6 27.8 28.7 33.7 21.4 33.7Z" fill="#05141F"/>
<path d="M21.4 38.2C30.6232 38.2 38.1 30.7232 38.1 21.5C38.1 12.2768 30.6232 4.8 21.4 4.8C12.1769 4.8 4.70001 12.2768 4.70001 21.5C4.70001 30.7232 12.1769 38.2 21.4 38.2Z" fill="white"/>
<path fill-rule="evenodd" clip-rule="evenodd" d="M12.6667 22.3358V27.7083C12.6667 28.0533 12.9467 28.3333 13.2917 28.3333H14.6367C14.7847 28.3334 14.9279 28.2809 15.0408 28.1852C15.1537 28.0895 15.2291 27.9568 15.2533 27.8108L15.5833 25.8333H26.4167L26.7458 27.8108C26.7701 27.9568 26.8454 28.0895 26.9583 28.1852C27.0713 28.2809 27.2145 28.3334 27.3625 28.3333H28.7083C28.8741 28.3333 29.0331 28.2675 29.1503 28.1503C29.2675 28.0331 29.3333 27.8741 29.3333 27.7083V22.3358C29.3334 21.3562 29.0434 20.3984 28.5 19.5833L27.85 18.6083C27.792 18.5215 27.7424 18.4295 27.7017 18.3333H28.53C28.6461 18.3333 28.76 18.301 28.8587 18.2399C28.9575 18.1788 29.0373 18.0914 29.0892 17.9875L29.2975 17.5708C29.345 17.4756 29.3675 17.3698 29.3627 17.2635C29.3579 17.1572 29.326 17.0538 29.2701 16.9633C29.2142 16.8727 29.136 16.798 29.0431 16.746C28.9502 16.6941 28.8456 16.6668 28.7392 16.6667H27.3333L27.075 15.3783C26.9964 14.986 26.8065 14.6245 26.5279 14.3372C26.2493 14.05 25.8939 13.849 25.5042 13.7583C24.2858 13.475 22.7842 13.3333 21 13.3333C19.215 13.3333 17.7142 13.475 16.4958 13.7583C16.1059 13.8488 15.7503 14.0498 15.4716 14.3371C15.1929 14.6243 15.0028 14.9859 14.9242 15.3783L14.6658 16.6667H13.2617C13.1552 16.6668 13.0506 16.6941 12.9577 16.746C12.8648 16.798 12.7867 16.8727 12.7307 16.9633C12.6748 17.0538 12.6429 17.1572 12.6381 17.2635C12.6334 17.3698 12.6558 17.4756 12.7033 17.5708L12.9117 17.9875C12.9635 18.0913 13.0431 18.1786 13.1417 18.2397C13.2403 18.3007 13.354 18.3332 13.47 18.3333H14.2992C14.2584 18.4294 14.2088 18.5215 14.1508 18.6083L13.5 19.5833C12.9567 20.3983 12.6667 21.3558 12.6667 22.3358ZM25.9675 18.3367C26.0249 18.6249 26.1202 18.9043 26.2508 19.1675H15.7492C15.88 18.905 15.975 18.6258 16.0325 18.3367L16.5592 15.7058C16.5747 15.6272 16.6126 15.5547 16.6683 15.497C16.7241 15.4394 16.7952 15.399 16.8733 15.3808C17.955 15.1308 19.3333 15 21 15C22.6667 15 24.045 15.13 25.1267 15.3817C25.2048 15.3997 25.2761 15.4398 25.3319 15.4973C25.3878 15.5548 25.4259 15.6272 25.4417 15.7058L25.9675 18.3367ZM15.5833 23.3333C15.9148 23.3333 16.2328 23.2016 16.4672 22.9672C16.7016 22.7328 16.8333 22.4149 16.8333 22.0833C16.8333 21.7518 16.7016 21.4339 16.4672 21.1995C16.2328 20.965 15.9148 20.8333 15.5833 20.8333C15.2518 20.8333 14.9339 20.965 14.6994 21.1995C14.465 21.4339 14.3333 21.7518 14.3333 22.0833C14.3333 22.4149 14.465 22.7328 14.6994 22.9672C14.9339 23.2016 15.2518 23.3333 15.5833 23.3333ZM27.6667 22.0833C27.6667 22.4149 27.535 22.7328 27.3005 22.9672C27.0661 23.2016 26.7482 23.3333 26.4167 23.3333C26.0851 23.3333 25.7672 23.2016 25.5328 22.9672C25.2984 22.7328 25.1667 22.4149 25.1667 22.0833C25.1667 21.7518 25.2984 21.4339 25.5328 21.1995C25.7672 20.965 26.0851 20.8333 26.4167 20.8333C26.7482 20.8333 27.0661 20.965 27.3005 21.1995C27.535 21.4339 27.6667 21.7518 27.6667 22.0833Z" fill="black"/>
</g>
<defs>
<clipPath id="clip0_1409_34">
<rect width="42.8" height="62" fill="white"/>
</clipPath>
</defs>
</svg>
