<?xml version="1.0" encoding="utf-8"?>
<!-- Generator: Adobe Illustrator 24.2.0, SVG Export Plug-In . SVG Version: 6.00 Build 0)  -->
<svg version="1.1" id="Layer_1" xmlns="http://www.w3.org/2000/svg" xmlns:xlink="http://www.w3.org/1999/xlink" x="0px" y="0px"
	 viewBox="0 0 551.1 145.2" style="enable-background:new 0 0 551.1 145.2;" xml:space="preserve">
<style type="text/css">
	.st0{fill:#05141F;}
</style>
<g>
	<g>
		<path class="st0" d="M62.2,77.3H43L18.3,43.2c-0.6-0.8-1.2-2.1-2-3.8H16v37.9H1V0h15v36.6h0.3c0.4-1,1.1-2.3,2.1-3.9L41.9,0h18
			L31.1,36.9L62.2,77.3z"/>
		<path class="st0" d="M121.3,77.3H108V38.9c-1.2,2.4-2.6,4.9-4.3,7.5L83,77.3H68.9V22.1h13.4v37.5c0.9-2,2.1-4.2,3.4-6.4l21-31.2
			h14.6V77.3z"/>
		<path class="st0" d="M138.1,25.6c2.5-1.4,5.7-2.6,9.7-3.5s7.5-1.3,10.7-1.3c14.9,0,22.4,7.6,22.4,22.7v33.8h-14v-8.1h-0.3
			c-3.7,6.3-9.2,9.5-16.6,9.5c-5.3,0-9.5-1.5-12.7-4.5c-3.1-3-4.7-7-4.7-12.1c0-10.5,6.3-16.7,18.8-18.3l15.4-2.1
			c0-7-3.4-10.6-10.3-10.6c-6.6,0-12.7,2-18.5,6.1V25.6H138.1z M155.9,52.1c-6.3,0.8-9.5,3.6-9.5,8.5c0,2.2,0.8,3.9,2.3,5.3
			s3.5,2,6.1,2c3.5,0,6.4-1.2,8.7-3.7s3.4-5.6,3.4-9.3v-4.2L155.9,52.1z"/>
		<path class="st0" d="M309.7,98.3h-13.3v-21h-61.9V0h15v64.4h34.3V0h15v64.4h10.9V98.3z"/>
		<path class="st0" d="M369.3,53.9h-36.9c0.6,9.4,5.9,14.1,16,14.1c6.1,0,11.6-1.6,16.4-4.8v11.1c-5.1,3-11.7,4.5-19.7,4.5
			c-8.6,0-15.3-2.5-20-7.5c-4.8-5-7.2-11.9-7.2-20.9c0-8.8,2.6-15.9,7.7-21.4s11.6-8.2,19.3-8.2c7.7,0,13.7,2.4,18,7.1
			s6.5,11.2,6.5,19.5L369.3,53.9L369.3,53.9z M355.5,44.2c0-8.8-3.6-13.1-10.8-13.1c-3,0-5.7,1.2-8,3.6s-3.7,5.6-4.3,9.6h23.1V44.2z
			"/>
		<path class="st0" d="M431.4,77.3h-14.7V53.7H395v23.6h-14.7V22.1H395v21.1h21.7V22.1h14.7L431.4,77.3L431.4,77.3z"/>
		<path class="st0" d="M486.2,33.5h-15.3v43.9h-14.7V33.5h-15.4V22.1h45.5v11.4H486.2z"/>
		<path class="st0" d="M510.3,70.5v32.3h-14.7V22.1h14.7v8.7h0.2c4.3-6.7,10.3-10,18.2-10c7,0,12.5,2.4,16.5,7.3s6,11.6,6,20.1
			c0,9.2-2.3,16.6-6.9,22.1c-4.6,5.6-10.6,8.4-18.2,8.4c-6.8,0-12-2.7-15.7-8.3h-0.1V70.5z M510,53.3c0,4,1.2,7.3,3.5,10
			c2.3,2.6,5.3,4,8.9,4c4.3,0,7.6-1.7,10-5c2.4-3.3,3.6-8,3.6-14c0-10.7-4.2-16-12.7-16c-4,0-7.2,1.5-9.7,4.5s-3.7,6.7-3.7,11.2v5.3
			H510z"/>
	</g>
	<g>
		<path class="st0" d="M17,136.7c-1.8,0.8-3.9,1.2-6.1,1.2c-2.1,0-4-0.5-5.7-1.5s-2.9-2.4-3.8-4.1c-0.9-1.8-1.4-3.8-1.4-6
			c0-2.4,0.5-4.6,1.5-6.5s2.4-3.4,4.2-4.4s3.8-1.6,6-1.6c1.9,0,3.7,0.3,5.3,0.9v2.2c-1.7-0.8-3.5-1.2-5.3-1.2c-1.9,0-3.6,0.4-5,1.3
			c-1.5,0.9-2.6,2.1-3.3,3.7c-0.8,1.6-1.2,3.4-1.2,5.5c0,1.9,0.4,3.6,1.1,5.2c0.7,1.5,1.8,2.7,3.1,3.5c1.4,0.8,2.9,1.2,4.7,1.2
			c2.2,0,4.2-0.5,5.9-1.4V136.7z"/>
		<path class="st0" d="M31.3,137.6v-3.1h-0.1c-0.5,1.1-1.3,1.9-2.2,2.5c-1,0.6-2,0.9-3.2,0.9c-1.6,0-2.8-0.4-3.8-1.3
			c-0.9-0.9-1.4-2-1.4-3.4c0-3,1.9-4.8,5.7-5.3l5.1-0.7c0-3.3-1.3-4.9-3.8-4.9c-1.9,0-3.7,0.7-5.4,2.2v-2.1c1.8-1.1,3.6-1.7,5.6-1.7
			c1.8,0,3.2,0.5,4.1,1.6c0.9,1,1.4,2.6,1.4,4.6v10.8L31.3,137.6L31.3,137.6z M22.6,133.1c0,0.9,0.3,1.7,1,2.3
			c0.6,0.6,1.5,0.9,2.6,0.9c1.5,0,2.7-0.5,3.7-1.6s1.5-2.5,1.5-4.2v-1.6l-4.4,0.6c-1.6,0.2-2.8,0.6-3.4,1.2
			C22.9,131.2,22.6,132,22.6,133.1z"/>
		<path class="st0" d="M53,137.6v-14.1c-0.1,0.5-0.4,1.1-0.7,1.8c-0.3,0.7-1.9,4.9-5,12.3h-1.4l-4.8-11.1c-0.2-0.4-0.4-1-0.7-1.8
			c-0.3-0.7-0.4-1.2-0.5-1.3v14.1h-1.7v-16.6h2.4l4.8,11.3c0.4,1.1,0.8,2,1,2.6l0.2,0.6l0.2-0.5l5.5-13.9h2.5v16.6H53z"/>
		<path class="st0" d="M69.9,137.6v-3.1h-0.1c-0.5,1.1-1.3,1.9-2.2,2.5s-2,0.9-3.2,0.9c-1.6,0-2.8-0.4-3.8-1.3
			c-0.9-0.9-1.4-2-1.4-3.4c0-3,1.9-4.8,5.7-5.3l5.1-0.7c0-3.3-1.3-4.9-3.8-4.9c-1.9,0-3.7,0.7-5.4,2.2v-2.1c1.8-1.1,3.6-1.7,5.6-1.7
			c1.8,0,3.2,0.5,4.1,1.6c0.9,1,1.4,2.6,1.4,4.6v10.8L69.9,137.6L69.9,137.6z M61.2,133.1c0,0.9,0.3,1.7,1,2.3
			c0.6,0.6,1.5,0.9,2.6,0.9c1.5,0,2.7-0.5,3.7-1.6s1.5-2.5,1.5-4.2v-1.6l-4.4,0.6c-1.6,0.2-2.8,0.6-3.4,1.2
			C61.5,131.2,61.2,132,61.2,133.1z"/>
		<path class="st0" d="M78.8,134.8v10.4h-1.9v-24.3h1.9v3.3h0.1c0.6-1.1,1.4-2,2.4-2.7c1.1-0.6,2.3-1,3.6-1c2.1,0,3.7,0.7,5,2.2
			c1.2,1.5,1.8,3.4,1.8,6c0,2.8-0.7,5.1-2.1,6.7c-1.4,1.7-3.2,2.5-5.4,2.5C81.8,138,80,136.9,78.8,134.8L78.8,134.8z M78.8,130.6
			c0,1.6,0.5,2.9,1.5,4s2.3,1.6,3.8,1.6c1.6,0,3-0.7,4-2c1-1.4,1.5-3.2,1.5-5.5c0-2-0.5-3.5-1.4-4.7s-2.2-1.8-3.8-1.8
			c-1.1,0-2.1,0.3-3,0.8s-1.6,1.3-2,2.2c-0.5,0.9-0.7,2-0.7,3.2L78.8,130.6L78.8,130.6z"/>
		<path class="st0" d="M105.5,137.6v-3.1h-0.1c-0.5,1.1-1.3,1.9-2.2,2.5s-2,0.9-3.2,0.9c-1.6,0-2.8-0.4-3.8-1.3
			c-0.9-0.9-1.4-2-1.4-3.4c0-3,1.9-4.8,5.7-5.3l5.1-0.7c0-3.3-1.3-4.9-3.8-4.9c-1.9,0-3.7,0.7-5.4,2.2v-2.1c1.8-1.1,3.6-1.7,5.6-1.7
			c1.8,0,3.2,0.5,4.1,1.6c0.9,1,1.4,2.6,1.4,4.6v10.8L105.5,137.6L105.5,137.6z M96.8,133.1c0,0.9,0.3,1.7,1,2.3
			c0.6,0.6,1.5,0.9,2.6,0.9c1.5,0,2.7-0.5,3.7-1.6s1.5-2.5,1.5-4.2v-1.6l-4.4,0.6c-1.6,0.2-2.8,0.6-3.4,1.2
			C97.1,131.2,96.8,132,96.8,133.1z"/>
		<path class="st0" d="M125.5,131.5c-1.1,0-2-0.4-2.8-1.2s-1.2-1.7-1.2-2.8s0.4-2,1.2-2.8c0.8-0.8,1.7-1.2,2.8-1.2
			c1.1,0,2,0.4,2.8,1.2c0.8,0.8,1.2,1.7,1.2,2.8c0,1.1-0.4,2-1.2,2.8C127.5,131.2,126.6,131.5,125.5,131.5z"/>
		<path class="st0" d="M159.2,137.6v-11h-12.9v11h-2v-23.3h2v10.5h12.9v-10.5h2v23.3H159.2z"/>
		<path class="st0" d="M176.6,137.6v-3.1h-0.1c-0.5,1.1-1.3,1.9-2.2,2.5s-2,0.9-3.2,0.9c-1.6,0-2.8-0.4-3.8-1.3
			c-0.9-0.9-1.4-2-1.4-3.4c0-3,1.9-4.8,5.7-5.3l5.1-0.7c0-3.3-1.3-4.9-3.8-4.9c-1.9,0-3.7,0.7-5.4,2.2v-2.1c1.8-1.1,3.6-1.7,5.6-1.7
			c1.8,0,3.2,0.5,4.1,1.6c0.9,1,1.4,2.6,1.4,4.6v10.8L176.6,137.6L176.6,137.6z M167.8,133.1c0,0.9,0.3,1.7,1,2.3
			c0.6,0.6,1.5,0.9,2.6,0.9c1.5,0,2.7-0.5,3.7-1.6s1.5-2.5,1.5-4.2v-1.6l-4.4,0.6c-1.6,0.2-2.8,0.6-3.4,1.2
			C168.2,131.2,167.8,132,167.8,133.1z"/>
		<path class="st0" d="M213.5,137.6v-16.2c0-0.7,0.1-2,0.2-3.8h-0.1c-0.3,1-0.6,1.7-0.8,2.1l-8.2,17.9h-0.8l-8.2-17.8
			c-0.3-0.5-0.5-1.3-0.7-2.3h-0.1c0.1,0.9,0.1,2.1,0.1,3.7v16.4h-2v-23.3h2.3l8.1,17.8c0.3,0.7,0.6,1.4,0.9,2.3h0.1
			c0.3-1,0.6-1.6,0.7-1.9c0.1-0.3,2.9-6.3,8.3-18.2h2.2v23.3H213.5z"/>
		<path class="st0" d="M227.9,138c-1.6,0-3-0.4-4.2-1.1c-1.2-0.7-2.1-1.7-2.8-3s-1-2.8-1-4.5c0-2.7,0.7-4.9,2.2-6.5s3.5-2.4,6-2.4
			c2.4,0,4.3,0.8,5.7,2.3s2.1,3.7,2.1,6.4c0,2.6-0.7,4.7-2.2,6.3C232.3,137.2,230.4,138,227.9,138z M228.1,122.2
			c-1.9,0-3.4,0.6-4.5,1.9s-1.6,3-1.6,5.3c0,2.1,0.5,3.8,1.6,5.1c1.1,1.2,2.6,1.9,4.4,1.9c1.9,0,3.3-0.6,4.4-1.9
			c1-1.2,1.5-3,1.5-5.2c0-2.3-0.5-4-1.5-5.2C231.4,122.8,230,122.2,228.1,122.2z"/>
		<path class="st0" d="M251.1,136.8c-1.3,0.8-2.8,1.2-4.5,1.2c-1.5,0-2.8-0.3-4-1s-2.1-1.7-2.7-3c-0.6-1.3-1-2.7-1-4.4
			c0-1.7,0.4-3.3,1.1-4.7c0.7-1.4,1.7-2.5,3-3.2c1.3-0.8,2.7-1.1,4.4-1.1c1.4,0,2.6,0.3,3.8,0.8v2.1c-1.2-0.8-2.5-1.2-3.9-1.2
			c-1.2,0-2.3,0.3-3.3,0.9s-1.7,1.5-2.2,2.6s-0.8,2.3-0.8,3.7c0,2.1,0.5,3.7,1.6,5s2.5,1.9,4.3,1.9c1.6,0,3-0.5,4.3-1.4v1.8H251.1z"
			/>
		<path class="st0" d="M264.7,137.6l-7.6-8.1H257v8.1h-1.9V121h1.9v7.8h0.1l7.4-7.8h2.5l-7.9,8.1l8.3,8.6h-2.7V137.6z"/>
		<path class="st0" d="M277.1,138c-1.6,0-3-0.4-4.2-1.1c-1.2-0.7-2.1-1.7-2.8-3c-0.7-1.3-1-2.8-1-4.5c0-2.7,0.7-4.9,2.2-6.5
			s3.5-2.4,6-2.4c2.4,0,4.3,0.8,5.7,2.3c1.4,1.5,2.1,3.7,2.1,6.4c0,2.6-0.7,4.7-2.2,6.3C281.5,137.2,279.6,138,277.1,138z
			 M277.3,122.2c-1.9,0-3.4,0.6-4.5,1.9s-1.6,3-1.6,5.3c0,2.1,0.5,3.8,1.6,5.1c1.1,1.2,2.6,1.9,4.4,1.9c1.9,0,3.3-0.6,4.4-1.9
			c1-1.2,1.5-3,1.5-5.2c0-2.3-0.5-4-1.5-5.2C280.6,122.8,279.1,122.2,277.3,122.2z"/>
		<path class="st0" d="M301.6,132.8c0,1.4-0.5,2.5-1.5,3.4s-2.2,1.3-3.7,1.3h-7.1v-16.6h6.7c1.6,0,2.8,0.4,3.7,1.1
			c0.9,0.7,1.3,1.7,1.3,3c0,1-0.3,1.9-0.8,2.6s-1.3,1.1-2.3,1.4c1.3,0.1,2.2,0.6,2.8,1.3C301.3,130.9,301.6,131.7,301.6,132.8z
			 M299,125.2c0-0.9-0.3-1.5-0.8-1.9c-0.6-0.4-1.4-0.7-2.4-0.7h-4.5v5.5h4.1c1.2,0,2-0.2,2.7-0.7C298.7,126.9,299,126.2,299,125.2z
			 M299.6,132.8c0-1-0.3-1.7-1-2.2s-1.7-0.7-3-0.7h-4.4v6h4.8c1.2,0,2.1-0.3,2.7-0.8C299.3,134.5,299.6,133.8,299.6,132.8z"/>
		<path class="st0" d="M316.9,136.8c-1.3,0.8-2.8,1.2-4.5,1.2c-1.5,0-2.8-0.3-4-1s-2.1-1.7-2.7-3s-1-2.7-1-4.4
			c0-1.7,0.4-3.3,1.1-4.7c0.7-1.4,1.7-2.5,3-3.2c1.3-0.8,2.7-1.1,4.4-1.1c1.4,0,2.6,0.3,3.8,0.8v2.1c-1.2-0.8-2.5-1.2-3.9-1.2
			c-1.2,0-2.3,0.3-3.3,0.9s-1.7,1.5-2.2,2.6s-0.8,2.3-0.8,3.7c0,2.1,0.5,3.7,1.6,5s2.5,1.9,4.3,1.9c1.6,0,3-0.5,4.3-1.4L316.9,136.8
			L316.9,136.8z"/>
		<path class="st0" d="M330.5,137.6l-7.6-8.1h-0.1v8.1h-1.9V121h1.9v7.8h0.1l7.4-7.8h2.5l-7.9,8.1l8.3,8.6h-2.7V137.6z"/>
		<path class="st0" d="M342.9,138c-1.6,0-3-0.4-4.2-1.1c-1.2-0.7-2.1-1.7-2.8-3c-0.7-1.3-1-2.8-1-4.5c0-2.7,0.7-4.9,2.2-6.5
			s3.5-2.4,6-2.4c2.4,0,4.3,0.8,5.7,2.3c1.4,1.5,2.1,3.7,2.1,6.4c0,2.6-0.7,4.7-2.2,6.3C347.3,137.2,345.4,138,342.9,138z
			 M343,122.2c-1.9,0-3.4,0.6-4.5,1.9s-1.6,3-1.6,5.3c0,2.1,0.5,3.8,1.6,5.1c1.1,1.2,2.6,1.9,4.4,1.9c1.9,0,3.3-0.6,4.4-1.9
			c1-1.2,1.5-3,1.5-5.2c0-2.3-0.5-4-1.5-5.2C346.4,122.8,344.9,122.2,343,122.2z"/>
		<path class="st0" d="M369.8,137.6v-14.1c-0.1,0.5-0.4,1.1-0.7,1.8c-0.3,0.7-1.9,4.9-5,12.3h-1.4l-4.8-11.1c-0.2-0.4-0.4-1-0.7-1.8
			c-0.3-0.7-0.4-1.2-0.5-1.3v14.1H355v-16.6h2.4l4.8,11.3c0.4,1.1,0.8,2,1,2.6l0.2,0.6l0.2-0.5l5.5-13.9h2.5v16.6H369.8z"/>
		<path class="st0" d="M390.1,131.5c-1.1,0-2-0.4-2.8-1.2s-1.2-1.7-1.2-2.8s0.4-2,1.2-2.8c0.8-0.8,1.7-1.2,2.8-1.2
			c1.1,0,2,0.4,2.8,1.2c0.8,0.8,1.2,1.7,1.2,2.8c0,1.1-0.4,2-1.2,2.8C392.2,131.2,391.2,131.5,390.1,131.5z"/>
		<path class="st0" d="M429.4,137.6v-16.2c0-0.7,0.1-2,0.2-3.8h-0.1c-0.3,1-0.6,1.7-0.8,2.1l-8.2,17.9h-0.8l-8.2-17.8
			c-0.3-0.5-0.5-1.3-0.7-2.3h-0.1c0.1,0.9,0.1,2.1,0.1,3.7v16.4h-2v-23.3h2.3l8.1,17.8c0.3,0.7,0.6,1.4,0.9,2.3h0.1
			c0.3-1,0.6-1.6,0.7-1.9c0.1-0.3,2.9-6.3,8.3-18.2h2.2v23.3H429.4z"/>
		<path class="st0" d="M437.9,129.5c0,2.1,0.5,3.7,1.5,4.9s2.4,1.8,4.2,1.8c1.9,0,3.7-0.7,5.3-2v1.9c-1.6,1.2-3.5,1.8-5.8,1.8
			s-4.1-0.8-5.4-2.4c-1.3-1.6-2-3.7-2-6.4c0-1.6,0.3-3.1,1-4.4c0.6-1.3,1.6-2.4,2.7-3.1c1.2-0.7,2.4-1.1,3.8-1.1
			c2.1,0,3.7,0.7,4.9,2.1c1.2,1.4,1.7,3.4,1.7,5.9v0.9h-11.9V129.5z M448,127.8c0-1.8-0.5-3.2-1.3-4.1c-0.8-1-1.9-1.5-3.4-1.5
			s-2.7,0.5-3.6,1.5c-1,1-1.5,2.4-1.8,4.1H448z"/>
		<path class="st0" d="M459.8,129.4l5.4,8.2h-2.4l-3.5-5.6l-0.8-1.3h-0.1l-0.3,0.5l-4.1,6.4h-2.3l5.6-8.1l-5.5-8.5h2.3l4.3,7.3h0.1
			l0.4-0.6l4.1-6.6h2.2L459.8,129.4z"/>
		<path class="st0" d="M479.5,133c0,1.6-0.6,2.8-1.9,3.7c-1.2,0.9-3,1.3-5.1,1.3c-1,0-2-0.1-2.9-0.3s-1.7-0.4-2.3-0.8V135
			c0.7,0.4,1.6,0.7,2.5,1c0.9,0.2,1.8,0.3,2.7,0.3c3.4,0,5.1-1.1,5.1-3.2c0-1.1-0.4-1.9-1.3-2.4c-0.8-0.5-2.2-0.8-4-0.8h-2v-1.7h1.9
			c1.6,0,2.7-0.2,3.5-0.7c0.8-0.5,1.1-1.3,1.1-2.3c0-0.9-0.4-1.6-1.1-2.1s-1.7-0.8-3-0.8c-1.7,0-3.4,0.4-5.1,1.2v-1.9
			c1.8-0.7,3.6-1.1,5.3-1.1c1.9,0,3.3,0.4,4.4,1.1c1,0.8,1.5,1.8,1.5,3.2c0,1-0.3,1.9-0.9,2.6s-1.5,1.2-2.5,1.4v0.1
			c1.3,0.1,2.3,0.5,3.1,1.2C479.2,130.9,479.5,131.8,479.5,133z"/>
		<path class="st0" d="M493.3,137.6v-3.1h-0.1c-0.5,1.1-1.3,1.9-2.2,2.5c-1,0.6-2,0.9-3.2,0.9c-1.6,0-2.8-0.4-3.8-1.3
			c-0.9-0.9-1.4-2-1.4-3.4c0-3,1.9-4.8,5.7-5.3l5.1-0.7c0-3.3-1.3-4.9-3.8-4.9c-1.9,0-3.7,0.7-5.4,2.2v-2.1c1.8-1.1,3.6-1.7,5.6-1.7
			c1.8,0,3.2,0.5,4.1,1.6c0.9,1,1.4,2.6,1.4,4.6v10.8L493.3,137.6L493.3,137.6z M484.6,133.1c0,0.9,0.3,1.7,1,2.3
			c0.6,0.6,1.5,0.9,2.6,0.9c1.5,0,2.7-0.5,3.7-1.6s1.5-2.5,1.5-4.2v-1.6l-4.4,0.6c-1.6,0.2-2.8,0.6-3.4,1.2
			C484.9,131.2,484.6,132,484.6,133.1z"/>
		<path class="st0" d="M512.6,132.8c0,1.4-0.5,2.5-1.5,3.4s-2.2,1.3-3.7,1.3h-7.1v-16.6h6.7c1.6,0,2.8,0.4,3.7,1.1
			c0.9,0.7,1.3,1.7,1.3,3c0,1-0.3,1.9-0.8,2.6s-1.3,1.1-2.3,1.4c1.3,0.1,2.2,0.6,2.8,1.3C512.3,130.9,512.6,131.7,512.6,132.8z
			 M510,125.2c0-0.9-0.3-1.5-0.8-1.9c-0.6-0.4-1.4-0.7-2.4-0.7h-4.5v5.5h4.1c1.2,0,2-0.2,2.7-0.7C509.6,126.9,510,126.2,510,125.2z
			 M510.6,132.8c0-1-0.3-1.7-1-2.2s-1.7-0.7-3-0.7h-4.4v6h4.8c1.2,0,2.1-0.3,2.7-0.8C510.3,134.5,510.6,133.8,510.6,132.8z"/>
		<path class="st0" d="M523.6,138c-1.6,0-3-0.4-4.2-1.1c-1.2-0.7-2.1-1.7-2.8-3s-1-2.8-1-4.5c0-2.7,0.7-4.9,2.2-6.5s3.5-2.4,6-2.4
			c2.4,0,4.3,0.8,5.7,2.3s2.1,3.7,2.1,6.4c0,2.6-0.7,4.7-2.2,6.3C528.1,137.2,526.1,138,523.6,138z M523.8,122.2
			c-1.9,0-3.4,0.6-4.5,1.9s-1.6,3-1.6,5.3c0,2.1,0.5,3.8,1.6,5.1c1.1,1.2,2.6,1.9,4.4,1.9c1.9,0,3.3-0.6,4.4-1.9
			c1-1.2,1.5-3,1.5-5.2c0-2.3-0.5-4-1.5-5.2C527.1,122.8,525.7,122.2,523.8,122.2z"/>
		<path class="st0" d="M548.4,142.6v-5h-12.9v5h-1.7v-6.7h1.5c1.4-1.9,2.4-4.2,3.2-6.8c0.8-2.6,1.2-5.3,1.3-8.2h7.9v15h2.5v6.7
			H548.4z M545.6,122.6h-4.2c-0.4,5.1-1.7,9.5-4.1,13.2h8.3V122.6z"/>
	</g>
</g>
</svg>
