<?xml version="1.0" encoding="utf-8"?>
<!-- Generator: Adobe Illustrator 24.2.0, SVG Export Plug-In . SVG Version: 6.00 Build 0)  -->
<svg version="1.1" id="Layer_1" xmlns="http://www.w3.org/2000/svg" xmlns:xlink="http://www.w3.org/1999/xlink" x="0px" y="0px"
	 viewBox="0 0 551.1 145.2" style="enable-background:new 0 0 551.1 145.2;" xml:space="preserve">
<style type="text/css">
	.st0{fill:#05141F;}
</style>
<g>
	<path class="st0" d="M62.2,77.3H43L18.3,43.2c-0.6-0.8-1.2-2.1-2-3.8H16v37.9H1V0h15v36.6h0.3c0.4-1,1.1-2.3,2.1-3.9L41.9,0h18
		L31.1,36.9L62.2,77.3z"/>
	<path class="st0" d="M121.3,77.3H108V38.9c-1.2,2.4-2.6,4.9-4.3,7.5L83,77.3H68.9V22.1h13.4v37.5c0.9-2,2.1-4.2,3.4-6.4l21-31.2
		h14.6V77.3z"/>
	<path class="st0" d="M138.1,25.6c2.5-1.4,5.7-2.6,9.7-3.5s7.5-1.3,10.7-1.3c14.9,0,22.4,7.6,22.4,22.7v33.8h-14v-8.1h-0.3
		c-3.7,6.3-9.2,9.5-16.6,9.5c-5.3,0-9.5-1.5-12.7-4.5c-3.1-3-4.7-7-4.7-12.1c0-10.5,6.3-16.7,18.8-18.3l15.4-2.1
		c0-7-3.4-10.6-10.3-10.6c-6.6,0-12.7,2-18.5,6.1V25.6H138.1z M155.9,52.1c-6.3,0.8-9.5,3.6-9.5,8.5c0,2.2,0.8,3.9,2.3,5.3
		s3.5,2,6.1,2c3.5,0,6.4-1.2,8.7-3.7s3.4-5.6,3.4-9.3v-4.2L155.9,52.1z"/>
	<path class="st0" d="M309.7,98.3h-13.3v-21h-61.9V0h15v64.4h34.3V0h15v64.4h10.9V98.3z"/>
	<path class="st0" d="M369.3,53.9h-36.9c0.6,9.4,5.9,14.1,16,14.1c6.1,0,11.6-1.6,16.4-4.8v11.1c-5.1,3-11.7,4.5-19.7,4.5
		c-8.6,0-15.3-2.5-20-7.5c-4.8-5-7.2-11.9-7.2-20.9c0-8.8,2.6-15.9,7.7-21.4s11.6-8.2,19.3-8.2c7.7,0,13.7,2.4,18,7.1
		s6.5,11.2,6.5,19.5L369.3,53.9L369.3,53.9z M355.5,44.2c0-8.8-3.6-13.1-10.8-13.1c-3,0-5.7,1.2-8,3.6s-3.7,5.6-4.3,9.6h23.1
		L355.5,44.2L355.5,44.2z"/>
	<path class="st0" d="M431.4,77.3h-14.7V53.7H395v23.6h-14.7V22.1H395v21.1h21.7V22.1h14.7L431.4,77.3L431.4,77.3z"/>
	<path class="st0" d="M486.2,33.5h-15.3v43.9h-14.7V33.5h-15.4V22.1h45.5v11.4H486.2z"/>
	<path class="st0" d="M510.3,70.5v32.3h-14.7V22.1h14.7v8.7h0.2c4.3-6.7,10.3-10,18.2-10c7,0,12.5,2.4,16.5,7.3s6,11.6,6,20.1
		c0,9.2-2.3,16.6-6.9,22.1c-4.6,5.6-10.6,8.4-18.2,8.4c-6.8,0-12-2.7-15.7-8.3h-0.1L510.3,70.5L510.3,70.5z M510,53.3
		c0,4,1.2,7.3,3.5,10c2.3,2.6,5.3,4,8.9,4c4.3,0,7.6-1.7,10-5c2.4-3.3,3.6-8,3.6-14c0-10.7-4.2-16-12.7-16c-4,0-7.2,1.5-9.7,4.5
		s-3.7,6.7-3.7,11.2v5.3C509.9,53.3,510,53.3,510,53.3z"/>
</g>
<g>
	<path class="st0" d="M16.7,136.2c-1.8,0.8-3.8,1.2-6,1.2c-2.1,0-3.9-0.5-5.5-1.4c-1.6-1-2.9-2.3-3.8-4c-0.9-1.7-1.3-3.7-1.3-5.9
		c0-2.4,0.5-4.5,1.5-6.4c1-1.9,2.3-3.3,4.1-4.3c1.7-1,3.7-1.5,5.9-1.5c1.9,0,3.6,0.3,5.2,0.9v2.1c-1.7-0.8-3.4-1.2-5.2-1.2
		c-1.9,0-3.5,0.4-4.9,1.3c-1.4,0.9-2.5,2.1-3.3,3.6c-0.8,1.6-1.1,3.3-1.1,5.3c0,1.9,0.4,3.6,1.1,5.1c0.7,1.5,1.7,2.6,3.1,3.4
		s2.9,1.2,4.6,1.2c2.1,0,4.1-0.4,5.8-1.3V136.2z"/>
	<path class="st0" d="M104.3,132c0,1.5-0.5,2.7-1.4,3.6c-0.9,0.9-2.2,1.4-3.6,1.4h-6.6v-16.3h1.9v6.5h4.6c1.6,0,2.9,0.4,3.8,1.3
		C103.9,129.4,104.3,130.5,104.3,132z M102.4,132c0-1-0.3-1.8-0.9-2.3c-0.6-0.6-1.5-0.8-2.7-0.8h-4.2v6.4h4.2c1.2,0,2.1-0.3,2.7-0.8
		C102.1,133.9,102.4,133.1,102.4,132z M107.6,137v-16.3h1.9V137H107.6z"/>
	<path class="st0" d="M196.8,132.5c0,1.5-0.6,2.7-1.8,3.6c-1.2,0.9-2.9,1.3-5,1.3c-1,0-1.9-0.1-2.9-0.3c-0.9-0.2-1.7-0.4-2.3-0.7
		v-1.9c0.7,0.4,1.5,0.7,2.4,0.9s1.8,0.3,2.6,0.3c3.3,0,5-1.1,5-3.2c0-1.1-0.4-1.9-1.2-2.4c-0.8-0.5-2.1-0.8-3.9-0.8h-2v-1.7h1.8
		c1.5,0,2.6-0.2,3.4-0.7c0.7-0.5,1.1-1.2,1.1-2.3c0-0.9-0.4-1.6-1.1-2.1s-1.7-0.7-2.9-0.7c-1.6,0-3.3,0.4-4.9,1.2v-1.8
		c1.8-0.7,3.5-1,5.1-1c1.8,0,3.3,0.4,4.3,1.1c1,0.7,1.5,1.8,1.5,3.1c0,1-0.3,1.8-0.9,2.5c-0.6,0.7-1.4,1.1-2.5,1.3v0.1
		c1.2,0.1,2.2,0.5,3,1.2S196.8,131.3,196.8,132.5z"/>
	<path class="st0" d="M274.2,134.3v10.2h-1.9v-23.8h1.9v3.2h0.1c0.6-1.1,1.4-2,2.4-2.6s2.2-0.9,3.5-0.9c2,0,3.7,0.7,4.8,2.1
		c1.2,1.4,1.8,3.4,1.8,5.8c0,2.7-0.7,4.9-2,6.6c-1.3,1.7-3.1,2.5-5.3,2.5C277.2,137.4,275.4,136.3,274.2,134.3L274.2,134.3z
		 M274.2,130.2c0,1.5,0.5,2.9,1.5,3.9c1,1.1,2.2,1.6,3.8,1.6c1.6,0,2.9-0.7,3.9-2c1-1.3,1.5-3.1,1.5-5.4c0-1.9-0.4-3.5-1.3-4.6
		c-0.9-1.1-2.1-1.7-3.7-1.7c-1.1,0-2.1,0.3-2.9,0.8c-0.9,0.5-1.5,1.3-2,2.2c-0.5,0.9-0.7,2-0.7,3.1V130.2z"/>
	<path class="st0" d="M371.8,137v-3h-0.1c-0.5,1.1-1.3,1.9-2.2,2.5c-0.9,0.6-2,0.9-3.2,0.9c-1.5,0-2.8-0.4-3.7-1.3
		c-0.9-0.9-1.4-2-1.4-3.4c0-2.9,1.8-4.7,5.5-5.2l5-0.7c0-3.2-1.2-4.8-3.7-4.8c-1.8,0-3.6,0.7-5.3,2.1V122c1.7-1.1,3.5-1.7,5.4-1.7
		c1.8,0,3.1,0.5,4.1,1.5c0.9,1,1.4,2.5,1.4,4.5V137H371.8z M363.3,132.6c0,0.9,0.3,1.7,0.9,2.2s1.5,0.9,2.5,0.9
		c1.5,0,2.7-0.5,3.6-1.6s1.5-2.4,1.5-4.1v-1.6l-4.3,0.6c-1.6,0.2-2.7,0.6-3.3,1.2C363.6,130.7,363.3,131.5,363.3,132.6z"/>
	<path class="st0" d="M461,137v-7.6h-9.1v7.6H450v-16.3h1.9v7h9.1v-7h1.9V137H461z"/>
	<path class="st0" d="M551.2,132c0,1.5-0.5,2.7-1.4,3.6c-0.9,0.9-2.2,1.4-3.6,1.4h-6.6v-16.3h1.9v6.5h4.6c1.6,0,2.9,0.4,3.8,1.3
		C550.8,129.4,551.2,130.5,551.2,132z M549.3,132c0-1-0.3-1.8-0.9-2.3c-0.6-0.6-1.5-0.8-2.7-0.8h-4.2v6.4h4.2c1.2,0,2.1-0.3,2.7-0.8
		C549,133.9,549.3,133.1,549.3,132z"/>
</g>
</svg>
