<svg width="242" height="241" viewBox="0 0 242 241" fill="none" xmlns="http://www.w3.org/2000/svg">
<path fill-rule="evenodd" clip-rule="evenodd" d="M16.7773 106.301C81.596 78.1517 124.747 59.4468 146.415 50.3722C208.085 24.6299 221.049 20.1852 229.383 20C231.235 20 235.309 20.3704 238.087 22.5928C240.309 24.4447 240.865 26.8523 241.235 28.7042C241.606 30.5562 241.976 34.4453 241.606 37.4085C238.272 72.5958 223.827 157.971 216.419 197.233C213.271 213.901 207.159 219.456 201.233 220.012C188.269 221.123 178.454 211.493 166.046 203.344C146.415 190.566 135.488 182.602 116.413 170.009C94.3746 155.564 108.635 147.6 121.228 134.637C124.562 131.303 181.417 79.448 182.528 74.8181C182.713 74.2625 182.713 72.0402 181.417 70.929C180.12 69.8178 178.269 70.1882 176.787 70.5586C174.75 70.929 143.637 91.671 83.0776 132.599C74.1882 138.711 66.2247 141.674 59.0021 141.489C51.0387 141.304 35.8526 137.044 24.3704 133.34C10.4807 128.895 -0.631115 126.488 0.294867 118.71C0.850456 114.635 6.40634 110.561 16.7773 106.301Z"/>
</svg>
