<svg width="466" height="85" viewBox="0 0 466 85" fill="none" xmlns="http://www.w3.org/2000/svg">
<path d="M363.889 80.0394L394.378 58.0263L389.342 81.6624H397.899L404.728 49.81C405.215 47.4773 403.986 46.3102 400.992 46.3102C398.91 46.3102 397.817 46.9701 395.987 48.2887L365.477 70.351L370.551 46.563H361.974L355.28 78.1119C354.772 80.4956 356.002 81.6624 358.945 81.6624C360.975 81.6624 362.13 81.3078 363.889 80.0394Z" fill="#50565B"/>
<path fill-rule="evenodd" clip-rule="evenodd" d="M126.859 67.0549H142.137L136.909 55.5916L126.859 67.0549ZM144.927 73.2938H121.378L114.034 81.6624H103.719L133.813 48.5424C135.234 47.0702 136.909 46.3098 138.837 46.3098C140.665 46.3098 142.086 47.0702 142.796 48.5424L158.839 81.6624H148.751L144.927 73.2938Z" fill="#E41F2E"/>
<path fill-rule="evenodd" clip-rule="evenodd" d="M201.378 55.8452C201.921 54.2182 200.082 53.2582 196.709 53.2582H176.762C176.408 53.2582 176.204 53.4109 176.154 53.7159L174.632 60.8671H195.187C201.081 60.8671 200.779 58.904 201.378 55.8452ZM198.993 69.4889C198.993 69.3378 199.044 69.2365 199.044 69.0841C199.044 67.7141 197.521 67.0047 194.273 67.0047H173.362L171.687 74.6624C171.687 74.8665 171.891 74.967 172.144 74.967H192.546C196.1 74.967 197.977 74.1551 198.333 72.533L198.993 69.4889ZM161.628 81.6624L169.11 46.5631H197.927C207.172 46.5631 211.246 49.3161 209.956 55.4401C209.199 59.0321 209.068 61.3894 204.728 63.8079C208.781 66.4748 207.561 69.7648 206.759 73.547C205.54 78.9744 200.465 81.6624 191.431 81.6624H161.628Z" fill="#E41F2E"/>
<path fill-rule="evenodd" clip-rule="evenodd" d="M228.76 53.2589H213.178L214.605 46.5631H254.404L252.977 53.2589H237.338L231.307 81.6624H222.692L228.76 53.2589Z" fill="#E41F2E"/>
<path fill-rule="evenodd" clip-rule="evenodd" d="M289.031 56.5051C289.081 56.3018 289.081 56.1498 289.081 55.9469C289.081 54.172 287.051 53.2589 282.941 53.2589H271.369C266.852 53.2589 264.314 54.375 263.857 56.5051L260.66 71.4679C260.609 71.6705 260.609 71.8727 260.609 72.0768C260.609 74.004 262.639 74.9674 266.801 74.9674H278.322C282.89 74.9674 285.377 73.8006 285.885 71.4679L289.031 56.5051ZM265.481 81.6624C256.346 81.6624 251.778 79.1263 251.778 74.004C251.778 73.2938 251.829 72.5836 252.031 71.7714L255.33 56.3018C256.701 49.8101 262.487 46.5638 272.688 46.5638H284.514C293.447 46.5638 297.912 49.0995 297.912 54.1214C297.912 54.7802 297.811 55.5417 297.659 56.3018L294.361 71.7714C292.939 78.3656 287.103 81.6624 276.799 81.6624H265.481Z" fill="#E41F2E"/>
<path d="M455.038 60.3598L435.397 79.4305C434.331 80.4964 432.656 81.6624 430.168 81.6624C427.733 81.6624 426.616 80.4446 426.006 79.4305L414.587 60.3092L410.038 81.6624H401.468L408.192 50.1653C408.751 47.6281 410.476 46.3102 413.319 46.3102C415.958 46.3102 417.024 47.3749 417.988 48.9986L432.097 72.4785L456.408 48.9986C458.083 47.3246 459.657 46.3604 462.296 46.3102C464.682 46.3102 465.899 47.3246 465.899 49.0995C465.899 49.4555 465.848 49.81 465.798 50.1653L459.072 81.6624H450.489L455.038 60.3598Z" fill="#50565B"/>
<path d="M332.792 53.2589H317.21L318.638 46.5631H358.437L357.01 53.2589H341.37L335.339 81.6624H326.724L332.792 53.2589Z" fill="#50565B"/>
<path d="M314.131 68.8369L315.56 62.1411H303.131L301.703 68.8369H314.131Z" fill="#50565B"/>
<path fill-rule="evenodd" clip-rule="evenodd" d="M147.823 21.3116C153.878 12.7639 161.56 4.41188 172.992 5.61679C180.92 6.44791 189.773 9.36379 197.317 12.5061C198.058 12.8153 197.78 12.9491 197.513 13.804C196.637 16.6564 195.576 20.7761 192.322 21.2909C176.852 23.774 161.062 24.8693 146.201 24.5775C145.304 24.5598 147.069 22.4508 147.823 21.3116ZM201.963 16.2369C201.563 15.2221 200.953 14.6759 200.834 15.2931C200.312 17.9925 198.445 20.1079 199.532 19.8501C201.575 19.3663 202.047 19.6086 202.174 18.1909C202.243 17.4044 202.256 16.981 201.963 16.2369ZM129.385 25.0538L129.387 25.0949C129.399 25.2476 129.29 25.3826 129.139 25.4056C103.197 29.3073 73.138 35.5333 48.2064 44.2311C48.0575 44.2825 47.9766 44.445 48.0238 44.5954L48.0287 44.6113C48.0767 44.7617 48.2355 44.8475 48.3874 44.8052C58.594 41.9184 72.6191 38.225 79.8936 37.1709C84.8485 36.4513 84.5238 44.326 79.3686 46.1001C74.9367 47.6236 69.4485 48.6822 65.1636 49.3516C65.0083 49.3754 64.9002 49.5183 64.9175 49.6736L64.9206 49.6959C64.9387 49.8524 65.0763 49.9661 65.2339 49.9544C70.7218 49.5281 78.3084 47.8228 81.6756 46.7414C82.5249 46.4693 82.8892 46.1919 83.5064 45.507C85.7401 43.0288 87.8559 37.4963 86.0731 34.8027C110.891 30.5144 130.671 27.5868 155.32 27.058C173.682 26.6638 188.765 26.3403 206.683 21.0373C207.584 20.7712 207.355 20.8116 208.3 21.0527C212.11 22.0222 216.563 22.5188 220.458 22.7445C221.607 22.8095 219.181 24.3829 219.058 24.4623C216.958 25.8361 208.772 28.8337 203.459 30.1036C203.311 30.1391 203.215 30.2816 203.238 30.4324L203.244 30.474C203.267 30.6259 203.403 30.7332 203.556 30.7219C210.937 30.1501 218.209 27.9738 225.34 25.976C227.152 25.4718 227.029 25.3478 228.418 27.0989C231.318 30.745 232.142 35.8968 232.85 35.7233C232.998 35.6874 233.093 35.5454 233.069 35.3949C232.274 30.2608 230.807 24.714 226.04 22.1972C221.735 20.4869 217.904 19.5088 212.992 18.5405C211.601 18.2627 211.601 18.2113 210.469 17.5313C202.982 13.0314 195.958 9.18955 189.048 6.16139C178.923 1.71667 173.097 1.55001 162.818 1.29111C148.833 0.930169 131.819 0.641802 117.742 1.31116C111.089 1.63015 106.64 2.57767 100.327 4.8435C87.6389 9.82756 78.6902 14.761 67.8864 21.4753C66.2593 22.4848 65.9709 22.588 64.0762 22.8246C55.0651 23.9471 46.8057 25.7288 38.3607 28.0456C37.104 28.3858 37.0628 28.4372 35.7653 28.3446C32.1094 28.0868 27.1351 29.0551 23.9837 30.2393C19.2113 32.1445 9.33581 36.2593 0.725294 42.6233C0.60057 42.7151 0.569952 42.8894 0.655369 43.0198L0.672385 43.0454C0.757802 43.1751 0.928631 43.2148 1.06318 43.1373C13.9056 35.7109 28.1802 31.9355 41.5227 29.3435C46.2308 28.4281 69.1552 24.4589 73.076 24.4422C80.417 24.4094 123.181 24.7586 129.095 24.7828C129.247 24.7835 129.373 24.9014 129.385 25.0538ZM141.345 20.5183C146.34 15.3838 151.336 10.3737 156.341 5.24751C156.419 5.16663 156.444 5.0559 156.409 4.94932L156.357 4.79548C156.321 4.6889 156.233 4.61597 156.121 4.59971C146.931 3.2833 132.364 3.02138 118.472 3.23115C111.091 3.34227 104.808 4.74823 98.0281 7.55188C87.936 12.2234 79.8886 16.6488 71.7298 21.58C71.616 21.6488 71.5638 21.7784 71.5979 21.9066L71.63 22.0245C71.664 22.1519 71.7763 22.2388 71.9074 22.241C86.25 22.5064 120.545 22.1972 134.196 22.1892C136.622 22.1881 139.419 22.1552 141.345 20.5183Z" fill="#E41F2E"/>
<path fill-rule="evenodd" clip-rule="evenodd" d="M94.3117 81.6624C95.4021 68.0867 97.5175 58.3435 101.71 51.9863C109.11 40.7641 120.26 38.8513 136.922 39.3457C136.995 39.3479 137.198 39.3544 137.392 39.3457C137.873 39.3249 138.028 38.8993 137.519 38.7274C130.367 36.3024 122.383 36.1365 115.061 38.0871C106.876 40.2667 99.5161 45.1952 95.0669 54.6917C95.0204 54.7922 94.9346 54.8693 94.8204 54.8791C79.4298 56.236 65.7702 57.1986 51.6495 56.9061C51.4923 56.9035 51.36 57.0252 51.3517 57.1828L51.3502 57.2017C51.3411 57.3589 51.4594 57.495 51.6163 57.5093C64.421 58.642 78.5473 58.7146 93.1325 57.6545C93.9077 57.5978 94.2263 57.6057 94.0003 58.3998C92.0478 65.2933 91.0265 71.4811 90.2578 78.4664C90.2431 78.5968 90.1482 78.6993 90.0186 78.7223C70.3593 82.2804 44.8626 82.9009 22.8665 80.9798C22.7082 80.9666 22.5684 81.08 22.551 81.2376L22.5487 81.2523C22.5306 81.4095 22.6413 81.5532 22.7989 81.5755C44.9262 84.6648 70.3401 85.2261 93.7334 82.1356C94.1942 82.0747 94.277 82.0963 94.3117 81.6624Z" fill="#E41F2E"/>
<path fill-rule="evenodd" clip-rule="evenodd" d="M51.4087 63.8548C34.1888 63.4333 19.35 62.88 2.20608 61.1603C2.05074 61.1448 1.91015 61.2544 1.88785 61.409L1.88443 61.4332C1.86138 61.5885 1.96494 61.7337 2.11914 61.7628C17.8238 64.7365 33.4533 66.1436 50.5122 66.6244C52.7055 66.6452 54.1685 67.5621 55.6822 68.7356C58.9904 70.8027 61.9173 74.0618 64.7225 77.568C64.8181 77.6863 64.9878 77.7128 65.1148 77.6277L65.1503 77.6035C65.2777 77.517 65.3159 77.3492 65.2403 77.2154C62.1229 71.7513 56.3062 63.4076 51.4087 63.8442V63.8548Z" fill="#E41F2E"/>
</svg>
