<svg width="43" height="62" viewBox="0 0 43 62" fill="none" xmlns="http://www.w3.org/2000/svg">
<g clip-path="url(#clip0_2008_243)">
<path opacity="0.2" d="M35 58.4C35 60.4 28.8 62 21.2 62C13.6 62 7.40002 60.4 7.40002 58.4C7.40002 56.4 13.6 54.8 21.2 54.8C28.8 54.7 35 56.4 35 58.4Z" fill="#05141F"/>
<path d="M21.4 0C9.6 0 0 9.6 0 21.4C0 34 21.4 58.5 21.4 58.5C21.4 58.5 42.8 35 42.8 21.4C42.8 9.6 33.2 0 21.4 0ZM21.4 33.7C14.1 33.7 8.2 27.8 8.2 20.5C8.2 13.2 14.1 7.3 21.4 7.3C28.7 7.3 34.6 13.2 34.6 20.5C34.6 27.8 28.7 33.7 21.4 33.7Z" fill="#010101"/>
<path d="M21.7 38.4C30.9232 38.4 38.4 30.9232 38.4 21.7C38.4 12.4768 30.9232 5 21.7 5C12.4768 5 5 12.4768 5 21.7C5 30.9232 12.4768 38.4 21.7 38.4Z" fill="white"/>
<path d="M30.2036 23.2721L32.2349 21.8055L31.8994 23.3802H32.4695L32.9245 21.2581C32.9569 21.1026 32.875 21.0249 32.6755 21.0249C32.5368 21.0249 32.464 21.0689 32.3421 21.1567L30.3094 22.6266L30.6474 21.0417H30.076L29.63 23.1437C29.5962 23.3025 29.6781 23.3802 29.8741 23.3802C30.0094 23.3802 30.0864 23.3566 30.2036 23.2721Z" fill="#50565B"/>
<path fill-rule="evenodd" clip-rule="evenodd" d="M14.4115 22.407H15.4294L15.0811 21.6433L14.4115 22.407ZM15.6153 22.8227H14.0463L13.557 23.3802H12.8698L14.8748 21.1736C14.9694 21.0755 15.0811 21.0249 15.2095 21.0249C15.3313 21.0249 15.426 21.0755 15.4733 21.1736L16.5422 23.3802H15.87L15.6153 22.8227Z" fill="#E41F2E"/>
<path fill-rule="evenodd" clip-rule="evenodd" d="M19.3764 21.6602C19.4126 21.5517 19.2901 21.4878 19.0653 21.4878H17.7364C17.7128 21.4878 17.6992 21.498 17.6958 21.5183L17.5944 21.9947H18.9639C19.3566 21.9947 19.3365 21.8639 19.3764 21.6602ZM19.2175 22.5692C19.2175 22.5591 19.2209 22.5523 19.2209 22.5422C19.2209 22.4509 19.1194 22.4036 18.903 22.4036H17.5098L17.3982 22.9138C17.3982 22.9274 17.4118 22.9341 17.4287 22.9341H18.788C19.0247 22.9341 19.1498 22.88 19.1735 22.772L19.2175 22.5692ZM16.728 23.3802L17.2265 21.0417H19.1465C19.7624 21.0417 20.0338 21.2251 19.9479 21.6332C19.8975 21.8725 19.8888 22.0295 19.5996 22.1907C19.8696 22.3683 19.7883 22.5875 19.7349 22.8395C19.6537 23.2011 19.3156 23.3802 18.7137 23.3802H16.728Z" fill="#E41F2E"/>
<path fill-rule="evenodd" clip-rule="evenodd" d="M21.2006 21.4878H20.1625L20.2576 21.0417H22.9092L22.8141 21.4878H21.7722L21.3703 23.3802H20.7964L21.2006 21.4878Z" fill="#E41F2E"/>
<path fill-rule="evenodd" clip-rule="evenodd" d="M25.2162 21.7041C25.2196 21.6906 25.2196 21.6804 25.2196 21.6669C25.2196 21.5487 25.0843 21.4878 24.8105 21.4878H24.0395C23.7385 21.4878 23.5695 21.5622 23.539 21.7041L23.326 22.701C23.3226 22.7145 23.3226 22.728 23.3226 22.7416C23.3226 22.87 23.4578 22.9342 23.7351 22.9342H24.5027C24.8071 22.9342 24.9727 22.8564 25.0066 22.701L25.2162 21.7041ZM23.6472 23.3802C23.0386 23.3802 22.7343 23.2113 22.7343 22.87C22.7343 22.8227 22.7376 22.7753 22.7511 22.7212L22.9709 21.6906C23.0622 21.2581 23.4478 21.0418 24.1274 21.0418H24.9153C25.5104 21.0418 25.808 21.2107 25.808 21.5453C25.808 21.5892 25.8012 21.6399 25.7911 21.6906L25.5713 22.7212C25.4766 23.1606 25.0877 23.3802 24.4013 23.3802H23.6472Z" fill="#E41F2E"/>
<path d="M36.2764 21.9609L34.9678 23.2315C34.8967 23.3025 34.7852 23.3802 34.6194 23.3802C34.4571 23.3802 34.3827 23.2991 34.3421 23.2315L33.5813 21.9576L33.2782 23.3802H32.7073L33.1552 21.2817C33.1925 21.1127 33.3074 21.0249 33.4968 21.0249C33.6726 21.0249 33.7437 21.0958 33.8079 21.204L34.7479 22.7683L36.3676 21.204C36.4792 21.0925 36.5841 21.0282 36.7599 21.0249C36.9189 21.0249 37 21.0925 37 21.2107C37 21.2344 36.9966 21.2581 36.9932 21.2817L36.5451 23.3802H35.9733L36.2764 21.9609Z" fill="#50565B"/>
<path d="M28.1318 21.4878H27.0936L27.1887 21.0417H29.8403L29.7452 21.4878H28.7033L28.3015 23.3802H27.7275L28.1318 21.4878Z" fill="#50565B"/>
<path d="M26.8885 22.5257L26.9836 22.0796H26.1556L26.0604 22.5257H26.8885Z" fill="#50565B"/>
<path fill-rule="evenodd" clip-rule="evenodd" d="M15.8082 19.3594C16.2117 18.7899 16.7235 18.2334 17.4851 18.3137C18.0133 18.3691 18.6031 18.5633 19.1058 18.7727C19.1552 18.7933 19.1366 18.8022 19.1188 18.8592C19.0605 19.0492 18.9898 19.3237 18.773 19.358C17.7423 19.5234 16.6903 19.5964 15.7002 19.5769C15.6404 19.5758 15.758 19.4353 15.8082 19.3594ZM19.4153 19.0213C19.3887 18.9536 19.348 18.9173 19.3401 18.9584C19.3053 19.1382 19.1809 19.2792 19.2534 19.262C19.3894 19.2298 19.4209 19.2459 19.4293 19.1514C19.434 19.099 19.4348 19.0708 19.4153 19.0213ZM14.5798 19.6087L14.58 19.6114C14.5807 19.6216 14.5735 19.6306 14.5634 19.6321C12.835 19.8921 10.8324 20.3069 9.1713 20.8864C9.16138 20.8898 9.15599 20.9006 9.15913 20.9106L9.15946 20.9117C9.16266 20.9217 9.17324 20.9274 9.18336 20.9246C9.86337 20.7323 10.7978 20.4862 11.2825 20.416C11.6126 20.368 11.5909 20.8927 11.2475 21.0109C10.9522 21.1124 10.5865 21.1829 10.3011 21.2275C10.2907 21.2291 10.2835 21.2386 10.2847 21.249L10.2849 21.2505C10.2861 21.2609 10.2953 21.2685 10.3058 21.2677C10.6714 21.2393 11.1768 21.1257 11.4012 21.0536C11.4578 21.0355 11.482 21.017 11.5232 20.9714C11.672 20.8063 11.8129 20.4377 11.6942 20.2582C13.3477 19.9725 14.6655 19.7774 16.3077 19.7422C17.5311 19.7159 18.536 19.6944 19.7298 19.3411C19.7898 19.3234 19.7745 19.326 19.8375 19.3421C20.0913 19.4067 20.388 19.4398 20.6475 19.4548C20.7241 19.4592 20.5624 19.564 20.5542 19.5693C20.4144 19.6608 19.8689 19.8605 19.515 19.9451C19.5051 19.9475 19.4987 19.957 19.5003 19.967L19.5007 19.9698C19.5022 19.9799 19.5113 19.9871 19.5214 19.9863C20.0132 19.9482 20.4977 19.8032 20.9728 19.6701C21.0935 19.6365 21.0853 19.6283 21.1779 19.7449C21.3711 19.9879 21.426 20.3311 21.4732 20.3195C21.483 20.3171 21.4894 20.3077 21.4878 20.2977C21.4347 19.9556 21.337 19.586 21.0194 19.4184C20.7326 19.3044 20.4774 19.2392 20.1501 19.1747C20.0575 19.1562 20.0575 19.1528 19.982 19.1075C19.4832 18.8077 19.0152 18.5517 18.5548 18.35C17.8803 18.0538 17.4921 18.0427 16.8072 18.0255C15.8755 18.0014 14.742 17.9822 13.8041 18.0268C13.3608 18.0481 13.0644 18.1112 12.6438 18.2622C11.7985 18.5942 11.2023 18.9229 10.4825 19.3703C10.3741 19.4375 10.3549 19.4444 10.2286 19.4602C9.62826 19.5349 9.07798 19.6537 8.51533 19.808C8.4316 19.8307 8.42886 19.8341 8.34241 19.8279C8.09884 19.8108 7.76743 19.8753 7.55747 19.9542C7.23951 20.0811 6.58155 20.3552 6.00788 20.7792C5.99957 20.7854 5.99753 20.797 6.00322 20.8057L6.00435 20.8074C6.01004 20.816 6.02142 20.8187 6.03039 20.8135C6.88602 20.3187 7.83705 20.0672 8.726 19.8945C9.03968 19.8335 10.567 19.569 10.8282 19.5679C11.3173 19.5657 14.1665 19.589 14.5605 19.5906C14.5706 19.5907 14.579 19.5985 14.5798 19.6087ZM15.3766 19.3065C15.7095 18.9644 16.0423 18.6306 16.3757 18.2891C16.381 18.2837 16.3826 18.2763 16.3803 18.2692L16.3768 18.259C16.3744 18.2519 16.3686 18.247 16.3611 18.2459C15.7488 18.1582 14.7783 18.1408 13.8528 18.1547C13.361 18.1622 12.9424 18.2558 12.4907 18.4426C11.8183 18.7539 11.2821 19.0487 10.7385 19.3772C10.731 19.3818 10.7275 19.3905 10.7298 19.399L10.7319 19.4069C10.7342 19.4153 10.7416 19.4211 10.7504 19.4213C11.7059 19.439 13.9909 19.4184 14.9003 19.4178C15.062 19.4178 15.2483 19.4156 15.3766 19.3065Z" fill="#E41F2E"/>
<path fill-rule="evenodd" clip-rule="evenodd" d="M12.243 23.3802C12.3156 22.4757 12.4566 21.8266 12.7359 21.4031C13.2289 20.6554 13.9718 20.5279 15.0819 20.5609C15.0868 20.561 15.1003 20.5615 15.1132 20.5609C15.1452 20.5595 15.1556 20.5311 15.1217 20.5197C14.6452 20.3581 14.1132 20.3471 13.6254 20.477C13.0801 20.6222 12.5897 20.9506 12.2933 21.5833C12.2902 21.59 12.2845 21.5951 12.2769 21.5958C11.2515 21.6862 10.3414 21.7503 9.40064 21.7308C9.39016 21.7307 9.38135 21.7388 9.3808 21.7493L9.3807 21.7505C9.38009 21.761 9.38797 21.7701 9.39842 21.771C10.2515 21.8465 11.1927 21.8513 12.1644 21.7807C12.2161 21.7769 12.2373 21.7774 12.2222 21.8304C12.0922 22.2896 12.0241 22.7019 11.9729 23.1673C11.9719 23.176 11.9656 23.1828 11.957 23.1843C10.6472 23.4214 8.94846 23.4627 7.48298 23.3347C7.47243 23.3339 7.46311 23.3414 7.46195 23.3519L7.4618 23.3529C7.46059 23.3634 7.46797 23.3729 7.47847 23.3744C8.95269 23.5803 10.6459 23.6177 12.2045 23.4117C12.2352 23.4077 12.2407 23.4091 12.243 23.3802Z" fill="#E41F2E"/>
<path fill-rule="evenodd" clip-rule="evenodd" d="M9.3846 22.1938C8.23733 22.1657 7.24869 22.1288 6.10648 22.0143C6.09613 22.0132 6.08677 22.0205 6.08528 22.0308L6.08505 22.0325C6.08352 22.0428 6.09042 22.0525 6.10069 22.0544C7.14701 22.2525 8.18833 22.3463 9.32487 22.3783C9.471 22.3797 9.56847 22.4408 9.66932 22.519C9.88973 22.6567 10.0847 22.8738 10.2716 23.1074C10.278 23.1153 10.2893 23.1171 10.2978 23.1114L10.3001 23.1098C10.3086 23.104 10.3112 23.0929 10.3061 23.0839C10.0984 22.7199 9.7109 22.164 9.3846 22.1931V22.1938Z" fill="#E41F2E"/>
</g>
<defs>
<clipPath id="clip0_2008_243">
<rect width="42.8" height="62" fill="white"/>
</clipPath>
</defs>
</svg>
