<svg width="168" height="168" viewBox="0 0 168 168" fill="none" xmlns="http://www.w3.org/2000/svg">
<rect width="168" height="168" fill="white"/>
<path d="M138.548 42.4386C146.502 51.4771 149.394 64.8541 147.586 84.7389C146.14 105.708 141.078 118.724 132.04 127.039C122.64 135.716 107.094 140.055 83.955 140.055C60.8164 140.055 45.2702 136.078 35.8701 127.039C27.1931 118.724 22.4931 105.708 20.6854 84.7389C18.8777 64.8541 21.77 51.4771 29.7239 42.4386C39.124 31.9539 56.4779 26.8923 84.3166 26.8923C111.794 26.8923 129.148 31.9539 138.548 42.4386ZM84.3166 24C28.6393 24 14.1777 44.6078 17.4315 85.1004C21.0469 125.955 35.5086 143.308 83.955 143.308C132.401 143.308 146.863 125.955 150.479 85.1004C154.094 44.6078 139.632 24 84.3166 24Z" fill="#0B457F"/>
<path d="M84.3157 29.7848C34.4231 29.7848 20.6846 48.2234 23.9384 85.1005C27.1923 121.616 40.2078 137.162 83.9542 137.162C127.701 137.162 140.716 121.616 143.97 85.1005C147.224 48.2234 134.208 29.7848 84.3157 29.7848ZM109.262 38.4618C99.5005 63.0465 88.6542 86.5467 85.4004 93.7775C85.2719 93.9427 85.1074 94.0764 84.9195 94.1684C84.7315 94.2603 84.525 94.3081 84.3157 94.3081C84.1065 94.3081 83.9 94.2603 83.712 94.1684C83.524 94.0764 83.3596 93.9427 83.2311 93.7775C79.6157 86.1852 68.7695 63.0465 59.3694 38.4618C59.0079 38.1002 59.3694 37.7387 59.731 37.7387C66.6002 36.2925 74.9157 35.5694 84.6773 35.5694C94.4389 35.5694 102.393 36.2925 109.624 37.7387C109.262 37.7387 109.624 38.1002 109.262 38.4618ZM29.3615 84.3775C28.2769 67.385 30.4462 56.1773 36.9539 48.5849C40.5693 44.608 45.6309 41.7156 52.5001 39.5464C52.8617 39.5464 52.8617 39.5464 52.8617 40.2695V73.5312C52.8617 78.9543 54.3078 84.3775 56.8386 89.439L78.8926 130.655C79.2542 131.016 78.8926 131.378 78.5311 131.378C61.1771 130.655 49.9694 127.401 42.7385 120.532C35.1462 113.662 31.1692 102.454 29.3615 84.3775ZM138.908 84.3775C137.462 102.454 133.124 113.662 125.531 120.532C118.301 127.401 106.731 131.016 89.7389 131.378C89.0158 131.378 89.0158 130.655 89.0158 130.655L111.07 89.439C113.601 84.3775 114.685 78.9543 114.685 73.5312V39.9079C114.685 39.1848 115.047 39.1848 115.408 39.1848C122.278 41.3541 127.339 44.2464 130.955 48.2234C137.824 56.1773 140.355 67.385 138.908 84.3775Z" fill="#0B457F"/>
</svg>
