<svg width="43" height="62" viewBox="0 0 43 62" fill="none" xmlns="http://www.w3.org/2000/svg">
<g clip-path="url(#clip0_1854_272)">
<path opacity="0.2" d="M35 58.4C35 60.4 28.8 62 21.2 62C13.6 62 7.40002 60.4 7.40002 58.4C7.40002 56.4 13.6 54.8 21.2 54.8C28.8 54.7 35 56.4 35 58.4Z" fill="#05141F"/>
<path d="M21.4 0C9.6 0 0 9.6 0 21.4C0 34 21.4 58.5 21.4 58.5C21.4 58.5 42.8 35 42.8 21.4C42.8 9.6 33.2 0 21.4 0ZM21.4 33.7C14.1 33.7 8.2 27.8 8.2 20.5C8.2 13.2 14.1 7.3 21.4 7.3C28.7 7.3 34.6 13.2 34.6 20.5C34.6 27.8 28.7 33.7 21.4 33.7Z" fill="#010101"/>
<path d="M21.7 38.4C30.9232 38.4 38.4 30.9232 38.4 21.7C38.4 12.4768 30.9232 5 21.7 5C12.4768 5 5 12.4768 5 21.7C5 30.9232 12.4768 38.4 21.7 38.4Z" fill="white"/>
<path d="M31.6768 13.44C33.1607 15.1263 33.7004 17.622 33.3631 21.3319C33.0933 25.2441 32.149 27.6723 30.4627 29.2237C28.7089 30.8426 25.8085 31.652 21.4916 31.652C17.1747 31.652 14.2743 30.91 12.5205 29.2237C10.9017 27.6723 10.0248 25.2441 9.68757 21.3319C9.35031 17.622 9.88993 15.1263 11.3739 13.44C13.1276 11.4839 16.3653 10.5396 21.5591 10.5396C26.6854 10.5396 29.9231 11.4839 31.6768 13.44ZM21.5591 10C11.1715 10 8.47344 13.8447 9.08051 21.3993C9.75502 29.0214 12.4531 32.259 21.4916 32.259C30.5301 32.259 33.2282 29.0214 33.9027 21.3993C34.5772 13.8447 31.8792 10 21.5591 10Z" fill="#0B457F"/>
<path d="M21.5589 11.0793C12.2506 11.0793 9.68742 14.5193 10.2945 21.3994C10.9015 28.212 13.3298 31.1124 21.4915 31.1124C29.6531 31.1124 32.0814 28.212 32.6884 21.3994C33.2955 14.5193 30.8672 11.0793 21.5589 11.0793ZM26.2131 12.6981C24.3919 17.2848 22.3683 21.6692 21.7613 23.0182C21.7373 23.049 21.7066 23.074 21.6715 23.0911C21.6365 23.1083 21.5979 23.1172 21.5589 23.1172C21.5199 23.1172 21.4813 23.1083 21.4463 23.0911C21.4112 23.074 21.3805 23.049 21.3566 23.0182C20.682 21.6017 18.6585 17.2848 16.9047 12.6981C16.8373 12.6306 16.9047 12.5632 16.9722 12.5632C18.2538 12.2934 19.8052 12.1585 21.6264 12.1585C23.4476 12.1585 24.9315 12.2934 26.2805 12.5632C26.2131 12.5632 26.2805 12.6306 26.2131 12.6981ZM11.3063 21.2645C11.1039 18.0942 11.5086 16.0032 12.7227 14.5867C13.3973 13.8448 14.3416 13.3052 15.6232 12.9004C15.6906 12.9004 15.6906 12.9004 15.6906 13.0354V19.2409C15.6906 20.2527 15.9604 21.2645 16.4326 22.2088L20.5471 29.8983C20.6146 29.9657 20.5471 30.0332 20.4797 30.0332C17.242 29.8983 15.151 29.2912 13.802 28.0096C12.3855 26.728 11.6435 24.637 11.3063 21.2645ZM31.7441 21.2645C31.4743 24.637 30.6649 26.728 29.2484 28.0096C27.8994 29.2912 25.7409 29.9657 22.5707 30.0332C22.4358 30.0332 22.4358 29.8983 22.4358 29.8983L26.5503 22.2088C27.0225 21.2645 27.2248 20.2527 27.2248 19.2409V12.9679C27.2248 12.833 27.2923 12.833 27.3597 12.833C28.6413 13.2377 29.5857 13.7773 30.2602 14.5193C31.5418 16.0032 32.0139 18.0942 31.7441 21.2645Z" fill="#0B457F"/>
</g>
<defs>
<clipPath id="clip0_1854_272">
<rect width="42.8" height="62" fill="white"/>
</clipPath>
</defs>
</svg>
