<svg xmlns="http://www.w3.org/2000/svg" xmlns:xlink="http://www.w3.org/1999/xlink" viewBox="0 0 268.1 33.4" xmlns:v="https://vecta.io/nano"><style><![CDATA[.P{fill:#0b457f}]]></style><path d="M33.7 5.3h0c2.2 2.5 3 6.2 2.5 11.7-.4 5.8-1.8 9.4-4.3 11.7-2.6 2.4-6.9 3.6-13.3 3.6S7.9 31.2 5.3 28.7C2.9 26.4 1.6 22.8 1.1 17c-.5-5.5.3-9.2 2.5-11.7C6.2 2.4 11 1 18.7 1c7.6 0 12.4 1.4 15 4.3zM18.7.2h0C3.3.2-.7 5.9.2 17.1c1 11.3 5 16.1 18.4 16.1S36 28.4 37 17.1C38 5.9 34 .2 18.7.2z" class="P"/><defs><path id="A" d="M.2.4v33.4h267.5V.4"/></defs><clipPath id="B"><use xlink:href="#A"/></clipPath><path d="M18.7 1.8h0C4.9 1.8 1.1 6.9 2 17.1c.9 10.1 4.5 14.4 16.6 14.4s15.7-4.3 16.6-14.4c.9-10.2-2.7-15.3-16.5-15.3zm6.9 2.4h0C22.9 11 19.9 17.5 19 19.5a.38.38 0 0 1-.6 0c-1-2.1-4-8.5-6.6-15.3-.1-.1 0-.2.1-.2 1.9-.4 4.2-.6 6.9-.6s4.9.2 6.9.6c-.1 0 0 .1-.1.2zM3.5 16.9h0c-.3-4.7.3-7.8 2.1-9.9 1-1.1 2.4-1.9 4.3-2.5.1 0 .1 0 .1.2v9.2c0 1.5.4 3 1.1 4.4l6.1 11.4c.1.1 0 .2-.1.2-4.8-.2-7.9-1.1-9.9-3-2.1-1.9-3.2-5-3.7-10zm30.3 0h0c-.4 5-1.6 8.1-3.7 10-2 1.9-5.2 2.9-9.9 3-.2 0-.2-.2-.2-.2l6.1-11.4c.7-1.4 1-2.9 1-4.4V4.6c0-.2.1-.2.2-.2 1.9.6 3.3 1.4 4.3 2.5 1.9 2.2 2.6 5.3 2.2 10z" clip-path="url(#B)" class="P"/><defs><path id="C" d="M.2.4v33.4h267.5V.4"/></defs><clipPath id="D"><use xlink:href="#C"/></clipPath><path d="M55.1 24.2h0C50 24.2 47 22.4 47 17c0-4.9 3.1-6.9 8.3-6.9h6.6v3.7h-6.3c-2.5 0-3.2.7-3.2 3.3 0 2.8.7 3.5 3.4 3.5h6.1v3.7h-6.8z" clip-path="url(#D)" class="P"/><defs><path id="E" d="M.2.4v33.4h267.5V.4"/></defs><clipPath id="F"><use xlink:href="#E"/></clipPath><path d="M82.5 10h0v14.2h-5.2v-5.4h-5.8v5.4h-5.2V10h5.2v5h5.8v-5z" clip-path="url(#F)" class="P"/><defs><path id="G" d="M.2.4v33.4h267.5V.4"/></defs><clipPath id="H"><use xlink:href="#G"/></clipPath><path d="M85.4 24.2h0L91.1 10h4.8c1.2 0 1.7.4 2 1.2l5.5 13h-5.6l-3.6-8.8c-.2-.6-.6-.6-.8 0l-3.5 8.8h-4.5z" clip-path="url(#H)" class="P"/><defs><path id="I" d="M.2.4v33.4h267.5V.4"/></defs><clipPath id="J"><use xlink:href="#I"/></clipPath><path d="M117.5 23.4h0l-6.6-6.2c-.2-.3-.4-.2-.4.2v6.8h-4.3V10h2.8c1 0 1.6.2 2.1.6L118 17c.2.3.4.1.4-.2V10h4.3v13.5c0 .4-.2.7-.7.7h-2.3c-.9 0-1.6-.3-2.2-.8z" clip-path="url(#J)" class="P"/><defs><path id="K" d="M.2.4v33.4h267.5V.4"/></defs><clipPath id="L"><use xlink:href="#K"/></clipPath><path d="M142.9 24.2h0-7.9c-5.4 0-8.3-1.8-8.3-7.2 0-4.8 2.8-6.9 8.4-6.9h8.4v3.7h-8.2c-2.6 0-3.4.6-3.4 3.3 0 2.9.7 3.7 3.4 3.7h3.1c.2 0 .3-.2.3-.4V19c0-.2-.1-.4-.3-.4h-2.5v-3h6.8c.4 0 .7.2.7.7v7.2c.2.4-.1.7-.5.7z" clip-path="url(#L)" class="P"/><defs><path id="M" d="M.2.4v33.4h267.5V.4"/></defs><clipPath id="N"><use xlink:href="#M"/></clipPath><path d="M146.6 24.2h0l5.7-14.2h4.7c1.3 0 1.7.4 2.1 1.2l5.4 13H159l-3.6-8.8c-.2-.6-.6-.6-.8 0l-3.5 8.8h-4.5z" clip-path="url(#N)" class="P"/><defs><path id="O" d="M.2.4v33.4h267.5V.4"/></defs><clipPath id="P"><use xlink:href="#O"/></clipPath><path d="M178.7 23.4h0l-6.6-6.2c-.3-.3-.4-.2-.4.2v6.8h-4.3V10h2.7c1 0 1.7.2 2.2.6l6.9 6.4c.2.3.4.1.4-.2V10h4.3v13.5c0 .4-.2.7-.7.7h-2.3c-.9 0-1.6-.3-2.2-.8z" clip-path="url(#P)" class="P"/><defs><path id="Q" d="M.2.4v33.4h267.5V.4"/></defs><clipPath id="R"><use xlink:href="#Q"/></clipPath><path d="M192.2 24.2h0l5.7-14.2h4.8c1.2 0 1.7.4 2 1.2l5.5 13h-5.6l-3.6-8.8c-.2-.6-.6-.6-.8 0l-3.5 8.8h-4.5z" clip-path="url(#R)" class="P"/><defs><path id="S" d="M.2.4v33.4h267.5V.4"/></defs><clipPath id="T"><use xlink:href="#S"/></clipPath><path d="M228.2 10h0v8.2c0 5-3.2 6.5-8.1 6.5s-8.1-1.4-8.1-6.5V10h5.1v7.4c0 2.9 1.5 3.6 3.3 3.6 1.9 0 3.4-.7 3.4-3.6V10h4.4z" clip-path="url(#T)" class="P"/><defs><path id="U" d="M.2.4v33.4h267.5V.4"/></defs><clipPath id="V"><use xlink:href="#U"/></clipPath><path d="M231.5 10h15.6v3.8h-5.2v10.4h-5.2V13.8h-5.2z" clip-path="url(#V)" class="P"/><defs><path id="W" d="M.2.4v33.4h267.5V.4"/></defs><clipPath id="X"><use xlink:href="#W"/></clipPath><path d="M267.8 17h0c0 5.3-3.1 7.6-9.3 7.6-6.1 0-9.3-2.3-9.3-7.6s3.2-7.5 9.3-7.5 9.3 2.2 9.3 7.5zm-13.3 0h0c0 2.8 1 4 4 4s3.9-1.1 3.9-4c0-2.7-1-3.8-3.9-3.8-3 0-4 1-4 3.8z" clip-path="url(#X)" class="P"/></svg>