<svg width="297" height="38" viewBox="0 0 297 38" fill="none" xmlns="http://www.w3.org/2000/svg">
<g clip-path="url(#clip0_32_464)">
<path d="M37.3332 6.37126C39.7704 9.14072 40.6566 13.2395 40.1027 19.3323C39.6596 25.7575 38.1087 29.7455 35.3392 32.2934C32.4589 34.9521 27.6954 36.2814 20.6055 36.2814C13.5156 36.2814 8.75209 35.0629 5.87182 32.2934C3.21311 29.7455 1.77298 25.7575 1.21908 19.3323C0.665184 13.2395 1.55142 9.14072 3.98857 6.37126C6.86884 3.15868 12.1863 1.60779 20.7163 1.60779C29.1355 1.60779 34.4529 3.15868 37.3332 6.37126ZM20.7163 0.721558C3.65623 0.721558 -0.77495 7.03593 0.222066 19.4431C1.32986 31.9611 5.76104 37.2784 20.6055 37.2784C35.45 37.2784 39.8811 31.9611 40.9889 19.4431C42.0967 7.03593 37.6656 0.721558 20.7163 0.721558Z" fill="#0B457F"/>
<mask id="mask0_32_464" style="mask-type:luminance" maskUnits="userSpaceOnUse" x="0" y="0" width="297" height="38">
<path d="M0.220703 0.943115V37.9431H296.556V0.943115" fill="white"/>
</mask>
<g mask="url(#mask0_32_464)">
<path d="M20.7148 2.49402C5.42719 2.49402 1.21757 8.14372 2.21458 19.4431C3.2116 30.6317 7.19966 35.3952 20.604 35.3952C34.0083 35.3952 37.9964 30.6317 38.9934 19.4431C39.9904 8.14372 36.0023 2.49402 20.7148 2.49402ZM28.3586 5.1527C25.3675 12.6856 22.0441 19.8862 21.0471 22.1018C21.0078 22.1524 20.9574 22.1934 20.8998 22.2216C20.8422 22.2497 20.7789 22.2644 20.7148 22.2644C20.6507 22.2644 20.5874 22.2497 20.5298 22.2216C20.4722 22.1934 20.4218 22.1524 20.3824 22.1018C19.2746 19.7755 15.9512 12.6856 13.071 5.1527C12.9602 5.04192 13.071 4.93114 13.1818 4.93114C15.2866 4.48803 17.8345 4.26647 20.8255 4.26647C23.8166 4.26647 26.2537 4.48803 28.4693 4.93114C28.3586 4.93114 28.4693 5.04192 28.3586 5.1527ZM3.87628 19.2216C3.54394 14.015 4.20862 10.5808 6.20265 8.2545C7.31044 7.03593 8.86136 6.14971 10.9662 5.48504C11.0769 5.48504 11.0769 5.48504 11.0769 5.70659V15.8982C11.0769 17.5599 11.5201 19.2216 12.2955 20.7725L19.0531 33.4012C19.1639 33.512 19.0531 33.6228 18.9423 33.6228C13.6249 33.4012 10.1907 32.4042 7.97512 30.2994C5.64875 28.1946 4.43018 24.7605 3.87628 19.2216ZM37.4425 19.2216C36.9994 24.7605 35.67 28.1946 33.3436 30.2994C31.128 32.4042 27.5831 33.512 22.3765 33.6228C22.1549 33.6228 22.1549 33.4012 22.1549 33.4012L28.9125 20.7725C29.6879 19.2216 30.0203 17.5599 30.0203 15.8982V5.59581C30.0203 5.37426 30.131 5.37426 30.2418 5.37426C32.3466 6.03893 33.8975 6.92516 35.0053 8.14372C37.1101 10.5808 37.8856 14.015 37.4425 19.2216Z" fill="#0B457F"/>
</g>
<mask id="mask1_32_464" style="mask-type:luminance" maskUnits="userSpaceOnUse" x="0" y="0" width="297" height="38">
<path d="M0.220703 0.943115V37.9431H296.556V0.943115" fill="white"/>
</mask>
<g mask="url(#mask1_32_464)">
<path d="M61.0395 27.3084C55.3898 27.3084 52.0664 25.3143 52.0664 19.3323C52.0664 13.9042 55.5006 11.6886 61.2611 11.6886H68.5726V15.7874H61.5934C58.824 15.7874 58.0485 16.5628 58.0485 19.4431C58.0485 22.5449 58.824 23.3203 61.815 23.3203H68.5726V27.4191H61.0395V27.3084Z" fill="#0B457F"/>
</g>
<mask id="mask2_32_464" style="mask-type:luminance" maskUnits="userSpaceOnUse" x="0" y="0" width="297" height="38">
<path d="M0.220703 0.943115V37.9431H296.556V0.943115" fill="white"/>
</mask>
<g mask="url(#mask2_32_464)">
<path d="M91.3916 11.5779V27.3084H85.6311V21.3264H79.2058V27.3084H73.4453V11.5779H79.2058V17.1168H85.6311V11.5779H91.3916Z" fill="#0B457F"/>
</g>
<mask id="mask3_32_464" style="mask-type:luminance" maskUnits="userSpaceOnUse" x="0" y="0" width="297" height="38">
<path d="M0.220703 0.943115V37.9431H296.556V0.943115" fill="white"/>
</mask>
<g mask="url(#mask3_32_464)">
<path d="M94.6055 27.3084L100.92 11.5779H106.237C107.567 11.5779 108.121 12.021 108.453 12.9072L114.546 27.3084H108.342L104.354 17.5599C104.133 16.8952 103.689 16.8952 103.468 17.5599L99.5905 27.3084H94.6055Z" fill="#0B457F"/>
</g>
<mask id="mask4_32_464" style="mask-type:luminance" maskUnits="userSpaceOnUse" x="0" y="0" width="297" height="38">
<path d="M0.220703 0.943115V37.9431H296.556V0.943115" fill="white"/>
</mask>
<g mask="url(#mask4_32_464)">
<path d="M130.165 26.4222L122.853 19.5539C122.632 19.2216 122.41 19.3324 122.41 19.7755V27.3084H117.646V11.5779H120.748C121.856 11.5779 122.521 11.7994 123.075 12.2426L130.718 19.3324C130.94 19.6647 131.162 19.4431 131.162 19.1108V11.5779H135.925V26.533C135.925 26.9761 135.704 27.3084 135.15 27.3084H132.602C131.605 27.3084 130.829 26.9761 130.165 26.4222Z" fill="#0B457F"/>
</g>
<mask id="mask5_32_464" style="mask-type:luminance" maskUnits="userSpaceOnUse" x="0" y="0" width="297" height="38">
<path d="M0.220703 0.943115V37.9431H296.556V0.943115" fill="white"/>
</mask>
<g mask="url(#mask5_32_464)">
<path d="M158.304 27.3084H149.552C143.57 27.3084 140.357 25.3143 140.357 19.3323C140.357 14.0149 143.459 11.6886 149.663 11.6886H158.968V15.7874H149.884C147.004 15.7874 146.118 16.4521 146.118 19.4431C146.118 22.6557 146.893 23.5419 149.884 23.5419H153.319C153.54 23.5419 153.651 23.3203 153.651 23.0988V21.5479C153.651 21.3263 153.54 21.1048 153.319 21.1048H150.549V17.7814H158.082C158.525 17.7814 158.858 18.003 158.858 18.5569V26.5329C159.079 26.976 158.747 27.3084 158.304 27.3084Z" fill="#0B457F"/>
</g>
<mask id="mask6_32_464" style="mask-type:luminance" maskUnits="userSpaceOnUse" x="0" y="0" width="297" height="38">
<path d="M0.220703 0.943115V37.9431H296.556V0.943115" fill="white"/>
</mask>
<g mask="url(#mask6_32_464)">
<path d="M162.402 27.3084L168.717 11.5779H173.923C175.364 11.5779 175.807 12.021 176.25 12.9072L182.232 27.3084H176.139L172.151 17.5599C171.929 16.8952 171.486 16.8952 171.265 17.5599L167.387 27.3084H162.402Z" fill="#0B457F"/>
</g>
<mask id="mask7_32_464" style="mask-type:luminance" maskUnits="userSpaceOnUse" x="0" y="0" width="297" height="38">
<path d="M0.220703 0.943115V37.9431H296.556V0.943115" fill="white"/>
</mask>
<g mask="url(#mask7_32_464)">
<path d="M197.961 26.4222L190.65 19.5539C190.318 19.2216 190.207 19.3324 190.207 19.7755V27.3084H185.443V11.5779H188.434C189.542 11.5779 190.318 11.7994 190.872 12.2426L198.515 19.3324C198.737 19.6647 198.958 19.4431 198.958 19.1108V11.5779H203.722V26.533C203.722 26.9761 203.5 27.3084 202.947 27.3084H200.399C199.402 27.3084 198.626 26.9761 197.961 26.4222Z" fill="#0B457F"/>
</g>
<mask id="mask8_32_464" style="mask-type:luminance" maskUnits="userSpaceOnUse" x="0" y="0" width="297" height="38">
<path d="M0.220703 0.943115V37.9431H296.556V0.943115" fill="white"/>
</mask>
<g mask="url(#mask8_32_464)">
<path d="M212.918 27.3084L219.232 11.5779H224.55C225.879 11.5779 226.433 12.021 226.765 12.9072L232.858 27.3084H226.655L222.667 17.5599C222.445 16.8952 222.002 16.8952 221.78 17.5599L217.903 27.3084H212.918Z" fill="#0B457F"/>
</g>
<mask id="mask9_32_464" style="mask-type:luminance" maskUnits="userSpaceOnUse" x="0" y="0" width="297" height="38">
<path d="M0.220703 0.943115V37.9431H296.556V0.943115" fill="white"/>
</mask>
<g mask="url(#mask9_32_464)">
<path d="M252.798 11.5779V20.6617C252.798 26.2006 249.253 27.8623 243.825 27.8623C238.397 27.8623 234.852 26.3114 234.852 20.6617V11.5779H240.501V19.7755C240.501 22.9881 242.163 23.7635 244.157 23.7635C246.262 23.7635 247.924 22.9881 247.924 19.7755V11.5779H252.798Z" fill="#0B457F"/>
</g>
<mask id="mask10_32_464" style="mask-type:luminance" maskUnits="userSpaceOnUse" x="0" y="0" width="297" height="38">
<path d="M0.220703 0.943115V37.9431H296.556V0.943115" fill="white"/>
</mask>
<g mask="url(#mask10_32_464)">
<path d="M256.453 11.5779H273.735V15.7875H267.974V27.3084H262.214V15.7875H256.453V11.5779Z" fill="#0B457F"/>
</g>
<mask id="mask11_32_464" style="mask-type:luminance" maskUnits="userSpaceOnUse" x="0" y="0" width="297" height="38">
<path d="M0.220703 0.943115V37.9431H296.556V0.943115" fill="white"/>
</mask>
<g mask="url(#mask11_32_464)">
<path d="M296.667 19.3323C296.667 25.2036 293.233 27.7515 286.365 27.7515C279.607 27.7515 276.062 25.2036 276.062 19.3323C276.062 13.4611 279.607 11.0239 286.365 11.0239C293.123 11.0239 296.667 13.4611 296.667 19.3323ZM281.934 19.3323C281.934 22.4341 283.042 23.7634 286.365 23.7634C289.688 23.7634 290.685 22.5449 290.685 19.3323C290.685 16.3413 289.578 15.1227 286.365 15.1227C283.042 15.1227 281.934 16.2305 281.934 19.3323Z" fill="#0B457F"/>
</g>
</g>
<defs>
<clipPath id="clip0_32_464">
<rect width="297" height="37" fill="white" transform="translate(0 0.5)"/>
</clipPath>
</defs>
</svg>
