<svg viewBox="0 0 27 4" fill="none" xmlns="http://www.w3.org/2000/svg">
<g clip-path="url(#clip0_1412_21)">
<path d="M25.6142 0.139536L25.6032 0.113605H24.8194L26.0558 3.83462V3.86055H26.8506L25.6142 0.139536Z" fill="black"/>
<path d="M23.5056 0.126571L22.5452 3.86055H23.2738L24.0246 1.09896H24.9188L24.5986 0.113605L23.5056 0.126571Z" fill="black"/>
<path d="M0.885838 1.9028L0.874798 1.88984V1.17675L1.25014 0.710003H3.53531L4.63925 1.99356V0.735934L4.08727 0.126571L0.676088 0.113605L0.168274 0.735934V1.55274L0.885838 2.43438V1.9028Z" fill="black"/>
<path d="M3.93273 2.81038H3.92169V2.83629L3.52427 3.25118H1.2391L0.168274 1.87687V3.23822L0.720246 3.86055H4.08727L4.65029 3.22524V2.33066L3.93273 1.52681V2.81038Z" fill="black"/>
<path d="M12.2785 1.9028L12.2675 1.88984V1.17675L12.6428 0.710003H14.917L16.0209 1.99356V0.735934L15.48 0.126571L12.0688 0.113605L11.5499 0.735934V1.55274L12.2785 2.43438V1.9028Z" fill="black"/>
<path d="M15.3254 2.81038H15.3144V2.83629L14.917 3.25118H12.6318L11.5499 1.87687V3.23822L12.1019 3.86055H15.48L16.0319 3.22524V2.33066L15.3254 1.52681V2.81038Z" fill="black"/>
<path d="M8.62451 0.113605L8.19397 2.70664L8.37061 3.84758L8.66867 3.86055L9.09921 1.09896H9.64013V3.88647H10.3577V0.748899L9.86093 0.113605H8.62451Z" fill="black"/>
<path d="M6.27309 0.126568L5.78735 0.774828V3.87351H5.83151C5.89775 3.87351 6.25101 3.87351 6.48283 3.87351H6.51595V1.11192H7.05689L7.45431 3.88646H8.18291L7.58677 0.126568H6.27309Z" fill="black"/>
<path d="M20.3042 0.113605L21.0438 0.787794V2.82333L20.514 3.25118H18.0411V0.735934H20.6354L19.962 0.113605H17.2905V3.86055H21.2426L21.7724 3.23822V0.735934L21.099 0.113605H20.3042Z" fill="black"/>
</g>
<defs>
<clipPath id="clip0_1412_21">
<rect width="27" height="4" fill="white"/>
</clipPath>
</defs>
</svg>
