<svg viewBox="0 0 43 62" fill="none" xmlns="http://www.w3.org/2000/svg">
<g clip-path="url(#clip0_1409_34)">
<path opacity="0.2" d="M35 58.4C35 60.4 28.8 62 21.2 62C13.6 62 7.40002 60.4 7.40002 58.4C7.40002 56.4 13.6 54.8 21.2 54.8C28.8 54.7 35 56.4 35 58.4Z" fill="#05141F"/>
<path d="M21.4 0C9.6 0 0 9.6 0 21.4C0 34 21.4 58.5 21.4 58.5C21.4 58.5 42.8 35 42.8 21.4C42.8 9.6 33.2 0 21.4 0ZM21.4 33.7C14.1 33.7 8.2 27.8 8.2 20.5C8.2 13.2 14.1 7.3 21.4 7.3C28.7 7.3 34.6 13.2 34.6 20.5C34.6 27.8 28.7 33.7 21.4 33.7Z" fill="#05141F"/>
<path d="M21.4 38.4C30.6232 38.4 38.1 30.9232 38.1 21.7C38.1 12.4768 30.6232 5 21.4 5C12.1769 5 4.70001 12.4768 4.70001 21.7C4.70001 30.9232 12.1769 38.4 21.4 38.4Z" fill="white"/>
<g clip-path="url(#clip1_1409_34)">
<path d="M33.6142 20.1395L33.6032 20.1136H32.8194L34.0558 23.8346V23.8606H34.8506L33.6142 20.1395Z" fill="black"/>
<path d="M31.5056 20.1266L30.5452 23.8606H31.2738L32.0246 21.099H32.9188L32.5986 20.1136L31.5056 20.1266Z" fill="black"/>
<path d="M8.88584 21.9028L8.8748 21.8898V21.1767L9.25014 20.71H11.5353L12.6393 21.9936V20.7359L12.0873 20.1266L8.67609 20.1136L8.16827 20.7359V21.5527L8.88584 22.4344V21.9028Z" fill="black"/>
<path d="M11.9327 22.8104H11.9217V22.8363L11.5243 23.2512H9.2391L8.16827 21.8769V23.2382L8.72025 23.8606H12.0873L12.6503 23.2252V22.3307L11.9327 21.5268V22.8104Z" fill="black"/>
<path d="M20.2785 21.9028L20.2675 21.8898V21.1767L20.6428 20.71H22.917L24.0209 21.9936V20.7359L23.48 20.1266L20.0688 20.1136L19.5499 20.7359V21.5527L20.2785 22.4344V21.9028Z" fill="black"/>
<path d="M23.3254 22.8104H23.3144V22.8363L22.917 23.2512H20.6318L19.5499 21.8769V23.2382L20.1019 23.8606H23.48L24.0319 23.2252V22.3307L23.3254 21.5268V22.8104Z" fill="black"/>
<path d="M16.6245 20.1136L16.194 22.7066L16.3706 23.8476L16.6687 23.8606L17.0992 21.099H17.6401V23.8865H18.3577V20.7489L17.8609 20.1136H16.6245Z" fill="black"/>
<path d="M14.2731 20.1266L13.7874 20.7748V23.8735H13.8315C13.8978 23.8735 14.251 23.8735 14.4828 23.8735H14.516V21.1119H15.0569L15.4543 23.8865H16.1829L15.5868 20.1266H14.2731Z" fill="black"/>
<path d="M28.3042 20.1136L29.0438 20.7878V22.8233L28.514 23.2512H26.0411V20.7359H28.6354L27.962 20.1136H25.2905V23.8606H29.2426L29.7724 23.2382V20.7359L29.099 20.1136H28.3042Z" fill="black"/>
</g>
</g>
<defs>
<clipPath id="clip0_1409_34">
<rect width="42.8" height="62" fill="white"/>
</clipPath>
<clipPath id="clip1_1409_34">
<rect width="27" height="4" fill="white" transform="translate(8 20)"/>
</clipPath>
</defs>
</svg>
