<svg width="43" height="62" viewBox="0 0 43 62" fill="none" xmlns="http://www.w3.org/2000/svg">
<g clip-path="url(#clip0_631_22)">
<path opacity="0.2" d="M35 58.4C35 60.4 28.8 62 21.2 62C13.6 62 7.4 60.4 7.4 58.4C7.4 56.4 13.6 54.8 21.2 54.8C28.8 54.7 35 56.4 35 58.4Z" fill="#05141F"/>
<path d="M21.4 0C9.6 0 0 9.6 0 21.4C0 34 21.4 58.5 21.4 58.5C21.4 58.5 42.8 35 42.8 21.4C42.8 9.6 33.2 0 21.4 0ZM21.4 33.7C14.1 33.7 8.2 27.8 8.2 20.5C8.2 13.2 14.1 7.3 21.4 7.3C28.7 7.3 34.6 13.2 34.6 20.5C34.6 27.8 28.7 33.7 21.4 33.7Z" fill="#05141F"/>
<path d="M21.4 38.2C30.6232 38.2 38.1 30.7232 38.1 21.5C38.1 12.2768 30.6232 4.8 21.4 4.8C12.1768 4.8 4.7 12.2768 4.7 21.5C4.7 30.7232 12.1768 38.2 21.4 38.2Z" fill="white"/>
<path fill-rule="evenodd" clip-rule="evenodd" d="M30.9858 27.1987C24.7101 35.1162 9.6375 29.2484 10.5126 19.1262C10.5239 27.4762 21.6954 33.4852 28.4661 29.0932C36.676 23.0742 30.0239 13.4664 21.8561 12.1489C28.7633 12.2485 36.1606 20.5349 30.9858 27.1987ZM33.0256 22.5196C33.2611 19.807 31.9961 17.5264 30.37 15.5526C34.1474 18.8093 34.4922 25.4036 30.3528 28.4436C32.0011 26.2396 32.4684 26.3287 33.0256 22.5196ZM16.89 31.4192C18.5653 32.0585 20.6222 32.4861 22.3851 32.6131C20.7387 32.7657 18.2801 32.2418 16.89 31.4192ZM19.414 29.2537C21.3014 29.7301 24.6527 30.0926 26.8156 29.3893C24.7058 30.3818 21.4647 30.1419 19.414 29.2537ZM9.51049 28.495C10.8054 29.824 12.7152 31.0948 14.2985 32.0395C12.7778 31.4938 10.5269 29.8708 9.51049 28.495ZM31.1266 28.9395C32.3328 27.6324 33.1893 26.0338 33.7023 24.3407C33.6037 26.0355 32.3342 27.8758 31.1266 28.9395ZM29.3635 30.7963C31.7835 29.1443 33.8877 26.5231 34.1625 23.4964C34.1314 26.4366 32.1005 29.5622 29.3635 30.7963ZM30.7435 26.3479C31.4432 24.8842 31.8237 23.3229 31.7106 21.6747C32.1056 23.1152 31.6114 25.2145 30.7435 26.3479ZM23.5803 28.845C21.4191 29.1952 18.7858 28.4799 16.9046 27.2551C18.7518 28.1396 20.8728 28.5645 22.8713 28.4638C23.4021 28.3747 24.3668 28.2793 24.3225 28.4668C24.0701 28.7525 23.994 28.6276 23.6971 28.7021C26.9328 28.6565 29.9204 26.0017 30.5893 22.8415C30.1123 26.5717 26.9098 28.7176 23.5802 28.845H23.5803ZM9.70709 19.9952C10.4402 32.5906 29.4456 36.5996 33.4209 24.2436C29.9646 36.7583 9.08021 32.8664 9.70709 19.9952ZM16.6461 17.1842C20.7595 13.0127 30.4135 18.4746 26.3534 23.7058C23.3912 29.1305 10.9389 23.4332 16.6461 17.1842ZM14.6847 22.0499C14.2937 21.4167 14.439 20.0195 14.769 19.3081C14.6224 20.5766 14.5204 20.6219 14.6847 22.0499ZM14.6352 24.7927C13.4143 23.3691 12.9181 20.8645 13.5631 19.0659C13.2681 20.9317 13.5946 23.0819 14.6352 24.7927ZM30.2432 18.4184C32.7234 22.5741 31.0553 28.342 25.893 29.0059C29.9936 27.5165 32.2419 22.4198 30.2432 18.4184ZM7.76302 25.3901C6.82271 23.3488 6.96624 20.1033 7.88993 18.0909C6.85792 22.8414 7.79667 25.0329 7.76302 25.39V25.3901ZM11.1596 21.7276C10.6373 20.3841 10.6161 19.0744 11.0171 17.8721C10.8217 18.6671 10.8826 20.6503 11.1596 21.7276ZM10.4291 22.2609C9.78924 20.8815 9.84199 19.198 10.4726 17.8301C10.1743 19.433 10.1104 20.6315 10.4291 22.2609ZM28.9685 17.8574C31.9564 21.2699 29.792 26.6913 25.6014 27.7938C28.9763 26.2284 31.0647 21.3031 28.9685 17.8574ZM12.1691 22.36C11.6571 21.5218 11.0656 18.9373 11.872 17.6965C11.4125 18.8467 11.6281 21.2159 12.1691 22.36ZM14.1888 25.7653C11.9756 24.0374 10.3278 20.2327 11.5417 17.3844C10.54 20.4939 12.057 23.5883 14.1888 25.7653ZM17.7915 32.4209C16.6028 32.4209 13.5123 30.9471 12.5225 29.9648C10.723 28.1945 9.42647 25.4867 8.52812 21.811C8.19485 19.6115 8.62678 17.9288 9.6051 16.2688C6.37727 23.0237 11.7451 29.7893 17.7915 32.4208V32.4209ZM26.8986 24.6338C26.2638 25.1855 25.3176 26.0795 24.4718 26.3051C27.4738 24.8066 28.8923 19.9192 26.2198 17.3356C27.9399 18.6049 29.1353 22.4499 26.8986 24.6338ZM28.4209 20.1807C27.9676 17.8946 26.5603 16.481 24.5401 15.399C29.2553 17.1149 30.5651 23.6278 25.7541 26.1676C27.4629 24.8573 28.7855 22.8504 28.4209 20.1807ZM18.7432 27.2696C18.8103 27.2218 18.8589 27.1529 18.8346 27.0573C19.0351 26.9545 19.0563 27.0725 19.3356 27.125C23.75 28.1919 28.9031 26.0267 29.2444 21.1146C29.6808 25.9301 23.8684 28.6201 20.0627 27.6414C13.0596 26.8232 10.9158 16.6989 18.704 14.748C12.6457 17.1437 12.9781 24.5433 18.7432 27.2696ZM11.5033 27.0649C8.13939 23.6048 7.95868 17.7341 11.5287 14.3904C8.56177 17.8858 8.98726 23.468 11.5033 27.0649ZM13.756 24.2319C9.33933 19.3409 13.524 13.6279 19.3684 13.6972C14.4819 14.4141 11.5533 19.8614 13.756 24.2319ZM13.5274 15.2352C14.5619 14.0578 16.2111 13.321 17.7545 13.1932C16.9502 13.3877 14.6691 14.0424 13.5274 15.2352ZM28.3899 12.005C26.5392 11.1904 24.5484 10.7092 22.5546 10.3363C25.0407 10.3876 26.4454 10.7073 28.3899 12.005ZM11.5571 29.659C10.8006 29.0575 10.071 28.3657 9.08229 27.3136C6.4722 24.2319 7.48572 17.2272 10.62 13.7805C13.428 10.6923 17.9226 9.19975 22.0473 9.63728C17.1995 9.6897 13.3805 11.2433 11.001 13.7388C9.12113 15.5632 7.77278 17.6965 8.28655 21.5755C8.48793 24.1044 9.87284 27.1879 11.557 29.659H11.5571ZM29.592 31.6777C27.4679 32.9663 24.7027 33.663 22.207 33.5053C29.9358 32.7705 34.4814 28.2494 34.4462 22.8255C34.6278 20.4809 34.0986 17.9958 32.8539 15.6368C36.7627 20.6175 34.6502 28.3615 29.592 31.6776V31.6777ZM24.5206 34.3206C42.2214 31.4192 38.0353 7.953 20.4291 8.56976C17.0284 8.56976 12.7804 10.1319 10.7134 12.4844C7.08152 16.2688 5.31473 23.4646 8.75317 28.1523C11.4871 32.3138 18.0346 35.0654 24.5205 34.3205L24.5206 34.3206ZM31.1086 31.0216C30.9812 31.2025 30.0228 31.7976 30.0228 31.7976C33.1782 29.2418 35.3054 25.5992 35.3035 21.4417C35.4627 25.4074 35.6349 27.4674 31.1086 31.0216Z" fill="#159DE0"/>
</g>
<defs>
<clipPath id="clip0_631_22">
<rect width="42.8" height="62" fill="white"/>
</clipPath>
</defs>
</svg>
