<svg width="2801" height="2500" viewBox="0 0 2801 2500" fill="none" xmlns="http://www.w3.org/2000/svg">
<path fill-rule="evenodd" clip-rule="evenodd" d="M2326 1800.4C1719.88 2565.1 264.111 1998.37 348.63 1020.73C349.723 1827.2 1428.71 2407.57 2082.64 1983.37C2875.57 1402.04 2233.1 474.089 1444.22 346.841C2111.34 356.462 2825.8 1156.79 2326 1800.4ZM2523.01 1348.48C2545.75 1086.48 2423.58 866.212 2266.52 675.58C2631.36 990.119 2664.66 1627.03 2264.86 1920.63C2424.06 1707.77 2469.19 1716.38 2523.01 1348.48ZM964.585 2208.03C1126.39 2269.77 1325.05 2311.08 1495.32 2323.34C1336.3 2338.08 1098.85 2287.48 964.585 2208.03ZM1208.36 1998.88C1390.65 2044.89 1714.33 2079.91 1923.23 2011.97C1719.46 2107.83 1406.42 2084.67 1208.36 1998.88ZM251.844 1925.6C376.906 2053.96 561.361 2176.7 714.289 2267.94C567.409 2215.24 350.014 2058.48 251.844 1925.6ZM2339.6 1968.53C2456.1 1842.29 2538.82 1687.89 2588.36 1524.36C2578.85 1688.06 2456.23 1865.79 2339.6 1968.53ZM2169.31 2147.87C2403.05 1988.31 2606.28 1735.14 2632.82 1442.82C2629.81 1726.79 2433.66 2028.67 2169.31 2147.87ZM2302.6 1718.23C2370.18 1576.86 2406.93 1426.06 2396.01 1266.87C2434.15 1406 2386.43 1608.76 2302.6 1718.23ZM1610.75 1959.4C1402.01 1993.22 1147.69 1924.15 965.989 1805.84C1144.4 1891.28 1349.25 1932.32 1542.27 1922.59C1593.54 1913.98 1686.72 1904.76 1682.43 1922.88C1658.06 1950.47 1650.7 1938.41 1622.04 1945.6C1934.54 1941.19 2223.1 1684.78 2287.7 1379.56C2241.63 1739.84 1932.33 1947.1 1610.74 1959.4H1610.75ZM270.832 1104.66C341.638 2321.17 2177.25 2708.37 2561.19 1514.99C2227.37 2723.7 210.286 2347.81 270.832 1104.66ZM941.023 833.161C1338.31 430.271 2270.72 957.794 1878.59 1463.05C1592.49 1986.98 389.806 1436.72 941.023 833.161ZM751.583 1303.11C713.818 1241.95 727.86 1107.01 759.728 1038.3C745.565 1160.81 735.715 1165.19 751.583 1303.11ZM746.808 1568.02C628.888 1430.53 580.961 1188.62 643.262 1014.91C614.764 1195.11 646.301 1402.78 746.808 1568.02ZM2254.28 952.369C2493.83 1353.74 2332.71 1910.82 1834.12 1974.95C2230.17 1831.09 2447.32 1338.84 2254.28 952.369ZM83.0671 1625.72C-7.7509 1428.57 6.11152 1115.1 95.3246 920.738C-4.3505 1379.55 86.317 1591.22 83.0671 1625.71V1625.72ZM411.121 1271.98C360.677 1142.23 358.63 1015.73 397.359 899.604C378.481 976.392 384.369 1167.93 411.121 1271.98ZM340.565 1323.49C278.766 1190.26 283.862 1027.67 344.768 895.548C315.96 1050.36 309.781 1166.12 340.565 1323.49ZM2131.17 898.185C2419.75 1227.78 2210.7 1751.4 1805.96 1857.87C2131.92 1706.68 2333.63 1230.98 2131.17 898.185ZM508.62 1333.06C459.168 1252.1 402.043 1002.49 479.922 882.646C435.546 993.732 456.37 1222.56 508.62 1333.06ZM703.687 1661.96C489.932 1495.07 330.785 1127.6 448.024 852.504C351.278 1152.82 497.796 1451.69 703.687 1661.96ZM1051.65 2304.77C936.84 2304.77 638.357 2162.43 542.754 2067.56C368.952 1896.58 243.729 1635.05 156.963 1280.04C124.775 1067.6 166.492 905.079 260.982 744.75C-50.7726 1397.17 467.674 2050.61 1051.65 2304.77V2304.77ZM1931.24 1552.67C1869.94 1605.95 1778.55 1692.3 1696.86 1714.09C1986.8 1569.36 2123.8 1097.32 1865.68 847.784C2031.82 970.384 2147.27 1341.74 1931.24 1552.67ZM2078.27 1122.58C2034.49 901.778 1898.57 765.25 1703.46 660.746C2158.86 826.469 2285.37 1455.51 1820.71 1700.82C1985.75 1574.26 2113.49 1380.43 2078.27 1122.58ZM1143.57 1807.24C1150.05 1802.63 1154.75 1795.97 1152.4 1786.74C1171.76 1776.81 1173.81 1788.21 1200.79 1793.28C1627.14 1896.33 2124.85 1687.2 2157.81 1212.77C2199.96 1677.87 1638.58 1937.68 1271.01 1843.16C594.633 1764.13 387.569 786.294 1139.78 597.866C554.65 829.257 586.759 1543.93 1143.57 1807.24ZM444.313 1787.48C119.418 1453.29 101.965 886.279 446.77 563.326C160.213 900.932 201.309 1440.08 444.313 1787.48ZM661.889 1513.86C235.313 1041.47 639.48 489.688 1203.96 496.381C732.003 565.621 449.147 1091.74 661.889 1513.86ZM639.811 644.925C739.727 531.202 899.014 460.04 1048.08 447.702C970.393 466.491 750.078 529.723 639.811 644.925ZM2075.28 332.942C1896.54 254.262 1704.26 207.787 1511.69 171.768C1751.8 176.729 1887.47 207.606 2075.28 332.942ZM449.509 2038.02C376.445 1979.93 305.979 1913.12 210.487 1811.5C-41.6045 1513.86 56.2851 837.318 359.002 504.422C630.212 206.156 1064.31 62.0001 1462.69 104.259C994.477 109.321 625.618 259.375 395.804 500.396C214.239 676.606 84.0099 882.646 133.632 1257.29C153.081 1501.54 286.841 1799.35 449.499 2038.02H449.509ZM2191.38 2233C1986.23 2357.45 1719.15 2424.75 1478.12 2409.51C2224.59 2338.54 2663.61 1901.88 2660.21 1378.02C2677.76 1151.58 2626.64 911.55 2506.42 683.712C2883.95 1164.77 2679.92 1912.7 2191.38 2232.99V2233ZM1701.57 2488.26C3411.17 2208.03 3006.87 -58.4152 1306.4 1.15337C977.946 1.15337 567.66 152.032 368.029 379.246C17.2456 744.75 -153.397 1439.75 178.7 1892.5C442.748 2294.43 1075.13 2560.19 1701.56 2488.25L1701.57 2488.26ZM2337.86 2169.63C2325.56 2187.1 2232.99 2244.57 2232.99 2244.57C2537.75 1997.73 2743.2 1645.92 2743.02 1244.37C2758.4 1627.39 2775.03 1826.35 2337.86 2169.63Z" fill="#159DE0"/>
</svg>
