<svg width="2801" height="2800" viewBox="0 0 2801 2800" fill="none" xmlns="http://www.w3.org/2000/svg">
<path fill-rule="evenodd" clip-rule="evenodd" d="M2273.8 1919.77C1704.04 2638.59 335.619 2105.86 415.066 1186.89C416.094 1944.97 1430.34 2490.51 2045.03 2091.77C2790.4 1545.31 2186.47 673.044 1444.92 553.43C2072.02 562.474 2743.61 1314.78 2273.8 1919.77ZM2458.99 1494.97C2480.37 1248.69 2365.52 1041.64 2217.88 862.445C2560.83 1158.11 2592.13 1756.81 2216.33 2032.8C2365.97 1832.7 2408.39 1840.79 2458.99 1494.97ZM994.065 2302.95C1146.16 2360.99 1332.9 2399.81 1492.96 2411.34C1343.48 2425.19 1120.27 2377.63 994.065 2302.95ZM1223.21 2106.35C1394.57 2149.6 1698.83 2182.51 1895.19 2118.66C1703.64 2208.76 1409.39 2186.99 1223.21 2106.35ZM324.087 2037.47C441.646 2158.12 615.034 2273.5 758.786 2359.26C620.719 2309.72 416.368 2162.37 324.087 2037.47ZM2286.58 2077.82C2396.09 1959.15 2473.85 1814.02 2520.42 1660.3C2511.47 1814.17 2396.21 1981.25 2286.58 2077.82ZM2126.51 2246.4C2346.22 2096.41 2537.26 1858.44 2562.21 1583.65C2559.38 1850.58 2375 2134.35 2126.51 2246.4ZM2251.8 1842.53C2315.32 1709.65 2349.87 1567.9 2339.6 1418.26C2375.46 1549.04 2330.6 1739.64 2251.8 1842.53ZM1601.46 2069.24C1405.25 2101.03 1166.18 2036.1 995.385 1924.89C1163.09 2005.2 1355.65 2043.78 1537.09 2034.63C1585.28 2026.54 1672.87 2017.88 1668.84 2034.9C1645.93 2060.84 1639.02 2049.5 1612.07 2056.27C1905.83 2052.12 2177.07 1811.1 2237.8 1524.19C2194.49 1862.85 1903.74 2057.68 1601.45 2069.24H1601.46ZM341.936 1265.78C408.494 2409.3 2133.97 2773.27 2494.88 1651.49C2181.08 2787.68 285.023 2434.34 341.936 1265.78ZM971.916 1010.57C1345.37 631.854 2221.83 1127.73 1853.23 1602.66C1584.29 2095.16 453.772 1577.91 971.916 1010.57ZM793.843 1452.32C758.343 1394.83 771.543 1267.99 801.499 1203.4C788.185 1318.56 778.926 1322.68 793.843 1452.32ZM789.355 1701.34C678.509 1572.1 633.458 1344.7 692.02 1181.41C665.233 1350.8 694.877 1546.01 789.355 1701.34ZM2206.38 1122.63C2431.55 1499.92 2280.11 2023.57 1811.42 2083.85C2183.71 1948.63 2387.84 1485.91 2206.38 1122.63ZM165.437 1755.58C80.0682 1570.25 93.0989 1275.6 176.959 1092.89C83.2646 1524.18 168.492 1723.15 165.437 1755.57V1755.58ZM473.808 1423.06C426.39 1301.09 424.467 1182.19 460.872 1073.03C443.127 1145.21 448.661 1325.25 473.808 1423.06ZM407.486 1471.48C349.394 1346.25 354.184 1193.41 411.436 1069.21C384.357 1214.74 378.548 1323.55 407.486 1471.48ZM2090.65 1071.69C2361.92 1381.51 2165.41 1873.71 1784.96 1973.8C2091.36 1831.68 2280.96 1384.52 2090.65 1071.69ZM565.457 1480.47C518.972 1404.38 465.275 1169.74 538.481 1057.09C496.767 1161.51 516.342 1376.6 565.457 1480.47ZM748.82 1789.64C547.891 1632.76 398.292 1287.35 508.497 1028.75C417.556 1311.05 555.283 1591.99 748.82 1789.64ZM1075.91 2393.89C967.984 2393.89 687.41 2260.08 597.543 2170.9C434.169 2010.19 316.459 1764.35 234.9 1430.64C204.642 1230.95 243.857 1078.17 332.677 927.464C39.6278 1540.74 526.968 2154.97 1075.91 2393.88V2393.89ZM1902.72 1686.91C1845.1 1737 1759.19 1818.16 1682.4 1838.64C1954.95 1702.6 2083.73 1258.88 1841.1 1024.32C1997.27 1139.56 2105.79 1488.64 1902.72 1686.91ZM2040.93 1282.63C1999.78 1075.07 1872.01 946.735 1688.6 848.501C2116.68 1004.28 2235.6 1595.58 1798.82 1826.17C1953.96 1707.21 2074.04 1525 2040.93 1282.63ZM1162.31 1926.21C1168.4 1921.88 1172.82 1915.61 1170.61 1906.94C1188.81 1897.6 1190.73 1908.32 1216.1 1913.09C1616.87 2009.95 2084.71 1813.37 2115.69 1367.41C2155.31 1804.6 1627.62 2048.82 1282.11 1959.97C646.309 1885.68 451.669 966.516 1158.75 789.394C608.726 1006.9 638.908 1678.69 1162.31 1926.21ZM505.008 1907.63C199.607 1593.5 183.201 1060.5 507.318 756.927C237.955 1074.28 276.585 1581.07 505.008 1907.63ZM709.53 1650.43C308.548 1206.38 688.466 687.707 1219.08 693.998C775.438 759.083 509.553 1253.63 709.53 1650.43ZM688.777 833.629C782.698 726.73 932.428 659.837 1072.55 648.239C999.524 665.901 792.428 725.339 688.777 833.629ZM2038.12 540.365C1870.1 466.406 1689.36 422.719 1508.34 388.861C1734.05 393.525 1861.58 422.549 2038.12 540.365ZM509.892 2143.14C441.213 2088.53 374.975 2025.73 285.212 1930.21C48.2458 1650.43 140.262 1014.48 424.816 701.556C679.753 421.187 1087.81 285.68 1462.28 325.403C1022.16 330.161 675.435 471.212 459.41 697.772C288.738 863.41 166.323 1057.09 212.968 1409.25C231.251 1638.85 356.985 1918.79 509.883 2143.14H509.892ZM2147.25 2326.42C1954.41 2443.4 1703.36 2506.66 1476.78 2492.34C2178.47 2425.63 2591.15 2015.17 2587.96 1522.74C2604.45 1309.88 2556.4 1084.26 2443.39 870.089C2798.27 1322.28 2606.49 2025.34 2147.25 2326.41V2326.42ZM1686.83 2566.37C3293.86 2302.95 2913.81 172.489 1315.37 228.484C1006.62 228.484 620.955 370.31 433.302 583.891C103.565 927.464 -56.8389 1580.76 255.332 2006.35C503.537 2384.16 1097.98 2633.98 1686.82 2566.36L1686.83 2566.37ZM2284.94 2266.85C2273.38 2283.27 2186.36 2337.3 2186.36 2337.3C2472.84 2105.27 2665.96 1774.56 2665.79 1397.1C2680.25 1757.15 2695.88 1944.17 2284.94 2266.85Z" fill="#159DE0"/>
</svg>
