<svg viewBox="0 0 30 4" fill="none" xmlns="http://www.w3.org/2000/svg">
<path d="M23.2799 3.99746C23.2799 3.99746 23.2799 3.58153 23.2799 3.32928C22.0164 3.32928 20.7966 3.32311 19.5769 3.33266C19.1566 3.33595 18.8911 3.21564 18.9486 2.68284C20.2912 2.68284 21.6334 2.68284 23.0127 2.68284C23.0127 2.40331 23.0127 2.17479 23.0127 1.89317C21.6713 1.89317 20.3266 1.89317 18.9894 1.89317C18.9044 1.23493 19.0048 1.10521 19.5817 1.10326C20.7851 1.09921 21.9885 1.10204 23.2324 1.10204C23.2324 0.849397 23.2324 0.620842 23.2324 0.322492C22.2688 0.322492 21.2928 0.322487 20.3168 0.322495C19.8162 0.322498 19.3154 0.313256 18.8151 0.325084C18.2892 0.337519 17.9441 0.659977 17.9322 1.17123C17.9157 1.87534 17.9055 2.58129 17.9417 3.28391C17.9527 3.49615 17.9417 3.94521 18.2403 3.94521C19.8948 3.98662 21.5874 3.99961 23.2799 3.99746Z" fill="#C68D66"/>
<path d="M17.4891 3.99746C17.4891 3.99746 17.4891 3.58157 17.4891 3.32923C16.2073 3.32923 14.9693 3.32742 13.7313 3.33025C13.3183 3.33119 13.0291 3.22785 13.1801 2.67176C14.4692 2.67176 15.7774 2.67176 17.1164 2.67176C17.1164 2.39294 17.1164 2.16449 17.1164 1.88202C15.7947 1.88202 14.4876 1.88202 13.1877 1.88202C13.1053 1.1489 13.1407 1.10473 13.8242 1.10293C15.0249 1.09975 16.2256 1.10204 17.454 1.10204C17.454 0.840624 17.454 0.624795 17.454 0.322493C17.2915 0.322493 17.1161 0.322492 16.9407 0.322493C15.6617 0.322496 14.3827 0.318733 13.1038 0.324071C12.4521 0.326791 12.1381 0.650126 12.1372 1.29749C12.1362 1.9277 12.1097 2.55969 12.1506 3.18724C12.1666 3.43241 12.1506 3.93754 12.4492 3.94505C14.1039 3.98662 15.7965 3.9996 17.4891 3.99746Z" fill="#C68D66"/>
<path d="M5.35052 3.99596C5.35052 3.99596 5.35052 3.58162 5.35052 3.32925C4.06916 3.32925 2.83139 3.32649 1.59364 3.33075C1.16447 3.33223 0.895966 3.17898 0.906891 2.6561C2.26733 2.6561 3.61353 2.6561 4.98426 2.6561C4.98426 2.39394 4.98426 2.17746 4.98426 1.90757C3.64998 1.90757 2.30608 1.90757 0.971331 1.90757C0.872162 1.28396 1.00182 1.10504 1.52876 1.10335C2.78414 1.09931 4.03954 1.10205 5.31897 1.10205C5.31897 0.834477 5.31897 0.617953 5.31897 0.322492C4.83412 0.322492 4.34111 0.32249 3.84811 0.322492C2.88445 0.322497 1.92056 0.310336 0.957275 0.329203C0.626359 0.335684 0.246787 0.311259 0.0494739 0.742861C0.00816794 1.59067 -0.00240692 2.42126 0.000431944 3.2518C0.00240897 3.83017 0.170831 3.9946 0.760065 3.99596C2.25546 3.99941 3.803 4.003 5.35052 3.99596Z" fill="#C68D66"/>
<path d="M28.6853 3.98857C29.0084 3.93133 29.1199 3.59809 29.1328 3.39451C29.1816 2.62122 29.1866 1.8416 29.1469 1.06749C29.1196 0.536541 28.7036 0.334652 28.2323 0.329156C26.7532 0.311909 25.2738 0.322812 23.7175 0.322812C23.7175 1.52646 23.7203 2.76062 23.7175 3.98857C23.7175 3.98857 26.9928 3.99039 28.6853 3.98857ZM27.7175 3.32427C26.7258 3.32427 25.7342 3.32427 24.766 3.32427C24.766 2.53673 24.766 1.82581 24.766 1.10203C25.4221 1.10203 26.0332 1.10134 26.6442 1.10216C28.3694 1.10448 28.1573 0.923247 28.1794 2.64926C28.1833 2.95846 28.1264 3.18779 27.7175 3.32427Z" fill="#C68D66"/>
<path d="M11.6359 3.95351C9.45902 2.19713 11.6359 3.95351 9.45902 2.19713C10.2303 1.59563 10.963 1.02415 11.7265 0.428651C10.2362 0.428651 11.7265 0.428651 10.2362 0.428651C8.68475 1.60317 8.68475 1.60317 8.68475 1.60317C8.68475 1.60317 8.68475 1.60317 7.20448 0.442027C5.75836 0.442027 7.20448 0.442027 5.75836 0.442027C8.01657 2.19713 8.01657 2.19713 8.01657 2.19713C8.01657 2.19713 8.01657 2.19713 5.79964 3.94828C7.20448 3.95351 5.79964 3.94828 7.20448 3.95351C7.68752 3.57274 8.25417 3.15369 8.68475 2.82816C8.61542 2.77645 8.75555 2.77463 8.68475 2.82816C9.15568 3.17942 9.776 3.58268 10.2362 3.94828C11.6359 3.95351 10.2362 3.94828 11.6359 3.95351Z" fill="#C68D66"/>
</svg>
