<?xml version="1.0" encoding="utf-8"?>
<!-- Generator: Adobe Illustrator 24.2.0, SVG Export Plug-In . SVG Version: 6.00 Build 0)  -->
<svg version="1.1" id="Layer_1" xmlns="http://www.w3.org/2000/svg" xmlns:xlink="http://www.w3.org/1999/xlink" x="0px" y="0px"
	 viewBox="0 0 100 28.3" style="enable-background:new 0 0 100 28.3;" xml:space="preserve">
<style type="text/css">
	.st0{fill:#00AAFF;}
	.st1{fill:#97CF26;}
	.st2{fill:#FF6163;}
	.st3{fill:#A169F7;}
</style>
<rect x="67.2" y="10.5" width="3.7" height="13.7"/>
<polygon points="62,10.5 58.3,20.4 54.7,10.5 50.9,10.5 56,24.1 57,24.1 59.7,24.1 60.7,24.1 65.7,10.5 "/>
<path d="M84.1,13.5v-3h-4.5V6.7h-3.7v3.8H73v3h2.9v5.9c0,3,1.5,5.1,5.4,5.1c1,0,1.9-0.2,2.8-0.5l-0.4-3c-0.5,0.1-1.1,0.2-1.6,0.2
	c-1.1,0-2.4-0.5-2.4-2v-5.6H84.1z"/>
<path d="M48.2,24.1h4l-7.3-20h-2.9l-7.3,20h4l1.4-3.8h6.8L48.2,24.1z M41,17.3l2.3-6.3l2.3,6.3L41,17.3z"/>
<path d="M92.7,10.1c-4,0.1-7.1,3.4-7,7.3s3.4,7.1,7.3,7c3.9-0.1,7-3.3,7-7.2C100,13.3,96.7,10.1,92.7,10.1 M92.7,21
	c-2,0-3.6-1.7-3.6-3.8c0-2,1.7-3.6,3.8-3.6c2,0,3.6,1.7,3.6,3.7C96.4,19.4,94.7,21,92.7,21"/>
<path d="M71.5,6.5c0,1.3-1.1,2.4-2.4,2.4s-2.4-1.1-2.4-2.4s1.1-2.4,2.4-2.4S71.5,5.2,71.5,6.5C71.5,6.5,71.5,6.5,71.5,6.5"/>
<path class="st0" d="M12.6,6.3c0,3.5-2.8,6.3-6.3,6.3S0,9.7,0,6.3S2.8,0,6.3,0c0,0,0,0,0,0C9.7,0,12.6,2.8,12.6,6.3"/>
<path class="st1" d="M28.3,20.6c0,4.2-3.4,7.6-7.6,7.6S13,24.9,13,20.7c0-4.2,3.4-7.6,7.6-7.6c0,0,0,0,0,0
	C24.8,13,28.3,16.4,28.3,20.6"/>
<path class="st2" d="M25.5,6.3c0,2.7-2.2,4.9-4.9,4.9S15.7,9,15.7,6.3s2.2-4.9,4.9-4.9S25.5,3.6,25.5,6.3L25.5,6.3"/>
<path class="st3" d="M9.8,20.6c0,2-1.6,3.6-3.5,3.6s-3.6-1.6-3.6-3.5s1.6-3.6,3.5-3.6c0,0,0,0,0,0C8.2,17.1,9.8,18.7,9.8,20.6"/>
</svg>
