<?xml version="1.0" encoding="utf-8"?>
<!-- Generator: Adobe Illustrator 24.2.0, SVG Export Plug-In . SVG Version: 6.00 Build 0)  -->
<svg version="1.1" id="Layer_1" xmlns="http://www.w3.org/2000/svg" xmlns:xlink="http://www.w3.org/1999/xlink" x="0px" y="0px"
	 viewBox="0 0 140 20.2" style="enable-background:new 0 0 140 20.2;" xml:space="preserve">
<style type="text/css">
	.st0{fill:#DB3727;}
</style>
<path class="st0" d="M54.8,3c2,0,3.5,0.8,4,1.8V3.3H62v13.4h-3.2v-1.4c-0.4,1-2,1.8-4,1.8C51,17,48,13.9,48,10.2c0,0,0-0.1,0-0.1
	c-0.1-3.8,2.9-6.9,6.6-7C54.7,3,54.8,3,54.8,3z M55.2,13.6c1.4,0.1,2.7-0.6,3.5-1.8V8.3c-0.7-1.2-2.1-1.9-3.5-1.8
	c-1.9-0.2-3.7,1.3-3.8,3.2c0,0.1,0,0.2,0,0.3C51.4,12.1,52.9,13.6,55.2,13.6L55.2,13.6z"/>
<path class="st0" d="M65.7,3.3H69v7.2c-0.1,1.5,1,2.9,2.5,3c0.1,0,0.2,0,0.3,0c1.3,0.1,2.6-0.7,3-2V3.4h3.3v13.3h-3.3v-1.4
	c-0.3,1-1.6,1.7-3.6,1.7c-2.7,0-5.6-1.8-5.6-6V3.3z"/>
<path class="st0" d="M90.6,15.5c-0.8,1-2,1.6-3.3,1.6c-2.9,0-4.4-1.7-4.4-4.6V6.8h-2.3v-1L85.2,0h1v3.4h4.2v3.5h-4.2v4.9
	c-0.1,0.8,0.5,1.6,1.3,1.8c0.1,0,0.2,0,0.4,0c0.8,0,1.5-0.4,2-1L90.6,15.5z"/>
<path class="st0" d="M99.9,17.1c-3.9,0-7-3.1-7-7s3.1-7,7-7s7,3.1,7,7S103.7,17.1,99.9,17.1z M99.9,13.5c2-0.1,3.5-1.8,3.4-3.7
	s-1.8-3.5-3.7-3.4c-1.9,0.1-3.4,1.7-3.4,3.5c0,1.9,1.6,3.5,3.5,3.6C99.7,13.6,99.8,13.6,99.9,13.5z"/>
<path class="st0" d="M111.3,12.6c1.2,0,2.3,1,2.3,2.2c0,1.2-1,2.3-2.2,2.3c-1.2,0-2.3-1-2.3-2.2c0,0,0,0,0,0
	C109,13.6,110,12.6,111.3,12.6C111.3,12.5,111.3,12.5,111.3,12.6z"/>
<path class="st0" d="M124.9,7c-0.5-0.3-1.1-0.5-1.8-0.5c-1.3-0.1-2.5,0.9-2.8,2.2v8h-3.3V3.4h3.2v1.8c0.4-1.3,1.6-2.2,2.9-2.1
	c0.8,0,1.6,0.3,2.2,1L124.9,7z"/>
<path class="st0" d="M127.6,3.3h3.3v7.2c-0.1,1.5,1,2.9,2.5,3c0.1,0,0.2,0,0.3,0c1.3,0.1,2.6-0.7,3-2V3.4h3.2v13.3h-3.2v-1.4
	c-0.4,1-1.6,1.7-3.6,1.7c-2.8,0-5.6-1.8-5.6-6C127.6,11.1,127.6,3.3,127.6,3.3z"/>
<path class="st0" d="M35.7,6.1l-4-0.5c-1.2-0.2-2.2-0.7-3.2-1.4l-2.8-2.4c-1.4-1.1-3.2-1.7-5-1.8H10.3c-1.8,0.1-3.6,0.8-5,2L2.1,5.3
	c-1.3,1.4-2,3.1-2.1,5v2.9c0.1,2.1,1.9,3.8,4,3.7h1.7c0.6,2,2.5,3.3,4.5,3.3c2.1,0,3.9-1.4,4.5-3.3h10c0.8,2.5,3.5,3.8,6,3
	c1.4-0.5,2.6-1.6,3-3h1.7c2.1,0,3.8-1.6,3.8-3.7c0,0,0,0,0-0.1v-2.9C39.2,8.2,37.7,6.4,35.7,6.1z M10.2,17c-0.9,0-1.6-0.7-1.6-1.6
	c0-0.9,0.7-1.6,1.6-1.6s1.6,0.7,1.6,1.6C11.8,16.3,11.1,17,10.2,17z M29.3,17c-0.9,0-1.6-0.7-1.6-1.6c0-0.9,0.7-1.6,1.6-1.6
	c0.9,0,1.6,0.7,1.6,1.6C30.9,16.3,30.2,17,29.3,17z M36.3,13.1c0,0.5-0.5,0.5-0.7,0.5h-1.8c-0.8-1.8-2.5-3-4.4-3.1
	c-1.9,0.1-3.7,1.3-4.4,3.1H14.6c-0.8-1.8-2.5-3-4.4-3.1c-1.9,0.1-3.7,1.3-4.4,3.1H4c-0.4,0-0.9-0.2-0.9-0.5v-2.9
	c0.1-1,0.6-2,1.2-2.7l3.3-3.2c0.8-0.7,1.8-1.1,2.8-1.2h10.3c1.1,0.1,2.1,0.5,3,1.1l2.9,2.4c1.4,1.1,3,1.8,4.8,2.1l4,0.5
	c0.5,0.1,0.9,0.5,0.9,1L36.3,13.1L36.3,13.1z"/>
</svg>
