<?xml version="1.0" encoding="utf-8"?>
<!-- Generator: Adobe Illustrator 24.2.0, SVG Export Plug-In . SVG Version: 6.00 Build 0)  -->
<svg version="1.1" id="Layer_1" xmlns="http://www.w3.org/2000/svg" xmlns:xlink="http://www.w3.org/1999/xlink" x="0px" y="0px"
	 viewBox="0 0 95 26.2" style="enable-background:new 0 0 95 26.2;" xml:space="preserve">
<style type="text/css">
	.st0{fill:#FFFFFF;}
	.st1{fill:#DF0005;}
	.st2{fill-rule:evenodd;clip-rule:evenodd;fill:#1B1B1F;}
	.st3{fill:#1B1B1F;}
</style>
<path class="st0" d="M24.5,12.2c0,6.8-5.5,12.2-12.2,12.2S0,19,0,12.2C0,5.5,5.5,0,12.2,0c0,0,0,0,0,0C19,0,24.5,5.5,24.5,12.2
	C24.5,12.2,24.5,12.2,24.5,12.2z"/>
<path class="st1" d="M12.2,0C5.7,0,0.3,5.2,0,11.7c1.4-0.8,3.2-0.6,4.4,0.5c0.9,1,1.3,2.3,1,3.6c2.3-0.3,3,2.3,2.9,3
	c0,0.3,0,0.3-0.1,0.4c-0.1,0-0.1,0-0.2,0c0-0.1,0-0.3-0.1-0.4c0-0.1-0.1-0.2-0.2-0.3c-0.2-0.6-0.7-1.1-1.2-1.4
	c-0.2-0.1-0.4-0.2-0.6-0.2c-0.4-0.1-0.8-0.1-1.2,0.1L4.2,17H3.9c-0.1-0.1-0.2-0.3-0.2-0.5c0.2-0.2,0.4-0.4,0.6-0.5
	c0.3-1.3-0.6-2.6-1.9-2.9c-0.1,0-0.3,0-0.4,0c-0.8,0.1-1.5,0.5-1.8,1.1c1.1,6.7,7.4,11.2,14.1,10.1c6.7-1.1,11.2-7.4,10.1-14.1
	C23.3,4.3,18.2,0,12.2,0z M10.2,12.8c-0.1,0.8-0.2,1.6-0.2,2.4c0,0.9,0,2-0.4,1.6C9.2,16.4,9,15.9,9,15.4c-0.2-1.5-0.2-3,0.1-4.5
	c0.1-0.4,0.5-0.8,1.3-0.8c1.7-0.2,3.4-0.1,5.1,0.1c0.5,0.1,1,0.2,1.5,0.5c0.1,0.1,0.1,0.2-0.1,0.2c-1.4,0.4-3.4,0.2-5.1,0.4
	C11,11.4,10.3,12,10.2,12.8L10.2,12.8z M14.8,17.2c-0.1,0.4-0.3,0.8-0.7,1.1c-0.3,0.2-0.6,0.3-0.9,0.3H13c-0.5,0-0.9-0.2-1.2-0.6
	c-0.2-0.3-0.4-0.6-0.4-1c0-0.4,0.1-0.7,0.3-1c0.1-0.1,0.2-0.3,0.4-0.4l0.2-0.1c0.1-0.1,0.3-0.1,0.4-0.2c0.1,0,0.2,0,0.3,0
	c0.4,0,0.7,0.1,1.1,0.3c0.2,0.1,0.3,0.2,0.4,0.4c0.1,0.1,0.1,0.2,0.1,0.3c0.1,0.2,0.1,0.4,0.2,0.5C14.8,17,14.8,17.1,14.8,17.2
	L14.8,17.2z M19.8,17.4c0,0.1,0,0.2-0.1,0.3c-0.1,0.2-0.1,0.3-0.3,0.4c-0.2,0.3-0.6,0.5-0.9,0.5h-0.1c0,0-0.1,0-0.1,0h-0.1h-0.1l0,0
	h-0.1c-0.1,0-0.3-0.1-0.4-0.2c-0.1-0.1-0.2-0.2-0.3-0.3c-0.2-0.2-0.3-0.4-0.3-0.7c0-0.1,0-0.1,0-0.2c0-0.3,0.1-0.6,0.2-0.8
	c0.2-0.3,0.4-0.5,0.7-0.6l0.2-0.1c0.3,0,0.6,0,0.9,0.1c0.2,0.1,0.3,0.1,0.5,0.3C19.7,16.5,19.9,16.9,19.8,17.4L19.8,17.4z
	 M21.4,17.4c-0.1-0.6-0.2-1.3-0.2-1.9c-0.2-1-2.4-0.4-3.1-1.5c-0.3-0.7-0.5-1.4-0.4-2.1c0-0.1,0-0.2,0.1-0.2c0.3,0,0.8,1.2,1.2,1.7
	c0.1,0.1,0.3,0.2,0.4,0.2c0.8,0.2,1.4,0.3,2,0.5c0.4,0.1,0.7,0.4,0.8,0.8c0.1,0.8-0.1,1.6-0.5,2.3C21.7,17.3,21.5,17.4,21.4,17.4
	L21.4,17.4z"/>
<path class="st2" d="M55,4.4c3.3,0,5.3,2.2,5.3,5.7v3.8c0,3.2-1.7,5.8-5.3,5.8c-1.2,0-2.4-0.6-3.2-1.6v8.1h-3.4V4.6h3.4v1.1
	C52.7,4.8,53.8,4.4,55,4.4z M54.4,7.3c-1.4,0-2.6,1.1-2.6,2.5c0,0,0,0.1,0,0.1v4c-0.1,1.4,0.9,2.7,2.3,2.8c0.1,0,0.2,0,0.3,0
	c1.1,0,2.5-0.4,2.5-2.8v-3.9C57,8.4,56.2,7.3,54.4,7.3L54.4,7.3z"/>
<path class="st2" d="M69.3,4.4h-0.6c-4.2,0-5.7,2.7-5.7,5.7V14c0,3.1,1.6,5.7,5.7,5.7h0.6c4.1,0,5.7-2.6,5.7-5.7v-3.9
	C74.9,7.1,73.4,4.4,69.3,4.4z M71.6,14c0,2.5-1.4,2.7-2.5,2.7h-0.2c-1.8,0-2.5-0.9-2.5-2.7v-3.9c0-2.4,1.3-2.8,2.5-2.8h0.2
	c1.6,0,2.5,0.8,2.5,2.8V14z"/>
<path class="st3" d="M31.3,16.4c0.8,0,1.2-0.5,1.3-1.6C32.8,12.5,33,9,33.4,4.6h10.5v11.9h1.6v6.2H42v-3.1h-8v3.1h-3.5v-6.2H31.3z
	 M35.7,15.7c0,0.2-0.1,0.4-0.2,0.5l-0.1,0.2h5V7.7h-4c-0.2,3.1-0.4,5.5-0.5,7.3C35.8,15.2,35.8,15.5,35.7,15.7z"/>
<path class="st3" d="M95,19.5h-3.4v-6.9l0.1-3.7L88,19.5h-3.4L80.9,8.9l0.2,3.7v6.9h-3.4v-15h4.9l3.7,10.7l3.7-10.6H95V19.5z"/>
</svg>
