<svg width="43" height="62" viewBox="0 0 43 62" fill="none" xmlns="http://www.w3.org/2000/svg">
<g clip-path="url(#clip0_1010_24)">
<path opacity="0.2" d="M35 58.4C35 60.4 28.8 62 21.2 62C13.6 62 7.39999 60.4 7.39999 58.4C7.39999 56.4 13.6 54.8 21.2 54.8C28.8 54.7 35 56.4 35 58.4Z" fill="#05141F"/>
<path d="M21.4 0C9.6 0 0 9.6 0 21.4C0 34 21.4 58.5 21.4 58.5C21.4 58.5 42.8 35 42.8 21.4C42.8 9.6 33.2 0 21.4 0ZM21.4 33.7C14.1 33.7 8.2 27.8 8.2 20.5C8.2 13.2 14.1 7.3 21.4 7.3C28.7 7.3 34.6 13.2 34.6 20.5C34.6 27.8 28.7 33.7 21.4 33.7Z" fill="#05141F"/>
<path d="M21.4 38.2C30.6232 38.2 38.1 30.7232 38.1 21.5C38.1 12.2768 30.6232 4.8 21.4 4.8C12.1769 4.8 4.70001 12.2768 4.70001 21.5C4.70001 30.7232 12.1769 38.2 21.4 38.2Z" fill="white"/>
<g clip-path="url(#clip1_1010_24)">
<path fill-rule="evenodd" clip-rule="evenodd" d="M17.0788 29.4702C17.0068 29.4702 16.9283 29.4292 16.8935 29.3904C16.8618 29.3552 16.8239 29.2698 16.8239 29.2053C16.8239 28.7945 17.3098 28.4794 17.6152 28.2944C17.6751 28.2582 17.9414 28.1209 18.0073 28.1156L17.9373 28.3308C17.9245 28.3692 17.9134 28.3977 17.9001 28.4363L17.7826 28.7467C17.6621 29.0123 17.4726 29.4702 17.0788 29.4702ZM17.1484 30H17.0315H17.0177C16.8916 30 16.7157 29.9037 16.626 29.8205L16.6156 29.8106C16.2704 29.464 16.4185 28.8939 16.7041 28.5767L16.8877 28.3933C16.9102 28.3738 16.9218 28.3571 16.945 28.3386L17.1564 28.183C17.2728 28.098 17.3999 28.0329 17.5236 27.9588C17.679 27.8662 17.8532 27.7979 18.0192 27.7304C18.097 27.6988 18.1373 27.7041 18.1567 27.6334L18.2625 27.2604C18.2369 27.2776 18.2369 27.2805 18.2159 27.3058C18.2009 27.3236 18.1931 27.3328 18.1779 27.3495C18.1475 27.3827 18.1349 27.4032 18.1018 27.4363C18.0465 27.4911 17.9868 27.548 17.9218 27.5926C17.6783 27.7598 17.4197 27.8399 17.1329 27.7263C16.9928 27.6708 16.8978 27.5767 16.8208 27.4474C16.7802 27.3794 16.7652 27.3186 16.7323 27.2505C16.6942 27.2761 16.6666 27.3109 16.6328 27.3449C16.5997 27.3782 16.5719 27.3999 16.534 27.4295C16.246 27.6553 15.8698 27.8763 15.4977 27.7294C15.4525 27.7116 15.4424 27.7084 15.4042 27.6802C15.258 27.5714 15.2019 27.4216 15.2019 27.1999L15.0309 27.3958C14.97 27.4616 14.9226 27.514 14.8477 27.5695C14.53 27.8049 14.1178 27.8927 13.8146 27.5767C13.803 27.5646 13.7933 27.5523 13.7824 27.5374C13.7247 27.4619 13.6498 27.3531 13.6411 27.2505C13.5887 27.2645 13.5314 27.3454 13.4867 27.3813L13.3367 27.5065C13.2973 27.5379 13.2712 27.5519 13.2277 27.581C13.1866 27.6083 13.1603 27.6281 13.1144 27.6512C13.0697 27.6739 13.0368 27.6932 12.9897 27.7101C12.9141 27.7374 12.7952 27.7801 12.6925 27.7801C12.3366 27.7801 12.0764 27.63 12.0595 27.2706L12.06 27.1485C12.0636 27.0293 12.0865 26.9237 12.1066 26.7975C12.1863 26.2974 12.2506 25.7847 12.3311 25.2798C12.3572 25.1158 12.448 24.6053 12.448 24.4697C12.4224 24.4883 12.4098 24.5426 12.3941 24.5788L11.546 26.5736C11.5291 26.6137 11.5149 26.6402 11.4992 26.6798L11.2165 27.3446C11.1244 27.5779 11.0002 27.7796 10.7137 27.7796C10.4779 27.7796 10.5216 27.7395 10.3873 27.7084C10.3873 27.6428 10.3976 27.5569 10.4049 27.5019C10.4138 27.4341 10.4148 27.369 10.4179 27.301L10.5192 26.0882C10.5247 26.0146 10.5233 25.9505 10.5327 25.8776C10.5395 25.8258 10.5494 25.7423 10.5503 25.6812C10.5511 25.6209 10.5634 25.5314 10.5692 25.476L10.6011 24.9578C10.6025 24.909 10.6093 24.9112 10.6117 24.8666C10.6156 24.7966 10.605 24.7242 10.6144 24.6555C10.6228 24.5949 10.6219 24.5245 10.6219 24.449C10.5987 24.4823 10.5868 24.5375 10.5745 24.5749C10.4414 24.9816 10.3058 25.3758 10.1539 25.7746C10.1449 25.7983 10.1411 25.813 10.1319 25.8342L9.98593 26.1874C9.7564 26.6766 9.48965 27.2819 9.03034 27.6064C8.8472 27.7359 8.49782 27.8604 8.26949 27.7041C8.21223 27.665 8.16753 27.6124 8.13322 27.5552C8.07427 27.4573 8.00009 27.2308 8.00009 27.1075V26.9174C8.00396 26.8503 8.01604 26.7845 8.0489 26.7285C8.082 26.6718 8.09601 26.6537 8.14869 26.6141C8.3357 26.473 8.61573 26.4913 8.80612 26.6187C8.76626 26.7017 8.73001 26.8235 8.71141 26.9316C8.68169 27.1051 8.69425 27.0959 8.68121 27.2088C8.67807 27.2363 8.66019 27.2677 8.70126 27.2679C8.76771 27.2682 8.9523 27.1154 9.00763 27.0643C9.02696 27.0462 9.03952 27.0322 9.05861 27.0132C9.12602 26.9466 9.18256 26.8708 9.23741 26.7943C9.50149 26.4248 9.68947 26.0173 9.8702 25.6028C9.97506 25.3623 10.0555 25.1105 10.1529 24.8666C10.2317 24.669 10.2882 24.4676 10.3568 24.2656L10.5518 23.6456C10.5634 23.6094 10.5902 23.5364 10.5912 23.4915C10.2157 23.4915 9.84652 23.6437 9.84652 24.0618C9.84652 24.2907 9.92964 24.3098 9.95863 24.4181C9.88083 24.4362 9.83444 24.4692 9.73417 24.4692C9.64501 24.4692 9.55996 24.4574 9.49618 24.4217C9.30337 24.3134 9.22436 24.1115 9.22436 23.8784C9.22436 23.7549 9.27244 23.6167 9.32028 23.5364C9.63487 23.0083 10.3162 23.0659 10.8519 23.2005C10.9845 23.2341 11.1099 23.258 11.2455 23.2601C11.3612 23.2618 11.3781 23.2372 11.4685 23.2162C11.4987 23.2613 11.5398 23.2814 11.5398 23.3588C11.5398 23.5289 11.4772 23.5781 11.3257 23.6133C11.3257 23.6924 11.3175 23.7404 11.3155 23.8172C11.3143 23.8664 11.3076 23.8637 11.3052 23.9086C11.3035 23.9421 11.3073 23.9757 11.3037 24.0089L11.2353 24.9693C11.2317 25.0029 11.2356 25.033 11.231 25.0668L11.1421 26.3222C11.1404 26.355 11.1442 26.391 11.1416 26.4236L11.1218 26.7092C11.1541 26.6855 11.1665 26.6332 11.1815 26.5956L11.431 26.0301C11.5434 25.8074 11.6342 25.572 11.734 25.3447L12.4412 23.7489C12.461 23.7069 12.4726 23.6777 12.49 23.6345C12.564 23.4507 12.7295 23.2768 12.9479 23.2768C13.24 23.2768 13.1849 23.3154 13.3253 23.3479L13.1344 24.6953C13.06 25.1426 13.0088 25.5821 12.9433 26.0323C12.9208 26.1862 12.8981 26.336 12.8793 26.4776C12.8575 26.64 12.8254 26.7719 12.8254 26.9331C12.8254 27.0428 12.8491 27.2081 12.9887 27.2081C13.2306 27.2081 13.3971 27.0761 13.5802 26.9536C13.5159 26.8197 13.6184 26.2506 13.6607 26.107C13.6952 25.9903 13.7257 25.8658 13.781 25.7584C13.8095 25.7032 13.8284 25.6511 13.8557 25.599L14.0352 25.3097C14.3701 24.828 14.9809 24.5349 15.5477 24.8164L15.6615 24.8962C15.8016 24.8026 15.848 24.7334 16.0493 24.7334C16.2849 24.7334 16.2353 24.7727 16.3552 24.8046C16.3337 24.8492 16.2576 25.2726 16.2431 25.3343C16.2218 25.4229 16.2049 25.509 16.186 25.6033L16.0196 26.3946C15.9792 26.5946 15.9166 26.7953 15.9166 27.0047C15.9166 27.3113 16.2897 27.1996 16.4472 27.1169C16.5328 27.0718 16.6026 27.017 16.6818 26.9639C16.6512 26.9003 16.676 26.5878 16.6828 26.5065C16.7062 26.2204 16.7918 25.9331 16.9162 25.6805C17.0841 25.3401 17.3199 25.019 17.6623 24.8364L17.7819 24.7826C17.9856 24.7001 18.2956 24.6731 18.5152 24.7563C18.63 24.7997 18.6764 24.8453 18.7728 24.8962C18.8049 24.8485 18.8805 24.8046 18.9393 24.7773C19.097 24.704 19.3111 24.7279 19.4561 24.8046C19.4474 24.91 19.4097 25.0277 19.3872 25.1329L19.0473 26.749C19.0301 26.8344 18.9405 27.3181 18.9054 27.3914C18.9446 27.3823 19.012 27.3437 19.0516 27.3236C19.2164 27.2394 19.3734 27.1451 19.5281 27.0457C19.5808 27.012 19.6168 26.9999 19.6308 26.9343L19.9432 25.4333C19.9553 25.3773 19.9644 25.2996 19.9074 25.2808C19.8639 25.2663 19.8093 25.3194 19.7724 25.3442C19.7284 25.3148 19.7124 25.2916 19.7016 25.2308C19.6926 25.1816 19.6926 25.1385 19.7124 25.0907C19.7434 25.0161 19.8291 24.9727 19.8932 24.9247C19.9635 24.8724 20.0389 24.8299 20.122 24.7969C20.2974 24.7274 20.7313 24.6441 20.7313 24.957C20.7313 25.1165 20.6671 25.322 20.6354 25.4825L20.4356 26.4238C20.4177 26.4993 20.4018 26.5874 20.3873 26.6607C20.3585 26.8052 20.2505 27.2081 20.5173 27.2081C20.6402 27.2081 20.7857 27.1632 20.8744 27.1167C20.9599 27.0718 21.0404 27.0062 21.1191 26.9536C21.1049 26.9241 21.0986 26.8378 21.0986 26.7905C21.0986 26.5476 21.1182 26.3237 21.1844 26.0918C21.3264 25.5954 21.6181 25.102 22.0808 24.848C22.5007 24.6176 23.3326 24.6164 23.3326 25.283C23.3326 25.7469 22.9552 25.832 22.7643 25.7486C22.6164 25.6837 22.7068 25.641 22.7384 25.5047C22.7802 25.3249 22.8124 25.1404 22.5674 25.1404C22.3429 25.1404 22.1825 25.3445 22.0878 25.5273C22.0692 25.5633 22.0525 25.5966 22.0334 25.6361C21.8708 25.9734 21.7466 26.6807 21.9177 27.0013C22.2052 27.54 23.1514 27.1128 23.4829 26.7779C23.5089 26.7514 23.6252 26.6173 23.6486 26.6173C23.7158 26.6173 23.7837 26.6231 23.8027 26.6983C23.8269 26.7927 23.7462 26.8706 23.695 26.9389C23.6803 26.9584 23.6706 26.9741 23.6556 26.9912C23.6392 27.0105 23.6269 27.0187 23.6107 27.038C23.5764 27.0788 23.5611 27.0966 23.5234 27.1343L23.3809 27.2669C23.1212 27.4879 22.8138 27.659 22.471 27.7335C22.1583 27.8015 21.7778 27.8076 21.5091 27.6129C21.4675 27.5827 21.4426 27.568 21.4069 27.5318C21.3429 27.4669 21.2945 27.4148 21.2467 27.335C21.2303 27.3075 21.23 27.3043 21.2153 27.2749C21.2013 27.2472 21.1981 27.2525 21.1902 27.2185C21.114 27.2694 21.0551 27.3514 20.9838 27.4098C20.7751 27.5798 20.466 27.7789 20.1802 27.7789C20.0302 27.7789 19.8376 27.7415 19.7438 27.6544C19.6602 27.5765 19.5885 27.478 19.5885 27.3205C19.5162 27.3374 19.4109 27.4293 19.3387 27.4681L18.9306 27.6923C18.9127 27.7012 18.8992 27.706 18.8813 27.7142C18.8228 27.7407 18.8267 27.7311 18.811 27.797C18.7218 28.1721 18.6078 28.5294 18.4679 28.8703C18.3401 29.1822 18.1593 29.4893 17.9018 29.7105L17.8343 29.7653C17.735 29.8463 17.6217 29.8958 17.5021 29.9428C17.3837 29.9896 17.2687 29.9988 17.1484 30ZM14.6204 27.1584C14.3732 27.1584 14.3041 26.9519 14.3041 26.7102C14.3041 26.198 14.4899 25.4506 14.9533 25.2299C15.0449 25.1862 15.1164 25.1696 15.2411 25.1599C15.3629 25.1505 15.4346 25.1787 15.5383 25.2026C15.5383 25.2637 15.2648 26.562 15.2343 26.6918C15.2015 26.8315 15.1889 26.8361 15.0565 26.9637L14.9023 27.0735C14.8173 27.12 14.7482 27.1584 14.6204 27.1584ZM17.4052 26.7408C17.4052 26.5268 17.442 26.2774 17.4847 26.1073C17.571 25.7642 17.7278 25.4004 18.0562 25.2316C18.262 25.1257 18.429 25.1517 18.6496 25.2029L18.6109 25.3884C18.5193 25.7753 18.4104 26.3186 18.3343 26.701C18.3096 26.8255 18.2608 26.8715 18.1521 26.9673C17.8162 27.2636 17.4052 27.2438 17.4052 26.7408Z" fill="#E32B38"/>
<path fill-rule="evenodd" clip-rule="evenodd" d="M17.2878 15.6178L17.3033 18.9795C18.1224 18.9795 24.5452 19.0388 24.8071 19.0234C24.805 17.9441 24.8045 15.8399 24.7953 15.4421C24.5822 15.4407 22.4685 15.4499 22.4125 15.4822C22.4103 15.4995 22.4352 15.5603 22.4475 15.5736L22.5548 15.7104C22.6476 15.8443 22.722 15.9917 22.7817 16.1458C22.787 16.1596 22.7964 16.1958 22.7969 16.1987C22.7971 16.2001 22.7979 16.203 22.7981 16.2045C22.8592 16.4394 22.8841 16.6848 22.8776 16.9328L22.8034 17.2734C22.8029 17.2756 22.8025 17.2787 22.8017 17.2807L22.7493 17.4242C22.7421 17.4416 22.7498 17.4208 22.7375 17.4529C22.7 17.5523 22.6398 17.656 22.5819 17.7537C22.4565 17.9166 22.1073 18.2746 21.908 18.3588L21.8287 18.4024C21.8278 18.4029 21.8034 18.4179 21.8026 18.4184C21.7592 18.4377 21.8268 18.4106 21.7874 18.4239L21.7635 18.4304C21.7611 18.4311 21.7582 18.4319 21.756 18.4326L21.5685 18.5016C21.5659 18.5021 21.5632 18.5026 21.5603 18.503C21.3098 18.5501 21.3561 18.5795 21.0063 18.5725L20.8526 18.5658C20.8367 18.5638 20.828 18.5643 20.8149 18.5631C20.6965 18.551 20.4914 18.4915 20.3928 18.4473C20.3684 18.4364 20.3619 18.4367 20.3322 18.4261C20.2597 18.4003 20.1761 18.3474 20.1145 18.3098L19.8753 18.1421C19.8625 18.1318 19.8511 18.1178 19.8352 18.1026L19.6305 17.8905C19.6153 17.87 19.6105 17.8613 19.5965 17.8427C19.5206 17.7419 19.465 17.6452 19.4085 17.533L19.2311 16.8517C19.2321 16.8249 19.2316 16.7967 19.2314 16.7697C19.2362 16.4264 19.4082 15.9415 19.6518 15.5963C19.3662 15.5881 18.4601 15.6214 17.2878 15.6178Z" fill="black"/>
<path fill-rule="evenodd" clip-rule="evenodd" d="M26.4052 9.00839C26.4958 8.87426 26.6079 8.76112 26.7142 8.64749C26.7502 8.60889 26.7804 8.55654 26.8345 8.53869L27.1573 8.82481C27.3231 8.95894 27.8162 9.39969 27.952 9.52876L28.5229 10.0443C28.4906 10.1644 28.3123 10.3996 28.2487 10.4561L26.4052 9.00839ZM25.8821 9.04916C25.8821 9.12805 25.9077 9.17051 25.9664 9.21948L26.0904 9.30971C26.3979 9.53985 27.0259 10.0062 27.2977 10.2433L27.7691 10.6281C27.9885 10.7975 28.19 10.9919 28.4091 11.162C28.5094 11.2397 28.5998 11.3313 28.6988 11.4107L28.8682 11.5574C28.8943 11.5817 28.8972 11.5868 28.9276 11.6102L29.0951 11.7588C29.1214 11.7788 29.1292 11.7902 29.1538 11.8121L29.5527 12.1677C29.5805 12.1899 29.5868 12.1933 29.6129 12.2198L31.0614 13.5539C31.0993 13.5923 31.1305 13.6227 31.1684 13.661L31.7004 14.1703C31.7019 14.1717 31.7041 14.1739 31.7055 14.1754L32.0406 14.5013C32.1146 14.5751 32.181 14.6414 32.2549 14.715C32.3289 14.7888 32.3953 14.8552 32.469 14.9288C32.5333 14.9932 32.6174 15.0885 32.6843 15.1415L32.9626 15.3932C32.9866 15.4122 32.9972 15.4269 33.0221 15.4457C33.1675 15.5565 33.2692 15.5331 33.3823 15.3977L33.6367 15.1222C33.673 15.0858 33.7066 15.0571 33.7365 15.018L33.8871 14.8525C34.162 14.5609 33.8743 14.4607 33.652 14.2465L32.6932 13.3703C32.5669 13.2429 32.3842 13.0905 32.2446 12.9525L31.5813 12.3313C31.4132 12.1634 31.1962 11.9774 31.0254 11.8068C31.006 11.7875 30.9942 11.7747 30.9746 11.7557L30.8062 11.5981C30.7879 11.5798 30.7746 11.5641 30.7547 11.5477C30.6204 11.4358 30.3247 11.1429 30.1995 11.0225C30.1744 10.9984 30.1628 10.9948 30.1379 10.9719L29.0598 9.96034C29.0581 9.95889 29.0557 9.95721 29.0543 9.95576L29.0265 9.93236C29.0076 9.91547 28.9917 9.90003 28.9752 9.88339L28.2965 9.2658C28.2755 9.24554 28.2622 9.22865 28.2405 9.20959C28.2171 9.18884 28.2081 9.18691 28.1842 9.16375C27.9808 8.96786 27.7628 8.79031 27.5521 8.60334L27.0931 8.20626C27.0334 8.14956 26.9073 8.04076 26.8203 8.04076C26.6794 8.04076 26.6016 8.15222 26.5117 8.24196C26.4736 8.28008 26.4286 8.3194 26.3948 8.35945C26.2827 8.49358 25.8821 8.9312 25.8821 9.04916Z" fill="black"/>
<path fill-rule="evenodd" clip-rule="evenodd" d="M20.6231 19.8164L21.0471 19.8147V22.1063C20.9836 22.1063 20.9524 22.1007 20.9038 22.0966C20.8521 22.0923 20.7934 22.099 20.741 22.0961C20.5127 22.0838 19.9154 21.9844 19.9048 21.9839L20.6231 19.8164ZM21.2001 22.1065V19.8149H21.6898C21.6908 19.8663 21.7128 19.9039 21.7263 19.9517C21.7413 20.0045 21.751 20.034 21.7676 20.0837L22.196 21.418C22.226 21.5075 22.2516 21.5951 22.2801 21.6802C22.2982 21.7345 22.3591 21.9077 22.363 21.9538C22.1373 22.0064 21.6127 22.098 21.3634 22.0966C21.3105 22.0964 21.2366 22.0891 21.2001 22.1065ZM19.9995 19.0806L22.2569 19.0852L22.2571 19.5298L22.255 19.6998L20.0473 19.7003L19.9995 19.6982V19.0806ZM20.8669 15.0354C21.3844 14.971 21.8056 15.1464 22.1772 15.4373C22.2409 15.4872 22.3415 15.598 22.3936 15.6592C22.4526 15.7285 22.5154 15.824 22.5664 15.9142C22.6708 16.0983 22.7467 16.3258 22.7727 16.5656C22.874 17.5019 22.2018 18.3494 21.2423 18.4635C20.5276 18.5484 19.8808 18.1749 19.5414 17.5803C18.9707 16.5813 19.5643 15.1977 20.8669 15.0354ZM22.3528 18.9792L17.3033 18.9795L17.2878 15.6284C17.6312 15.6209 18.6805 15.6243 19.0374 15.6243C19.2188 15.6243 19.4307 15.6344 19.6085 15.6185C19.6068 15.6228 19.6054 15.6281 19.6037 15.6317C19.5771 15.6728 19.5687 15.6957 19.5348 15.7372C19.4249 15.9635 19.3314 16.0949 19.2246 16.459C19.222 16.5668 19.2309 16.6558 19.2309 16.7695C19.2309 16.7965 19.2316 16.8247 19.2307 16.8515L19.408 17.5327C19.4645 17.6452 19.5201 17.7419 19.596 17.8425C19.6102 17.8613 19.6151 17.8698 19.63 17.8903L19.8347 18.1023C19.8506 18.1175 19.8622 18.1315 19.8748 18.1419L20.114 18.3096C20.1756 18.3472 20.2592 18.4 20.3317 18.4258C20.3614 18.4364 20.3679 18.436 20.3923 18.4471C20.4909 18.4912 20.6961 18.5508 20.8144 18.5629C20.8275 18.5641 20.8362 18.5636 20.8521 18.5655L21.0058 18.5723C21.3554 18.5793 21.309 18.5498 21.5598 18.5028C21.5627 18.5023 21.5654 18.5018 21.568 18.5013L21.7555 18.4323C21.758 18.4316 21.7606 18.4309 21.763 18.4302L21.787 18.4237C21.8263 18.4104 21.7589 18.4374 21.8022 18.4181C21.8029 18.4179 21.8273 18.4029 21.8283 18.4022L21.9075 18.3585C21.9735 18.3308 22.0305 18.2845 22.0919 18.2485L22.2692 18.1014C22.3158 18.0591 22.3579 18.0403 22.3944 17.9832C22.4451 17.9035 22.5326 17.8362 22.5816 17.7535C22.6396 17.6558 22.6998 17.552 22.7372 17.4527C22.7493 17.4206 22.7418 17.4411 22.7491 17.4239L22.8015 17.2804C22.802 17.2782 22.8025 17.2753 22.8032 17.2732L22.8774 16.9325C22.8921 16.8163 22.8742 16.5803 22.8554 16.4252L22.7979 16.2042C22.7976 16.2028 22.7969 16.1999 22.7967 16.1984C22.7962 16.1955 22.7868 16.1593 22.7814 16.1456C22.7218 15.9914 22.6471 15.8438 22.5546 15.7102L22.4473 15.5734C22.4352 15.5601 22.4219 15.5439 22.4241 15.5266C22.3866 15.5051 22.4089 15.5492 22.3949 15.486H24.76C24.7419 15.6045 24.754 17.8702 24.754 18.1035C24.754 18.3827 24.7393 18.7076 24.7586 18.9795L22.3528 18.9792ZM19.8026 13.9553H22.1996C22.2291 13.9693 22.217 13.9599 22.2359 13.9937C22.3265 14.1568 22.4872 14.5447 22.5734 14.6776L23.1576 14.6774L23.1608 14.2048L24.0127 14.207L24.0183 14.6779C24.1497 14.6784 24.6578 14.6612 24.7458 14.6841L24.7455 15.3799C24.6549 15.3956 22.7653 15.384 22.6181 15.384C22.2013 15.384 22.339 15.4117 22.1793 15.2928C22.0849 15.2226 21.9732 15.1473 21.8515 15.0906C21.5862 14.9674 21.3054 14.8998 20.9655 14.9131C20.6656 14.9249 20.3609 15.0233 20.1413 15.1522C19.8434 15.3268 19.7291 15.4877 19.6999 15.5056C19.661 15.529 19.5049 15.514 19.4457 15.514C18.739 15.514 18.032 15.5164 17.3224 15.514L17.3221 14.6779L19.4423 14.6771L19.8026 13.9553ZM19.3536 14.5594H17.2115V19.0815H19.8842V19.8147H20.4554C20.4544 19.861 20.4523 19.8443 20.4402 19.881L19.8395 21.6747C19.8108 21.7613 19.7711 21.8595 19.7516 21.9434C19.71 21.94 19.6702 21.9239 19.6373 21.9149C19.5924 21.9026 19.5583 21.8937 19.517 21.8821C19.444 21.8621 19.3609 21.8353 19.2913 21.8122C19.0011 21.7157 18.7211 21.5917 18.4529 21.4477C18.4162 21.4279 18.3959 21.4189 18.3601 21.3977C18.3251 21.377 18.2949 21.3598 18.2623 21.3425C18.2265 21.3232 18.2043 21.3063 18.1673 21.2846C18.0127 21.1931 17.8617 21.0855 17.7189 20.9787C17.6587 20.9336 17.6118 20.8959 17.5526 20.8491L17.0102 20.3418L16.7309 20.0197C16.6028 19.8477 16.4733 19.6781 16.3569 19.497C15.6233 18.3564 15.3631 16.9492 15.5929 15.5705C15.6385 15.2962 15.7173 15.0089 15.8028 14.7514C15.8318 14.6644 15.8632 14.5804 15.8959 14.4979L16.0524 14.145C16.281 13.6924 16.5001 13.3378 16.8314 12.9467L17.3852 12.3795L17.6696 12.1438C17.8827 11.9738 18.1535 11.7919 18.3951 11.6664C18.4336 11.6466 18.4715 11.6307 18.5094 11.6076C18.529 11.5957 18.5387 11.5892 18.5619 11.5784C18.5749 11.5723 18.5809 11.5704 18.5904 11.5661C19.0009 11.3779 19.3063 11.2459 19.7644 11.1393C20.9556 10.8616 22.1578 10.9569 23.2787 11.4353C23.7102 11.6194 24.2217 11.9103 24.5747 12.2191C24.6615 12.2949 24.7576 12.3619 24.84 12.4432L25.2324 12.8459C25.3621 12.9843 25.4796 13.137 25.5912 13.2922C25.7287 13.483 25.8514 13.6767 25.9676 13.8839C25.9879 13.9204 25.9981 13.9488 26.0196 13.9848C26.0831 14.0907 26.129 14.2033 26.1783 14.3153C26.2102 14.3874 26.2443 14.4624 26.2716 14.5379C26.4233 14.9584 26.5337 15.3734 26.5975 15.8218C26.633 16.0723 26.6304 16.1885 26.6374 16.4238C26.6391 16.4785 26.6507 16.5012 26.6483 16.5663L26.6231 17.0302C26.5961 17.217 26.5818 17.4114 26.5451 17.594C26.5086 17.7752 26.4683 17.9371 26.4192 18.1098C26.2578 18.6758 26.0208 19.1607 25.7033 19.6359C25.5963 19.7963 25.4837 19.9505 25.3595 20.0972C25.3324 20.1293 25.3126 20.1553 25.2836 20.1843L25.1353 20.3519C25.0898 20.4062 25.0244 20.4636 24.9724 20.5152L24.4592 20.9601C24.1463 21.1958 23.8146 21.3996 23.4587 21.5702C23.1975 21.6954 22.9242 21.7989 22.6459 21.8788C22.607 21.8901 22.5538 21.9099 22.5169 21.9128C22.4835 21.7695 22.2228 20.9854 22.1815 20.8624C22.1228 20.687 22.0728 20.516 22.0131 20.3379C21.9827 20.2467 21.9566 20.1693 21.9288 20.0759C21.9058 19.999 21.8754 19.881 21.8435 19.8147H22.3741V19.0815H24.863V14.5898C24.863 14.5664 24.856 14.5592 24.8323 14.5592H24.1285V14.0907H23.0472V14.5592H22.6391C22.6205 14.4793 22.4975 14.2663 22.4555 14.1824L22.3178 13.9023C22.3125 13.8917 22.2977 13.8586 22.2941 13.8543C22.2675 13.8227 22.2859 13.8463 22.2516 13.8463H19.7624C19.7235 13.8463 19.7588 13.8494 19.732 13.8362L19.438 14.4289C19.4208 14.4641 19.3962 14.5594 19.3536 14.5594ZM15.3549 16.4233C15.3549 16.9615 15.3914 17.4049 15.5202 17.9185C15.5987 18.2324 15.6948 18.5387 15.8311 18.8304L16.001 19.1903C16.0401 19.2692 16.0865 19.3471 16.1295 19.4183C16.174 19.4919 16.2124 19.5619 16.2607 19.6337C16.309 19.7056 16.3532 19.7785 16.404 19.847C16.4301 19.8822 16.4521 19.9126 16.477 19.9474L16.8913 20.4402C16.986 20.5425 17.0815 20.6455 17.188 20.7348C17.2066 20.7502 17.2173 20.7635 17.2342 20.7804L17.4695 20.9835C17.6449 21.1333 17.8423 21.2609 18.0359 21.3857C18.1429 21.4547 18.2555 21.5239 18.371 21.5806C18.4166 21.603 18.4398 21.6199 18.4831 21.6419C19.6955 22.2563 21.0396 22.402 22.3673 22.1111C22.62 22.0556 23.0559 21.9268 23.3082 21.8078C23.7189 21.6146 23.7554 21.5994 24.1309 21.3765C24.4073 21.2124 24.6042 21.0361 24.8432 20.845C25.0323 20.6938 25.329 20.3756 25.4624 20.2106L25.5818 20.0648C25.7504 19.8405 25.9135 19.6173 26.0488 19.3701C26.3185 18.8774 26.5241 18.4111 26.6516 17.8331C26.8469 16.9468 26.8391 16.1596 26.6567 15.273C26.6367 15.1758 26.6079 15.0865 26.584 14.9891L26.5006 14.7157C26.4393 14.5372 26.3685 14.3758 26.2989 14.2041C26.1556 13.8516 25.8674 13.3998 25.6373 13.0924C25.5639 12.9945 25.4839 12.8888 25.4003 12.7995L25.1401 12.5197C24.7223 12.1023 24.2367 11.7308 23.7061 11.4664C23.6259 11.4264 23.5491 11.3827 23.4676 11.348L22.8264 11.1022C22.7752 11.0877 22.7326 11.0703 22.6875 11.0578C22.1868 10.9183 21.7147 10.8315 21.1491 10.8315C20.8176 10.8315 20.7983 10.8341 20.475 10.8611C20.1577 10.8877 19.8663 10.9429 19.5716 11.0286C19.4715 11.0578 19.3921 11.0785 19.2964 11.1104L18.9088 11.2529C18.8627 11.2691 18.8218 11.2862 18.7791 11.3067C18.578 11.4032 18.386 11.4898 18.1977 11.6022C17.9759 11.7347 17.7633 11.8765 17.5582 12.0331C17.5234 12.0596 17.4922 12.0881 17.4579 12.1161C17.426 12.1422 17.3917 12.1646 17.362 12.1935L16.7807 12.7641C16.7613 12.786 16.7606 12.7928 16.7398 12.815C16.5079 13.0625 16.3172 13.3551 16.1423 13.6444C15.9828 13.9081 15.8504 14.193 15.7352 14.4805L15.5987 14.8839C15.5397 15.0687 15.4948 15.2634 15.4561 15.4544C15.3928 15.7664 15.3549 16.0891 15.3549 16.4233Z" fill="#292626"/>
<path fill-rule="evenodd" clip-rule="evenodd" d="M25.1273 27.3926L25.5047 25.6205C25.5897 25.6135 25.6279 25.5898 25.77 25.5898C26.7618 25.5898 26.1829 27.3926 25.1273 27.3926ZM23.8011 24.2352C23.8011 24.6883 24.1422 24.9532 24.5356 24.765C24.5271 24.7332 24.5097 24.7182 24.495 24.6934C24.3631 24.4702 24.4259 24.1848 24.5617 23.9865C24.9712 23.3882 26.4124 23.1378 26.4124 24.0418C26.4124 24.2627 26.3972 24.3438 26.3194 24.5496C26.2051 24.8518 25.8848 25.2407 25.5658 25.3148C25.5801 25.2851 25.6001 25.1693 25.6093 25.1237C25.6221 25.0598 25.6381 24.9935 25.6533 24.9233L25.8268 24.1187C25.8579 23.9783 25.8811 23.8504 25.9128 23.7156C25.6765 23.5906 25.3428 23.622 25.1882 23.8374C25.0954 23.9665 25.0415 24.3501 25.0007 24.5264C24.9811 24.6121 24.9693 24.6861 24.9497 24.7708C24.841 25.2417 24.7494 25.7527 24.6416 26.225C24.6223 26.3097 24.6081 26.3825 24.5909 26.4696L24.4336 27.1987C24.3872 27.1743 24.3391 27.1449 24.2952 27.113C24.2802 27.1022 24.1686 27.0153 24.1683 27.0153C24.0127 27.0153 23.6155 27.4686 24.3664 27.6833C25.0174 27.8696 25.776 27.8013 26.3119 27.3733C26.4649 27.251 26.5139 27.2076 26.6543 27.0428C26.7911 26.8822 26.9082 26.6662 26.9749 26.4667C27.1868 25.832 26.894 25.3674 26.251 25.3331L26.1575 25.3146C26.2564 25.2914 26.4666 25.1131 26.5569 25.041C26.5833 25.02 26.5999 25.0002 26.6241 24.9758C26.7553 24.8446 26.821 24.7471 26.9143 24.5932C26.9812 24.483 27.0351 24.323 27.0568 24.1957C27.0878 24.0145 27.0631 23.7711 26.9853 23.6222C26.6838 23.0449 25.6417 23.1443 25.1198 23.2394C25.0183 23.2579 24.9142 23.2924 24.8132 23.3202C24.7646 23.3335 24.7199 23.352 24.6697 23.3704C24.4457 23.4531 24.2422 23.566 24.0637 23.7228C23.9992 23.7795 23.9364 23.8613 23.8907 23.9371C23.8491 24.006 23.8011 24.1281 23.8011 24.2352Z" fill="#292626"/>
<path fill-rule="evenodd" clip-rule="evenodd" d="M16.3953 22.4628H10.8154V22.6155H16.6096C16.7309 22.6155 16.7473 22.5246 16.6504 22.4524C16.4997 22.3398 16.3158 22.2056 16.1834 22.0734L15.9669 21.8723C15.913 21.8312 15.871 21.7813 15.8214 21.7321C15.588 21.5005 15.3749 21.2428 15.1768 20.9801C15.1534 20.949 15.1401 20.9275 15.1171 20.8971C14.9328 20.6503 14.775 20.3855 14.6206 20.1199C14.337 19.6316 14.1311 19.0678 13.974 18.5247C13.8685 18.1597 13.7965 17.752 13.7513 17.3518C13.7428 17.2756 13.7353 17.1675 13.7252 17.0925L13.7124 16.8201C13.7129 16.7212 13.702 16.6512 13.702 16.5451C13.702 15.9953 13.775 15.4356 13.8917 14.901C13.9726 14.5295 14.0784 14.1927 14.2166 13.8504L14.5046 13.2111C14.7047 12.8119 14.947 12.4415 15.2133 12.0855C15.2462 12.0416 15.2744 12.0003 15.3111 11.9591C15.4018 11.8577 15.4757 11.7446 15.5711 11.6483C15.5936 11.6257 15.612 11.6109 15.6315 11.5866L15.8292 11.3764C15.8458 11.3622 15.835 11.3723 15.8451 11.3617C15.8466 11.3603 15.8485 11.3579 15.85 11.3564L16.0921 11.1195C16.3629 10.8932 16.5357 10.7323 16.8582 10.5097C17.0399 10.3842 17.2235 10.2585 17.4185 10.1524C17.5224 10.0959 17.6099 10.0465 17.7176 9.99267L18.0339 9.83997C18.1419 9.78979 18.2461 9.74564 18.355 9.70222L18.8598 9.5237C18.9252 9.50198 18.9716 9.48992 19.0407 9.47014C20.3249 9.09838 21.8039 9.08729 23.0651 9.45759C23.1209 9.474 23.1837 9.49185 23.2398 9.50729C23.3021 9.52442 23.3538 9.54348 23.4171 9.56471C23.6143 9.63033 23.8037 9.70656 23.9934 9.78376C24.2331 9.88098 24.4563 10.0023 24.6815 10.1251C24.9746 10.2851 25.2522 10.4653 25.5129 10.6698C25.5361 10.6879 25.5542 10.6971 25.5781 10.7169L25.7695 10.8722C25.8106 10.9041 25.8504 10.9422 25.892 10.9741C26.0034 11.0599 26.1551 11.2114 26.2515 11.3077C26.3284 11.3844 26.4042 11.4512 26.4719 11.5359L26.741 11.8377C26.7589 11.858 26.7741 11.8787 26.7911 11.8997C26.8273 11.9451 26.8575 11.9841 26.8949 12.0302C27.1032 12.2864 27.2798 12.5694 27.4497 12.8514C27.5079 12.9482 27.5613 13.0442 27.6128 13.1469L27.9018 13.765C27.9242 13.8161 27.9431 13.8728 27.9646 13.9264C28.0542 14.1486 28.1197 14.3828 28.1888 14.6193C28.2792 14.9288 28.3425 15.2458 28.3806 15.5787C28.464 16.3077 28.4722 16.9733 28.3524 17.6978C28.2997 18.0155 28.2246 18.3175 28.1388 18.6253C28.0794 18.8384 28.0013 19.048 27.9194 19.2519L27.7459 19.6489C27.6628 19.8431 27.556 20.0311 27.4526 20.2115L27.239 20.5584C27.0508 20.8414 26.851 21.1169 26.6246 21.3707C26.3902 21.6334 26.253 21.7717 25.9971 22.0175C25.9684 22.0452 25.9502 22.0539 25.9205 22.0833C25.8263 22.1769 25.7163 22.2643 25.6096 22.3434L25.4472 22.4664C25.3793 22.5217 25.4073 22.6153 25.4943 22.6153H30.6356V22.4626H25.7188C25.7374 22.4348 25.7608 22.4211 25.7879 22.3991L26.2825 21.956C26.3293 21.9089 26.3752 21.8792 26.4168 21.8252L26.6137 21.6144C26.6379 21.5895 26.6582 21.5738 26.6792 21.5473L26.8072 21.4001C26.8287 21.3746 26.844 21.3531 26.8657 21.3258C26.8877 21.2981 26.9029 21.2817 26.9259 21.2535C26.9672 21.2023 27.003 21.1572 27.0421 21.1046L27.2695 20.792C27.413 20.5756 27.5529 20.3514 27.6807 20.123C27.6988 20.0907 27.7077 20.067 27.7266 20.0361L27.8609 19.7732C28.0006 19.4596 28.1482 19.1428 28.2427 18.8101C28.263 18.7387 28.2876 18.6664 28.3086 18.601C28.4239 18.2427 28.5495 17.5984 28.565 17.2375C28.5722 17.0708 28.5954 16.9152 28.5954 16.728L28.5751 15.9234C28.5582 15.5678 28.4616 15.06 28.3814 14.7418C28.249 14.2164 28.0723 13.716 27.8305 13.2345L27.1383 12.0922C27.0402 11.9619 26.9421 11.8261 26.8331 11.7041L26.5086 11.3456C26.448 11.2742 26.376 11.2136 26.3095 11.147C26.1467 10.9837 25.9705 10.8322 25.7917 10.6865L25.531 10.4884C25.2355 10.2853 25.0094 10.1287 24.6917 9.95142C24.4413 9.81174 24.178 9.68774 23.9103 9.58087C23.5689 9.44457 23.2352 9.33408 22.8708 9.24361C22.6239 9.18258 22.3675 9.13553 22.0994 9.09718C21.9943 9.08222 21.5891 9.0388 21.4757 9.03759L21.2711 9.02794C21.1389 9.02794 20.936 9.01419 20.8159 9.03276C20.8065 9.03421 20.7966 9.0359 20.7806 9.03711L20.5163 9.04845C20.1713 9.06485 19.582 9.15483 19.2422 9.25302C19.0521 9.30802 18.8576 9.34831 18.6742 9.41924L18.1352 9.62454C17.4299 9.91813 16.7761 10.3321 16.1943 10.8238L16.0969 10.9099C16.0628 10.9437 16.0358 10.9601 16 10.9965L15.6224 11.3629C15.5888 11.397 15.5721 11.4242 15.5359 11.4599L15.4494 11.5569C15.2976 11.7137 15.1628 11.8917 15.0314 12.0664C14.9755 12.1405 14.9333 12.2044 14.8796 12.2816L14.5919 12.7274C14.401 13.0432 14.2495 13.3781 14.1031 13.7165L13.997 13.9874C13.9813 14.0311 13.9685 14.0757 13.9511 14.1249C13.9397 14.157 13.9359 14.1621 13.9267 14.1922C13.7037 14.936 13.6268 15.3203 13.5599 16.128C13.5551 16.1864 13.5609 16.245 13.5548 16.3039C13.5524 16.3268 13.5539 16.34 13.5527 16.3593C13.5258 16.7774 13.5867 17.4252 13.6556 17.8034C13.7223 18.1684 13.8194 18.6386 13.953 18.9834C13.9716 19.0314 13.9835 19.0729 13.9994 19.1204C14.0146 19.166 14.0335 19.206 14.0504 19.2528C14.1451 19.5151 14.2693 19.7729 14.3925 20.0214C14.4157 20.0682 14.4358 20.0967 14.4573 20.1404C14.5155 20.2583 14.5907 20.3765 14.6581 20.4899C14.8414 20.7987 15.0548 21.0718 15.2732 21.3526C15.461 21.5939 15.6828 21.8054 15.898 22.0223C15.9507 22.0754 16.3718 22.4278 16.3953 22.4628Z" fill="#2A2727"/>
<path fill-rule="evenodd" clip-rule="evenodd" d="M19.4421 14.6771L17.3219 14.6776L17.3221 15.5138C18.0317 15.5162 18.7387 15.5138 19.4454 15.5138C19.5046 15.5138 19.6607 15.5287 19.6996 15.5053C19.7288 15.4877 19.8434 15.3266 20.141 15.1522C20.3607 15.0233 20.6654 14.9249 20.9652 14.9131C21.3052 14.8998 21.5857 14.9674 21.8512 15.0906C21.973 15.1473 22.0846 15.2226 22.1791 15.2928C22.3388 15.4115 22.2008 15.384 22.6179 15.384C22.765 15.384 24.6549 15.3958 24.7453 15.3799L24.7455 14.6841C24.6576 14.661 24.1495 14.6781 24.018 14.6779L24.0125 14.207L23.1605 14.2048L23.1574 14.6771L22.5732 14.6776C22.4869 14.5447 22.3262 14.1568 22.2356 13.9937C22.2168 13.9599 22.2289 13.9693 22.1994 13.9553H19.8023L19.4421 14.6771Z" fill="white"/>
<path fill-rule="evenodd" clip-rule="evenodd" d="M20.5919 17.3248C20.5781 17.3685 20.5489 17.3919 20.5165 17.4129C20.4508 17.3759 20.3604 17.2194 20.3242 17.1446C20.272 17.037 20.2389 16.8949 20.2372 16.7591C20.2324 16.348 20.4399 16.1984 20.502 16.0834C20.5457 16.0971 20.567 16.1265 20.5904 16.1584L20.4991 16.2732C20.4095 16.3955 20.352 16.5777 20.3496 16.7388C20.3464 16.9383 20.451 17.2322 20.5919 17.3248ZM20.8934 15.522C20.2623 15.6069 19.739 16.1753 19.8248 16.9C19.8992 17.5296 20.4846 18.0707 21.2157 17.975C21.836 17.8939 22.376 17.3214 22.2834 16.5948C22.2035 15.9664 21.6248 15.4236 20.8934 15.522Z" fill="white"/>
<path fill-rule="evenodd" clip-rule="evenodd" d="M31.5335 24.7648C32.0213 24.7648 31.8447 25.2583 31.6722 25.5145C31.6497 25.5478 31.6347 25.5763 31.6122 25.6074L31.4453 25.8277C31.4279 25.8494 31.4301 25.8569 31.4008 25.8648C31.4008 25.7116 31.3153 25.2 31.2713 25.0875C31.1624 24.8087 31.0039 24.7037 30.6866 24.7037C30.4324 24.7037 29.9828 24.9867 29.9828 25.1621C29.9828 25.2313 30.033 25.3076 30.0746 25.3353C30.1108 25.3109 30.3375 25.0362 30.5559 25.2113C30.6035 25.2497 30.6359 25.2878 30.6506 25.3614L30.7581 26.2214C30.7804 26.4238 30.8004 26.3517 30.66 26.5615C30.5069 26.7912 30.366 26.9719 30.1529 27.1451C30.1285 27.1649 30.1082 27.1801 30.0828 27.1972C30.033 27.231 29.9842 27.2631 29.9316 27.2908C29.9316 27.175 29.9598 27.0317 29.9939 26.9253C30.0057 26.8882 30.0256 26.8576 30.0335 26.8223C29.855 26.728 29.6648 26.6995 29.4925 26.8221C29.364 26.9135 29.3703 27.0469 29.3703 27.1789C29.3703 27.6037 29.6382 27.9873 30.1396 27.6414C30.2416 27.5712 30.4286 27.389 30.5146 27.2821C30.5525 27.2351 30.5876 27.1951 30.6238 27.1468L30.7804 26.9364C30.8002 26.9063 30.8048 26.8824 30.8396 26.8732C30.8396 27.0337 30.9415 27.3408 31.0164 27.4809C31.0589 27.5605 31.13 27.6423 31.2025 27.6925C31.5787 27.9514 32.4004 27.595 32.4004 27.0768C32.4004 26.9801 32.3361 26.9241 32.2373 26.9241C32.2008 26.9241 32.1994 26.9816 32.1784 27.018C32.1513 27.0648 32.1443 27.0732 32.1073 27.1101C31.9389 27.2783 31.7123 27.2264 31.6014 27.0194C31.5482 26.92 31.5195 26.777 31.4997 26.6424C31.4934 26.5992 31.4479 26.2487 31.4564 26.2267L31.8268 25.8829C31.8476 25.8619 31.8614 25.847 31.8831 25.827C31.8949 25.8159 31.9044 25.8089 31.9152 25.7978L32.0566 25.6436C32.0984 25.5985 32.1303 25.5563 32.1663 25.5085C32.3383 25.2798 32.4316 25.0834 32.4316 24.7447C32.4316 24.2893 31.857 24.1699 31.6444 24.4374C31.5842 24.5129 31.5335 24.6323 31.5335 24.7648Z" fill="#292626"/>
<path fill-rule="evenodd" clip-rule="evenodd" d="M28.3814 27.26C27.865 27.26 27.8667 26.1022 28.3246 25.4921C28.4521 25.322 28.6077 25.1889 28.839 25.1698C29.0917 25.1491 29.1946 25.3693 29.2086 25.62C29.2113 25.6668 29.2258 25.7136 29.2152 25.7905C29.1821 26.0311 29.205 26.0368 29.1219 26.329C29.0903 26.4407 29.0521 26.5324 29.0096 26.6344C28.9255 26.8366 28.745 27.1164 28.5483 27.2129C28.5142 27.2296 28.4248 27.26 28.3814 27.26ZM27.2286 26.6387C27.2286 26.9666 27.2458 27.2327 27.4598 27.4976C27.7858 27.9009 28.3768 27.8249 28.7771 27.5639C28.8651 27.5065 28.9429 27.4375 29.0161 27.3647L29.1736 27.1859C29.6752 26.571 29.9664 25.1997 29.1835 24.8092C28.8269 24.6311 28.3765 24.7115 28.0675 24.9411C27.7222 25.1976 27.5159 25.5428 27.3695 25.9348C27.3033 26.1121 27.2286 26.3953 27.2286 26.6387Z" fill="#292626"/>
<path fill-rule="evenodd" clip-rule="evenodd" d="M20.9123 15.3688C21.273 15.323 21.72 15.4658 21.9602 15.695C22.2202 15.9432 22.397 16.2059 22.4371 16.6054C22.5181 17.4148 21.9184 18.0522 21.2039 18.1289C20.3887 18.2167 19.7557 17.6145 19.673 16.9C19.6489 16.6923 19.6791 16.4626 19.7443 16.2834C19.9316 15.7695 20.358 15.4392 20.9123 15.3688ZM20.8669 15.0354C19.5643 15.1978 18.9704 16.581 19.5411 17.5803C19.8808 18.1749 20.5276 18.5484 21.2421 18.4635C22.2016 18.3494 22.874 17.5019 22.7725 16.5656C22.7466 16.3261 22.6708 16.0983 22.5662 15.9143C22.5149 15.824 22.4524 15.7285 22.3934 15.659C22.3052 15.5555 22.3009 15.5652 22.2342 15.4921C22.2057 15.461 22.2105 15.4636 22.1769 15.4371C21.8053 15.1459 21.3844 14.971 20.8669 15.0354Z" fill="white"/>
<path fill-rule="evenodd" clip-rule="evenodd" d="M14.6714 16.2805C14.6714 16.9096 14.6977 17.2845 14.8286 17.8855C14.9098 18.2579 15.0352 18.6121 15.1756 18.965C15.2899 19.2521 15.4337 19.4953 15.5757 19.757L16.0619 20.4634C16.1679 20.5941 16.2738 20.7283 16.3929 20.8458C16.4207 20.8733 16.425 20.8829 16.4494 20.9116C16.4685 20.9345 16.4888 20.9517 16.5101 20.9731L16.7548 21.2074C16.8734 21.3273 17.0095 21.4296 17.1412 21.5345C17.1851 21.5697 17.2332 21.6115 17.2827 21.6378C17.2946 21.5931 17.3393 21.5531 17.3644 21.5155C17.3349 21.4754 17.2219 21.3982 17.1718 21.3613C17.0585 21.2776 16.9624 21.1765 16.8527 21.0892C16.7637 21.0182 16.5879 20.8344 16.4994 20.7389C16.3876 20.6183 16.2759 20.4906 16.1764 20.3587L15.61 19.5085C15.5233 19.359 15.4416 19.199 15.3764 19.0391C15.353 18.9822 15.3264 18.9284 15.3049 18.8762C15.258 18.7617 15.2227 18.6543 15.1768 18.5356C14.9584 17.9718 14.8241 17.1721 14.8241 16.5248C14.8241 15.9589 14.8811 15.4776 14.9913 14.9908C15.0594 14.6902 15.1553 14.3937 15.2701 14.1081L15.4498 13.6967C15.461 13.6724 15.4684 13.6601 15.4815 13.6367C15.4972 13.6087 15.4999 13.5954 15.5146 13.5679C15.5281 13.5428 15.5359 13.5349 15.5487 13.5103L15.7238 13.1964C15.8676 12.9578 16.0304 12.7308 16.2013 12.512C16.2759 12.4162 16.3832 12.2852 16.469 12.1986L16.9082 11.7615C17.2487 11.4773 17.5886 11.2057 17.9796 10.9873L18.2282 10.8486C18.3166 10.7992 18.4079 10.7642 18.4966 10.7193C18.7788 10.5767 19.1802 10.4404 19.494 10.3608C20.0676 10.2151 20.7055 10.1295 21.353 10.1488L21.7507 10.1792C21.9232 10.1907 22.0955 10.217 22.2615 10.2498C22.5014 10.2974 22.7189 10.3488 22.9506 10.4175C22.9955 10.4308 23.1501 10.4851 23.1787 10.4851C23.2009 10.4851 23.2289 10.3743 23.2296 10.3425C23.1598 10.3263 23.096 10.2986 23.0197 10.2771C22.7104 10.1895 22.4149 10.1111 22.0904 10.0643C21.2619 9.94491 20.3735 9.98085 19.5696 10.1816C19.1379 10.2894 18.543 10.4904 18.1492 10.7188L17.8914 10.8587C17.7254 10.9584 17.5669 11.0491 17.4122 11.1646C17.2617 11.2773 17.1105 11.3827 16.9686 11.506C16.8026 11.6503 16.4956 11.9243 16.3675 12.0773L16.0959 12.3969C16.0645 12.4358 16.0401 12.4647 16.0101 12.5047L15.8413 12.7334C15.698 12.9245 15.5883 13.1325 15.4648 13.3354C15.3136 13.5831 15.1287 14.0297 15.0369 14.2832C14.8216 14.8779 14.6714 15.6339 14.6714 16.2805Z" fill="#2A2727"/>
<path fill-rule="evenodd" clip-rule="evenodd" d="M8.32651 29.0729C8.32651 28.6408 8.71648 28.7062 9.06078 28.7062V29.4191C8.77205 29.4191 8.32651 29.4837 8.32651 29.0729ZM9.70348 29.4193C9.29129 29.4193 9.35652 29.4553 9.35676 29.2664C9.35676 29.1699 9.34299 28.7424 9.36691 28.7163C9.37948 28.7084 9.36691 28.7122 9.38938 28.7081L9.63221 28.706C9.74238 28.706 9.79457 28.7023 9.88131 28.7323C10.2104 28.8461 10.1986 29.4193 9.70348 29.4193ZM9.06078 28.4314C8.73944 28.4314 8.43548 28.387 8.2115 28.6017C8.04261 28.7636 8.02039 28.9031 8.02039 29.124C8.02039 29.3653 8.18807 29.545 8.39078 29.6401C8.55919 29.7189 8.85396 29.6943 9.06078 29.6943V29.8982H9.35676V29.6943H9.775C10.3918 29.6943 10.624 28.94 10.1754 28.5716C9.9608 28.3955 9.71049 28.4314 9.36715 28.4314C9.34927 28.3677 9.35701 28.3193 9.35701 28.238H9.06103L9.06078 28.4314Z" fill="black"/>
<path fill-rule="evenodd" clip-rule="evenodd" d="M25.2701 11.7074C25.3116 11.7352 25.3435 11.7651 25.3798 11.8018C25.4692 11.8922 25.6074 12.0003 25.7057 12.1178C25.7929 12.222 25.9125 12.3446 26.0002 12.455C26.086 12.5634 26.2972 12.8333 26.361 12.9402L26.7526 13.6084C26.9032 13.9088 27.0133 14.1838 27.1204 14.5042C27.2392 14.8603 27.3973 15.5693 27.4021 15.9135C27.4035 16.025 27.4224 16.1813 27.4224 16.321C27.4224 16.7564 27.4139 16.9774 27.348 17.408C27.2552 18.0157 27.1317 18.3308 26.9312 18.8661L26.7831 19.1865C26.7277 19.2972 26.6794 19.3954 26.6197 19.502C26.5634 19.6026 26.5042 19.702 26.4429 19.7942C26.4117 19.841 26.3825 19.8899 26.3513 19.9367C26.3192 19.985 26.289 20.0248 26.2554 20.0752C26.1573 20.2238 25.957 20.4643 25.8381 20.606L25.1244 21.2988C25.0947 21.3253 24.8888 21.4952 24.8516 21.5051C24.8586 21.5309 24.9144 21.5941 24.9434 21.6375L25.5885 21.0899L25.8248 20.8472C25.8456 20.8207 25.8611 20.8076 25.8845 20.7845C25.912 20.7575 25.9169 20.7449 25.9406 20.7184C25.9775 20.6769 26.0162 20.6388 26.051 20.5944C26.0892 20.5456 26.1215 20.5073 26.1607 20.4593C26.4185 20.142 26.5347 19.944 26.741 19.6026C26.7567 19.5768 26.7659 19.5546 26.7802 19.5298L26.9056 19.2883C26.9599 19.1797 27.0124 19.0777 27.058 18.9619C27.2482 18.4811 27.3521 18.2078 27.4555 17.6886C27.6251 16.837 27.6152 15.9666 27.4437 15.1184C27.34 14.6055 27.2163 14.2887 27.0261 13.8244C27.0034 13.7689 26.9831 13.7353 26.9592 13.6774C26.9152 13.571 26.792 13.3546 26.7357 13.2487L26.2641 12.5383C26.2431 12.5108 26.2351 12.5033 26.2143 12.4758C26.0505 12.2584 25.6755 11.8517 25.4969 11.6949C25.4716 11.6725 25.4609 11.6698 25.4356 11.644C25.4112 11.6194 25.4066 11.6047 25.372 11.5955L25.2701 11.7074Z" fill="#2A2727"/>
<path fill-rule="evenodd" clip-rule="evenodd" d="M25.1681 28.513H25.9128C25.8848 28.5853 25.9026 29.4584 25.9026 29.6128H24.964L25.1681 28.513ZM24.6375 29.6128H24.4235V30H24.7091V29.8982H26.0964C26.137 29.8982 26.1271 29.9269 26.1271 30H26.4127V29.6128H26.2189L26.2192 28.2693C26.2095 28.224 26.1846 28.2367 26.1172 28.2377L25.0357 28.238C25.0145 28.238 24.9828 28.2358 24.9632 28.2367C24.919 28.2389 24.9197 28.2107 24.8929 28.3704L24.6375 29.6128Z" fill="#E32B38"/>
<path fill-rule="evenodd" clip-rule="evenodd" d="M19.8738 29.6128H19.1089V29.083H19.8842C20.2077 29.083 20.1915 29.6128 19.8738 29.6128ZM18.8027 29.898H19.8434C20.1584 29.898 20.4249 29.6719 20.4249 29.3581C20.4249 29.2591 20.4196 29.1865 20.3757 29.1016C20.3008 28.9571 20.1785 28.8601 20.014 28.821C19.9064 28.7955 19.263 28.808 19.1091 28.808V28.5229C19.336 28.5229 20.0077 28.5332 20.1857 28.5197C20.2104 28.518 20.221 28.5233 20.221 28.4922V28.2375H18.803L18.8027 29.898Z" fill="#E32B38"/>
<path fill-rule="evenodd" clip-rule="evenodd" d="M19.9994 19.6977L20.0473 19.6998L22.2549 19.6996L22.2571 19.5295L22.2569 19.0852L19.9992 19.0806L19.9994 19.6977Z" fill="white"/>
<path fill-rule="evenodd" clip-rule="evenodd" d="M31.5538 28.513H31.7374C31.7454 28.5291 31.7507 28.547 31.7579 28.5639C31.7652 28.581 31.7596 28.5672 31.7676 28.5856L32.0844 29.3583H31.2071C31.2109 29.3137 31.4668 28.7318 31.5103 28.622C31.5245 28.5861 31.5463 28.5451 31.5538 28.513ZM30.646 29.8982H30.9724L31.0606 29.6907C31.0749 29.6584 31.0715 29.6333 31.1051 29.6333H32.1863C32.2134 29.6333 32.2216 29.6557 32.2322 29.6808L32.319 29.8982H32.6454C32.6304 29.8343 32.3294 29.1441 32.2958 29.0659C32.2646 28.9935 32.2344 28.9291 32.2069 28.8594L31.9416 28.2382H31.36C31.3457 28.2997 31.1283 28.7725 31.0933 28.8582L30.7318 29.6787C30.7084 29.7351 30.6509 29.8422 30.646 29.8982Z" fill="#E32B38"/>
<path fill-rule="evenodd" clip-rule="evenodd" d="M10.9379 29.0729C10.9379 28.7185 11.2109 28.472 11.5091 28.472C11.7125 28.472 11.8645 28.5016 12.0015 28.6321C12.2492 28.8681 12.2719 29.4449 11.8094 29.6275C11.4318 29.7768 10.9379 29.5708 10.9379 29.0729ZM10.632 29.0324C10.632 29.2022 10.6436 29.3096 10.7168 29.4567C11.0065 30.0391 11.8517 30.0625 12.2158 29.697C12.2936 29.6188 12.3538 29.5532 12.4038 29.4468C12.4671 29.312 12.4681 29.2266 12.4845 29.0888C12.4886 29.0553 12.4751 28.9356 12.4676 28.9006C12.4533 28.8343 12.4383 28.7882 12.4156 28.7284C12.3671 28.5993 12.283 28.5062 12.1851 28.4189C11.8242 28.0963 11.0126 28.1033 10.7171 28.6898C10.6721 28.7791 10.632 28.9031 10.632 29.0324Z" fill="black"/>
<path fill-rule="evenodd" clip-rule="evenodd" d="M15.4264 29.6741C14.9026 29.6741 14.7083 29.1766 14.8622 28.8152C14.8876 28.7559 14.9374 28.677 14.9796 28.6372C15.1606 28.4676 15.4807 28.4196 15.7086 28.5262C15.8043 28.5709 15.8934 28.6321 15.95 28.7231C16.0843 28.94 16.0821 29.215 15.9446 29.4275C15.8405 29.5884 15.6243 29.6741 15.4264 29.6741ZM14.5082 29.0017C14.5082 29.1983 14.5073 29.2997 14.5998 29.4808C14.8103 29.8931 15.3834 30.0386 15.8142 29.8678C15.9212 29.8253 16.0036 29.7713 16.0865 29.7018C16.3525 29.4787 16.4291 29.0297 16.28 28.7101C16.1396 28.409 15.8178 28.2078 15.4979 28.2078C15.1857 28.2078 15.0096 28.2474 14.7808 28.4389C14.7532 28.4618 14.7511 28.456 14.7267 28.4869C14.6126 28.6317 14.5082 28.7769 14.5082 29.0017Z" fill="black"/>
<path fill-rule="evenodd" clip-rule="evenodd" d="M26.4052 9.0084L28.2487 10.4561C28.3125 10.3997 28.4906 10.1644 28.5229 10.0443L27.952 9.52876C27.8162 9.3997 27.3231 8.95894 27.1573 8.82481L26.8345 8.5387C26.7804 8.55679 26.7502 8.6089 26.7142 8.6475C26.6079 8.76112 26.4958 8.87427 26.4052 9.0084Z" fill="white"/>
<path fill-rule="evenodd" clip-rule="evenodd" d="M27.7082 28.2683V29.8673C27.7082 29.9286 28.0119 29.8926 28.0245 29.8876V29.1542H28.6061C28.6413 29.2208 28.6807 29.276 28.7179 29.338C28.8093 29.4905 28.9992 29.773 29.0651 29.8977H29.422C29.4138 29.8627 29.2898 29.6714 29.2543 29.6169L28.9318 29.1137C28.9086 29.0748 28.883 29.043 28.8607 29.001C28.8822 28.9692 28.9018 28.9448 28.924 28.9115L29.1231 28.6213C29.1473 28.5892 29.1625 28.5619 29.1857 28.5308C29.2176 28.4879 29.372 28.2715 29.3812 28.237C28.9707 28.237 29.0671 28.1977 28.9542 28.3506L28.7182 28.6956C28.6841 28.7424 28.6015 28.8787 28.5754 28.8787H28.0245V28.2676C28.0245 28.2442 28.0175 28.237 27.9941 28.237H27.7389C27.7155 28.237 27.7082 28.2449 27.7082 28.2683Z" fill="#E32B38"/>
<path fill-rule="evenodd" clip-rule="evenodd" d="M20.8934 15.5222C21.6248 15.4238 22.2035 15.9668 22.2835 16.595C22.376 17.3217 21.836 17.8941 21.2158 17.9752C20.4846 18.071 19.8992 17.5299 19.8248 16.9002C19.7392 16.1755 20.2623 15.6071 20.8934 15.5222ZM20.9123 15.369C20.3583 15.4395 19.9313 15.7697 19.7441 16.2836C19.6788 16.4628 19.6489 16.6925 19.6728 16.9002C19.7557 17.6148 20.3887 18.2169 21.2037 18.1291C21.9179 18.0522 22.5178 17.415 22.4369 16.6057C22.3968 16.2064 22.2202 15.9437 21.9599 15.6952C21.7198 15.4663 21.273 15.3232 20.9123 15.369Z" fill="#292626"/>
<path fill-rule="evenodd" clip-rule="evenodd" d="M22.6894 29.3479C22.6502 29.4295 22.6435 29.6331 22.4345 29.6331H22.0061C22.0061 29.7826 21.9826 29.8979 22.0365 29.8979C22.3907 29.8979 22.7715 29.9667 22.9153 29.5631L23.1958 28.7229C23.2349 28.6058 23.3287 28.3402 23.3526 28.2377H23.0467C23.0315 28.2693 23.0257 28.2992 23.0139 28.3373L22.8401 28.8565C22.8172 28.9245 22.787 29.0066 22.7715 29.0729C22.6251 29.0729 22.4789 29.0724 22.3325 29.0731C22.059 29.0743 22.1051 28.9209 21.9582 28.5504L21.8701 28.3024C21.8396 28.2109 21.857 28.2375 21.5371 28.2375C21.5383 28.291 21.8 29.0278 21.8258 29.0796C21.9979 29.4237 22.3035 29.3479 22.6894 29.3479Z" fill="#E32B38"/>
<path fill-rule="evenodd" clip-rule="evenodd" d="M12.6311 28.4925C12.6311 28.5159 12.6381 28.5231 12.6618 28.5231H13.3352V29.8982H13.6411V28.5231H14.3449V28.238H12.6311V28.4925Z" fill="black"/>
<path fill-rule="evenodd" clip-rule="evenodd" d="M24.1582 8.50926C24.1831 8.54641 24.5165 8.78886 24.5779 8.83373C24.6317 8.87306 24.6387 8.86678 24.6465 8.94857L24.668 9.48726L24.9466 9.12347C25.1147 8.91648 25.0258 9.03131 25.2875 8.99537C25.3435 8.98765 25.3955 8.9903 25.4641 8.98837C25.5245 8.98644 25.5719 8.97776 25.6473 8.97776C25.6279 8.94881 25.3764 8.76715 25.337 8.73772C25.2114 8.64339 25.157 8.63447 25.157 8.54062L25.1374 8.00024C25.1 8.02533 24.8543 8.36258 24.8081 8.42507C24.7219 8.54207 24.7214 8.46294 24.5196 8.49334L24.1582 8.50926Z" fill="#362E30"/>
<path fill-rule="evenodd" clip-rule="evenodd" d="M22.3929 18.9505C22.3492 18.9667 22.3833 18.9375 22.3528 18.9793C28.8924 18.9802 22.512 18.9505 22.3929 18.9505Z" fill="#332E2E"/>
<path fill-rule="evenodd" clip-rule="evenodd" d="M20.1391 24.0111C20.1391 24.1339 20.1645 24.2113 20.2469 24.2905C20.4267 24.463 20.7608 24.408 20.9203 24.1395C21.1148 23.8118 20.7937 23.4244 20.4143 23.5935C20.3518 23.6215 20.3547 23.6213 20.3085 23.6611C20.2063 23.7489 20.1391 23.8669 20.1391 24.0111Z" fill="#E32B38"/>
<path fill-rule="evenodd" clip-rule="evenodd" d="M23.3217 10.7294C23.3398 10.7562 23.5677 10.9273 23.6177 10.9535L23.6278 11.2387C23.63 11.278 23.638 11.2886 23.638 11.3304L23.8624 11.0351C23.9987 11.0351 24.0736 11.025 24.2297 11.025C24.2205 10.9907 24.2021 10.9856 24.1758 10.9666L23.983 10.8233C23.9489 10.7984 23.9482 10.8054 23.9388 10.7552C23.932 10.7193 23.9335 10.6865 23.9339 10.6479C23.9349 10.5622 23.9238 10.5138 23.9238 10.4238C23.8513 10.4501 23.7498 10.7101 23.659 10.7195L23.3217 10.7294Z" fill="#362E30"/>
<path fill-rule="evenodd" clip-rule="evenodd" d="M23.3217 12.6239C23.2412 12.6239 23.2014 12.6348 23.1282 12.6343C23.047 12.6338 22.9999 12.6345 22.9544 12.6442C22.981 12.6838 23.1543 12.8024 23.206 12.8413C23.2427 12.869 23.2354 12.863 23.2439 12.9153C23.2475 12.9387 23.2507 12.9824 23.2504 13.0208C23.2502 13.0562 23.2482 13.0982 23.2504 13.1329C23.2528 13.179 23.2606 13.1812 23.2606 13.2348C23.349 13.1756 23.4234 12.9518 23.5263 12.94L23.8523 12.9293C23.8388 12.8922 23.6336 12.7532 23.6027 12.7306C23.5437 12.6874 23.5558 12.6464 23.5565 12.5525C23.557 12.464 23.5464 12.4174 23.5464 12.3284C23.5176 12.3494 23.343 12.5836 23.3217 12.6239Z" fill="#292626"/>
<path fill-rule="evenodd" clip-rule="evenodd" d="M24.4336 10.8416L24.5501 10.9393C24.7173 11.0701 24.7204 11.018 24.7194 11.1982C24.7187 11.2845 24.7296 11.3275 24.7296 11.4122C24.7511 11.3965 24.8158 11.3058 24.8373 11.2754L24.9439 11.127C25.0761 11.127 25.1773 11.1169 25.3008 11.1169C25.2831 11.093 25.1964 11.0336 25.1638 11.0093C25.1154 10.9731 25.0649 10.9294 25.0152 10.9029C25.0152 10.7753 25.005 10.6793 25.005 10.5466C24.9671 10.5719 24.8455 10.7454 24.8112 10.7917C24.7731 10.8435 24.7462 10.8324 24.6477 10.8317C24.5674 10.831 24.5203 10.8416 24.4336 10.8416Z" fill="#362E30"/>
<path fill-rule="evenodd" clip-rule="evenodd" d="M20.5919 17.3248C20.451 17.2324 20.3464 16.9381 20.3496 16.7386C20.352 16.5774 20.4095 16.395 20.4991 16.273L20.5904 16.1581C20.5668 16.1263 20.5457 16.0971 20.502 16.0831C20.4402 16.1982 20.2324 16.348 20.2372 16.7588C20.2389 16.8947 20.272 17.0365 20.3242 17.1443C20.3604 17.2191 20.4508 17.3757 20.5165 17.4126C20.5489 17.3916 20.5781 17.3685 20.5919 17.3248Z" fill="#292626"/>
</g>
</g>
<defs>
<clipPath id="clip0_1010_24">
<rect width="42.8" height="62" fill="white"/>
</clipPath>
<clipPath id="clip1_1010_24">
<rect width="26" height="22" fill="white" transform="translate(8 8)"/>
</clipPath>
</defs>
</svg>
