<svg viewBox="0 0 245 94" fill="none" xmlns="http://www.w3.org/2000/svg">
<path d="M122.23 93.16C122.23 93.16 142.67 92.32 174.22 85.84C204.83 79.36 217.17 75.56 229.08 69.08C238.75 63.38 241.32 55.09 242.72 45.62C244.11 37.67 244.56 26.29 244.43 21.78C244.27 15.97 243.48 6.71 231.11 4.76C218.64 2.72 195.86 2.06 193.05 1.86C190.24 1.66 161.91 0.67 152.22 0.38C142.53 0.09 122.22 0 122.22 0C122.22 0 102.12 0.09 92.22 0.38C82.53 0.67 54.2 1.66 51.39 1.86C48.58 2.06 25.8 2.72 13.33 4.76C0.970029 6.72 0.190029 15.98 0.0200287 21.79C-0.109971 26.29 0.340029 37.68 1.73003 45.63C3.13003 55.1 5.70003 63.39 15.37 69.09C27.28 75.56 39.62 79.36 70.23 85.85C101.79 92.33 122.22 93.17 122.22 93.17L122.23 93.16Z" fill="url(#paint0_radial_2025_299)"/>
<path d="M122.23 91.9C122.23 91.9 144.37 90.24 172.46 84.6C199.57 78.74 215.44 75.19 227.18 68.81C236.72 63.2 239.68 55.64 241.06 46.31C242.43 38.48 242.69 27.26 242.75 22.82C242.83 16.54 241.81 7.96998 229.61 6.04998C217.32 4.02998 194.84 3.38998 192.08 3.18998C189.31 2.98998 161.37 2.00998 151.81 1.72998C142.25 1.44998 122.22 1.34998 122.22 1.34998C122.22 1.34998 102.39 1.43998 92.63 1.72998C82.87 2.01998 55.13 2.98998 52.36 3.18998C49.59 3.38998 27.12 4.03998 14.83 6.04998C2.64002 7.95998 1.62002 16.53 1.70002 22.81C1.76002 27.25 2.02002 38.47 3.39002 46.3C4.77002 55.63 7.74002 63.19 17.27 68.8C29.01 75.18 44.89 78.73 71.99 84.59C100.08 90.23 122.22 91.89 122.22 91.89L122.23 91.9Z" fill="url(#paint1_linear_2025_299)"/>
<path d="M122.23 91.12C122.23 91.12 141.93 89.86 172.85 83.7C202.85 77.55 215.65 73.51 226.96 67.89C234.8 63.18 238.71 54.56 240.09 45.56C240.84 38.61 241.97 24.59 241.78 20.32C241.59 16.05 241.09 8.63 228.97 6.78C219.03 5.76 194.72 4.16 191.97 3.97C189.22 3.78 161.59 2.69 152.09 2.63C142.59 2.57 122.24 2.63 122.24 2.63C122.24 2.63 101.89 2.57 92.39 2.63C82.89 2.69 55.26 3.78 52.51 3.97C49.76 4.16 25.45 5.76 15.51 6.78C3.37001 8.63 2.87001 16.05 2.68001 20.33C2.49001 24.61 3.62001 38.62 4.37001 45.57C5.75001 54.56 9.66001 63.18 17.5 67.9C28.81 73.51 41.61 77.55 71.61 83.71C102.54 89.86 122.23 91.13 122.23 91.13V91.12Z" fill="url(#paint2_radial_2025_299)"/>
<path d="M122.23 89.63C122.23 89.63 141.12 88.42 170.94 82.51C199.86 76.6 211.79 72.83 222.7 67.43C230.11 63.39 234.29 55.02 235.62 46.38C236.34 39.7 237.12 27.22 236.94 23.12C236.76 19.02 236.74 10.41 225.05 8.64002C215.47 7.66002 192.03 6.13002 189.37 5.94002C186.71 5.75002 160.08 4.71002 150.92 4.65002C141.76 4.59002 122.24 4.65002 122.24 4.65002C122.24 4.65002 102.72 4.59002 93.56 4.65002C84.4 4.71002 57.76 5.75002 55.11 5.94002C52.46 6.13002 29.02 7.66002 19.43 8.64002C7.74004 10.42 7.72004 19.02 7.54004 23.12C7.36004 27.22 8.13004 39.7 8.86004 46.38C10.19 55.02 14.37 63.39 21.78 67.43C32.69 72.82 44.61 76.59 73.54 82.51C103.36 88.42 122.25 89.63 122.25 89.63H122.23Z" fill="url(#paint3_linear_2025_299)"/>
<path d="M122.23 88.18C122.23 88.18 140.97 87 170.56 81.27C199.26 75.54 211.1 71.88 221.92 66.65C229.28 62.73 233.42 54.61 234.74 46.23C235.46 39.75 236.22 27.65 236.04 23.67C235.86 19.69 235.84 11.34 224.24 9.62C214.73 8.67 191.47 7.18 188.84 7.01C186.21 6.84 159.78 5.82 150.69 5.76C141.6 5.7 122.23 5.76 122.23 5.76C122.23 5.76 102.86 5.7 93.7701 5.76C84.6801 5.82 58.2501 6.83 55.6201 7.01C52.9901 7.19 29.7301 8.67 20.2201 9.62C8.62006 11.34 8.60006 19.69 8.42006 23.67C8.24006 27.65 9.01006 39.75 9.72006 46.23C11.0401 54.61 15.1801 62.73 22.5401 66.65C33.3601 71.88 45.2001 75.54 73.9001 81.27C103.49 87 122.23 88.18 122.23 88.18Z" fill="url(#paint4_linear_2025_299)"/>
<path d="M122.23 87.54C122.23 87.54 140.88 86.38 170.33 80.74C198.89 75.1 210.67 71.5 221.44 66.36C228.76 62.5 232.76 54.38 234.07 46.13C234.78 39.76 235.68 27.99 235.5 24.08C235.32 20.17 235.3 11.96 223.76 10.26C214.3 9.32002 191.15 7.86002 188.53 7.69002C185.91 7.52002 159.61 6.52002 150.56 6.46002C141.51 6.40002 122.24 6.46002 122.24 6.46002C122.24 6.46002 102.96 6.40002 93.9201 6.46002C84.8801 6.52002 58.5701 7.51002 55.9501 7.69002C53.3301 7.87002 30.1801 9.33002 20.7201 10.26C9.17007 11.96 9.15007 20.16 8.98007 24.08C8.81007 28 9.69007 39.76 10.4101 46.13C11.7201 54.37 15.7201 62.5 23.0401 66.36C33.8101 71.5 45.5901 75.1 74.1501 80.74C103.6 86.38 122.25 87.54 122.25 87.54H122.23Z" fill="url(#paint5_linear_2025_299)"/>
<path d="M121.32 23.66H70.6L68.65 31.17H111.79C113.46 31.21 114.78 31.31 115.57 32.24C116.32 33.12 116.26 34.38 116.08 35.49C115.53 38.79 110.5 39.24 110.28 39.24L81.74 39.19L75.88 61.09H112.73C114.65 61.09 117.07 60.25 118.66 59.05C120.5 57.63 121.27 54.26 121.55 52.98C121.59 52.82 121.62 52.69 121.64 52.59C121.88 51.63 122.62 47.27 122.79 45.56C122.84 45.02 122.91 43.36 120.21 42.93L117.67 42.39L120.19 41.4C122.55 40.81 123.02 38.52 123.04 38.42C123.06 38.34 123.94 34.43 125.45 28.29C125.8 26.87 125.68 25.77 125.09 25.02C124.05 23.69 121.77 23.63 121.33 23.63V23.66H121.32ZM114.55 49.56C113.77 52.43 112.07 53.66 108.88 53.7H107.65C102.51 53.7 86.91 53.55 86.75 53.55H85.45L85.81 52.28L87.52 46.33L87.73 45.62H88.47L110.52 45.5H110.76C111.62 45.5 113.21 45.67 114.1 46.81C114.49 47.31 114.89 48.19 114.56 49.56H114.55Z" fill="url(#paint6_linear_2025_299)"/>
<path d="M136.32 35.18C137.31 31.37 141.71 31.18 141.89 31.17C142.17 31.17 155.18 31.2 164.92 31.2C169.7 31.2 172.87 31.2 174.38 31.18C175.91 26.85 175.77 26.52 175.09 25.16C174.25 23.75 172.2 23.59 171.36 23.59C171.16 23.59 171.04 23.59 171.02 23.6H170.94C170.82 23.6 158.47 23.54 149.24 23.54C143.83 23.54 140.54 23.56 139.45 23.6H139.3C135.76 23.72 135.46 23.74 133.4 24.9C130.73 26.68 130.03 29.93 128.96 34.85L128.83 35.44C128.03 39.1 127.22 40.95 126.7 41.85C128.02 43.79 128.04 45.93 128.04 46.03V46.14L128.01 46.25L126.31 53.66C125.43 57.5 124.98 58.6 124.25 59.84C125.04 60.88 126.26 61 126.8 61H127.11C127.24 61 140.12 61.08 150.14 61.08C156.02 61.08 159.77 61.05 161.29 61C165.52 60.85 167.63 56.9 167.92 56.32L172.05 39.44H156.25L154.63 45.68H163.35L162.97 46.96L162.22 49.47C160.89 53.62 157.01 53.81 156.85 53.82C156.82 53.82 149.64 53.85 143.7 53.85C140.25 53.85 137.91 53.85 136.76 53.82C135.34 53.8 134.25 53.33 133.54 52.42C132.33 50.89 132.74 48.77 132.8 48.53C132.84 48.39 135.52 38.28 136.33 35.18H136.32Z" fill="url(#paint7_linear_2025_299)"/>
<path d="M126.61 27.21C126.62 27 126.63 26.8 126.62 26.61C126.62 26.5 126.6 26.39 126.58 26.29C126.56 26.13 126.54 25.97 126.5 25.82C126.48 25.72 126.44 25.62 126.41 25.53C126.37 25.4 126.32 25.27 126.27 25.15C126.23 25.06 126.18 24.98 126.14 24.89C126.08 24.78 126.01 24.67 125.94 24.57C125.89 24.5 125.83 24.42 125.77 24.35C125.69 24.26 125.61 24.17 125.52 24.09C125.46 24.03 125.39 23.97 125.33 23.91C125.24 23.83 125.14 23.76 125.04 23.69C124.97 23.64 124.9 23.59 124.83 23.55C124.72 23.48 124.61 23.43 124.5 23.37C124.43 23.34 124.37 23.3 124.3 23.27C124.17 23.21 124.04 23.16 123.92 23.12C123.87 23.1 123.81 23.08 123.76 23.06C123.58 23 123.4 22.95 123.22 22.9C123.19 22.9 123.17 22.9 123.14 22.88C122.99 22.84 122.84 22.81 122.7 22.79C122.64 22.78 122.58 22.77 122.53 22.76C122.43 22.74 122.32 22.73 122.23 22.72C122.17 22.72 122.11 22.71 122.06 22.7C121.98 22.7 121.9 22.68 121.82 22.68H69.84L67.37 32.17H111.79C114.51 32.23 115.53 32.48 115.1 35.35C114.67 38.22 110.28 38.25 110.28 38.25L80.98 38.2L74.59 62.09H112.74C112.89 62.09 113.05 62.09 113.21 62.07C113.34 62.07 113.46 62.07 113.59 62.05C113.75 62.03 113.9 62.01 114.06 61.98C114.19 61.96 114.32 61.95 114.45 61.92C114.61 61.89 114.77 61.85 114.93 61.81C115.06 61.78 115.19 61.76 115.32 61.72C115.48 61.68 115.64 61.62 115.8 61.57C115.93 61.53 116.06 61.5 116.19 61.45C116.35 61.39 116.51 61.33 116.67 61.26C116.79 61.21 116.91 61.17 117.03 61.12C117.19 61.05 117.34 60.97 117.5 60.9C117.61 60.85 117.73 60.8 117.84 60.74C118 60.66 118.15 60.56 118.31 60.47C118.41 60.41 118.51 60.36 118.6 60.31C118.84 60.16 119.07 60 119.29 59.84C121.65 58.02 122.39 53.83 122.64 52.83C122.89 51.83 123.64 47.41 123.82 45.66C124.04 43.43 122.3 42.56 120.55 42.28C123.59 41.52 124.05 38.6 124.05 38.6C124.05 38.6 124.93 34.73 126.45 28.53C126.54 28.16 126.6 27.81 126.63 27.49C126.64 27.38 126.63 27.28 126.64 27.18L126.61 27.21ZM125.45 28.33C123.95 34.47 122.96 38.16 122.94 38.23C122.92 38.33 122.82 39.9 120.19 41.43L117.67 42.42L119.26 42.78C121.96 43.21 122.95 44.57 122.73 46.08C122.49 47.78 121.64 51.63 121.41 52.59C121.39 52.69 121.36 52.82 121.32 52.98C121.03 54.25 120.2 57.53 118.36 58.95C116.78 60.15 114.65 61.11 112.73 61.11H75.88L81.74 39.21L110.28 39.26C110.49 39.26 115.65 39.01 116.2 35.35C116.37 34.24 116.68 33.1 115.93 32.21C115.14 31.28 113.46 31.23 111.79 31.19H68.65L70.6 23.68H121.32C121.77 23.68 124.04 23.75 125.08 25.07C125.67 25.82 125.79 26.92 125.44 28.34H125.45V28.33Z" fill="url(#paint8_linear_2025_299)"/>
<path d="M110.77 45.51H110.53L88.4801 45.62H87.7401L87.5301 46.34L85.8201 52.29L85.4601 53.54H86.7601C86.9201 53.55 102.52 53.71 107.66 53.71H108.89C112.08 53.67 113.78 52.44 114.56 49.57C114.89 48.2 114.49 47.32 114.1 46.82C113.21 45.68 111.62 45.51 110.76 45.51H110.77ZM113.69 48.83C113.69 48.99 113.65 49.16 113.61 49.34C113.05 51.38 112.01 52.68 108.89 52.72H102.77C102.05 52.72 101.31 52.72 100.54 52.71H100.5C99.7201 52.71 98.9201 52.7 98.1201 52.69H97.8201C96.7101 52.69 95.6101 52.67 94.5501 52.66H93.4701C92.9901 52.66 92.5301 52.66 92.0801 52.65H89.8001C89.2301 52.65 88.7401 52.65 88.3101 52.64H87.8201C87.1701 52.64 86.7801 52.63 86.7801 52.63L88.4901 46.68L110.56 46.57H110.93C110.99 46.57 111.06 46.57 111.14 46.58C111.22 46.58 111.31 46.58 111.4 46.6C111.43 46.6 111.45 46.6 111.48 46.61C111.55 46.61 111.61 46.63 111.68 46.64C111.72 46.64 111.75 46.65 111.79 46.66C111.85 46.66 111.92 46.69 111.98 46.7C112.02 46.7 112.06 46.72 112.1 46.73C112.16 46.75 112.23 46.77 112.29 46.79C112.33 46.8 112.37 46.82 112.4 46.83C112.47 46.86 112.53 46.89 112.6 46.92C112.63 46.94 112.67 46.95 112.7 46.97C112.79 47.02 112.88 47.07 112.96 47.13H112.98C113.07 47.19 113.15 47.26 113.22 47.34C113.24 47.36 113.26 47.39 113.28 47.42C113.33 47.48 113.38 47.54 113.42 47.6C113.44 47.63 113.46 47.67 113.48 47.71C113.51 47.77 113.55 47.84 113.57 47.91C113.59 47.95 113.6 48 113.62 48.04C113.64 48.11 113.66 48.19 113.67 48.27C113.67 48.32 113.69 48.37 113.69 48.42V48.86V48.83Z" fill="url(#paint9_radial_2025_299)"/>
<path d="M137.28 35.43C138.1 32.29 141.93 32.16 141.93 32.16H175.06C176.94 26.89 176.82 26.45 175.94 24.69C175.82 24.48 175.67 24.29 175.52 24.12C175.49 24.08 175.45 24.05 175.42 24.01C175.26 23.85 175.1 23.71 174.92 23.58L174.83 23.52C174.67 23.41 174.5 23.31 174.33 23.23C174.29 23.21 174.26 23.19 174.22 23.18C174.03 23.09 173.84 23.02 173.64 22.95C173.6 22.94 173.55 22.92 173.51 22.91C173.33 22.85 173.15 22.81 172.97 22.77C172.95 22.77 172.93 22.77 172.92 22.76C172.73 22.72 172.55 22.69 172.37 22.67C172.33 22.67 172.29 22.66 172.25 22.66C172.08 22.64 171.92 22.63 171.78 22.62H171.74C171.6 22.62 171.48 22.62 171.37 22.61H139.4C138.24 22.65 137.4 22.68 136.71 22.74C135.2 22.87 134.47 23.15 132.87 24.06C129.73 26.13 129.04 29.77 127.85 35.24C126.66 40.71 125.36 41.9 125.36 41.9C126.93 43.72 127.07 45.16 127.01 45.69C126.95 46.22 126.77 47.22 126.32 49.17C126.19 49.76 126.04 50.41 125.87 51.13C125.71 51.85 125.53 52.62 125.34 53.45C124.96 55.1 124.67 56.23 124.4 57.06C124.31 57.34 124.23 57.58 124.14 57.81C123.8 58.7 123.41 59 123 59.66C123.11 59.88 123.32 60.27 123.45 60.45C123.48 60.49 123.51 60.53 123.54 60.56C123.67 60.72 123.81 60.87 123.96 61C123.98 61.02 124.01 61.04 124.03 61.06C124.16 61.17 124.3 61.27 124.44 61.36C124.47 61.38 124.49 61.4 124.52 61.41C124.67 61.5 124.83 61.58 124.98 61.64C125.01 61.65 125.05 61.67 125.08 61.68C125.23 61.74 125.38 61.79 125.52 61.83H125.54C125.69 61.87 125.84 61.9 125.97 61.92C126 61.92 126.03 61.93 126.06 61.94C126.19 61.96 126.31 61.97 126.42 61.98H135.36C136.1 61.98 136.88 61.98 137.67 61.99H159.31C159.56 61.99 159.8 61.99 160.02 61.98C160.24 61.98 160.43 61.98 160.62 61.97H160.77C160.95 61.97 161.12 61.97 161.26 61.96C166.47 61.77 168.05 57.96 168.8 56.62C169.55 55.28 173.4 38.34 173.4 38.34L155.42 38.41L154.35 42.52L153.28 46.63H161.95L161.82 47.08C161.78 47.23 161.72 47.43 161.64 47.69C161.59 47.87 161.53 48.07 161.45 48.31C161.38 48.55 161.3 48.83 161.2 49.14C160.99 49.8 160.7 50.34 160.37 50.78C159.93 51.37 159.42 51.79 158.92 52.08C158.8 52.15 158.67 52.22 158.55 52.28C158.31 52.4 158.07 52.49 157.86 52.56C157.75 52.59 157.65 52.62 157.55 52.65C157.36 52.7 157.19 52.73 157.06 52.75C156.86 52.78 156.75 52.78 156.75 52.78H136.71C132.82 52.72 133.78 48.59 133.78 48.59C133.78 48.59 136.39 38.52 137.21 35.38L137.28 35.43ZM133.54 52.42C134.26 53.32 135.34 53.79 136.76 53.82C137.91 53.84 140.25 53.85 143.7 53.85C149.64 53.85 156.81 53.82 156.85 53.82C157.01 53.82 160.89 53.62 162.22 49.47L162.97 46.96L163.35 45.68H154.63L156.25 39.44H172.05L167.92 56.32C167.63 56.91 165.51 60.85 161.29 61C159.76 61.06 156.01 61.08 150.14 61.08C140.12 61.08 127.24 61 127.11 61H126.8C126.27 61 125.04 60.88 124.25 59.84C125.42 58.43 125.95 56.22 126.42 53.67L128.03 46.14C128.03 46.14 128.17 45.5 128.21 45.03C128.25 44.56 128.01 43.79 126.69 41.85C127.21 40.95 128.02 39.09 128.82 35.44L128.95 34.85C130.02 29.93 130.73 26.68 133.39 24.9C135.44 23.74 135.75 23.73 139.29 23.61H139.44C140.52 23.57 143.81 23.55 149.23 23.55C158.46 23.55 170.81 23.61 170.93 23.61H171.01C171.01 23.61 171.15 23.61 171.35 23.61C172.19 23.61 174.24 23.76 175.08 25.18C175.76 26.54 175.9 26.86 174.37 31.2C172.86 31.21 169.69 31.22 164.91 31.22C155.18 31.22 142.16 31.19 141.88 31.19C141.69 31.19 137.3 31.38 136.31 35.2C135.5 38.3 132.82 48.41 132.78 48.55C132.73 48.79 132.31 50.91 133.52 52.44H133.54V52.42Z" fill="url(#paint10_linear_2025_299)"/>
<defs>
<radialGradient id="paint0_radial_2025_299" cx="0" cy="0" r="1" gradientUnits="userSpaceOnUse" gradientTransform="translate(121.268 13.3756) rotate(90.71) scale(94.98 158.617)">
<stop stop-color="#808080"/>
<stop offset="0.53" stop-color="#404040"/>
<stop offset="0.74" stop-color="#4C4C4C"/>
<stop offset="0.98" stop-color="#575757"/>
</radialGradient>
<linearGradient id="paint1_linear_2025_299" x1="122.23" y1="91.9" x2="122.23" y2="1.34998" gradientUnits="userSpaceOnUse">
<stop/>
<stop offset="0.07" stop-color="#0C0C0C"/>
<stop offset="0.19" stop-color="#1A1A1A"/>
<stop offset="0.33" stop-color="#232323"/>
<stop offset="0.55" stop-color="#262626"/>
<stop offset="0.98" stop-color="#292929"/>
</linearGradient>
<radialGradient id="paint2_radial_2025_299" cx="0" cy="0" r="1" gradientUnits="userSpaceOnUse" gradientTransform="translate(122.567 -5.6059) rotate(89.84) scale(112.79 150.011)">
<stop offset="0.63" stop-color="#949494"/>
<stop offset="0.65" stop-color="#9F9F9F"/>
<stop offset="0.7" stop-color="#BEBEBE"/>
<stop offset="0.76" stop-color="#F0F0F0"/>
<stop offset="0.77" stop-color="white"/>
<stop offset="0.79" stop-color="#DADADA"/>
<stop offset="0.81" stop-color="#A7A7A7"/>
<stop offset="0.83" stop-color="#888888"/>
<stop offset="0.84" stop-color="#7D7D7D"/>
<stop offset="0.92" stop-color="#919191"/>
<stop offset="1" stop-color="white"/>
</radialGradient>
<linearGradient id="paint3_linear_2025_299" x1="122.24" y1="89.63" x2="122.24" y2="4.62002" gradientUnits="userSpaceOnUse">
<stop offset="0.11" stop-color="#DBDBDB"/>
<stop offset="0.88" stop-color="#363636"/>
</linearGradient>
<linearGradient id="paint4_linear_2025_299" x1="121.7" y1="99.19" x2="122.41" y2="-0.549994" gradientUnits="userSpaceOnUse">
<stop offset="0.11"/>
<stop offset="0.41" stop-color="#3C3C3C"/>
<stop offset="0.68" stop-color="#6A6A6A"/>
<stop offset="0.88" stop-color="#868686"/>
<stop offset="1" stop-color="#919191"/>
</linearGradient>
<linearGradient id="paint5_linear_2025_299" x1="122.24" y1="8.27002" x2="122.24" y2="73.17" gradientUnits="userSpaceOnUse">
<stop offset="0.11" stop-color="#363636"/>
<stop offset="0.78"/>
</linearGradient>
<linearGradient id="paint6_linear_2025_299" x1="97.15" y1="23.63" x2="97.15" y2="61.09" gradientUnits="userSpaceOnUse">
<stop stop-color="white"/>
<stop offset="0.16" stop-color="#F3F3F3"/>
<stop offset="0.36" stop-color="#CECECE"/>
<stop offset="0.37" stop-color="#AEAEAE"/>
<stop offset="0.38" stop-color="#ABABAB"/>
<stop offset="0.48" stop-color="#979797"/>
<stop offset="0.58" stop-color="#8B8B8B"/>
<stop offset="0.68" stop-color="#878787"/>
<stop offset="1" stop-color="#303030"/>
</linearGradient>
<linearGradient id="paint7_linear_2025_299" x1="149.92" y1="23.54" x2="149.92" y2="61.08" gradientUnits="userSpaceOnUse">
<stop stop-color="white"/>
<stop offset="0.16" stop-color="#F3F3F3"/>
<stop offset="0.36" stop-color="#CECECE"/>
<stop offset="0.37" stop-color="#AEAEAE"/>
<stop offset="0.38" stop-color="#ABABAB"/>
<stop offset="0.48" stop-color="#979797"/>
<stop offset="0.58" stop-color="#8B8B8B"/>
<stop offset="0.68" stop-color="#878787"/>
<stop offset="1" stop-color="#303030"/>
</linearGradient>
<linearGradient id="paint8_linear_2025_299" x1="95.68" y1="21.56" x2="102.79" y2="63.44" gradientUnits="userSpaceOnUse">
<stop stop-color="#F9F9F9"/>
<stop offset="0.07" stop-color="#C9C9C9"/>
<stop offset="0.13" stop-color="#A0A0A0"/>
<stop offset="0.19" stop-color="#818181"/>
<stop offset="0.25" stop-color="#6B6B6B"/>
<stop offset="0.31" stop-color="#5D5D5D"/>
<stop offset="0.36" stop-color="#595959"/>
<stop offset="0.45" stop-color="#5A5A5A"/>
<stop offset="0.48" stop-color="#616161"/>
<stop offset="0.5" stop-color="#6D6D6D"/>
<stop offset="0.52" stop-color="#818181"/>
<stop offset="0.77" stop-color="#A8A8A8"/>
<stop offset="0.79" stop-color="#838383"/>
<stop offset="0.82" stop-color="#626262"/>
<stop offset="0.84" stop-color="#464646"/>
<stop offset="0.87" stop-color="#313131"/>
<stop offset="0.9" stop-color="#222222"/>
<stop offset="0.94" stop-color="#191919"/>
<stop offset="1" stop-color="#171717"/>
</linearGradient>
<radialGradient id="paint9_radial_2025_299" cx="0" cy="0" r="1" gradientUnits="userSpaceOnUse" gradientTransform="translate(100.12 55.3856) rotate(-88.99) scale(12.96 17.6256)">
<stop offset="0.44" stop-color="white"/>
<stop offset="1" stop-color="#4D4D4D"/>
</radialGradient>
<linearGradient id="paint10_linear_2025_299" x1="145.45" y1="19.42" x2="153.26" y2="62.06" gradientUnits="userSpaceOnUse">
<stop stop-color="#F9F9F9"/>
<stop offset="0.07" stop-color="#C9C9C9"/>
<stop offset="0.13" stop-color="#A0A0A0"/>
<stop offset="0.19" stop-color="#818181"/>
<stop offset="0.25" stop-color="#6B6B6B"/>
<stop offset="0.31" stop-color="#5D5D5D"/>
<stop offset="0.36" stop-color="#595959"/>
<stop offset="0.45" stop-color="#5A5A5A"/>
<stop offset="0.48" stop-color="#616161"/>
<stop offset="0.5" stop-color="#6D6D6D"/>
<stop offset="0.52" stop-color="#818181"/>
<stop offset="0.79" stop-color="#A8A8A8"/>
<stop offset="0.81" stop-color="#828282"/>
<stop offset="0.83" stop-color="#616161"/>
<stop offset="0.85" stop-color="#464646"/>
<stop offset="0.87" stop-color="#313131"/>
<stop offset="0.9" stop-color="#222222"/>
<stop offset="0.93" stop-color="#191919"/>
<stop offset="0.98" stop-color="#171717"/>
</linearGradient>
</defs>
</svg>
