<svg viewBox="0 0 158 18" fill="none" xmlns="http://www.w3.org/2000/svg">
<path d="M58.9639 14.1797V17.9991H75.8403V14.1797H58.9639Z" fill="black"/>
<path d="M135.355 3.16061V14.8553L138.345 17.9469L138.397 17.999H146.197V14.1796H141.53L139.902 12.4955V5.50837L141.409 3.82023H146.197V0.000854492H138.172L135.355 3.16061Z" fill="black"/>
<path d="M107.666 3.16061V14.8553L110.654 17.9469L110.704 17.999H118.506V14.1796H113.839L112.211 12.4955V5.50837L113.718 3.82023H118.506V0.000854492H110.483L107.666 3.16061Z" fill="black"/>
<path d="M127.496 0.000854492H119.467V3.82023H124.255L125.742 5.49233V12.4995L124.118 14.1796H119.467V17.999H127.277L130.253 14.9195L130.307 14.8653V3.14858L127.55 0.0589974L127.496 0.000854492Z" fill="black"/>
<path d="M155.189 0.000854492H147.158V3.82023H151.946L153.433 5.49233V12.4995L151.809 14.1796H147.158V17.999H154.968L157.944 14.9195L157.998 14.8653V3.14858L155.241 0.0589974L155.189 0.000854492Z" fill="black"/>
<path d="M80.6991 3.10647L80.6509 3.16061V14.8553L83.691 17.999H85.192V0.000854492H83.468L80.6991 3.10647Z" fill="black"/>
<path d="M86.1543 17.9991H103.033V14.1797H86.1543V17.9991Z" fill="black"/>
<path d="M57.234 0.000854492H53.4604V17.999H58.0015V0.000854492H57.234Z" fill="black"/>
<path d="M15.6206 0.000854492V17.999H19.8362L22.8683 14.8653V0.000854492H15.6206Z" fill="black"/>
<path d="M3.25713 17.9991H14.6581V14.1797H0L3.25713 17.9991Z" fill="black"/>
<path d="M74.6487 10.9097V7.09033H58.9639V10.9097H74.6487Z" fill="black"/>
<path d="M86.1543 3.82023H103.033V0.000854492H86.1543V3.82023Z" fill="black"/>
<path d="M58.9639 0.000854492V3.82023H75.8403V0.000854492H58.9639Z" fill="black"/>
<path d="M29.9976 0.000854492H34.7879L34.0163 3.82023H34.0123L31.149 17.999H26.3627L29.9976 0.000854492ZM40.8199 0.000854492H45.369L49.0039 17.999H44.2076L41.3443 3.82023H35.0491L35.8207 0.000854492H40.8199Z" fill="black"/>
</svg>