<?xml version="1.0" standalone="no"?>
<!DOCTYPE svg PUBLIC "-//W3C//DTD SVG 20010904//EN"
 "http://www.w3.org/TR/2001/REC-SVG-20010904/DTD/svg10.dtd">
<svg version="1.0" xmlns="http://www.w3.org/2000/svg"
 width="512.000000pt" height="512.000000pt" viewBox="0 0 512.000000 512.000000"
 preserveAspectRatio="xMidYMid meet">
<metadata>
Created by potrace 1.14, written by Peter Selinger 2001-2017
</metadata>
<g transform="translate(0.000000,512.000000) scale(0.100000,-0.100000)"
fill="#000000" stroke="none">
<path d="M0 2560 l0 -2560 2560 0 2560 0 0 2560 0 2560 -2560 0 -2560 0 0
-2560z m3595 1876 c256 -23 307 -30 345 -49 60 -29 87 -72 97 -155 12 -101 8
-1532 -5 -1897 -22 -563 -58 -1166 -82 -1375 -14 -117 -49 -187 -110 -217 -52
-27 -235 -56 -446 -72 -265 -21 -823 -30 -1176 -21 -458 12 -598 22 -808 57
-191 31 -226 73 -249 298 -69 680 -95 1398 -89 2510 4 793 4 791 51 842 41 46
145 62 587 93 243 17 254 17 930 15 617 -2 672 -4 955 -29z"/>
<path d="M1234 4269 c-24 -26 -32 -178 -33 -601 l-1 -297 33 -5 c17 -3 165
-14 327 -26 401 -28 456 -39 478 -97 6 -16 15 -240 21 -538 14 -652 26 -879
50 -920 32 -57 40 -58 446 -58 407 0 414 1 446 58 23 40 36 296 50 925 5 267
12 500 15 518 7 43 47 67 133 82 56 9 621 50 689 50 l22 0 -1 293 c-1 419 -10
591 -34 617 -10 11 -26 20 -37 20 -10 0 -181 -30 -381 -66 l-362 -66 -540 0
-540 0 -363 66 c-199 36 -370 66 -380 66 -11 0 -27 -9 -38 -21z"/>
<path d="M1204 3004 c28 -1180 68 -1967 104 -2079 21 -62 36 -68 224 -89 270
-31 512 -41 1023 -40 505 1 781 11 1024 40 174 20 200 28 216 67 28 69 55 473
85 1272 17 484 33 1105 28 1111 -9 9 -588 -69 -605 -81 -11 -9 -29 -159 -84
-710 -38 -385 -74 -726 -81 -759 -16 -83 -38 -104 -120 -117 -42 -6 -239 -9
-516 -7 -414 3 -450 4 -476 21 -57 38 -63 78 -146 942 -46 488 -62 622 -74
630 -8 6 -129 26 -268 44 -139 18 -273 35 -297 38 l-44 6 7 -289z m804 -1646
c-14 -20 -25 -23 -97 -26 l-81 -3 0 -120 0 -120 -42 3 -43 3 -3 117 -3 117
-76 3 c-66 3 -78 6 -91 26 l-14 22 232 0 232 0 -14 -22z m390 -112 c51 -74 92
-139 92 -145 0 -6 -18 -11 -39 -11 -34 0 -44 6 -71 40 l-32 40 -93 0 -92 0
-27 -40 c-23 -35 -31 -40 -64 -40 -21 0 -41 3 -45 6 -6 6 47 90 141 222 43 61
44 62 91 62 l47 0 92 -134z m407 34 l130 -99 5 97 5 97 43 3 42 3 0 -145 0
-146 -39 0 c-41 0 -60 12 -237 152 -34 26 -64 48 -68 48 -3 0 -7 -44 -8 -97
l-3 -98 -40 0 -40 0 -3 143 -3 142 43 0 c39 0 55 -10 173 -100z m455 33 l5
-62 104 65 c97 61 107 65 155 62 l51 -3 -96 -60 -97 -59 67 -54 c36 -30 78
-64 94 -75 37 -28 34 -37 -13 -37 -34 0 -51 9 -120 66 l-81 65 -34 -21 c-29
-18 -34 -27 -37 -63 -3 -42 -3 -42 -43 -42 l-40 0 -3 143 -3 143 43 -3 43 -3
5 -62z"/>
<path d="M2226 1260 l-26 -40 55 0 c30 0 55 2 55 5 0 9 -45 75 -51 75 -4 0
-18 -18 -33 -40z"/>
</g>
</svg>
