<svg width="43" height="62" viewBox="0 0 43 62" fill="none" xmlns="http://www.w3.org/2000/svg">
<g clip-path="url(#clip0_2333_242)">
<path opacity="0.2" d="M35 58.4C35 60.4 28.8 62 21.2 62C13.6 62 7.40002 60.4 7.40002 58.4C7.40002 56.4 13.6 54.8 21.2 54.8C28.8 54.7 35 56.4 35 58.4Z" fill="#05141F"/>
<path d="M21.4 0C9.6 0 0 9.6 0 21.4C0 34 21.4 58.5 21.4 58.5C21.4 58.5 42.8 35 42.8 21.4C42.8 9.6 33.2 0 21.4 0ZM21.4 33.7C14.1 33.7 8.2 27.8 8.2 20.5C8.2 13.2 14.1 7.3 21.4 7.3C28.7 7.3 34.6 13.2 34.6 20.5C34.6 27.8 28.7 33.7 21.4 33.7Z" fill="#010101"/>
<path d="M21.7 38.4C30.9232 38.4 38.4 30.9232 38.4 21.7C38.4 12.4768 30.9232 5 21.7 5C12.4768 5 5 12.4768 5 21.7C5 30.9232 12.4768 38.4 21.7 38.4Z" fill="white"/>
<path d="M5 21.7V21.7C5 30.9232 12.4768 38.4 21.7 38.4V38.4V38.4C30.9232 38.4 38.4 30.9232 38.4 21.7V21.7V21.7C38.4 12.4768 30.9232 4.99999 21.7 4.99999V4.99999V4.99999C12.4768 4.99999 5 12.4768 5 21.7V21.7ZM28.4518 9.46202C30.1218 9.61206 30.4545 9.65773 30.7023 9.78167C31.0938 9.97085 31.2699 10.2514 31.3351 10.7928C31.4134 11.4517 31.3873 20.7867 31.3025 23.1678C31.159 26.8405 30.9241 30.7741 30.7676 32.1375C30.6763 32.9007 30.4479 33.3574 30.05 33.5531C29.7108 33.7292 28.517 33.9184 27.1405 34.0228C25.4118 34.1598 21.7718 34.2185 19.469 34.1598C16.4813 34.0815 15.568 34.0162 14.198 33.7879C12.9521 33.5857 12.7238 33.3117 12.5737 31.8439C12.1236 27.408 11.954 22.7242 11.9931 15.4701C12.0192 10.297 12.0192 10.3101 12.3258 9.97738C12.5933 9.6773 13.2717 9.57292 16.1551 9.3707C17.7403 9.2598 17.812 9.2598 22.2219 9.27284C26.2468 9.28589 26.6056 9.29894 28.4518 9.46202Z" fill="white"/>
<path d="M13.0499 10.5514C12.8934 10.7211 12.8412 11.7126 12.8346 14.472L12.8281 16.4095L13.0434 16.4421C13.1543 16.4617 14.1198 16.5334 15.1766 16.6117C17.7925 16.7944 18.1513 16.8661 18.2948 17.2445C18.3339 17.3489 18.3926 18.8101 18.4318 20.7541C18.5231 25.0074 18.6014 26.4882 18.7579 26.7557C18.9667 27.1275 19.0189 27.134 21.6674 27.134C24.3224 27.134 24.3681 27.1275 24.5768 26.7557C24.7269 26.4947 24.8117 24.8247 24.903 20.7215C24.9356 18.9797 24.9813 17.4598 25.0009 17.3423C25.0465 17.0618 25.3075 16.9053 25.8685 16.8074C26.2338 16.7487 29.9195 16.4813 30.3631 16.4813H30.5066L30.5001 14.5699C30.4936 11.8366 30.4349 10.7145 30.2783 10.5449C30.2131 10.4732 30.1087 10.4145 30.037 10.4145C29.9717 10.4145 28.8562 10.6102 27.5515 10.845L25.19 11.2755H21.6674H18.1447L15.7767 10.845C14.4786 10.6102 13.363 10.4145 13.2978 10.4145C13.2261 10.4145 13.1217 10.4732 13.0499 10.5514Z" fill="black"/>
<path d="M12.8543 18.8036C13.0369 26.5013 13.2979 31.6352 13.5327 32.3658C13.6697 32.7703 13.7675 32.8094 14.9939 32.9464C16.7553 33.1486 18.3339 33.2139 21.6674 33.2074C24.9618 33.2008 26.7622 33.1356 28.3474 32.9464C29.4825 32.8159 29.6521 32.7638 29.7565 32.5093C29.9391 32.0592 30.1153 29.4238 30.311 24.2115C30.4219 21.0542 30.5263 17.0031 30.4936 16.964C30.4349 16.9053 26.6579 17.4141 26.547 17.4924C26.4752 17.5511 26.3578 18.5296 25.999 22.124C25.7511 24.6356 25.5163 26.86 25.4706 27.0753C25.3662 27.6168 25.2227 27.7538 24.6878 27.8386C24.4138 27.8777 23.1287 27.8973 21.3217 27.8842C18.621 27.8647 18.3861 27.8581 18.2165 27.7472C17.8447 27.4993 17.8055 27.2384 17.2641 21.6022C16.964 18.4187 16.8597 17.5446 16.7814 17.4924C16.7292 17.4532 15.9398 17.3228 15.0331 17.2054C14.1263 17.0879 13.2522 16.977 13.0956 16.9575L12.8086 16.9183L12.8543 18.8036ZM18.0991 29.5412C18.0078 29.6717 17.936 29.6912 17.4663 29.7108L16.9379 29.7304V30.5132V31.296L16.6639 31.2764L16.3834 31.2568L16.3639 30.4936L16.3443 29.7304L15.8485 29.7108C15.418 29.6912 15.3397 29.6717 15.2549 29.5412L15.1636 29.3977H16.677H18.1904L18.0991 29.5412ZM20.6432 30.2718C20.9759 30.7545 21.2434 31.1786 21.2434 31.2177C21.2434 31.2568 21.126 31.2895 20.989 31.2895C20.7672 31.2895 20.702 31.2503 20.5258 31.0285L20.3171 30.7676H19.7104H19.1102L18.9341 31.0285C18.7841 31.2568 18.7319 31.2895 18.5166 31.2895C18.3796 31.2895 18.2491 31.2699 18.223 31.2503C18.1839 31.2112 18.5297 30.6632 19.1429 29.8021C19.4234 29.4042 19.4299 29.3977 19.7365 29.3977H20.0431L20.6432 30.2718ZM23.2983 30.05L24.1463 30.6958L24.1789 30.0631L24.2116 29.4303L24.4921 29.4107L24.7661 29.3911V30.337V31.2895H24.5116C24.2442 31.2895 24.1202 31.2112 22.9656 30.2979C22.7438 30.1283 22.5481 29.9848 22.522 29.9848C22.5024 29.9848 22.4763 30.2718 22.4698 30.6175L22.4502 31.2568H22.1893H21.9284L21.9088 30.324L21.8892 29.3977H22.1697C22.4241 29.3977 22.5285 29.4629 23.2983 30.05ZM26.2665 29.8347L26.2991 30.2392L26.9775 29.8152C27.6103 29.4172 27.6755 29.3911 27.9886 29.4107L28.3213 29.4303L27.6951 29.8217L27.0623 30.2066L27.4994 30.5588C27.7342 30.7545 28.0082 30.9763 28.1126 31.0481C28.354 31.2308 28.3344 31.2895 28.0278 31.2895C27.806 31.2895 27.6951 31.2308 27.245 30.8589L26.7166 30.4349L26.4948 30.5719C26.3056 30.6893 26.273 30.748 26.2534 30.9829C26.2338 31.2568 26.2338 31.2568 25.9729 31.2568H25.712L25.6924 30.324L25.6728 29.3911L25.9533 29.4107L26.2338 29.4303L26.2665 29.8347Z" fill="black"/>
<path d="M19.5212 30.1805L19.3516 30.4414H19.7104C19.9061 30.4414 20.0691 30.4284 20.0691 30.4088C20.0691 30.3501 19.7756 29.9195 19.7364 29.9195C19.7104 29.9195 19.619 30.037 19.5212 30.1805Z" fill="black"/>
</g>
<defs>
<clipPath id="clip0_2333_242">
<rect width="42.8" height="62" fill="white"/>
</clipPath>
</defs>
</svg>
