<svg width="512" height="512" viewBox="0 0 512 512" fill="none" xmlns="http://www.w3.org/2000/svg">
<rect width="512" height="512" fill="#00AEEF"/>
<path d="M393.528 248.874C388.396 242.614 381.757 238.013 373.833 235.221C367.947 233.11 361.986 232.657 357.458 232.43C355.421 232.355 353.457 232.43 351.571 232.43C351.042 232.43 350.44 232.43 349.911 232.43C348.929 232.279 347.949 232.204 347.043 232.128C347.269 230.922 347.647 229.565 348.176 228.206C349.684 224.058 351.873 219.985 354.665 216.139C357.156 212.743 360.173 209.501 363.419 206.106L365.381 204.07C369.833 199.393 374.512 194.566 378.587 188.758C384.019 181.215 388.396 172.842 391.642 163.716C394.359 156.173 396.019 147.951 396.699 138.523C397.15 132.036 397.076 122.381 390.66 114.235C384.548 106.466 375.87 102.845 366.363 103.977C366.061 103.977 365.759 103.977 365.456 103.977C364.852 103.977 364.248 103.977 363.646 104.052C359.571 104.429 356.099 105.862 353.306 107.069C353.306 106.617 353.306 106.164 353.381 105.711C353.457 104.429 353.532 103.222 353.608 101.94C353.835 94.9252 353.081 88.0612 351.344 81.499C350.44 77.8785 348.855 73.2019 345.458 68.8271C340.553 62.5665 333.988 59.2476 326.442 59.0968H325.989C317.991 59.0968 311.199 62.1139 305.689 65.0557L304.936 65.4328C304.936 65.4328 304.709 65.5082 304.634 65.5837C304.18 64.7539 303.803 63.8489 303.576 62.7928C301.841 55.778 299.501 49.8191 296.482 44.5393C294.294 40.7678 291.352 37.3736 287.654 34.3564C281.994 29.8307 275.127 24.8525 265.543 25.0033C256.638 25.1542 249.243 28.3976 243.508 34.6581C237.999 40.6924 235.433 47.7827 233.471 53.9678C232.415 57.2865 230.83 60.002 228.943 61.8876C228.49 62.3402 227.66 63.17 225.019 62.8683H224.114C220.944 62.4912 217.02 62.1139 212.643 63.0191C205.701 64.4523 200.116 68.9779 196.419 75.9927C193.551 81.4235 191.74 87.6841 191.061 94.6234C190.683 98.1686 190.985 101.412 191.363 104.429C191.664 107.22 191.815 109.483 191.74 111.293C184.646 108.05 178.157 105.183 171.969 102.619C164.347 99.3755 156.951 98.923 150.009 101.261C144.047 103.298 138.991 106.994 135.067 112.274C131.445 117.176 129.332 122.456 128.879 128.114C128.728 130.226 128.577 132.564 129.03 135.128C129.181 135.958 129.332 136.863 129.483 137.693C130.086 141.54 130.766 145.462 131.973 149.611C133.105 153.457 135.52 162.886 135.52 162.961C137.18 169.599 139.746 175.558 142.236 181.215L143.066 183.025C146.16 190.191 149.933 196.829 153.48 203.164C154.386 204.824 155.367 206.483 156.272 208.142C157.781 210.933 159.442 213.649 160.951 216.214C163.441 220.438 165.781 224.36 167.818 228.433C168.044 228.886 168.271 229.339 168.497 229.865C162.46 229.188 156.499 229.188 150.99 229.263C140.953 229.414 131.671 232.581 123.37 238.615C120.125 240.953 117.484 243.745 115.597 246.762C109.938 254.984 108.504 264.564 111.598 274.519C114.466 283.948 120.427 290.209 125.634 295.714L125.936 296.016C127.973 298.203 130.69 300.919 134.011 303.333C137.935 307.028 142.085 309.744 146.085 312.385L147.971 313.666C151.141 315.778 154.386 317.514 157.48 319.098C158.913 319.851 160.272 320.606 161.63 321.361C165.177 323.322 168.724 325.358 172.195 327.395L177.553 330.488C180.873 332.373 183.967 334.108 187.061 335.993C190.231 337.879 193.249 339.991 195.966 342.254C193.853 342.706 191.74 343.235 189.627 343.763L188.193 344.139C187.288 344.365 186.382 344.667 185.627 345.196C179.817 347.081 174.912 350.401 170.912 355.001C166.082 360.659 163.894 367.825 164.573 375.291C165.328 383.212 169.252 390.452 175.364 395.28C181.251 399.881 187.137 403.501 193.325 406.292C196.645 407.8 199.965 409.084 203.21 410.29C204.87 410.894 206.455 411.498 208.04 412.175C210.153 413.006 212.266 413.836 214.379 414.589C218.379 416.099 222.152 417.531 225.774 419.19C224.793 419.87 223.812 420.698 222.831 421.529C215.813 427.638 213.096 437.445 215.964 446.345C218.529 454.34 222.604 461.431 227.962 467.464C229.547 469.199 231.886 471.839 235.207 473.8C235.433 474.027 235.66 474.178 235.886 474.404C236.64 475.159 237.697 476.138 239.055 477.044C244.64 480.966 250.903 484.813 258.299 486.774C258.902 486.925 259.883 487 261.166 487C268.788 487 286.069 483.833 292.256 479.383C298.897 474.63 304.331 469.501 308.859 463.693C316.178 454.264 320.255 443.931 320.782 432.768C321.235 424.773 318.442 417.682 313.085 412.779C311.425 411.271 309.613 410.214 307.802 409.386C310.217 408.102 312.783 406.972 315.425 405.764C317.235 404.935 318.971 404.18 320.782 403.35C322.368 402.597 324.027 401.842 325.612 401.163C332.781 397.92 340.1 394.6 346.892 388.793C354.137 382.608 358.287 374.538 358.967 365.486C359.42 359.602 358.06 351.003 349.08 343.612C341.61 337.426 333.234 335.616 325.234 334.334C324.254 334.183 323.272 334.032 322.292 333.957C322.743 333.655 323.197 333.353 323.725 333.051L324.178 332.751C325.385 331.996 326.518 331.165 327.724 330.337C329.46 329.129 331.121 327.999 332.781 327.093C335.121 325.811 337.987 324.754 340.931 323.699L342.59 323.095C348.025 321.134 353.306 319.022 357.231 317.439C364.023 314.648 369.909 311.63 375.266 308.085C381.531 303.937 386.208 299.94 390.058 295.489C397.377 286.889 401 278.139 401 268.712C401 261.621 398.509 254.984 393.453 248.874M380.473 268.636C380.473 272.634 378.738 276.405 374.814 280.931C372.248 283.873 368.927 286.664 364.399 289.68C360.173 292.472 355.421 294.885 349.835 297.148C346.063 298.656 341.006 300.693 335.95 302.503L334.365 303.031C330.895 304.239 326.969 305.671 323.121 307.783C320.706 309.14 318.518 310.65 316.48 312.083C315.5 312.762 314.443 313.44 313.463 314.119L313.01 314.421C309.01 316.986 304.407 319.926 300.408 324.15L300.257 324.301C298.295 326.338 295.276 329.507 294.067 334.561C292.936 339.462 293.691 344.139 296.256 347.912C298.144 350.701 301.841 354.096 308.784 354.7C310.293 354.85 311.877 354.925 313.387 355.001C316.48 355.227 319.348 355.378 322.065 355.831C327.724 356.737 332.706 357.716 336.327 360.734C338.516 362.544 338.44 363.375 338.365 363.826C338.213 365.787 337.611 368.729 333.837 371.973C329.309 375.895 323.499 378.46 317.462 381.249C315.727 382.004 313.99 382.835 312.33 383.588C310.746 384.343 309.086 385.098 307.424 385.851C302.521 388.038 297.464 390.301 292.559 393.545C277.164 403.803 276.712 410.969 276.561 413.383C276.259 418.286 277.466 422.284 280.183 425.224C282.824 428.166 286.522 429.674 291.125 429.523H293.389C294.823 429.448 296.331 429.448 297.842 429.374C298.973 429.374 299.577 429.448 299.804 429.523C300.03 429.75 300.257 430.278 300.181 431.562C299.879 438.048 297.464 444.007 292.936 449.814C289.691 453.962 285.692 457.735 280.711 461.28C277.919 462.863 266.675 464.899 262.072 465.277C258.299 464.071 254.601 461.732 250.299 458.79C249.998 458.564 249.771 458.337 249.545 458.111C248.488 457.131 247.13 455.772 245.092 454.717C244.564 454.415 243.508 453.209 242.829 452.454C239.433 448.684 237.018 444.384 235.358 439.254C235.207 438.802 235.66 438.349 235.81 438.198C236.942 437.218 238.376 436.237 240.036 435.182C240.791 434.729 241.546 434.2 242.3 433.674C249.771 428.619 252.412 419.719 248.715 411.498C246.073 405.613 241.697 403.199 238.98 401.691C233.018 398.373 226.981 396.11 221.095 393.923C219.058 393.168 217.095 392.413 215.058 391.584C213.322 390.905 211.587 390.226 209.851 389.548C206.833 388.416 203.965 387.285 201.248 386.077C196.494 383.89 191.966 381.1 187.363 377.554C185.929 376.424 184.948 374.687 184.797 372.877C184.646 371.52 185.024 370.388 185.929 369.333C187.589 367.447 189.627 366.164 192.193 365.486L194.532 364.883L194.909 364.505C196.72 364.052 198.607 363.599 200.418 363.224C201.852 362.922 203.21 362.695 204.644 362.393C205.701 362.167 206.833 362.016 207.889 361.789C215.285 360.357 220.869 354.172 221.095 347.006C221.246 343.31 220.341 339.613 218.379 335.918C216.115 331.618 213.096 328.827 210.228 326.338C206.229 322.869 201.776 319.702 197.098 316.835C193.777 314.799 190.382 312.838 187.061 311.026L181.779 308.01C178.232 305.973 174.61 303.862 170.988 301.901C169.478 301.07 167.894 300.24 166.384 299.411C163.592 297.977 161.026 296.544 158.687 295.036L156.65 293.753C153.027 291.415 149.707 289.152 146.99 286.589L146.462 286.06L145.858 285.607C143.745 284.099 141.708 282.063 140.199 280.478L139.897 280.177C135.822 275.876 132.275 272.181 130.916 267.731C129.709 263.809 130.464 261.621 132.048 259.434L132.501 258.754C132.954 258.001 133.784 257.246 134.841 256.416C139.746 252.872 145.179 250.986 151.065 250.911C156.876 250.835 163.139 250.911 169.101 251.815C172.648 252.343 176.421 251.966 180.119 250.684C186.08 248.572 192.268 242.01 190.08 230.243C189.325 226.321 187.967 222.323 186.005 218.402C183.59 213.574 180.949 209.048 178.383 204.673C176.874 202.184 175.44 199.695 174.006 197.13C173.025 195.395 172.119 193.736 171.138 192.001C167.667 185.816 164.347 180.008 161.706 173.898L160.876 172.013C158.687 166.884 156.574 162.132 155.291 157.229C155.216 156.852 152.725 147.348 151.518 143.124C150.688 140.333 150.235 137.24 149.707 133.997C149.556 133.092 149.405 132.187 149.254 131.357C149.254 131.206 149.254 130.754 149.254 130.075C149.33 129.094 149.631 127.736 151.141 125.775C152.499 123.965 154.084 122.758 156.121 122.079C158.461 121.325 161.102 121.551 164.196 122.909C171.138 125.851 178.534 129.094 186.835 132.941C191.891 135.279 197.098 135.279 201.55 132.941C206.229 130.527 209.625 125.926 211.059 119.892C212.719 113.179 212.266 106.692 211.662 101.789C211.436 100.205 211.285 98.4704 211.436 97.1126C211.889 92.9641 212.87 89.4944 214.379 86.5527C215.36 84.7424 216.039 84.5916 216.567 84.4408C217.926 84.139 219.888 84.3653 222.076 84.5161H223.057C230.679 85.2704 237.471 83.0075 242.678 77.9538C247.205 73.579 250.601 67.8465 252.79 60.9826C253.922 57.5128 254.978 54.722 256.261 52.5346V173.974L239.81 157.078C235.81 152.929 229.245 152.929 225.246 157.078C223.208 159.114 222.227 161.905 222.227 164.545C222.227 167.185 223.208 169.976 225.246 172.088L256.185 203.919V278.894L214.983 236.88C210.983 232.732 204.418 232.732 200.418 236.88C198.381 238.917 197.4 241.708 197.4 244.349C197.4 246.989 198.381 249.778 200.418 251.89L256.11 308.689V377.554C256.11 383.437 260.713 388.189 266.373 388.189C272.033 388.189 276.712 383.437 276.712 377.554V307.632C277.391 307.179 277.994 306.727 278.598 306.124L314.518 269.089C316.556 267.053 317.538 264.262 317.538 261.546C317.538 258.83 316.556 256.116 314.518 254.078C310.519 249.929 303.954 249.929 299.955 254.078L276.787 277.915V203.693L309.386 170.202C311.425 168.166 312.405 165.375 312.405 162.66C312.405 159.944 311.425 157.229 309.386 155.117C305.387 150.968 298.822 150.968 294.823 155.117L276.862 173.597V53.5905C277.693 54.4204 278.372 55.2501 278.824 56.0797C280.787 59.4739 282.371 63.5471 283.579 68.45C284.937 73.8808 287.427 78.7082 290.899 82.6304C295.049 87.2315 303.123 90.4749 309.688 87.3823C311.199 86.7035 312.632 85.8738 314.065 85.1196L314.82 84.7424C319.802 82.1024 323.046 81.1219 326.14 81.1219C327.347 81.1219 328.404 81.4235 329.535 83.0075C330.291 83.9127 330.819 85.2704 331.422 87.5333C332.63 92.0589 333.083 96.5846 332.932 101.487C332.932 102.393 332.857 103.298 332.781 104.278C332.479 108.502 332.026 114.235 334.592 120.269L335.045 121.325L335.649 122.23C344.025 134.45 354.439 130.226 357.909 128.792C358.816 128.415 359.646 128.038 360.551 127.661C362.513 126.831 364.174 126.077 365.381 125.926C365.683 125.926 365.91 125.926 366.212 125.926C366.965 125.926 367.796 125.926 368.551 125.775C371.266 125.474 373.002 126.152 374.739 128.415C375.643 129.622 376.474 131.432 376.097 137.014C375.568 144.331 374.286 150.591 372.324 156.173C369.682 163.414 366.363 169.825 362.06 175.784C358.816 180.31 354.892 184.383 350.742 188.758L348.78 190.794C345.232 194.566 341.535 198.413 338.213 203.014C334.29 208.444 331.121 214.329 328.857 220.362C326.216 227.378 325.385 233.94 326.291 240.351C326.82 244.349 329.084 251.364 338.062 253.174C340.402 253.627 342.515 253.778 344.403 253.853C345.534 253.853 354.967 254.229 356.552 254.229C359.871 254.38 363.797 254.682 367.192 255.889C371.644 257.473 375.116 259.887 377.907 263.205C380.398 266.223 380.398 268.108 380.398 268.712L380.473 268.636Z" fill="white"/>
</svg>
