<svg width="43" height="62" viewBox="0 0 43 62" fill="none" xmlns="http://www.w3.org/2000/svg">
<g clip-path="url(#clip0_2700_72)">
<path opacity="0.2" d="M34.9999 58.4C34.9999 60.4 28.7999 62 21.1999 62C13.5999 62 7.3999 60.4 7.3999 58.4C7.3999 56.4 13.5999 54.8 21.1999 54.8C28.7999 54.7 34.9999 56.4 34.9999 58.4Z" fill="#05141F"/>
<path d="M21.4 0C9.6 0 0 9.6 0 21.4C0 34 21.4 58.5 21.4 58.5C21.4 58.5 42.8 35 42.8 21.4C42.8 9.6 33.2 0 21.4 0ZM21.4 33.7C14.1 33.7 8.2 27.8 8.2 20.5C8.2 13.2 14.1 7.3 21.4 7.3C28.7 7.3 34.6 13.2 34.6 20.5C34.6 27.8 28.7 33.7 21.4 33.7Z" fill="#010101"/>
<path d="M21.7 38.4C30.9232 38.4 38.4 30.9232 38.4 21.7C38.4 12.4768 30.9232 5 21.7 5C12.4768 5 5 12.4768 5 21.7C5 30.9232 12.4768 38.4 21.7 38.4Z" fill="white"/>
<path d="M28.5892 21.5373C28.307 21.1308 27.942 20.832 27.5063 20.6507C27.1827 20.5136 26.8549 20.4842 26.6059 20.4695C26.4939 20.4646 26.386 20.4695 26.2822 20.4695C26.2532 20.4695 26.22 20.4695 26.191 20.4695C26.137 20.4597 26.0831 20.4548 26.0333 20.4499C26.0457 20.3716 26.0665 20.2834 26.0956 20.1952C26.1785 19.9258 26.2988 19.6614 26.4524 19.4116C26.5893 19.1911 26.7552 18.9806 26.9337 18.7601L27.0416 18.6279C27.2864 18.3242 27.5436 18.0108 27.7677 17.6336C28.0664 17.1438 28.307 16.6002 28.4855 16.0075C28.6349 15.5177 28.7261 14.9838 28.7635 14.3716C28.7883 13.9504 28.7843 13.3234 28.4315 12.7945C28.0954 12.29 27.6183 12.0549 27.0955 12.1284C27.0789 12.1284 27.0623 12.1284 27.0457 12.1284C27.0125 12.1284 26.9793 12.1284 26.9462 12.1332C26.7221 12.1577 26.5312 12.2508 26.3776 12.3292C26.3776 12.2998 26.3776 12.2704 26.3818 12.241C26.3859 12.1577 26.3901 12.0794 26.3943 11.9961C26.4067 11.5406 26.3653 11.0949 26.2698 10.6688C26.22 10.4337 26.1329 10.13 25.9462 9.84592C25.6765 9.43938 25.3155 9.22387 24.9006 9.21408H24.8757C24.4359 9.21408 24.0625 9.40999 23.7595 9.60102L23.7181 9.6255C23.7181 9.6255 23.7057 9.63041 23.7015 9.63531C23.6766 9.58142 23.6558 9.52266 23.6434 9.45408C23.548 8.99857 23.4193 8.61163 23.2533 8.26879C23.133 8.02388 22.9712 7.80348 22.7679 7.60756C22.4567 7.31368 22.0791 6.99042 21.5522 7.00022C21.0626 7.01001 20.656 7.22062 20.3406 7.62715C20.0377 8.01899 19.8967 8.47939 19.7888 8.88103C19.7307 9.09653 19.6436 9.27286 19.5398 9.3953C19.5149 9.42469 19.4693 9.47857 19.3241 9.45898H19.2743C19.1 9.43449 18.8843 9.40999 18.6436 9.46877C18.2619 9.56184 17.9549 9.85571 17.7515 10.3112C17.5939 10.6639 17.4943 11.0704 17.4569 11.521C17.4362 11.7512 17.4528 11.9618 17.4735 12.1577C17.4901 12.339 17.4984 12.4859 17.4943 12.6034C17.1043 12.3928 16.7474 12.2067 16.4072 12.0402C15.9881 11.8296 15.5815 11.8002 15.1998 11.952C14.872 12.0843 14.594 12.3243 14.3783 12.6671C14.1791 12.9855 14.0629 13.3283 14.038 13.6957C14.0297 13.8328 14.0214 13.9847 14.0463 14.1512C14.0546 14.2051 14.0629 14.2638 14.0712 14.3177C14.1044 14.5675 14.1418 14.8222 14.2081 15.0916C14.2704 15.3414 14.4031 15.9536 14.4031 15.9585C14.4944 16.3896 14.6355 16.7765 14.7724 17.1438L14.8181 17.2614C14.9882 17.7267 15.1956 18.1577 15.3907 18.5691C15.4404 18.6769 15.4944 18.7846 15.5442 18.8923C15.6272 19.0736 15.7184 19.25 15.8014 19.4165C15.9383 19.6908 16.067 19.9454 16.179 20.2099C16.1914 20.2393 16.2039 20.2687 16.2163 20.3029C15.8844 20.2589 15.5566 20.2589 15.2537 20.2638C14.7019 20.2736 14.1915 20.4793 13.7351 20.8711C13.5567 21.0229 13.4115 21.2042 13.3078 21.4002C12.9966 21.934 12.9177 22.5561 13.0879 23.2026C13.2455 23.8148 13.5733 24.2213 13.8596 24.5788L13.8762 24.5984C13.9882 24.7405 14.1376 24.9168 14.3202 25.0736C14.5359 25.3135 14.7641 25.4899 14.984 25.6613L15.0878 25.7446C15.262 25.8817 15.4404 25.9944 15.6106 26.0973C15.6894 26.1462 15.7641 26.1952 15.8388 26.2442C16.0338 26.3715 16.2288 26.5038 16.4197 26.636L16.7142 26.8369C16.8968 26.9593 17.0669 27.0719 17.237 27.1944C17.4113 27.3168 17.5773 27.4539 17.7266 27.6009C17.6105 27.6303 17.4943 27.6646 17.3781 27.6989L17.2993 27.7233C17.2495 27.738 17.1997 27.7576 17.1582 27.7919C16.8387 27.9144 16.569 28.1299 16.3491 28.4286C16.0836 28.796 15.9632 29.2614 16.0006 29.7462C16.0421 30.2605 16.2578 30.7307 16.5939 31.0441C16.9176 31.3429 17.2412 31.578 17.5814 31.7592C17.764 31.8572 17.9465 31.9405 18.125 32.0188C18.2162 32.058 18.3034 32.0972 18.3905 32.1412C18.5067 32.1952 18.6229 32.2491 18.739 32.298C18.959 32.396 19.1664 32.489 19.3656 32.5968C19.3116 32.6409 19.2577 32.6947 19.2038 32.7486C18.8179 33.1453 18.6685 33.7821 18.8262 34.3601C18.9673 34.8792 19.1913 35.3396 19.4859 35.7314C19.573 35.8441 19.7017 36.0155 19.8842 36.1429C19.8967 36.1576 19.9091 36.1674 19.9216 36.1821C19.9631 36.2311 20.0211 36.2947 20.0958 36.3535C20.4029 36.6082 20.7472 36.858 21.1539 36.9853C21.1871 36.9951 21.241 37 21.3115 37C21.7306 37 22.6808 36.7944 23.021 36.5054C23.3861 36.1968 23.6849 35.8637 23.9338 35.4866C24.3363 34.8743 24.5604 34.2033 24.5894 33.4784C24.6143 32.9593 24.4607 32.4989 24.1662 32.1805C24.0749 32.0825 23.9753 32.0139 23.8757 31.9601C24.0085 31.8768 24.1496 31.8034 24.2948 31.7249C24.3944 31.6711 24.4898 31.6221 24.5894 31.5682C24.6766 31.5193 24.7678 31.4703 24.8549 31.4261C25.2491 31.2156 25.6515 31 26.025 30.6229C26.4233 30.2213 26.6515 29.6973 26.6889 29.1095C26.7138 28.7274 26.6391 28.169 26.1453 27.6891C25.7346 27.2874 25.274 27.1699 24.8342 27.0866C24.7803 27.0768 24.7263 27.067 24.6724 27.0621C24.6972 27.0425 24.7221 27.0229 24.7512 27.0033L24.7761 26.9838C24.8425 26.9348 24.9048 26.8809 24.9711 26.8271C25.0665 26.7486 25.1579 26.6752 25.2491 26.6164C25.3778 26.5332 25.5354 26.4646 25.6972 26.3961L25.7885 26.3568C26.0873 26.2295 26.3776 26.0924 26.5935 25.9895C26.9669 25.8083 27.2905 25.6123 27.5851 25.3822C27.9295 25.1128 28.1867 24.8532 28.3984 24.5642C28.8008 24.0058 29 23.4376 29 22.8255C29 22.365 28.8631 21.934 28.585 21.5373M27.8714 22.8206C27.8714 23.0801 27.776 23.325 27.5602 23.6189C27.4192 23.8099 27.2365 23.9912 26.9876 24.187C26.7552 24.3683 26.4939 24.525 26.1868 24.672C25.9794 24.7699 25.7014 24.9021 25.4233 25.0197L25.3362 25.054C25.1454 25.1324 24.9296 25.2254 24.718 25.3626C24.5852 25.4507 24.4649 25.5487 24.3529 25.6417C24.299 25.6859 24.2408 25.7299 24.187 25.774L24.162 25.7936C23.9422 25.9601 23.689 26.1511 23.4692 26.4253L23.4609 26.4351C23.353 26.5674 23.187 26.7732 23.1205 27.1013C23.0583 27.4196 23.0999 27.7233 23.2409 27.9683C23.3447 28.1494 23.548 28.3699 23.9297 28.4091C24.0126 28.4188 24.0998 28.4237 24.1828 28.4286C24.3529 28.4433 24.5106 28.4531 24.66 28.4825C24.9711 28.5414 25.245 28.605 25.4441 28.8009C25.5644 28.9185 25.5603 28.9724 25.5561 29.0017C25.5478 29.129 25.5147 29.3201 25.3072 29.5307C25.0582 29.7854 24.7388 29.9519 24.4068 30.1331C24.3114 30.1821 24.2159 30.236 24.1247 30.2849C24.0376 30.3339 23.9463 30.383 23.855 30.4319C23.5853 30.5739 23.3073 30.7208 23.0376 30.9315C22.1912 31.5976 22.1663 32.0629 22.158 32.2197C22.1414 32.5381 22.2078 32.7976 22.3571 32.9886C22.5024 33.1796 22.7057 33.2776 22.9588 33.2678H23.0833C23.1621 33.2629 23.245 33.2629 23.3281 33.2581C23.3903 33.2581 23.4235 33.2629 23.4359 33.2678C23.4484 33.2825 23.4609 33.3168 23.4567 33.4001C23.4401 33.8213 23.3073 34.2082 23.0583 34.5853C22.8799 34.8547 22.66 35.0997 22.3862 35.3298C22.2327 35.4327 21.6144 35.5649 21.3613 35.5894C21.1539 35.5111 20.9506 35.3593 20.7141 35.1682C20.6975 35.1535 20.685 35.1388 20.6726 35.1241C20.6145 35.0605 20.5398 34.9722 20.4278 34.9037C20.3987 34.8841 20.3406 34.8058 20.3033 34.7568C20.1166 34.5119 19.9838 34.2327 19.8925 33.8996C19.8842 33.8702 19.9091 33.8408 19.9174 33.831C19.9797 33.7674 20.0585 33.7037 20.1498 33.6352C20.1913 33.6058 20.2328 33.5714 20.2742 33.5372C20.685 33.209 20.8302 32.6311 20.6269 32.0972C20.4817 31.7151 20.241 31.5584 20.0917 31.4605C19.7639 31.245 19.432 31.0981 19.1083 30.956C18.9963 30.907 18.8884 30.858 18.7764 30.8042C18.681 30.7601 18.5855 30.7159 18.4901 30.6719C18.3241 30.5984 18.1665 30.525 18.0171 30.4466C17.7557 30.3045 17.5067 30.1234 17.2536 29.8931C17.1748 29.8197 17.1209 29.707 17.1126 29.5894C17.1043 29.5013 17.125 29.4278 17.1748 29.3593C17.2661 29.2368 17.3781 29.1535 17.5192 29.1095L17.6478 29.0703L17.6686 29.0458C17.7681 29.0164 17.8719 28.987 17.9714 28.9626C18.0503 28.943 18.125 28.9283 18.2038 28.9086C18.2619 28.8939 18.3241 28.8841 18.3822 28.8694C18.7888 28.7764 19.0959 28.3748 19.1083 27.9095C19.1166 27.6695 19.0668 27.4294 18.959 27.1895C18.8345 26.9103 18.6685 26.729 18.5108 26.5674C18.2909 26.3421 18.0461 26.1365 17.7889 25.9503C17.6063 25.8181 17.4196 25.6908 17.237 25.5731L16.9466 25.3773C16.7516 25.245 16.5524 25.1079 16.3533 24.9806C16.2703 24.9266 16.1832 24.8727 16.1002 24.8189C15.9466 24.7258 15.8056 24.6328 15.677 24.5348L15.5649 24.4515C15.3658 24.2997 15.1832 24.1527 15.0338 23.9863L15.0048 23.952L14.9716 23.9226C14.8554 23.8246 14.7434 23.6924 14.6604 23.5895L14.6438 23.57C14.4197 23.2907 14.2247 23.0507 14.15 22.7617C14.0837 22.5071 14.1252 22.365 14.2123 22.223L14.2372 22.1789C14.2621 22.13 14.3077 22.0809 14.3658 22.027C14.6355 21.7969 14.9342 21.6744 15.2579 21.6695C15.5774 21.6646 15.9217 21.6695 16.2495 21.7282C16.4445 21.7625 16.652 21.738 16.8553 21.6548C17.1831 21.5177 17.5233 21.0916 17.403 20.3274C17.3615 20.0728 17.2868 19.8132 17.179 19.5585C17.0462 19.2451 16.901 18.9512 16.7599 18.6671C16.6769 18.5055 16.5981 18.3438 16.5192 18.1773C16.4653 18.0646 16.4155 17.9569 16.3616 17.8442C16.1707 17.4426 15.9881 17.0655 15.8429 16.6687L15.7973 16.5463C15.677 16.2132 15.5608 15.9046 15.4902 15.5863C15.4861 15.5618 15.3492 14.9447 15.2828 14.6704C15.2371 14.4892 15.2122 14.2883 15.1832 14.0777C15.1749 14.019 15.1666 13.9602 15.1583 13.9063C15.1583 13.8965 15.1583 13.8671 15.1583 13.823C15.1624 13.7594 15.179 13.6712 15.262 13.5438C15.3367 13.4263 15.4239 13.3479 15.5359 13.3039C15.6645 13.2549 15.8097 13.2696 15.9798 13.3577C16.3616 13.5487 16.7682 13.7594 17.2246 14.0092C17.5026 14.161 17.7889 14.161 18.0337 14.0092C18.2909 13.8524 18.4776 13.5537 18.5565 13.1618C18.6478 12.7259 18.6229 12.3047 18.5897 11.9863C18.5772 11.8835 18.5689 11.7708 18.5772 11.6826C18.6021 11.4133 18.6561 11.188 18.739 10.9969C18.793 10.8794 18.8303 10.8696 18.8594 10.8598C18.9341 10.8402 19.0419 10.8549 19.1623 10.8647H19.2162C19.6353 10.9137 20.0087 10.7667 20.295 10.4386C20.5439 10.1545 20.7307 9.78224 20.851 9.33653C20.9132 9.11122 20.9713 8.93 21.0418 8.78796V16.6736L20.1373 15.5765C19.9174 15.3071 19.5564 15.3071 19.3365 15.5765C19.2245 15.7087 19.1706 15.89 19.1706 16.0614C19.1706 16.2328 19.2245 16.414 19.3365 16.5512L21.0377 18.6181V23.4866L18.7722 20.7585C18.5523 20.4891 18.1914 20.4891 17.9714 20.7585C17.8594 20.8907 17.8055 21.072 17.8055 21.2434C17.8055 21.4149 17.8594 21.596 17.9714 21.7331L21.0335 25.4214V29.8931C21.0335 30.2751 21.2866 30.5837 21.5978 30.5837C21.909 30.5837 22.1663 30.2751 22.1663 29.8931V25.3528C22.2036 25.3233 22.2368 25.2939 22.27 25.2548L24.245 22.85C24.357 22.7177 24.411 22.5365 24.411 22.3601C24.411 22.1838 24.357 22.0075 24.245 21.8752C24.0251 21.6058 23.6641 21.6058 23.4442 21.8752L22.1704 23.423V18.6034L23.9628 16.4287C24.0749 16.2965 24.1288 16.1153 24.1288 15.9389C24.1288 15.7626 24.0749 15.5863 23.9628 15.4491C23.7429 15.1798 23.382 15.1798 23.1621 15.4491L22.1746 16.6491V8.85653C22.2202 8.91042 22.2576 8.96429 22.2824 9.01816C22.3903 9.23857 22.4775 9.50306 22.5439 9.82143C22.6185 10.1741 22.7555 10.4875 22.9463 10.7422C23.1745 11.041 23.6185 11.2516 23.9794 11.0508C24.0625 11.0067 24.1413 10.9528 24.2201 10.9039L24.2616 10.8794C24.5355 10.7079 24.7138 10.6443 24.884 10.6443C24.9503 10.6443 25.0085 10.6639 25.0707 10.7667C25.1122 10.8255 25.1413 10.9137 25.1744 11.0606C25.2408 11.3545 25.2657 11.6483 25.2574 11.9667C25.2574 12.0255 25.2533 12.0843 25.2491 12.1479C25.2325 12.4222 25.2076 12.7945 25.3487 13.1863L25.3736 13.2549L25.4068 13.3136C25.8674 14.1071 26.4399 13.8328 26.6308 13.7398C26.6806 13.7153 26.7263 13.6908 26.776 13.6663C26.8839 13.6124 26.9752 13.5634 27.0416 13.5537C27.0582 13.5537 27.0706 13.5537 27.0872 13.5537C27.1287 13.5537 27.1743 13.5537 27.2159 13.5438C27.3652 13.5243 27.4606 13.5683 27.5561 13.7153C27.6058 13.7936 27.6515 13.9112 27.6307 14.2736C27.6017 14.7487 27.5312 15.1553 27.4233 15.5177C27.2781 15.9879 27.0955 16.4042 26.8589 16.7912C26.6806 17.0851 26.4648 17.3495 26.2367 17.6336L26.1288 17.7659C25.9337 18.0108 25.7304 18.2606 25.5478 18.5593C25.3321 18.912 25.1579 19.2941 25.0334 19.6859C24.8882 20.1414 24.8425 20.5675 24.8923 20.9838C24.9214 21.2434 25.0459 21.6989 25.5395 21.8165C25.6681 21.8459 25.7843 21.8557 25.8881 21.8606C25.9503 21.8606 26.469 21.885 26.5561 21.885C26.7386 21.8948 26.9545 21.9144 27.1411 21.9928C27.3859 22.0956 27.5769 22.2524 27.7303 22.4678C27.8672 22.6638 27.8672 22.7862 27.8672 22.8255L27.8714 22.8206Z" fill="#00AEEF"/>
</g>
<defs>
<clipPath id="clip0_2700_72">
<rect width="42.8" height="62" fill="white"/>
</clipPath>
</defs>
</svg>
