<svg width="796" height="258" viewBox="0 0 796 258" fill="none" xmlns="http://www.w3.org/2000/svg">
<path d="M157.672 124.556C154.818 121.073 151.126 118.513 146.719 116.96C143.446 115.785 140.131 115.533 137.613 115.407C136.48 115.365 135.388 115.407 134.339 115.407C134.045 115.407 133.71 115.407 133.416 115.407C132.87 115.323 132.325 115.281 131.821 115.239C131.947 114.568 132.157 113.813 132.451 113.057C133.29 110.749 134.507 108.483 136.06 106.343C137.445 104.454 139.123 102.65 140.928 100.761L142.019 99.6282C144.495 97.0264 147.097 94.3406 149.363 91.1092C152.384 86.9126 154.818 82.2545 156.623 77.1766C158.134 72.9801 159.057 68.4058 159.435 63.1601C159.686 59.5511 159.645 54.1795 156.077 49.6472C152.678 45.3247 147.852 43.3104 142.565 43.9399C142.397 43.9399 142.229 43.9399 142.061 43.9399C141.725 43.9399 141.389 43.9399 141.054 43.9818C138.788 44.1917 136.857 44.989 135.304 45.6604C135.304 45.4087 135.304 45.1569 135.346 44.9051C135.388 44.1917 135.43 43.5202 135.472 42.8068C135.598 38.904 135.179 35.0851 134.213 31.4341C133.71 29.4198 132.829 26.8179 130.94 24.3839C128.212 20.9007 124.561 19.0542 120.365 18.9703H120.113C115.665 18.9703 111.888 20.6489 108.824 22.2856L108.405 22.4954C108.405 22.4954 108.279 22.5374 108.237 22.5794C107.985 22.1177 107.775 21.6142 107.649 21.0266C106.684 17.1238 105.383 13.8085 103.704 10.871C102.487 8.77267 100.851 6.88422 98.7944 5.2056C95.647 2.68766 91.8281 -0.0820698 86.4985 0.00186142C81.5465 0.0857926 77.4339 1.89031 74.2445 5.37346C71.181 8.73071 69.7542 12.6755 68.6631 16.1167C68.0756 17.9631 67.1943 19.4739 66.1451 20.523C65.8933 20.7748 65.4317 21.2365 63.9629 21.0686H63.4593C61.6968 20.8588 59.5146 20.6489 57.0806 21.1525C53.2197 21.9499 50.1143 24.4678 48.058 28.3706C46.4633 31.3921 45.4561 34.8753 45.0784 38.7361C44.8686 40.7085 45.0364 42.513 45.2463 44.1917C45.4141 45.7444 45.4981 47.0033 45.4561 48.0105C41.5113 46.206 37.9023 44.6113 34.4611 43.1845C30.2226 41.38 26.1099 41.1282 22.2491 42.4291C18.9338 43.5622 16.1221 45.6185 13.9399 48.5561C11.9256 51.2838 10.7505 54.2214 10.4987 57.3689C10.4148 58.5439 10.3309 59.8448 10.5827 61.2717C10.6666 61.7333 10.7505 62.2369 10.8345 62.6985C11.1702 64.8387 11.5479 67.021 12.2193 69.3291C12.8488 71.4693 14.1917 76.715 14.1917 76.757C15.115 80.45 16.5418 83.7652 17.9267 86.9126L18.3883 87.9198C20.1089 91.9066 22.2071 95.5995 24.1795 99.1246C24.6831 100.048 25.2287 100.971 25.7323 101.894C26.5716 103.447 27.4948 104.958 28.3341 106.385C29.719 108.735 31.0199 110.917 32.153 113.183C32.2789 113.435 32.4048 113.687 32.5307 113.98C29.1734 113.603 25.8582 113.603 22.7947 113.645C17.2132 113.729 12.0515 115.491 7.43525 118.848C5.63073 120.149 4.16193 121.702 3.11279 123.381C-0.0346289 127.955 -0.831975 133.285 0.888615 138.824C2.48331 144.07 5.79859 147.553 8.69422 150.616L8.86208 150.784C9.99515 152.001 11.5059 153.512 13.3524 154.855C15.5346 156.911 17.8427 158.422 20.0669 159.891L21.116 160.604C22.8786 161.779 24.6831 162.745 26.4037 163.626C27.2011 164.045 27.9564 164.465 28.7118 164.885C30.6842 165.976 32.6566 167.109 34.587 168.242L37.5666 169.963C39.4131 171.012 41.1336 171.977 42.8542 173.026C44.6168 174.075 46.2954 175.25 47.8062 176.509C46.6311 176.761 45.4561 177.055 44.2811 177.349L43.4837 177.558C42.9801 177.684 42.4765 177.852 42.0569 178.146C38.8255 179.195 36.0978 181.042 33.8736 183.601C31.1878 186.749 29.9708 190.736 30.3485 194.89C30.7681 199.297 32.9503 203.325 36.3496 206.011C39.6229 208.571 42.8962 210.585 46.3374 212.138C48.1839 212.977 50.0303 213.691 51.8349 214.362C52.7581 214.698 53.6394 215.034 54.5207 215.411C55.6957 215.873 56.8707 216.335 58.0458 216.754C60.27 217.594 62.3682 218.391 64.3826 219.314C63.837 219.692 63.2915 220.153 62.7459 220.615C58.8431 224.014 57.3324 229.47 58.9271 234.422C60.3539 238.87 62.62 242.815 65.5996 246.172C66.4809 247.137 67.7818 248.606 69.6283 249.697C69.7542 249.823 69.8801 249.907 70.006 250.033C70.4256 250.453 71.0132 250.998 71.7685 251.502C74.874 253.684 78.3571 255.824 82.4698 256.915C82.8055 256.999 83.351 257.041 84.0645 257.041C88.303 257.041 97.9131 255.279 101.354 252.803C105.047 250.159 108.069 247.305 110.587 244.074C114.657 238.828 116.924 233.079 117.217 226.868C117.469 222.42 115.916 218.475 112.937 215.747C112.014 214.908 111.006 214.32 109.999 213.859C111.342 213.145 112.769 212.516 114.238 211.844C115.245 211.383 116.21 210.963 117.217 210.501C118.099 210.082 119.022 209.662 119.903 209.284C123.89 207.48 127.96 205.633 131.737 202.402C135.766 198.961 138.074 194.471 138.452 189.435C138.704 186.161 137.948 181.377 132.954 177.265C128.8 173.823 124.142 172.816 119.693 172.103C119.148 172.019 118.602 171.935 118.057 171.893C118.308 171.725 118.56 171.557 118.854 171.389L119.106 171.222C119.777 170.802 120.407 170.34 121.078 169.879C122.043 169.207 122.967 168.578 123.89 168.074C125.191 167.361 126.785 166.773 128.422 166.186L129.345 165.85C132.367 164.759 135.304 163.584 137.487 162.703C141.264 161.15 144.537 159.471 147.516 157.499C151 155.191 153.601 152.967 155.742 150.491C159.812 145.706 161.827 140.838 161.827 135.593C161.827 131.648 160.442 127.955 157.63 124.556M150.412 135.551C150.412 137.775 149.447 139.873 147.265 142.391C145.838 144.028 143.991 145.581 141.473 147.259C139.123 148.812 136.48 150.155 133.374 151.414C131.276 152.253 128.464 153.386 125.652 154.393L124.771 154.687C122.841 155.359 120.658 156.156 118.518 157.331C117.175 158.086 115.958 158.926 114.825 159.723C114.28 160.101 113.692 160.478 113.147 160.856L112.895 161.024C110.671 162.451 108.111 164.087 105.887 166.437L105.803 166.521C104.712 167.654 103.033 169.417 102.361 172.229C101.732 174.956 102.152 177.558 103.578 179.657C104.628 181.209 106.684 183.098 110.545 183.434C111.384 183.517 112.265 183.559 113.105 183.601C114.825 183.727 116.42 183.811 117.931 184.063C121.078 184.567 123.848 185.112 125.862 186.791C127.079 187.798 127.037 188.26 126.995 188.511C126.911 189.602 126.576 191.239 124.477 193.044C121.959 195.226 118.728 196.653 115.371 198.205C114.406 198.625 113.44 199.087 112.517 199.506C111.636 199.926 110.713 200.346 109.789 200.765C107.062 201.982 104.25 203.241 101.522 205.046C92.9612 210.753 92.7094 214.74 92.6255 216.083C92.4576 218.811 93.129 221.035 94.6398 222.671C96.1086 224.308 98.1649 225.147 100.725 225.063H101.984C102.781 225.021 103.62 225.021 104.46 224.98C105.089 224.98 105.425 225.021 105.551 225.063C105.677 225.189 105.803 225.483 105.761 226.197C105.593 229.806 104.25 233.121 101.732 236.352C99.9275 238.66 97.7033 240.759 94.9336 242.731C93.3808 243.612 87.128 244.745 84.568 244.955C82.4698 244.284 80.4135 242.983 78.0214 241.346C77.8536 241.22 77.7277 241.094 77.6018 240.968C77.0142 240.423 76.2589 239.667 75.1258 239.08C74.832 238.912 74.2445 238.241 73.8668 237.821C71.9784 235.723 70.6355 233.331 69.7122 230.477C69.6283 230.225 69.8801 229.973 69.964 229.889C70.5935 229.344 71.3908 228.798 72.3141 228.211C72.7337 227.959 73.1534 227.665 73.5731 227.372C77.7277 224.56 79.1964 219.608 77.1401 215.034C75.6713 211.76 73.2373 210.417 71.7266 209.578C68.4113 207.732 65.054 206.473 61.7807 205.256C60.6476 204.836 59.5565 204.416 58.4235 203.955C57.4583 203.577 56.4931 203.199 55.5278 202.822C53.8492 202.192 52.2545 201.563 50.7438 200.891C48.0999 199.674 45.582 198.122 43.0221 196.149C42.2247 195.52 41.6792 194.554 41.5953 193.547C41.5113 192.792 41.7212 192.162 42.2247 191.575C43.148 190.526 44.2811 189.812 45.7079 189.435L47.0088 189.099L47.2187 188.889C48.2258 188.637 49.275 188.385 50.2821 188.176C51.0795 188.008 51.8349 187.882 52.6322 187.714C53.2197 187.588 53.8492 187.504 54.4367 187.378C58.5494 186.581 61.6548 183.14 61.7807 179.153C61.8647 177.097 61.3611 175.04 60.27 172.984C59.011 170.592 57.3324 169.039 55.7377 167.654C53.5135 165.724 51.0375 163.962 48.4357 162.367C46.5892 161.234 44.7007 160.143 42.8542 159.135L39.9166 157.457C37.9443 156.324 35.9299 155.149 33.9156 154.058C33.0762 153.596 32.195 153.134 31.3556 152.673C29.8029 151.875 28.3761 151.078 27.0752 150.239L25.9421 149.525C23.9277 148.224 22.0812 146.965 20.5705 145.539L20.2767 145.245L19.941 144.993C18.766 144.154 17.6329 143.021 16.7936 142.139L16.6257 141.972C14.3596 139.579 12.3872 137.523 11.6318 135.047C10.9604 132.865 11.38 131.648 12.2613 130.431L12.5131 130.053C12.7649 129.634 13.2265 129.214 13.814 128.752C16.5418 126.78 19.5633 125.731 22.8366 125.689C26.068 125.647 29.5511 125.689 32.8664 126.192C34.8388 126.486 36.9371 126.276 38.9934 125.563C42.3087 124.388 45.7499 120.737 44.5329 114.19C44.1132 112.008 43.3578 109.784 42.2667 107.602C40.9238 104.916 39.455 102.398 38.0282 99.964C37.1889 98.5791 36.3915 97.1942 35.5942 95.7674C35.0486 94.8022 34.545 93.8789 33.9995 92.9137C32.0691 89.4725 30.2226 86.2412 28.7538 82.842L28.2922 81.7928C27.0752 78.9392 25.9001 76.2953 25.1867 73.5676C25.1447 73.3578 23.7599 68.0701 23.0884 65.72C22.6268 64.1673 22.375 62.4467 22.0812 60.6422C21.9973 60.1386 21.9134 59.635 21.8295 59.1734C21.8295 59.0894 21.8295 58.8377 21.8295 58.46C21.8714 57.9144 22.0393 57.159 22.8786 56.0679C23.634 55.0607 24.5153 54.3893 25.6483 54.0116C26.9493 53.5919 28.4181 53.7178 30.1386 54.4732C33.9995 56.1099 38.1121 57.9144 42.7283 60.0547C45.54 61.3556 48.4357 61.3556 50.9116 60.0547C53.5135 58.7118 55.4019 56.1519 56.1993 52.7946C57.1225 49.0597 56.8707 45.4506 56.535 42.7229C56.4091 41.8416 56.3252 40.8764 56.4091 40.121C56.6609 37.8129 57.2065 35.8825 58.0458 34.2458C58.5913 33.2386 58.969 33.1547 59.2628 33.0708C60.0182 32.9029 61.1093 33.0288 62.3263 33.1127H62.8718C67.1104 33.5324 70.8873 32.2734 73.7829 29.4617C76.3008 27.0277 78.1893 23.8383 79.4063 20.0195C80.0358 18.089 80.6233 16.5363 81.3367 15.3193V82.8839L72.1882 73.4837C69.964 71.1755 66.313 71.1755 64.0888 73.4837C62.9558 74.6167 62.4102 76.1695 62.4102 77.6383C62.4102 79.107 62.9558 80.6598 64.0888 81.8348L81.2947 99.5443V141.258L58.3815 117.883C56.1573 115.575 52.5063 115.575 50.2821 117.883C49.1491 119.016 48.6035 120.569 48.6035 122.038C48.6035 123.507 49.1491 125.059 50.2821 126.234L81.2528 157.835V196.149C81.2528 199.422 83.8127 202.066 86.9601 202.066C90.1075 202.066 92.7094 199.422 92.7094 196.149V157.247C93.0871 156.995 93.4228 156.743 93.7585 156.408L113.734 135.803C114.867 134.67 115.413 133.117 115.413 131.606C115.413 130.095 114.867 128.585 113.734 127.451C111.51 125.143 107.859 125.143 105.635 127.451L92.7514 140.713V99.4184L110.88 80.7857C112.014 79.6526 112.559 78.0999 112.559 76.5891C112.559 75.0783 112.014 73.5676 110.88 72.3925C108.656 70.0844 105.005 70.0844 102.781 72.3925L92.7933 82.6741V15.9068C93.2549 16.3685 93.6326 16.8301 93.8844 17.2917C94.9755 19.1801 95.8568 21.4463 96.5283 24.1741C97.2836 27.1956 98.6685 29.8814 100.599 32.0636C102.907 34.6235 107.397 36.428 111.048 34.7074C111.888 34.3297 112.685 33.8681 113.482 33.4485L113.902 33.2386C116.672 31.7698 118.476 31.2243 120.197 31.2243C120.868 31.2243 121.456 31.3921 122.085 32.2734C122.505 32.777 122.799 33.5324 123.134 34.7914C123.806 37.3093 124.058 39.8272 123.974 42.555C123.974 43.0586 123.932 43.5622 123.89 44.1077C123.722 46.4578 123.47 49.6472 124.897 53.0044L125.149 53.5919L125.485 54.0955C130.143 60.894 135.934 58.5439 137.864 57.7465C138.368 57.5367 138.83 57.3269 139.333 57.1171C140.424 56.6554 141.348 56.2358 142.019 56.1519C142.187 56.1519 142.313 56.1519 142.481 56.1519C142.9 56.1519 143.362 56.1519 143.782 56.0679C145.292 55.9001 146.257 56.2777 147.223 57.5367C147.726 58.2082 148.188 59.2153 147.978 62.3208C147.684 66.3915 146.971 69.8746 145.88 72.9801C144.411 77.0088 142.565 80.5758 140.172 83.8911C138.368 86.4091 136.186 88.6752 133.878 91.1092L132.787 92.2423C130.814 94.3406 128.758 96.4808 126.911 99.0407C124.729 102.062 122.967 105.336 121.708 108.693C120.239 112.596 119.777 116.247 120.281 119.814C120.575 122.038 121.834 125.941 126.827 126.948C128.128 127.2 129.303 127.284 130.353 127.326C130.982 127.326 136.228 127.535 137.109 127.535C138.955 127.619 141.138 127.787 143.026 128.459C145.502 129.34 147.433 130.683 148.985 132.529C150.37 134.208 150.37 135.257 150.37 135.593L150.412 135.551Z" fill="#000000"/>
<path d="M380.636 172.226C377.614 169.834 374.047 168.617 369.934 168.617C367.542 168.617 365.402 168.995 363.472 169.708C361.541 170.464 359.695 171.345 357.974 172.394C356.212 173.443 355.204 173.947 354.911 173.947C354.197 173.947 353.819 173.233 353.819 171.849C353.819 170.674 353.652 169.918 353.316 169.498C352.98 169.079 352.225 168.869 351.05 168.869C349.077 168.869 346.517 169.205 343.412 169.792C340.307 170.422 337.201 171.261 334.096 172.352C330.99 173.443 328.43 174.702 326.332 176.171C324.276 177.64 323.227 179.151 323.227 180.745C323.227 182.34 323.604 183.557 324.402 184.228C325.199 184.858 326.206 185.319 327.507 185.613C328.808 185.865 329.563 186.159 329.857 186.411C330.571 187.124 330.948 191.53 330.948 199.588V205.043C330.948 213.73 330.487 219.06 329.563 220.99C329.102 221.997 328.179 222.837 326.836 223.634C325.493 224.389 324.611 224.935 324.276 225.271C323.898 225.565 323.73 226.362 323.73 227.621C323.73 229.258 324.779 230.894 326.92 232.447C329.06 234 331.913 235.217 335.564 236.14C339.215 237.063 343.16 237.525 347.441 237.525C350.504 237.525 353.442 237.105 356.212 236.224C358.981 235.343 360.324 233.706 360.324 231.272C360.324 230.223 360.114 229.467 359.695 229.048C359.275 228.628 358.52 228.04 357.429 227.369C356.337 226.698 355.54 225.942 354.995 225.103C354.449 224.264 354.197 223.005 354.197 221.284C354.197 219.186 354.743 218.137 355.792 218.137C355.96 218.137 356.757 218.388 358.1 218.892C359.485 219.396 360.786 219.815 362.045 220.151C363.304 220.445 364.605 220.613 365.99 220.613C369.473 220.613 372.662 219.815 375.642 218.304C378.579 216.752 381.139 214.653 383.279 212.01C385.42 209.366 387.056 206.386 388.189 203.113C389.322 199.84 389.91 196.524 389.91 193.209C389.91 189.264 389.155 185.361 387.56 181.543C386.007 177.724 383.699 174.618 380.677 172.226M358.394 207.268C356.631 207.268 355.33 206.932 354.533 206.218C353.736 205.547 353.358 204.372 353.358 202.819C353.358 196.818 353.484 192.454 353.778 189.726C354.071 187.04 354.533 185.278 355.162 184.48C355.792 183.683 356.799 183.263 358.1 183.263C360.03 183.263 361.499 183.935 362.59 185.278C363.681 186.578 364.395 188.215 364.773 190.146C365.15 192.076 365.318 193.964 365.318 195.853C365.318 203.449 363.01 207.226 358.394 207.226V207.268Z" fill="#000000"/>
<path d="M464.363 179.783C465.202 179.238 465.832 178.692 466.335 178.188C466.797 177.685 467.133 176.72 467.301 175.335C466.965 173.153 466 171.642 464.489 170.76C462.978 169.879 461.216 169.376 459.201 169.208C457.187 169.082 455.466 168.998 454.082 168.914C453.746 168.914 453.242 168.914 452.655 168.872C452.067 168.872 451.648 168.83 451.396 168.83C448.542 168.83 446.192 169.124 444.471 169.711C442.751 170.257 441.366 171.18 440.275 172.355C439.226 173.572 438.26 175.209 437.379 177.265C436.456 179.531 435.491 181.588 434.484 183.434C433.476 185.281 432.092 187.715 430.245 190.736C429.993 191.03 429.783 191.156 429.574 191.156C429.322 191.156 429.112 190.988 428.944 190.652C427.307 187.211 425.671 183.812 424.034 180.497C422.439 177.181 421.18 174.873 420.341 173.53C419.418 171.894 418.159 170.677 416.69 169.963C415.179 169.25 412.661 168.872 409.136 168.872C408.885 168.872 408.465 168.872 407.877 168.914C407.29 168.914 406.87 168.956 406.576 168.956C402.967 169.124 400.282 169.292 398.561 169.502C396.84 169.711 395.288 170.299 393.861 171.222C392.476 172.187 391.763 173.656 391.763 175.629C391.763 176.762 392.392 177.811 393.567 178.902C394.784 179.951 395.665 180.958 396.295 181.881C396.924 182.805 397.218 184.567 397.218 187.085C397.218 188.764 397.134 191.785 397.092 196.15C397.092 200.514 396.966 204.081 396.798 206.851C396.715 207.942 396.295 208.865 395.456 209.747C394.658 210.586 393.819 211.467 392.98 212.348C392.098 213.23 391.637 214.237 391.553 215.37C391.637 217.007 392.812 218.308 395.078 219.273C397.302 220.238 399.736 220.742 402.38 220.742C405.779 220.742 408.591 220.406 410.773 219.65C412.955 218.937 414.088 217.426 414.172 215.16C414.172 214.363 413.92 213.691 413.375 213.146C412.829 212.6 412.116 212.013 411.109 211.383C410.102 210.712 409.346 210.124 408.843 209.579C408.297 209.033 408.003 208.362 407.919 207.522C407.71 205.256 407.626 201.437 407.626 196.108C407.626 195.562 407.835 195.268 408.213 195.268C408.549 195.268 408.843 195.478 409.01 195.856C413.585 204.585 415.935 208.949 415.935 208.949C417.32 212.013 418.537 214.279 419.502 215.79C420.467 217.3 421.264 218.224 421.936 218.559C422.607 218.895 423.405 219.105 424.37 219.105C425.587 219.105 426.72 218.224 427.727 216.419C428.776 214.615 430.245 211.677 432.175 207.522C435.029 201.563 436.918 197.786 437.841 196.192C438.26 195.436 438.68 195.059 439.016 195.059C439.477 195.059 439.687 195.394 439.687 196.066C439.897 198.877 439.981 201.144 439.981 202.822C439.981 205.004 439.771 207.145 439.352 209.201C439.268 209.872 438.89 210.502 438.26 211.089C437.631 211.719 436.96 212.306 436.288 212.936C435.659 213.523 435.239 214.237 435.071 214.992C435.071 217.342 436.078 218.895 438.009 219.65C439.981 220.406 442.709 220.784 446.192 220.784C446.863 220.784 447.745 220.784 448.962 220.742C450.137 220.742 450.976 220.7 451.438 220.7C455.592 220.7 459.243 220.238 462.391 219.315C465.538 218.391 467.133 216.881 467.133 214.698C467.133 213.901 466.965 213.272 466.629 212.768C466.293 212.223 465.79 211.677 465.118 211.047C464.447 210.418 463.943 209.83 463.566 209.327C463.188 208.823 463.02 208.194 462.936 207.522C462.475 200.892 462.265 196.066 462.265 193.044C462.265 189.435 462.475 185.532 462.852 181.378C462.894 180.832 463.356 180.245 464.195 179.741" fill="#000000"/>
<path d="M315.258 175.418C313.285 173.278 310.726 171.515 307.662 170.131C304.557 168.746 301.032 168.074 296.961 168.074C292.051 168.074 287.477 169.249 283.154 171.557C278.874 173.907 275.433 177.097 272.915 181.209C270.355 185.322 269.096 189.896 269.096 194.974C269.096 199.464 270.145 203.703 272.201 207.732C274.299 211.76 277.405 214.992 281.518 217.468C285.63 219.944 290.498 221.203 296.164 221.203C299.269 221.203 302.626 220.615 306.235 219.398C309.844 218.181 312.866 216.545 315.384 214.488C317.86 212.432 319.119 210.166 319.119 207.732C319.119 206.641 318.699 205.55 317.902 204.374C317.104 203.241 316.181 202.654 315.258 202.654C314.754 202.654 313.789 203.116 312.278 204.039C310.768 204.962 309.257 205.717 307.662 206.305C306.109 206.934 304.263 207.228 302.081 207.228C300.528 207.228 298.849 206.808 297.087 205.927C295.366 205.046 293.897 203.913 292.722 202.486C291.547 201.059 290.96 199.506 290.96 197.912C290.96 197.282 291.17 196.905 291.547 196.737C291.925 196.569 292.638 196.485 293.646 196.485H315.174C317.104 196.485 318.615 195.981 319.706 194.974C320.797 193.967 321.343 191.953 321.343 188.889C321.343 186.875 320.839 184.651 319.832 182.259C318.825 179.867 317.314 177.6 315.342 175.418M301.241 186.161C300.57 186.539 299.647 186.749 298.43 186.749H296.331C296.038 186.749 295.618 186.749 295.072 186.791C294.527 186.791 294.107 186.833 293.855 186.833C291.547 186.833 290.372 185.868 290.372 183.895C290.372 182.217 290.96 180.706 292.177 179.321C293.352 177.936 294.737 177.223 296.331 177.223C298.136 177.223 299.605 177.81 300.612 179.027C301.661 180.244 302.165 181.797 302.165 183.685C302.165 184.902 301.829 185.742 301.199 186.119L301.241 186.161Z" fill="#000000"/>
<path d="M558.322 181.291C558.699 180.62 559.455 179.738 560.504 178.605C561.553 177.472 562.057 176.339 562.057 175.206C562.057 173.528 560.965 172.143 558.783 170.968C556.559 169.793 551.607 169.205 543.843 169.205C535.324 169.205 531.086 171.01 531.086 174.619C531.086 175.374 531.17 175.962 531.38 176.297C531.59 176.633 531.967 177.179 532.555 177.85C533.142 178.521 533.604 179.277 533.94 180.032C534.233 180.788 534.443 181.837 534.527 183.138C534.863 188.132 535.031 192.622 535.031 196.693C535.031 200.763 534.863 204.33 534.527 207.142C534.401 208.275 534.191 209.156 533.898 209.786C533.604 210.415 533.142 211.087 532.597 211.8C532.051 212.472 531.673 213.059 531.422 213.521C531.212 213.982 531.086 214.612 531.086 215.409C531.086 219.018 535.366 220.823 543.843 220.823C551.649 220.823 556.643 220.235 558.825 219.06C561.007 217.885 562.099 216.458 562.099 214.78C562.099 213.647 561.595 212.514 560.588 211.464C559.581 210.373 558.825 209.492 558.406 208.779C557.944 208.065 557.692 206.596 557.566 204.33V185.656C557.734 183.389 557.986 181.921 558.406 181.291" fill="#000000"/>
<path d="M520.47 188.929C517.197 187.628 513.546 186.999 509.517 186.999C508.552 186.999 507.083 187.082 505.027 187.208C502.971 187.334 501.628 187.418 500.998 187.418C500.746 187.418 500.62 186.831 500.62 185.572C500.62 185.32 500.62 184.9 500.662 184.313C500.662 183.725 500.704 183.264 500.704 182.97C500.914 181.795 501.208 180.913 501.628 180.284C502.047 179.655 502.635 179.067 503.306 178.563C503.978 178.06 504.481 177.64 504.775 177.262C505.069 176.885 505.237 176.339 505.237 175.542C505.237 171.471 500.075 169.373 489.751 169.205C484.925 169.205 481.023 169.583 478.001 170.296C475.021 171.052 473.511 172.688 473.511 175.332C473.511 176.004 473.679 176.675 474.056 177.262C474.392 177.85 474.938 178.605 475.693 179.445C476.406 180.284 477.036 181.039 477.455 181.711C477.875 182.382 478.127 183.054 478.169 183.767C478.505 189.181 478.672 193.167 478.672 195.811C478.672 198.665 478.505 202.232 478.169 206.554C478.085 207.268 477.917 207.897 477.539 208.359C477.204 208.863 476.616 209.576 475.819 210.457C475.021 211.339 474.434 212.178 474.014 212.975C473.595 213.773 473.385 214.654 473.385 215.619C473.385 218.641 477.162 220.151 484.715 220.151C488.157 220.151 491.346 220.151 494.2 220.277C497.053 220.361 499.865 220.487 502.635 220.613C505.405 220.781 506.957 220.823 507.335 220.823C511.406 220.823 515.224 220.235 518.834 219.102C522.443 217.969 525.38 216.165 527.646 213.647C529.912 211.171 531.046 208.065 531.046 204.33C531.046 200.595 530.08 197.322 528.192 194.72C526.303 192.118 523.702 190.146 520.47 188.887M506.957 209.03C505.95 210.164 504.649 210.709 503.138 210.709C502.551 210.709 502.047 210.457 501.586 209.996C501.124 209.534 500.872 208.947 500.746 208.317C500.537 207.016 500.453 205.421 500.453 203.617C500.453 201.812 500.537 200.05 500.746 198.581C500.788 198.077 501.04 197.574 501.418 197.07C501.837 196.609 502.257 196.357 502.719 196.357C504.271 196.357 505.572 197.028 506.747 198.413C507.88 199.756 508.468 201.686 508.468 204.079C508.468 206.261 507.964 207.897 506.915 209.03H506.957Z" fill="#000000"/>
<path d="M274.547 168.324C274.547 165.092 273.834 162.113 272.491 159.343C271.106 156.573 269.47 154.391 267.539 152.754C265.609 151.16 263.972 150.32 262.629 150.32C261.622 150.32 260.279 150.53 258.559 151.034C256.208 151.495 253.607 151.705 250.837 151.705H226.455C223.811 151.705 220.999 151.495 217.936 151.034C215.67 150.572 214.453 150.32 214.243 150.32C212.438 150.32 210.508 151.327 208.494 153.342C206.479 155.356 204.801 157.874 203.458 160.896C202.115 163.917 201.443 166.729 201.443 169.373C201.443 171.219 201.989 172.856 203.164 174.241C204.297 175.668 205.808 176.381 207.612 176.381C209.417 176.381 211.012 175.877 212.354 174.828C213.739 173.779 215.166 172.226 216.677 170.17C218.188 168.114 219.237 166.729 219.866 166.015C220.496 165.302 221.293 164.966 222.258 164.966C223.224 164.966 223.937 165.386 224.482 166.267C225.028 167.107 225.322 169.289 225.322 172.73V175.08L224.524 196.524C224.315 201.77 223.811 205.211 223.056 206.806C222.552 207.771 221.377 208.611 219.531 209.24C217.684 209.911 216.467 210.415 215.838 210.793C215.208 211.17 214.914 212.094 214.914 213.562C214.914 218.431 222.762 220.865 238.499 220.865C246.724 220.865 252.18 220.151 254.866 218.766C257.593 217.381 258.894 215.661 258.894 213.604C258.894 211.842 257.803 210.415 255.621 209.45C253.439 208.443 251.928 207.603 251.047 206.848C250.207 206.093 249.746 204.078 249.746 200.805V171.009C249.746 166.981 250.921 165.008 253.187 165.008C254.32 165.008 255.201 165.428 255.831 166.267C256.46 167.107 257.342 168.491 258.475 170.464C259.608 172.436 260.783 173.905 262 174.954C263.217 175.961 264.811 176.507 266.742 176.507C269.218 176.507 271.106 175.793 272.407 174.325C273.708 172.856 274.38 170.925 274.38 168.449" fill="#000000"/>
<path d="M534.234 56.7361C534.234 56.7361 533.94 57.1138 533.688 57.4076C533.436 57.7013 533.226 57.9531 533.1 58.2469C532.975 58.4987 532.891 58.7924 532.891 59.0862C532.891 60.0514 534.108 60.555 536.584 60.555C537.717 60.555 538.766 60.555 539.689 60.597C540.612 60.597 541.536 60.6809 542.459 60.7229C543.34 60.7648 543.886 60.8068 544.011 60.8068C545.354 60.8068 546.613 60.6389 547.788 60.2612C548.963 59.8835 549.929 59.296 550.684 58.4987C551.439 57.7013 551.775 56.6942 551.775 55.4771C551.775 54.2601 551.481 53.211 550.852 52.3297C550.222 51.4904 549.383 50.8609 548.334 50.3993C547.285 49.9797 546.068 49.7698 544.767 49.7698C544.473 49.7698 543.97 49.7698 543.298 49.8538C542.627 49.8538 542.207 49.9377 541.997 49.9377C541.913 49.9377 541.871 49.7279 541.871 49.3502C541.871 49.2662 541.871 49.1403 541.871 48.9305C541.871 48.7207 541.871 48.5948 541.871 48.5109C541.955 48.1332 542.039 47.8394 542.165 47.6296C542.291 47.4198 542.501 47.2519 542.711 47.084C542.92 46.9162 543.088 46.7903 543.172 46.6644C543.256 46.5385 543.298 46.3706 543.298 46.1188C543.298 44.7759 541.619 44.1045 538.22 44.0625C536.626 44.0625 535.367 44.1884 534.401 44.4402C533.436 44.692 532.933 45.2375 532.933 46.0768C532.933 46.2867 532.975 46.4965 533.1 46.7063C533.226 46.9162 533.394 47.126 533.646 47.4198C533.898 47.7135 534.066 47.9233 534.234 48.1751C534.359 48.385 534.443 48.6368 534.485 48.8466C534.611 50.6091 534.653 51.9101 534.653 52.7913C534.653 53.7146 534.611 54.8896 534.485 56.2745C534.485 56.5263 534.401 56.6942 534.275 56.862M541.829 53.5467C541.829 53.5467 541.913 53.211 542.039 53.0431C542.165 52.8753 542.333 52.7913 542.459 52.7913C542.962 52.7913 543.382 53.0012 543.76 53.4628C544.137 53.8825 544.305 54.5119 544.305 55.3093C544.305 56.0227 544.137 56.5683 543.802 56.904C543.466 57.2817 543.046 57.4495 542.543 57.4495C542.375 57.4495 542.207 57.3656 542.039 57.2397C541.871 57.0718 541.787 56.904 541.787 56.6942C541.703 56.2745 541.703 55.7709 541.703 55.1414C541.703 54.5119 541.703 53.9664 541.787 53.5048L541.829 53.5467Z" fill="#000000"/>
<path d="M512.664 47.3816C512.915 47.5914 513.125 47.8432 513.251 48.053C513.377 48.3048 513.461 48.6825 513.503 49.2281C513.587 50.1933 513.587 51.1165 513.587 51.9978C513.587 53.1309 513.587 54.222 513.503 55.3131C513.503 56.1104 513.377 56.656 513.251 56.8658C513.125 57.1176 512.831 57.4114 512.496 57.7891C512.16 58.1667 511.95 58.5864 511.95 59.0061C511.95 60.0972 512.747 60.6007 514.3 60.6007C514.93 60.6007 515.811 60.6008 516.944 60.5588C518.077 60.5588 518.916 60.5168 519.504 60.5168C520.007 60.5168 520.847 60.5168 521.896 60.5588C522.987 60.5588 523.826 60.6007 524.456 60.6007C527.016 60.6007 528.82 60.0972 529.953 59.048C531.044 57.9989 531.59 56.7399 531.59 55.1872C531.59 54.4738 531.38 53.8443 531.003 53.2987C530.625 52.7532 530.163 52.2916 529.618 51.9139C529.072 51.5781 528.61 51.3264 528.191 51.2005C528.652 50.9487 529.072 50.529 529.45 49.8576C529.827 49.1861 529.995 48.5566 529.995 47.9271C529.995 45.2413 527.855 43.8984 523.533 43.8984C523.071 43.8984 522.441 43.8984 521.602 43.9824C520.763 44.0243 520.175 44.0663 519.756 44.0663C519.126 44.0663 518.245 44.0663 517.112 43.9824C516.021 43.9404 515.098 43.8984 514.426 43.8984C513.881 43.8984 513.293 44.0663 512.705 44.402C512.118 44.7377 511.824 45.1574 511.824 45.661C511.824 46.1226 511.866 46.4583 511.992 46.7101C512.118 46.92 512.286 47.1298 512.58 47.3816M520.889 47.5494C520.889 47.5494 520.973 47.1718 521.099 47.0459C521.266 46.92 521.392 46.836 521.476 46.836C521.98 46.836 522.358 47.0459 522.651 47.5075C522.945 47.9271 523.113 48.4307 523.113 48.9343C523.113 49.5218 522.945 49.9835 522.567 50.3611C522.232 50.7388 521.812 50.9067 521.392 50.9067C521.308 50.9067 521.183 50.8228 521.057 50.6969C520.931 50.529 520.889 50.4031 520.889 50.1933V47.5914V47.5494ZM521.686 53.4246C523.113 53.4246 523.784 54.138 523.784 55.5649C523.784 56.0685 523.617 56.5301 523.239 56.9917C522.861 57.4533 522.442 57.6632 521.98 57.6632C521.602 57.6632 521.35 57.5373 521.183 57.2435C521.015 56.9497 520.931 56.4042 520.931 55.6068C520.931 54.138 521.183 53.4246 521.686 53.4246Z" fill="#000000"/>
<path d="M468.973 49.39C469.392 49.474 469.644 49.5579 469.728 49.6418C469.98 49.8936 470.064 51.3204 470.064 54.0062V55.8108C470.064 58.6644 469.896 60.427 469.602 61.0565C469.434 61.3922 469.141 61.6859 468.721 61.9377C468.259 62.1895 468.008 62.3574 467.882 62.4833C467.756 62.5672 467.714 62.861 467.714 63.2806C467.714 63.8262 468.05 64.3717 468.763 64.8753C469.476 65.3789 470.4 65.7986 471.575 66.0923C472.75 66.3861 474.051 66.554 475.435 66.554C476.443 66.554 477.408 66.4281 478.289 66.1343C479.17 65.8405 479.632 65.295 479.632 64.4976C479.632 64.1619 479.548 63.9101 479.422 63.7423C479.296 63.6164 479.044 63.4065 478.709 63.1967C478.331 62.9869 478.079 62.7351 477.911 62.4413C477.744 62.1476 477.66 61.7699 477.66 61.1824C477.66 60.4689 477.827 60.1332 478.163 60.1332C478.205 60.1332 478.457 60.2172 478.919 60.385C479.38 60.5529 479.8 60.6788 480.22 60.8047C480.639 60.8886 481.059 60.9725 481.52 60.9725C482.654 60.9725 483.703 60.7207 484.668 60.2172C485.633 59.7136 486.472 59.0001 487.144 58.1189C487.857 57.2376 488.361 56.2724 488.739 55.1813C489.116 54.0902 489.284 52.9991 489.284 51.908C489.284 50.607 489.032 49.3061 488.529 48.0471C488.025 46.7882 487.27 45.781 486.305 44.9836C485.297 44.1863 484.164 43.8086 482.821 43.8086C482.024 43.8086 481.353 43.9345 480.723 44.1863C480.094 44.4381 479.464 44.7318 478.919 45.0676C478.331 45.4033 477.995 45.5711 477.911 45.5711C477.66 45.5711 477.534 45.3613 477.534 44.8997C477.534 44.522 477.492 44.2702 477.366 44.1024C477.24 43.9765 476.988 43.8925 476.61 43.8925C475.981 43.8925 475.142 43.9765 474.135 44.1863C473.127 44.3961 472.12 44.6899 471.113 45.0256C470.106 45.4033 469.267 45.8229 468.595 46.2846C467.924 46.7462 467.588 47.2498 467.588 47.7953C467.588 48.3409 467.714 48.7186 467.966 48.9284C468.217 49.1382 468.553 49.3061 468.973 49.39ZM477.576 50.7329C477.66 49.8516 477.827 49.2641 478.037 49.0123C478.247 48.7605 478.583 48.5927 479.003 48.5927C479.632 48.5927 480.136 48.8025 480.471 49.2641C480.807 49.6838 481.059 50.2293 481.185 50.8588C481.311 51.4883 481.353 52.1178 481.353 52.7473C481.353 55.2652 480.597 56.5242 479.086 56.5242C478.499 56.5242 478.079 56.3983 477.827 56.1885C477.576 55.9786 477.45 55.6009 477.45 55.0554C477.45 53.083 477.492 51.6562 477.576 50.7329Z" fill="#000000"/>
<path d="M494.068 59.046C494.907 59.7594 495.83 60.263 496.921 60.6407C497.97 60.9764 499.104 61.1862 500.321 61.1862C501.957 61.1862 503.594 60.8085 505.189 60.0951C506.825 59.3817 508.168 58.3325 509.217 56.9896C510.266 55.6467 510.812 54.136 510.812 52.3734C510.812 50.9466 510.434 49.6037 509.721 48.2608C509.007 46.9179 507.958 45.8268 506.615 44.9875C505.272 44.1482 503.678 43.7285 501.873 43.7285C500.53 43.7285 499.229 43.9383 497.97 44.358C496.711 44.7777 495.578 45.3652 494.613 46.2045C493.606 47.0018 492.851 48.009 492.263 49.1421C491.676 50.3171 491.424 51.6181 491.424 53.0449C491.424 54.3458 491.676 55.4789 492.095 56.4861C492.557 57.4932 493.186 58.3745 494.026 59.046M499.355 48.2188C499.649 47.7992 500.027 47.6313 500.53 47.6313C501.202 47.6313 501.747 48.0929 502.167 49.0162C502.587 49.9394 502.922 50.9886 503.09 52.1216C503.3 53.2967 503.384 54.2199 503.384 54.8914C503.384 56.2762 502.88 56.9477 501.915 56.9477C500.95 56.9057 500.237 56.0664 499.775 54.4717C499.313 52.877 499.062 51.2404 498.936 49.5617C498.936 49.0162 499.062 48.5546 499.355 48.1769V48.2188Z" fill="#000000"/>
<path d="M416.815 57.3244C415.64 57.3244 414.717 57.1565 414.045 56.7369C413.374 56.3592 412.703 55.8556 411.989 55.2681C411.276 54.6386 410.772 54.3448 410.394 54.3448C409.849 54.3448 409.471 54.5546 409.135 54.9323C408.842 55.31 408.674 55.7716 408.674 56.2333C408.674 57.2824 409.723 58.4574 411.821 59.8003C412.493 60.22 413.08 60.5138 413.626 60.6816C414.171 60.8495 414.801 60.9754 415.472 61.0173C416.144 61.0593 417.109 61.1013 418.326 61.1013C419.543 61.1013 420.844 60.9334 422.061 60.6397C423.278 60.3039 424.327 59.7584 425.208 58.9191C426.048 58.0798 426.509 56.9886 426.509 55.6038C426.509 54.9743 426.299 54.3868 425.922 53.8412C425.544 53.2957 425.04 52.876 424.495 52.4983C423.949 52.1626 423.446 51.9108 422.942 51.7849C423.572 51.6171 424.201 51.1974 424.831 50.6099C425.46 50.0224 425.754 49.3509 425.754 48.5955C425.754 47.0428 425.082 45.8258 423.781 44.9865C422.481 44.1052 420.676 43.6855 418.452 43.6855C417.445 43.6855 416.605 43.7275 415.934 43.8534C415.262 43.9793 414.591 44.1052 413.836 44.315C413.08 44.4829 412.535 44.6088 412.199 44.6088C411.737 44.6088 411.234 44.8186 410.772 45.1963C410.31 45.574 409.891 46.0776 409.597 46.749C409.303 47.4205 409.135 48.0919 409.093 48.8473C409.093 50.7358 409.765 51.701 411.15 51.701C411.569 51.701 411.947 51.4492 412.325 50.9456C412.703 50.442 413.038 49.9804 413.374 49.4768C413.71 48.9732 414.171 48.5536 414.759 48.1759C415.346 47.7982 416.144 47.6303 417.109 47.6303C417.654 47.6303 418.074 47.7562 418.41 48.05C418.704 48.3018 418.871 48.6795 418.871 49.1411C418.871 49.6447 418.662 49.9804 418.284 50.2322C417.864 50.484 417.193 50.5679 416.27 50.5679C414.591 50.5679 413.794 51.1135 413.794 52.2465C413.794 52.6662 414.003 53.0439 414.381 53.3796C414.801 53.7153 415.346 53.8412 416.06 53.8412C418.032 53.8412 419.039 54.3868 419.039 55.5198C419.039 56.0654 418.83 56.4851 418.41 56.8208C417.99 57.1565 417.487 57.3244 416.857 57.3244" fill="#000000"/>
<path d="M377.994 49.349C378.414 49.4329 378.666 49.5169 378.75 49.6008C379.001 49.8526 379.085 51.2794 379.085 53.9652V55.7697C379.085 58.6654 378.917 60.4279 378.624 61.0574C378.456 61.3931 378.162 61.6869 377.742 61.9387C377.281 62.1905 377.029 62.3583 376.903 62.4842C376.777 62.6101 376.735 62.8619 376.735 63.2816C376.735 63.8271 377.071 64.3727 377.784 64.8763C378.498 65.3799 379.421 65.7995 380.596 66.0933C381.771 66.387 383.072 66.5549 384.457 66.5549C385.464 66.5549 386.429 66.429 387.311 66.1353C388.192 65.8415 388.653 65.2959 388.653 64.4986C388.653 64.1629 388.57 63.9111 388.444 63.7432C388.318 63.6173 388.066 63.4075 387.73 63.1977C387.353 62.9878 387.101 62.736 386.933 62.4423C386.765 62.1485 386.681 61.7289 386.681 61.1833C386.681 60.4699 386.849 60.1342 387.185 60.1342C387.227 60.1342 387.478 60.2181 387.94 60.386C388.402 60.5538 388.821 60.6797 389.241 60.8056C389.661 60.8895 390.08 60.9735 390.542 60.9735C391.675 60.9735 392.724 60.7217 393.689 60.2181C394.655 59.7145 395.494 59.0011 396.165 58.1198C396.879 57.2385 397.382 56.2314 397.76 55.1822C398.138 54.0911 398.306 53 398.306 51.9089C398.306 50.608 398.054 49.307 397.55 48.0481C397.047 46.7891 396.291 45.74 395.326 44.9426C394.319 44.1453 393.186 43.7676 391.843 43.7676C391.046 43.7676 390.374 43.8935 389.745 44.1453C389.115 44.3971 388.528 44.6908 387.94 45.0265C387.353 45.3623 387.017 45.5301 386.933 45.5301C386.681 45.5301 386.555 45.2783 386.555 44.8587C386.555 44.481 386.513 44.2292 386.387 44.0613C386.261 43.9354 386.01 43.8515 385.632 43.8515C385.003 43.8515 384.163 43.9354 383.156 44.1453C382.149 44.3551 381.142 44.6489 380.134 44.9846C379.127 45.3623 378.288 45.7819 377.617 46.2436C376.945 46.7471 376.609 47.2507 376.609 47.7543C376.609 48.2579 376.735 48.6776 376.987 48.8874C377.239 49.0972 377.575 49.2651 377.994 49.349ZM386.555 50.6919C386.639 49.8106 386.807 49.2231 387.017 48.9713C387.227 48.7195 387.562 48.5936 387.982 48.5936C388.612 48.5936 389.073 48.8035 389.451 49.2651C389.787 49.6847 390.038 50.2303 390.164 50.8598C390.29 51.4893 390.332 52.1187 390.332 52.7482C390.332 55.2662 389.577 56.5251 388.066 56.5251C387.478 56.5251 387.059 56.3992 386.807 56.1894C386.555 55.9376 386.429 55.5599 386.429 55.0563C386.429 53.042 386.471 51.6151 386.555 50.7339V50.6919Z" fill="#000000"/>
<path d="M332.755 56.9918C332.587 57.2436 332.335 57.5373 332 57.8311C331.664 58.1248 331.496 58.4606 331.496 58.8383C331.496 59.6776 331.958 60.2231 332.881 60.4329C333.804 60.6847 334.895 60.7687 336.07 60.7687C339.847 60.7687 341.736 60.0972 341.736 58.7963C341.736 58.5445 341.694 58.3347 341.61 58.2088C341.526 58.0829 341.4 57.915 341.232 57.7471C341.064 57.5793 340.896 57.3695 340.812 57.1596C340.729 56.9498 340.645 56.656 340.603 56.3203C340.603 56.0685 340.603 55.6908 340.603 55.1453C340.645 54.306 340.77 53.8443 340.896 53.7184C341.064 53.5925 341.652 53.5086 342.617 53.5086C343.582 53.5086 344.17 53.5925 344.254 53.7184C344.422 53.8863 344.505 54.4319 344.505 55.3131V56.3623C344.505 56.698 344.421 56.9918 344.338 57.2016C344.254 57.4114 344.086 57.6212 343.918 57.873C343.708 58.1248 343.582 58.2927 343.54 58.4606C343.456 58.5865 343.414 58.7963 343.414 59.0481C343.414 60.2231 344.799 60.8106 347.569 60.8106C350.129 60.8106 351.765 60.6008 352.479 60.2231C353.192 59.8454 353.57 59.3838 353.57 58.8383C353.57 58.4606 353.402 58.0829 353.066 57.7471C352.731 57.3695 352.479 57.1177 352.353 56.8659C352.227 56.656 352.143 56.1525 352.101 55.439V49.354C352.101 48.6406 352.227 48.137 352.353 47.9272C352.479 47.7174 352.731 47.4236 353.066 47.0459C353.402 46.7102 353.57 46.3325 353.57 45.9548C353.57 45.6191 353.444 45.3253 353.234 45.0316C353.024 44.7798 352.437 44.528 351.556 44.3182C350.674 44.1083 349.331 43.9824 347.569 43.9824C344.799 43.9824 343.414 44.5699 343.414 45.745C343.414 45.9968 343.414 46.2066 343.54 46.3325C343.624 46.4584 343.75 46.6263 343.918 46.8361C344.128 47.0459 344.254 47.2557 344.38 47.5075C344.463 47.7593 344.547 48.0951 344.547 48.5147C344.547 49.438 344.463 49.9835 344.296 50.1094C344.086 50.2353 343.54 50.3192 342.575 50.3192C341.61 50.3192 341.064 50.2353 340.938 50.1094C340.77 49.9415 340.687 49.396 340.687 48.5147C340.729 48.0951 340.812 47.7174 340.938 47.5075C341.064 47.2557 341.19 47.0879 341.358 46.92C341.526 46.7522 341.652 46.6263 341.736 46.5423C341.82 46.4164 341.862 46.2486 341.862 45.9548C341.862 44.6539 339.973 43.9824 336.196 43.9824C333.133 43.9824 331.58 44.6539 331.58 45.9548C331.58 46.2905 331.622 46.5423 331.706 46.6682C331.79 46.7941 331.958 46.962 332.251 47.2138C332.503 47.4236 332.713 47.7174 332.881 48.0111C333.049 48.3049 333.133 48.7665 333.175 49.354C333.217 49.7737 333.259 50.655 333.259 51.9979C333.259 53.5086 333.259 54.6837 333.175 55.439C333.175 56.2364 333.049 56.7819 332.881 57.0337" fill="#000000"/>
<path d="M356.213 51.3274C356.716 51.3274 357.094 51.2015 357.346 50.9077C357.639 50.6139 358.059 50.1523 358.605 49.4389C359.192 48.7255 359.612 48.3898 359.864 48.3898C360.241 48.3898 360.493 48.5157 360.577 48.8094C360.661 49.1032 360.745 49.5228 360.787 50.0684C360.787 50.6559 360.787 51.5372 360.787 52.6283C360.787 52.964 360.787 53.4256 360.787 54.0551C360.787 54.6846 360.787 55.1043 360.787 55.44C360.787 55.9855 360.661 56.3632 360.451 56.615C360.241 56.8668 359.948 57.0347 359.612 57.2445C359.234 57.4124 358.94 57.5802 358.773 57.7481C358.605 57.916 358.521 58.2097 358.521 58.6713C358.521 59.3847 358.94 59.9303 359.738 60.2241C360.535 60.5178 361.458 60.6857 362.507 60.7277C363.557 60.7696 364.438 60.8116 365.151 60.8535C366.116 60.8535 367.04 60.7696 367.837 60.6018C368.676 60.4339 369.348 60.1821 369.851 59.8464C370.355 59.5106 370.607 59.133 370.607 58.6713C370.607 58.2936 370.523 57.9999 370.355 57.7901C370.187 57.5802 369.935 57.3704 369.642 57.1606C369.306 56.9507 369.054 56.7409 368.886 56.5311C368.718 56.3213 368.634 56.0275 368.634 55.6498C368.551 53.9712 368.55 52.6283 368.55 51.4952C368.55 50.53 368.55 49.7746 368.55 49.1871C368.55 48.9353 368.634 48.7255 368.76 48.5996C368.886 48.4737 369.138 48.3898 369.558 48.3898C369.809 48.3898 370.187 48.7255 370.691 49.4389C371.194 50.1523 371.53 50.6139 371.782 50.9077C372.034 51.2015 372.411 51.3274 372.915 51.3274C373.67 51.3274 374.258 51.1175 374.636 50.6559C375.055 50.2362 375.223 49.6487 375.223 48.8933C375.223 48.054 375.055 47.2147 374.677 46.4593C374.3 45.704 373.88 45.0745 373.293 44.6129C372.747 44.1512 372.201 43.9414 371.698 43.9414C371.194 43.9414 370.733 43.9834 370.313 44.1093C369.264 44.3611 367.459 44.487 364.941 44.487C361.836 44.487 359.99 44.3611 359.318 44.1093C359.066 43.9834 358.605 43.9414 357.975 43.9414C356.8 43.9414 355.877 44.5289 355.247 45.62C354.576 46.7111 354.24 47.8862 354.24 49.1451C354.24 49.7746 354.408 50.2782 354.702 50.6979C355.038 51.1175 355.499 51.3274 356.129 51.3274" fill="#000000"/>
<path d="M449.965 58.962C450.804 59.6754 451.728 60.179 452.819 60.5567C453.868 60.8925 455.001 61.1023 456.218 61.1023C457.855 61.1023 459.491 60.7246 461.086 60.0112C462.723 59.2978 464.066 58.2486 465.115 56.9477C466.164 55.6048 466.667 54.094 466.667 52.3734C466.667 50.9466 466.29 49.6037 465.576 48.2608C464.863 46.9179 463.814 45.8268 462.471 44.9875C461.128 44.1482 459.533 43.7285 457.729 43.7285C456.386 43.7285 455.085 43.9383 453.826 44.358C452.567 44.7777 451.434 45.3652 450.469 46.2045C449.462 47.0018 448.706 47.967 448.119 49.1421C447.531 50.2752 447.279 51.5761 447.279 53.0449C447.279 54.3039 447.531 55.4789 447.993 56.4861C448.454 57.4932 449.084 58.3325 449.923 59.046M455.211 48.1769C455.505 47.7992 455.882 47.5894 456.386 47.5894C457.057 47.5894 457.603 48.051 458.023 48.9742C458.442 49.8975 458.778 50.9466 458.946 52.0797C459.156 53.2127 459.239 54.136 459.239 54.8494C459.239 56.2343 458.736 56.9057 457.771 56.9057C456.805 56.8638 456.092 56.0244 455.63 54.4717C455.169 52.877 454.917 51.2823 454.791 49.6037C454.791 49.1001 454.917 48.5965 455.211 48.2188V48.1769Z" fill="#000000"/>
<path d="M317.567 59.7565C318.91 60.5538 320.504 60.9735 322.351 60.9735C323.358 60.9735 324.449 60.7637 325.624 60.386C326.799 60.0083 327.806 59.4627 328.604 58.7913C329.401 58.1198 329.821 57.4064 329.821 56.6091C329.821 56.2733 329.695 55.8956 329.443 55.5179C329.191 55.1403 328.897 54.9724 328.562 54.9724C328.394 54.9724 328.058 55.1403 327.597 55.434C327.093 55.7278 326.589 55.9796 326.086 56.1894C325.582 56.3992 324.953 56.4832 324.281 56.4832C323.778 56.4832 323.232 56.3573 322.645 56.0635C322.057 55.7697 321.595 55.3921 321.218 54.9304C320.84 54.4688 320.63 53.9652 320.63 53.4616C320.63 53.2518 320.714 53.1259 320.798 53.0839C320.924 53.042 321.134 53 321.47 53H328.52C329.149 53 329.653 52.8322 329.989 52.4964C330.366 52.1607 330.534 51.5312 330.534 50.524C330.534 49.8526 330.366 49.1392 330.031 48.3838C329.695 47.5864 329.233 46.873 328.562 46.1596C327.932 45.4462 327.093 44.9006 326.086 44.439C325.079 43.9774 323.904 43.7676 322.603 43.7676C321.008 43.7676 319.497 44.1453 318.112 44.9006C316.727 45.656 315.594 46.7052 314.755 48.0481C313.916 49.391 313.496 50.8598 313.496 52.5384C313.496 54.0072 313.832 55.3921 314.503 56.693C315.175 57.9939 316.182 59.0431 317.525 59.8404M321.05 47.3766C321.428 46.915 321.889 46.7052 322.393 46.7052C322.98 46.7052 323.442 46.915 323.778 47.2927C324.113 47.6704 324.281 48.174 324.281 48.8035C324.281 49.1811 324.197 49.4749 323.946 49.6008C323.736 49.7267 323.442 49.8106 323.022 49.8106H322.351C322.351 49.8106 322.141 49.8106 321.931 49.8106C321.763 49.8106 321.637 49.8106 321.553 49.8106C320.798 49.8106 320.42 49.4749 320.42 48.8454C320.42 48.2999 320.63 47.7963 321.008 47.3347L321.05 47.3766Z" fill="#000000"/>
<path d="M288.355 55.8517C288.229 56.2714 288.103 56.5651 287.935 56.691C287.767 56.8169 287.516 56.9848 287.096 57.1946C286.425 57.5303 286.047 57.9919 286.047 58.5375C286.047 59.4607 286.676 60.0902 287.977 60.4259C289.278 60.7197 290.621 60.8876 292.048 60.8876C292.258 60.8876 293.223 60.8456 295.028 60.7197C296.79 60.5938 298.217 60.5518 299.35 60.5518C302.623 60.5518 304.68 60.6777 305.561 60.8876C306.064 61.0135 306.652 61.4751 307.24 62.2724C307.827 63.0698 308.289 63.6153 308.624 63.9091C308.96 64.2029 309.506 64.3707 310.303 64.3707C311.1 64.3707 311.73 64.1189 312.149 63.6573C312.569 63.1537 312.779 62.5242 312.779 61.6849C312.779 60.342 312.653 59.3348 312.443 58.6634C312.233 58.0759 311.814 57.5723 311.1 57.1946C310.681 56.9428 310.429 56.691 310.303 56.4392C310.177 56.1455 310.093 55.7678 310.093 55.2642V46.8291C310.093 45.1924 310.093 43.9754 310.219 43.262C310.303 42.5486 310.429 42.087 310.555 41.9191C310.723 41.7512 310.974 41.5414 311.394 41.3736C312.066 41.0378 312.401 40.5342 312.401 39.8628C312.401 38.352 310.471 37.5547 306.568 37.5547C304.68 37.5547 303.295 37.6806 302.371 37.9743C301.448 38.2681 300.861 38.5619 300.609 38.8976C300.357 39.2333 300.231 39.611 300.231 39.9887C300.231 40.3664 300.315 40.6182 300.525 40.828C300.693 40.9959 301.029 41.2057 301.448 41.4995C301.742 41.6673 301.994 41.9611 302.162 42.4227C302.33 42.8843 302.413 43.8915 302.413 45.4862V52.4944C302.413 53.5856 302.33 54.4668 302.204 55.1383C302.078 55.8097 301.868 56.3133 301.616 56.6071C301.364 56.9008 301.029 57.1107 300.609 57.2366C300.231 57.3205 299.686 57.3625 299.056 57.3625C298.427 57.3625 297.881 57.2785 297.504 57.0687C297.084 56.8589 296.79 56.5231 296.58 55.9776C296.37 55.474 296.286 54.7606 296.286 53.8793V45.2764C296.286 44.3112 296.286 43.5977 296.37 43.1361C296.412 42.6745 296.538 42.2968 296.664 42.1289C296.79 41.9191 297 41.7512 297.294 41.5834C297.755 41.2896 298.091 41.0378 298.301 40.786C298.511 40.5342 298.595 40.1985 298.595 39.7789C298.595 38.9396 298.049 38.352 296.916 38.1002C295.825 37.8065 294.65 37.6806 293.433 37.6806C291.796 37.6806 290.201 37.8484 288.607 38.2261C287.012 38.6038 286.215 39.3592 286.215 40.4084C286.215 40.7021 286.299 40.9119 286.467 41.0798C286.634 41.2477 286.886 41.4155 287.264 41.5834C287.684 41.7932 287.935 41.9611 288.061 42.087C288.187 42.2129 288.271 42.4647 288.355 42.8843C288.439 43.304 288.481 44.0594 288.523 45.1085C288.523 46.1576 288.523 47.8363 288.523 50.1024C288.523 51.823 288.523 53.1659 288.439 54.0472C288.397 54.9285 288.313 55.5999 288.187 56.0196" fill="#000000"/>
<path d="M426.505 63.5775C426.841 64.081 427.303 64.3328 427.932 64.3328C428.604 64.3328 429.107 64.081 429.443 63.5775C429.779 63.1158 430.156 62.5703 430.534 61.9828C430.912 61.3953 431.415 61.1015 432.003 60.9756C433.346 60.7658 434.899 60.6399 436.703 60.6399H438.508C440.102 60.6399 441.319 60.8077 442.159 61.1015C442.578 61.2694 442.998 61.689 443.46 62.4024C443.921 63.1158 444.299 63.5775 444.551 63.8712C444.802 64.165 445.264 64.2909 445.852 64.3328C447.153 64.3328 447.824 63.4096 447.824 61.6051V60.7238C447.824 59.8845 447.698 59.213 447.446 58.7514C447.278 58.4577 447.111 58.2059 446.859 57.996C446.607 57.7862 446.355 57.6183 446.061 57.4085C445.768 57.1987 445.558 56.9889 445.474 56.779C444.97 55.8558 444.383 54.7647 443.795 53.5896C443.208 52.3726 442.662 51.2396 442.117 50.1485C441.571 49.0574 441.151 48.218 440.816 47.6305C440.186 46.5394 439.725 45.826 439.473 45.4483C439.179 45.0706 438.801 44.7349 438.256 44.4411C437.71 44.1474 437.039 44.0215 436.158 44.0215C435.57 44.0215 435.025 44.2313 434.479 44.4831C433.975 44.7769 433.556 45.1546 433.262 45.6162C432.968 46.0778 432.8 46.6234 432.8 47.2109C432.8 48.218 432.507 49.435 431.961 50.8199C431.415 52.2048 430.786 53.5477 430.031 54.7647C429.317 55.9817 428.73 56.821 428.268 57.2407C428.142 57.3666 427.764 57.6603 427.177 58.038C426.589 58.4157 426.296 58.7514 426.212 59.0032C426.002 59.5907 425.918 60.514 425.918 61.8569C425.918 62.4864 426.086 63.0739 426.422 63.5775M434.731 53.5896C434.941 53.2959 435.108 53.128 435.276 53.128C435.444 53.128 435.612 53.2539 435.78 53.5057C436.829 55.0584 437.417 56.1915 437.626 56.821C437.626 57.0308 437.249 57.1567 436.577 57.1567C436.451 57.1567 436.2 57.1567 435.822 57.1567C435.444 57.1567 435.15 57.1567 434.941 57.1567C434.143 57.1567 433.598 57.1567 433.346 57.1148C433.094 57.1148 432.968 56.9889 432.968 56.863C433.388 55.7719 433.975 54.6808 434.773 53.5896H434.731Z" fill="#000000"/>
<path d="M619.507 58.8781C620.346 59.5915 621.27 60.0951 622.361 60.4728C623.41 60.8085 624.543 60.9764 625.76 60.9764C627.397 60.9764 629.033 60.5987 630.628 59.8853C632.265 59.1719 633.608 58.1647 634.657 56.8218C635.706 55.5209 636.209 53.9681 636.209 52.2895C636.209 50.9046 635.874 49.5198 635.16 48.2188C634.447 46.8759 633.398 45.8268 632.055 44.9875C630.712 44.1482 629.117 43.7285 627.313 43.7285C625.97 43.7285 624.669 43.9383 623.41 44.358C622.151 44.7777 621.018 45.3652 620.053 46.1625C619.046 46.9599 618.29 47.9251 617.703 49.0581C617.115 50.1912 616.863 51.4922 616.863 52.919C616.863 54.178 617.115 55.311 617.535 56.3182C617.996 57.3254 618.626 58.1647 619.465 58.8781M624.753 48.1769C625.047 47.7992 625.424 47.5894 625.928 47.5894C626.599 47.5894 627.145 48.051 627.565 48.9742C627.984 49.8975 628.32 50.9046 628.488 52.0797C628.698 53.2127 628.782 54.136 628.782 54.8074C628.782 56.1503 628.278 56.8638 627.313 56.8638C626.348 56.8218 625.634 55.9825 625.173 54.4297C624.711 52.877 624.459 51.2404 624.333 49.6037C624.333 49.1001 624.459 48.6385 624.753 48.2188V48.1769Z" fill="#000000"/>
<path d="M585.769 57.0337C585.601 57.2855 585.349 57.5793 585.013 57.873C584.678 58.1668 584.51 58.5025 584.51 58.8802C584.51 59.7195 584.971 60.2651 585.895 60.5169C586.818 60.7687 587.909 60.8526 589.084 60.8526C589.839 60.8526 590.553 60.8526 591.266 60.7687C591.98 60.6847 592.609 60.5169 593.197 60.2231C593.784 59.9294 594.078 59.4677 594.078 58.9222C594.078 58.6704 594.078 58.4606 593.994 58.3347C593.952 58.2088 593.868 58.0829 593.742 57.9989C593.616 57.873 593.532 57.7471 593.49 57.5793C593.448 57.4114 593.406 57.1596 593.406 56.8659C593.406 56.5721 593.7 56.1105 594.288 55.5649C594.875 54.9774 595.505 54.4738 596.218 53.9283C596.89 53.4247 597.309 53.1729 597.435 53.1729C597.645 53.1729 597.729 53.7184 597.729 54.7676C597.729 55.0194 597.729 55.3131 597.729 55.6908C597.729 56.0685 597.729 56.3203 597.729 56.4462C597.729 56.8239 597.645 57.1177 597.519 57.2855C597.393 57.4953 597.225 57.7052 597.016 57.957C596.806 58.1668 596.638 58.3766 596.554 58.5025C596.47 58.6704 596.428 58.8383 596.428 59.132C596.428 60.307 597.813 60.8946 600.625 60.8946C602.429 60.8946 603.772 60.7687 604.653 60.5588C605.535 60.349 606.08 60.0972 606.29 59.8035C606.5 59.5097 606.584 59.2579 606.584 58.9222C606.584 58.5025 606.542 58.2088 606.416 58.0409C606.29 57.873 606.122 57.6632 605.87 57.4534C605.618 57.2436 605.409 56.9918 605.283 56.74C605.157 56.4882 605.073 56.0685 605.073 55.523V49.438C605.115 48.8504 605.199 48.4308 605.325 48.137C605.451 47.8852 605.66 47.6334 605.87 47.4236C606.122 47.2138 606.29 47.0459 606.374 46.8781C606.5 46.7102 606.542 46.4164 606.542 46.0387C606.542 45.703 606.416 45.4093 606.248 45.1575C606.08 44.9057 605.576 44.6539 604.821 44.4021C604.024 44.1923 602.849 44.0664 601.254 44.0664C598.316 44.0664 596.89 44.6539 596.89 45.8289C596.89 46.0807 596.89 46.2905 597.016 46.4164C597.099 46.5423 597.183 46.7102 597.351 46.8781C597.519 47.0459 597.603 47.2138 597.687 47.4236C597.771 47.5915 597.813 47.8433 597.813 48.179C597.813 48.3888 597.519 48.7665 596.89 49.3121C596.302 49.8576 595.631 50.3612 594.959 50.8228C594.246 51.2844 593.826 51.5362 593.616 51.5362C593.49 51.4103 593.406 51.0326 593.406 50.3612C593.406 50.1094 593.406 49.7737 593.448 49.354C593.448 48.9344 593.49 48.6826 593.49 48.5986C593.532 48.137 593.658 47.8013 593.742 47.5495C593.868 47.2977 594.036 47.1298 594.204 46.962C594.414 46.7941 594.54 46.6682 594.623 46.5423C594.707 46.4164 594.749 46.2486 594.749 45.9548C594.749 44.6539 592.861 43.9824 589.126 43.9824C586.062 43.9824 584.51 44.6539 584.51 45.9548C584.51 46.2905 584.552 46.5423 584.636 46.6682C584.72 46.7941 584.887 46.962 585.181 47.2138C585.433 47.4656 585.643 47.7174 585.811 48.0111C585.979 48.3049 586.062 48.7665 586.104 49.354C586.146 49.7737 586.188 50.655 586.188 51.9979C586.188 53.5086 586.188 54.6837 586.104 55.481C586.104 56.2783 585.979 56.8239 585.811 57.0757" fill="#000000"/>
<path d="M639.269 51.2434C639.773 51.2434 640.15 51.1175 640.402 50.8238C640.696 50.572 641.116 50.0684 641.661 49.3969C642.249 48.7255 642.668 48.3478 642.92 48.3478C643.298 48.3478 643.55 48.5157 643.634 48.7675C643.718 49.0612 643.801 49.4809 643.843 49.9845C643.843 50.572 643.843 51.4113 643.843 52.5024C643.843 52.7962 643.843 53.2997 643.843 53.9292C643.843 54.5587 643.843 55.0623 643.843 55.398C643.843 55.9436 643.718 56.3213 643.508 56.5311C643.298 56.7829 643.004 56.9507 642.626 57.1186C642.249 57.2865 641.955 57.4543 641.787 57.6222C641.619 57.7901 641.535 58.0838 641.535 58.5454C641.535 59.2589 641.955 59.7624 642.752 60.0982C643.55 60.3919 644.473 60.5598 645.522 60.6018C646.571 60.6437 647.453 60.6857 648.166 60.7277C649.131 60.7277 650.054 60.6437 650.852 60.4759C651.691 60.308 652.362 60.0562 652.866 59.7205C653.37 59.3847 653.621 59.0071 653.621 58.5454C653.621 58.1677 653.538 57.874 653.37 57.6642C653.202 57.4543 652.95 57.2445 652.614 57.0347C652.279 56.8248 652.027 56.615 651.859 56.4052C651.691 56.1954 651.607 55.9016 651.607 55.5239C651.523 53.8453 651.523 52.4604 651.523 51.3274C651.523 50.3621 651.523 49.6068 651.523 49.0612C651.523 48.8094 651.607 48.5996 651.733 48.4737C651.859 48.3478 652.111 48.3058 652.53 48.3058C652.782 48.3058 653.16 48.6416 653.663 49.355C654.125 50.0264 654.503 50.53 654.754 50.7818C655.006 51.0756 655.384 51.2015 655.888 51.2015C656.643 51.2015 657.23 50.9916 657.608 50.572C658.028 50.1523 658.196 49.5648 658.196 48.8514C658.196 48.0121 658.028 47.2147 657.65 46.4174C657.272 45.662 656.853 45.0745 656.265 44.6129C655.72 44.1512 655.174 43.9414 654.671 43.9414C654.167 43.9414 653.705 43.9834 653.286 44.1093C652.237 44.3611 650.432 44.487 647.914 44.487C644.851 44.487 642.962 44.3611 642.291 44.1093C642.039 43.9834 641.577 43.9414 640.948 43.9414C639.773 43.9414 638.85 44.5289 638.22 45.5781C637.549 46.6692 637.213 47.8022 637.213 49.0612C637.213 49.6487 637.381 50.1943 637.675 50.572C638.01 50.9916 638.472 51.2015 639.101 51.2015" fill="#000000"/>
<path d="M698.742 57.2445C698.742 57.2445 698.49 57.6642 698.322 57.916C698.154 58.1258 698.028 58.3356 697.944 58.4615C697.86 58.6294 697.818 58.7972 697.818 59.091C697.818 60.266 699.203 60.8535 702.015 60.8535C704.575 60.8535 706.211 60.6437 706.925 60.266C707.638 59.8883 708.016 59.4267 708.016 58.8812C708.016 58.5035 707.848 58.1258 707.512 57.7901C707.177 57.4543 706.925 57.1186 706.799 56.9088C706.631 56.657 706.547 56.1954 706.547 55.44V49.313C706.589 48.5576 706.673 48.096 706.799 47.8862C706.925 47.6763 707.177 47.3826 707.512 47.0049C707.848 46.6272 708.016 46.2495 708.016 45.9138C708.016 45.3682 707.638 44.9066 706.925 44.5289C706.211 44.1512 704.575 43.9414 702.057 43.9414C699.287 43.9414 697.86 44.5289 697.86 45.704C697.86 45.9558 697.86 46.1236 697.944 46.2495C698.028 46.3754 698.154 46.5433 698.322 46.7531C698.532 46.9629 698.658 47.2147 698.784 47.4665C698.867 47.7183 698.951 48.054 698.993 48.4737C699.119 50.1104 699.161 51.5791 699.161 52.922C699.161 54.2649 699.119 55.398 698.993 56.3213C698.993 56.699 698.909 56.9927 698.784 57.2025" fill="#000000"/>
<path d="M711.327 60.472C711.999 60.6399 712.796 60.7658 713.761 60.7658C716.07 60.7658 717.245 60.3041 717.245 59.3389C717.245 59.1291 717.245 58.9193 717.161 58.7934C717.119 58.6675 716.993 58.4996 716.867 58.3318C716.741 58.1639 716.615 58.038 716.573 57.9541C716.531 57.9121 716.489 57.7862 716.489 57.6183C716.489 57.4085 716.615 57.0728 716.867 56.5692C717.119 56.0656 717.37 55.646 717.706 55.2263C718 54.8066 718.252 54.6388 718.462 54.6388C718.671 54.6388 718.881 54.8066 719.175 55.1004C719.469 55.4361 719.679 55.7719 719.888 56.1915C720.098 56.6112 720.182 56.9049 720.182 57.1148C720.182 57.3246 720.14 57.4924 720.014 57.6183C719.93 57.7023 719.763 57.8282 719.511 57.9541C719.301 58.08 719.133 58.2059 719.007 58.3318C718.881 58.4577 718.839 58.6675 718.839 58.9193C718.839 60.1363 720.266 60.7658 723.078 60.7658H724.253C725.806 60.7658 727.023 60.7238 727.946 60.5979C728.827 60.472 729.499 60.3041 729.918 60.1363C730.338 59.9265 730.59 59.7586 730.674 59.5488C730.758 59.3389 730.8 59.0871 730.8 58.7934C730.8 58.4996 730.758 58.2898 730.632 58.1219C730.506 57.996 730.296 57.8282 729.96 57.6603C729.624 57.4924 729.331 57.3246 729.037 57.1148C728.743 56.9049 728.449 56.5692 728.114 56.1495L725.89 52.9602C725.89 52.9602 725.764 52.7923 725.596 52.4985C725.386 52.2048 725.302 51.995 725.302 51.953C725.302 51.7851 725.554 51.3655 726.099 50.736L727.946 48.0502C728.156 47.7564 728.365 47.5466 728.617 47.3787C728.869 47.2109 729.205 47.001 729.582 46.7912C730.002 46.5814 730.254 46.4135 730.422 46.2457C730.59 46.0778 730.674 45.868 730.674 45.6162C730.674 44.567 729.666 44.0635 727.61 44.0635C725.302 44.0635 724.169 44.567 724.169 45.5742C724.169 45.7001 724.169 45.784 724.253 45.9099C724.295 45.9939 724.379 46.1617 724.505 46.3716C724.631 46.5814 724.714 46.7073 724.756 46.7912C724.798 46.8751 724.84 47.001 724.84 47.1269C724.84 47.3368 724.631 47.7145 724.295 48.218C723.917 48.7216 723.623 48.9734 723.414 48.9734C723.246 48.9734 722.994 48.7216 722.616 48.26C722.281 47.7984 722.113 47.4627 722.113 47.2528C722.113 47.1269 722.239 46.8751 722.448 46.5394C722.658 46.2037 722.784 45.9099 722.784 45.6581C722.784 44.567 721.315 44.0215 718.336 44.0215H717.664C715.776 44.0215 714.181 44.1474 712.754 44.3992C711.369 44.651 710.656 45.1965 710.656 45.9939C710.656 46.3716 710.74 46.6234 710.908 46.7912C711.076 46.9591 711.411 47.085 711.831 47.2528C712.293 47.3787 712.628 47.5046 712.922 47.6725C713.216 47.7984 713.468 48.0502 713.719 48.3439L715.818 50.9038C715.818 50.9038 715.944 51.0297 716.028 51.1556C716.112 51.2396 716.154 51.3235 716.237 51.4074C716.279 51.4914 716.321 51.5753 716.321 51.6173C716.321 51.6592 716.279 51.8271 716.153 51.995C716.028 52.1628 715.986 52.2887 715.944 52.3307L713.3 56.6112C712.964 57.1148 712.628 57.4924 712.335 57.7023C711.999 57.9121 711.663 58.08 711.244 58.2059C710.866 58.3318 710.572 58.4157 710.446 58.5416C710.32 58.6675 710.236 58.9193 710.236 59.297C710.236 59.9684 710.572 60.43 711.244 60.5979" fill="#000000"/>
<path d="M734.994 60.5147C735.834 60.8504 736.715 61.0183 737.638 61.0183C738.477 61.0183 739.191 60.8924 739.778 60.6826C740.324 60.4727 740.87 60.179 741.331 59.8433C741.835 59.5075 742.171 59.3397 742.338 59.3397C742.548 59.3397 742.8 59.5075 743.094 59.8433C743.387 60.179 743.723 60.4727 744.101 60.6826C744.479 60.8924 745.024 61.0183 745.78 61.0183C746.535 61.0183 747.332 60.8085 748.088 60.4308C748.843 60.0531 749.472 59.5495 749.976 58.92C750.438 58.2905 750.689 57.703 750.689 57.0735C750.689 56.6958 750.606 56.486 750.396 56.444C750.186 56.444 749.976 56.3601 749.682 56.3181C749.389 56.2762 749.179 55.9405 749.011 55.3949C748.843 54.8494 748.759 53.9261 748.759 52.6252V49.3099C748.759 48.1349 748.507 47.2116 748.004 46.4143C747.5 45.6589 746.871 45.0714 746.115 44.6517C745.36 44.2321 744.604 43.9803 743.891 43.8544C743.136 43.6865 742.464 43.6445 741.877 43.6445C740.786 43.6445 739.569 43.8544 738.226 44.2321C736.883 44.6517 735.708 45.1973 734.743 45.9107C733.777 46.6241 733.316 47.4214 733.316 48.3027C733.316 48.8483 733.484 49.2679 733.819 49.6036C734.155 49.9394 734.617 50.1072 735.12 50.1072C735.75 50.1072 736.295 49.9394 736.715 49.6456C737.135 49.3519 737.596 48.8902 738.016 48.2608C738.436 47.6732 738.813 47.2116 739.107 46.9598C739.401 46.708 739.736 46.5402 740.156 46.5402C741.163 46.5402 741.667 47.6732 741.667 49.8974C741.667 50.401 741.583 50.7367 741.373 50.8626C741.163 50.9885 740.786 51.0305 740.198 51.0305C738.436 51.0305 736.925 51.2823 735.75 51.8278C734.575 52.3314 733.693 53.0029 733.148 53.8422C732.602 54.6395 732.309 55.4788 732.309 56.3181C732.309 57.3673 732.56 58.2486 733.064 58.92C733.568 59.6334 734.239 60.137 735.036 60.5147M739.527 54.1359C739.862 53.7163 740.324 53.5065 740.87 53.5065C741.247 53.5065 741.499 53.6323 741.583 53.9261C741.667 54.1779 741.709 54.5976 741.709 55.0592C741.709 55.7306 741.625 56.3181 741.457 56.7378C741.289 57.1994 740.912 57.4093 740.366 57.4093C739.946 57.4093 739.569 57.2414 739.359 56.8637C739.107 56.486 738.981 56.1083 738.981 55.6467C738.981 55.1011 739.149 54.5976 739.527 54.1779V54.1359Z" fill="#000000"/>
<path d="M656.097 59.0032C655.887 59.5907 655.803 60.514 655.803 61.8569C655.803 62.4864 655.971 63.0739 656.306 63.5775C656.642 64.081 657.104 64.3328 657.733 64.3328C658.405 64.3328 658.908 64.081 659.244 63.5775C659.58 63.1158 659.957 62.5703 660.377 61.9828C660.755 61.3953 661.258 61.1015 661.846 60.9756C663.189 60.7658 664.741 60.6399 666.546 60.6399H668.35C669.945 60.6399 671.162 60.8077 672.001 61.1015C672.421 61.2694 672.841 61.689 673.302 62.4024C673.764 63.1158 674.142 63.5775 674.394 63.8712C674.645 64.165 675.107 64.2909 675.694 64.3328C676.995 64.3328 677.667 63.4096 677.667 61.6051V60.7238C677.667 59.8845 677.541 59.213 677.289 58.7514C677.121 58.4577 676.953 58.2059 676.702 57.996C676.45 57.7862 676.198 57.6183 675.904 57.4085C675.611 57.1987 675.401 56.9889 675.317 56.779C674.813 55.8558 674.226 54.7647 673.638 53.5896C673.051 52.3726 672.505 51.2396 671.96 50.1485C671.414 49.0574 670.994 48.218 670.659 47.6305C670.029 46.5394 669.567 45.826 669.316 45.4483C669.022 45.0706 668.644 44.7349 668.099 44.4411C667.553 44.1474 666.882 44.0215 666 44.0215C665.413 44.0215 664.867 44.1893 664.322 44.4831C663.818 44.7769 663.399 45.1546 663.105 45.6162C662.811 46.0778 662.643 46.6234 662.643 47.2109C662.643 48.218 662.349 49.435 661.804 50.8199C661.258 52.2048 660.629 53.5057 659.873 54.7647C659.16 55.9817 658.572 56.821 658.111 57.2407C657.985 57.3666 657.607 57.6183 657.02 58.038C656.432 58.4157 656.139 58.7514 656.055 59.0032M664.532 53.5896C664.741 53.2959 664.909 53.128 665.077 53.128C665.245 53.128 665.413 53.2539 665.581 53.5057C666.63 55.0584 667.217 56.1495 667.427 56.821C667.427 57.0308 667.05 57.1567 666.378 57.1567C666.252 57.1567 666 57.1567 665.623 57.1567C665.245 57.1567 664.951 57.1567 664.741 57.1567C663.944 57.1567 663.399 57.1567 663.147 57.1148C662.895 57.1148 662.769 56.9889 662.769 56.863C663.189 55.7719 663.776 54.6808 664.574 53.5896H664.532Z" fill="#000000"/>
<path d="M554.289 60.4329C554.96 60.6847 555.8 60.7686 556.765 60.7686C558.15 60.7686 559.199 60.6008 559.912 60.307C560.626 59.9713 561.171 59.5096 561.591 58.8382C561.968 58.1667 562.43 57.1176 563.018 55.6068C563.227 54.9774 563.395 54.5577 563.605 54.3479C563.773 54.138 564.151 54.0122 564.654 54.0122C564.78 54.0122 564.906 54.0961 564.99 54.3059C565.074 54.5157 565.116 54.6836 565.116 54.8934C565.116 56.1944 564.99 56.9497 564.78 57.2015C564.654 57.3274 564.528 57.4114 564.402 57.5373C564.277 57.6632 564.193 57.7471 564.067 57.873C563.983 57.9989 563.899 58.1248 563.857 58.2926C563.815 58.4605 563.773 58.6284 563.773 58.7962C563.773 59.5936 564.109 60.0972 564.78 60.349C565.41 60.6008 566.375 60.7267 567.55 60.7267C568.095 60.7267 568.515 60.7267 568.767 60.7267C569.984 60.7267 570.865 60.6427 571.495 60.5588C572.124 60.4749 572.67 60.307 573.173 60.0132C573.677 59.7195 573.929 59.2159 573.929 58.5444C573.929 58.1667 573.761 57.7891 573.383 57.4533C573.047 57.1176 572.796 56.8238 572.67 56.614C572.544 56.4042 572.46 55.9845 572.46 55.2711V48.9763C572.46 48.3468 572.544 47.8852 572.67 47.7173C572.796 47.5075 573.047 47.2137 573.425 46.7941C573.803 46.3744 573.971 45.9967 573.971 45.619C573.971 44.9056 573.719 44.444 573.257 44.2342C572.796 44.0243 571.956 43.8984 570.739 43.8984C570.32 43.8984 569.774 43.8984 569.019 43.9824C568.305 44.0243 567.76 44.0663 567.424 44.0663C566.878 44.0663 565.997 44.0663 564.864 43.9824C563.689 43.9404 562.808 43.8984 562.22 43.8984C561.045 43.8984 559.912 44.0243 558.821 44.2761C557.772 44.5279 556.849 44.9895 556.135 45.619C555.422 46.2905 555.044 47.1718 555.044 48.2629C555.044 48.8923 555.38 49.5218 556.009 50.1933C556.639 50.8647 557.31 51.4103 558.024 51.8299C558.15 51.9139 558.192 51.9558 558.192 52.0398C558.192 52.1237 558.108 52.1657 557.94 52.2496C556.891 52.8371 556.135 53.3827 555.674 53.9282C555.17 54.4738 554.708 55.1452 554.331 56.0265C554.163 56.3622 553.995 56.614 553.827 56.7819C553.617 56.9497 553.365 57.1176 553.072 57.2435C552.778 57.4114 552.568 57.5373 552.442 57.6632C552.316 57.7891 552.232 57.9989 552.232 58.2926C552.232 58.6703 552.4 59.048 552.736 59.4257C553.072 59.8034 553.617 60.0972 554.289 60.307M563.395 47.6334C563.773 47.2137 564.193 47.0459 564.612 47.0459C564.99 47.0459 565.2 47.2557 565.242 47.7173C565.242 48.053 565.242 48.4727 565.242 49.0182C565.242 49.5218 565.242 49.8576 565.242 50.1513C565.242 50.4451 565.158 50.6129 565.032 50.6969C564.948 50.7808 564.738 50.8228 564.444 50.8228C564.067 50.8228 563.731 50.6129 563.353 50.2352C563.018 49.8576 562.808 49.4379 562.808 48.9763C562.808 48.5147 563.018 48.053 563.395 47.6334Z" fill="#000000"/>
<path d="M696.474 52.3288C695.844 51.4895 695.005 50.86 693.956 50.4403C692.907 50.0207 691.69 49.8108 690.389 49.8108C690.095 49.8108 689.592 49.8108 688.92 49.8948C688.249 49.9367 687.829 49.9787 687.619 49.9787C687.535 49.9787 687.493 49.7689 687.493 49.3912C687.493 49.3073 687.493 49.1814 687.493 48.9715C687.493 48.7617 687.493 48.6358 687.493 48.5519C687.577 48.1742 687.661 47.8804 687.787 47.6706C687.913 47.4608 688.123 47.2929 688.333 47.125C688.542 46.9572 688.71 46.8313 688.794 46.7054C688.878 46.5795 688.92 46.4116 688.92 46.1598C688.92 44.8169 687.242 44.1455 683.884 44.1035C682.29 44.1035 681.031 44.2294 680.023 44.4812C679.058 44.733 678.555 45.2786 678.555 46.1179C678.555 46.3277 678.597 46.5375 678.723 46.7473C678.848 46.9572 679.016 47.167 679.268 47.4608C679.52 47.7545 679.688 47.9644 679.856 48.2161C679.982 48.426 680.065 48.6778 680.107 48.8876C680.233 50.6501 680.275 51.9511 680.275 52.8324C680.275 53.7556 680.233 54.9306 680.107 56.3575C680.107 56.6093 680.023 56.7771 679.898 56.945C679.772 57.1129 679.604 57.3227 679.352 57.6164C679.1 57.9102 678.89 58.162 678.764 58.4558C678.639 58.7075 678.555 59.0013 678.555 59.337C678.555 60.3022 679.772 60.8058 682.248 60.8058C683.381 60.8058 684.43 60.8058 685.353 60.8478C686.276 60.8478 687.2 60.9317 688.123 60.9737C689.046 61.0157 689.55 61.0576 689.676 61.0576C691.018 61.0576 692.277 60.8898 693.452 60.5121C694.627 60.1344 695.593 59.5469 696.348 58.7495C697.103 57.9522 697.439 56.903 697.439 55.686C697.439 54.469 697.145 53.3779 696.516 52.5386M689.508 56.945C689.172 57.3227 688.752 57.4905 688.249 57.4905C688.081 57.4905 687.871 57.4066 687.745 57.2388C687.619 57.0709 687.493 56.903 687.493 56.6932C687.409 56.2735 687.409 55.77 687.409 55.1405C687.409 54.511 687.409 53.9654 687.493 53.5038C687.493 53.3359 687.577 53.1681 687.703 53.0002C687.829 52.8324 687.955 52.7904 688.123 52.7904C688.626 52.7904 689.046 53.0002 689.424 53.4618C689.801 53.9235 689.969 54.511 689.969 55.3083C689.969 56.0218 689.801 56.5673 689.466 56.903L689.508 56.945Z" fill="#000000"/>
<path d="M237.958 58.627C241.147 58.627 244.336 59.1305 247.484 60.1377C250.547 61.2708 253.653 62.4039 256.716 63.5369C257.597 63.5369 258.437 63.411 259.318 63.2012C260.199 62.9494 260.829 62.8655 261.207 62.8655C263.473 62.8655 265.571 64.3762 267.543 67.3558C269.768 70.8389 270.859 75.1194 270.859 80.2812C270.859 83.3027 270.019 85.7787 268.341 87.7931C266.662 89.8074 264.396 90.8146 261.5 90.8146C258.605 90.8146 255.373 87.877 251.512 81.9598C247.652 76.0427 242.448 73.1051 235.901 73.1051C232.418 73.1051 229.648 74.5319 227.592 77.4275C225.872 79.9035 224.99 82.7152 224.99 85.8626C224.99 93.5423 226.879 99.9631 230.698 105.125C234.768 110.622 240.182 113.35 246.938 113.35C251.093 113.35 254.534 112.637 257.262 111.252C259.738 109.657 262.214 108.062 264.69 106.426C266.033 106.426 267.082 107.055 267.837 108.314C268.592 109.573 268.97 110.916 268.97 112.343C268.97 114.819 268.005 117.631 266.075 120.778C263.934 124.261 261.71 125.982 259.36 125.982C255.625 127.534 251.89 128.877 248.155 130.052C244.462 131.227 240.727 131.815 237.076 131.815C226.501 131.815 217.478 128.206 210.009 120.988C202.539 113.77 198.762 105.125 198.762 95.0531C198.762 84.9814 202.79 76.4204 210.89 69.2023C218.695 62.236 227.718 58.7948 237.874 58.7948" fill="#000000"/>
<path d="M324.698 106.299C324.698 113.853 325.705 117.672 327.72 117.714C329.734 117.798 330.741 118.469 330.741 119.728C330.741 122.582 329.147 125.31 325.915 127.827C322.684 130.345 319.243 131.646 315.592 131.646C312.528 131.646 310.052 130.807 308.206 129.086C306.359 127.366 305.268 126.527 304.932 126.527C302.708 127.911 300.484 129.128 298.218 130.136C295.952 131.143 293.35 131.646 290.412 131.646C285.796 131.646 281.977 130.513 278.956 128.247C275.473 125.645 273.752 121.994 273.752 117.336C273.752 113.265 275.64 109.74 279.375 106.719C283.866 103.194 290.161 101.389 298.218 101.389C300.106 101.389 301.239 101.305 301.617 101.095C302.372 100.676 302.708 99.6686 302.708 97.9899C302.708 94.255 302.331 91.6112 301.575 90.0584C300.82 88.5057 299.603 87.7503 298.008 87.7503C296.287 87.7503 294.525 88.8834 292.804 91.1495C288.985 96.1015 285.544 98.5775 282.481 98.5775C280.886 98.5775 279.543 98.0739 278.452 97.0667C277.361 96.0595 276.857 94.7166 276.857 93.08C276.857 89.1352 280.089 85.736 286.51 82.8404C292.133 80.3224 297.756 79.0215 303.38 79.0215C308.248 79.0215 312.528 79.9867 316.221 81.9171C321.887 84.8547 324.74 89.6388 324.74 96.2274V106.257L324.698 106.299ZM294.609 115.112C294.609 116.581 294.987 117.84 295.7 118.931C296.455 119.98 297.504 120.525 298.889 120.525C300.61 120.525 301.785 119.728 302.414 118.133C302.834 117.126 303.002 115.574 303.002 113.433C303.002 111.881 302.876 110.706 302.582 109.908C302.331 109.111 301.533 108.691 300.274 108.691C298.68 108.691 297.295 109.363 296.204 110.664C295.112 111.964 294.567 113.433 294.567 115.112H294.609Z" fill="#000000"/>
<path d="M349.876 106.805V113.016C349.876 114.695 349.96 116.206 350.128 117.59C350.296 118.975 351.765 120.654 354.493 122.668C355.836 123.592 356.507 124.599 356.507 125.69C356.507 127.914 355.164 129.467 352.478 130.348C350.548 130.977 347.904 131.313 344.547 131.313C341.819 131.313 339.301 130.852 337.035 129.886C334.769 128.963 333.636 127.662 333.636 125.984C333.762 124.892 335.021 123.214 337.329 120.864C338.378 119.773 338.923 118.682 338.923 117.548C338.923 115.198 339.007 111.841 339.133 107.393C339.259 102.986 339.343 99.839 339.343 97.9505C339.343 94.5513 338.042 91.8235 335.482 89.8092C334.223 88.802 333.594 87.7529 333.594 86.5778C333.594 83.6822 335.23 81.7938 338.504 80.8705C340.56 80.283 343.917 79.9473 348.575 79.9473C353.234 79.9473 356.591 80.283 358.311 80.9125C360.032 81.542 361.417 82.6331 362.424 84.2278C363.431 85.7805 364.942 88.6342 366.956 92.7048C369.642 98.2023 371.069 101.098 371.279 101.434C371.489 101.769 371.699 101.937 371.992 101.937C372.118 101.937 372.328 101.811 372.58 101.518C374.51 98.3702 375.853 96.146 376.609 94.8031C377.826 92.6629 378.875 90.4806 379.84 88.1725C381.267 84.8992 383.029 82.717 385.211 81.6259C387.394 80.5348 391.213 79.9892 396.71 79.9892C399.186 80.1991 401.704 80.4089 404.264 80.5768C407.621 81.3741 409.551 83.3045 410.097 86.2841C409.887 88.0886 409.132 89.4315 407.831 90.3128C406.53 91.1941 405.859 91.9075 405.775 92.4111C405.691 92.9566 405.649 93.9218 405.565 95.2647C405.481 96.6496 405.481 98.2862 405.481 100.217C405.481 102.021 405.565 105.169 405.691 109.701C405.817 114.233 405.9 117.045 405.9 118.178C405.9 119.269 406.614 120.402 407.999 121.703C409.384 122.962 410.097 124.179 410.097 125.312C410.097 127.452 408.293 129.047 404.683 130.012C401.872 130.81 398.389 131.229 394.234 131.229H389.324C384.582 131.229 381.435 130.852 379.882 130.096C378.329 129.341 377.574 128.166 377.574 126.655C377.574 126.193 377.658 125.69 377.784 125.102C377.909 124.515 378.623 123.717 379.882 122.626C381.141 121.577 381.896 120.36 382.148 119.017C382.4 117.674 382.484 116.08 382.484 114.191C382.484 113.646 382.484 112.597 382.4 111.002C382.316 109.407 382.316 107.98 382.316 106.805C382.316 106.134 382.064 105.798 381.602 105.798C381.183 105.798 380.763 106.218 380.301 107.057C379.84 107.896 379.168 109.155 378.287 110.834C377.406 112.513 376.231 114.947 374.678 118.136C372.202 123.13 370.607 126.193 369.852 127.243C368.719 128.921 367.67 129.677 366.747 129.551C365.362 129.551 364.187 129.131 363.347 128.25C362.088 126.991 360.368 124.095 358.228 119.521L351.219 106.595C351.009 106.176 350.758 106.008 350.422 106.008C350.002 106.008 349.834 106.26 349.834 106.805" fill="#000000"/>
<path d="M464.02 106.299C464.02 113.853 465.028 117.672 467.042 117.714C469.056 117.798 470.064 118.469 470.064 119.728C470.064 122.582 468.469 125.31 465.237 127.827C462.048 130.345 458.565 131.646 454.914 131.646C451.85 131.646 449.375 130.807 447.528 129.086C445.682 127.366 444.59 126.527 444.255 126.527C442.03 127.911 439.806 129.128 437.54 130.136C435.274 131.143 432.672 131.646 429.735 131.646C425.118 131.646 421.3 130.513 418.278 128.247C414.795 125.645 413.074 121.994 413.074 117.336C413.074 113.265 414.963 109.74 418.698 106.719C423.188 103.194 429.483 101.389 437.54 101.389C439.429 101.389 440.562 101.305 440.939 101.095C441.695 100.676 442.03 99.6686 442.03 97.9899C442.03 94.255 441.653 91.6112 440.855 90.0584C440.1 88.5057 438.883 87.7503 437.288 87.7503C435.568 87.7503 433.805 88.8834 432.085 91.1495C428.266 96.1015 424.825 98.5775 421.761 98.5775C420.166 98.5775 418.824 98.0739 417.732 97.0667C416.641 96.0595 416.138 94.7166 416.138 93.08C416.138 89.1352 419.369 85.736 425.748 82.8404C431.371 80.3224 436.995 79.0215 442.618 79.0215C447.486 79.0215 451.767 79.9867 455.46 81.9171C461.125 84.8547 463.979 89.6388 463.979 96.2274V106.257L464.02 106.299ZM433.931 115.112C433.931 116.581 434.309 117.84 435.022 118.931C435.778 119.98 436.827 120.525 438.254 120.525C439.974 120.525 441.149 119.728 441.779 118.133C442.198 117.126 442.366 115.574 442.366 113.433C442.366 111.881 442.24 110.706 441.947 109.908C441.695 109.111 440.897 108.691 439.638 108.691C438.044 108.691 436.701 109.363 435.568 110.664C434.477 111.964 433.931 113.433 433.931 115.112Z" fill="#000000"/>
<path d="M476.485 110.413C476.485 105.251 476.401 101.852 476.192 100.131C475.982 98.4106 475.73 97.4034 475.394 97.0676C473.841 96.606 472.583 96.1864 471.575 95.8506C469.645 95.1372 468.68 93.6265 468.68 91.3603C468.68 88.3388 472.415 85.5271 479.926 82.8413C486.557 80.4912 492.18 79.3162 496.797 79.3162C498.014 79.3162 498.769 79.526 499.105 79.9037C499.44 80.3234 499.608 81.1207 499.608 82.2958C499.608 82.6315 499.608 83.0511 499.692 83.5967C499.776 84.1422 500.112 84.394 500.699 84.394C502.966 83.0092 505.358 81.7922 507.834 80.785C510.729 79.568 513.415 78.9805 515.975 78.9805C522.186 78.9805 527.222 81.6663 531.041 86.9959C534.44 91.738 536.16 97.3614 536.16 103.824C536.16 111.042 533.978 117.337 529.656 122.751C524.956 128.626 519.08 131.563 511.988 131.563C510.058 131.563 507.834 131.144 505.358 130.346C504.099 129.927 502.84 129.507 501.665 129.045C501.077 129.045 500.658 129.381 500.406 130.095C500.154 130.808 500.07 131.521 500.07 132.235C500.07 134.963 501.119 136.977 503.175 138.236C505.232 139.495 506.281 140.88 506.281 142.349C506.281 144.741 504.602 146.503 501.245 147.552C498.979 148.266 496.293 148.643 493.23 148.643C486.599 148.643 480.976 147.636 476.275 145.58C471.575 143.524 469.267 141.215 469.267 138.614C469.267 136.935 469.981 135.718 471.491 135.005C473.506 133.997 474.765 132.948 475.268 131.857C475.772 130.766 476.108 129.213 476.317 127.241C476.527 125.269 476.611 121.45 476.611 115.784V110.287L476.485 110.413ZM503.973 93.8783C502.042 93.8783 500.783 94.8854 500.28 96.8998C499.524 99.5017 499.189 105.083 499.189 113.644C499.189 116.666 500.909 118.134 504.309 118.134C506.449 118.134 508.085 117.379 509.218 115.826C510.603 113.896 511.317 110.832 511.317 106.594C511.317 102.104 510.687 98.8722 509.344 96.8578C508.043 94.8435 506.239 93.8363 503.973 93.8363V93.8783Z" fill="#000000"/>
<path d="M568.349 79.0605C575.441 79.0605 581.148 80.7392 585.513 84.0545C589.373 86.9921 591.346 90.4332 591.346 94.378C591.346 97.1058 590.422 99.4558 588.534 101.386C586.646 103.317 584.337 104.282 581.526 104.282C577.707 104.282 575.063 102.226 573.594 98.071C572.125 93.9164 570.195 91.8601 567.761 91.8601C565.705 91.8601 564.026 92.7413 562.809 94.4619C561.55 96.1825 560.963 98.1549 560.963 100.379C560.963 104.24 562.264 107.723 564.823 110.745C567.383 113.766 570.573 115.319 574.392 115.319C576.406 115.319 578.252 115.025 579.889 114.48C581.568 113.892 583.246 113.346 584.925 112.717C586.184 112.717 587.275 113.304 588.156 114.438C589.038 115.571 589.457 116.83 589.457 118.131C589.457 121.32 587.401 124.299 583.246 127.069C578.63 130.133 573.007 131.685 566.376 131.685C558.696 131.685 552.192 129.167 546.904 124.174C541.616 119.18 538.973 112.843 538.973 105.247C538.973 97.6513 541.784 91.7761 547.408 86.6983C553.031 81.6204 559.997 79.0605 568.391 79.0605" fill="#000000"/>
<path d="M625.127 98.198C625.924 98.198 627.603 97.065 630.205 94.7988C632.765 92.5327 634.066 91.0219 634.066 90.3085C634.066 90.0567 633.478 89.0076 632.345 87.203C631.757 86.2798 631.464 85.4824 631.464 84.8949C631.464 83.1743 632.639 81.7895 634.989 80.8243C637.339 79.8591 640.738 79.3555 645.228 79.3555C649.089 79.3555 652.111 79.6073 654.251 80.1528C658.28 81.16 660.252 83.0065 660.252 85.6503C660.252 87.3289 659.371 88.42 657.65 88.9656C654.293 89.9728 651.943 90.896 650.516 91.7773C648.712 92.7005 647.201 93.6238 645.942 94.4631C644.683 95.3444 644.095 95.9738 644.095 96.3515C644.095 97.4007 646.362 100.506 650.936 105.584C653.664 108.647 656.433 111.711 659.245 114.691C660.588 116.369 662.812 118.174 665.96 120.104C668.184 121.447 669.275 122.874 669.275 124.427C669.275 126.147 668.519 127.574 667.009 128.623C665.498 129.672 662.896 130.218 659.203 130.218H644.977C642.878 130.218 641.536 130.05 640.906 129.756C640.277 129.462 639.311 128.497 638.052 126.903L628.694 114.984C627.939 113.935 627.225 112.97 626.47 112.173C625.714 111.375 625.211 110.956 624.875 110.956C624.623 110.956 624.372 111.207 624.162 111.711C623.952 112.215 623.868 112.886 623.868 113.767C623.868 117.125 624.581 119.475 626.008 120.776C627.435 122.076 628.148 123.293 628.148 124.469C628.148 126.483 627.393 127.994 625.84 129.001C623.364 130.595 618.664 131.435 611.782 131.435C605.697 131.435 601.752 131.225 599.948 130.847C596.129 129.966 594.24 128.078 594.24 125.14C594.24 123.797 595.122 122.622 596.842 121.573C598.563 120.524 599.57 118.719 599.822 116.117C600.073 113.515 600.157 111.081 600.157 108.773C600.157 106.717 600.115 104.031 599.99 100.8C599.906 97.5685 599.822 95.848 599.822 95.7221C599.822 92.7845 598.982 90.6442 597.346 89.3433C595.709 88.0424 594.87 86.6995 594.87 85.3566C594.87 82.7967 596.842 81.0761 600.787 80.1528C603.053 79.6073 606.033 79.3555 609.726 79.3555H612.244C616.272 79.3555 619.42 79.6073 621.686 80.1528C625.379 81.0341 627.183 82.5868 627.183 84.853C627.183 85.986 626.848 86.9093 626.176 87.5388C624.581 89.2174 623.784 91.3996 623.784 94.1693C623.784 95.0926 623.784 96.0158 623.868 96.8551C623.952 97.7364 624.33 98.1561 625.085 98.1561" fill="#000000"/>
<path d="M677.083 96.224C677.083 93.2864 676.244 91.1462 674.607 89.8452C672.97 88.5443 672.131 87.2014 672.131 85.8585C672.131 83.2986 674.019 81.578 677.754 80.6548C679.978 80.1092 682.832 79.8574 686.399 79.8574C691.099 79.8574 694.499 80.0672 696.639 80.4449C701.465 81.3262 703.857 83.1307 703.857 85.8585C703.857 86.9916 703.269 88.0407 702.094 88.964C700.919 89.8872 700.248 91.2721 700.038 93.0346C699.828 94.7972 699.744 96.0142 699.702 96.6437C699.702 97.2732 699.66 98.1544 699.66 99.2875C699.66 101.218 699.87 102.351 700.248 102.687C700.793 103.148 703.06 101.847 707.088 98.7839C711.117 95.7204 713.131 93.6221 713.131 92.4891C713.131 91.0203 712.67 89.7613 711.746 88.6702C710.823 87.6211 710.362 86.446 710.362 85.271C710.362 82.8789 712.166 81.2423 715.775 80.4449C717.58 80.0253 720.307 79.8574 723.916 79.8574C731.009 79.8574 735.793 80.6128 738.269 82.1655C739.654 83.0468 740.367 84.2638 740.367 85.9005C740.367 87.5371 739.612 88.964 738.059 90.2229C736.506 91.4819 735.751 93.5382 735.751 96.3499V115.025C735.751 117.71 736.506 119.683 738.059 120.942C739.612 122.201 740.367 123.711 740.367 125.474C740.367 127.027 739.612 128.202 738.059 129.083C735.121 130.678 729.75 131.475 721.902 131.475C717.16 131.475 713.929 131.097 712.166 130.384C710.026 129.461 708.977 127.992 708.977 126.062C708.977 125.054 709.396 124.131 710.236 123.25C712.208 121.236 713.173 119.431 713.173 117.794V112.339C713.173 110.786 713.131 109.653 713.005 108.856C712.921 108.1 712.67 107.681 712.334 107.681C711.033 107.681 708.095 109.779 703.437 114.017C700.961 116.284 699.702 117.962 699.702 119.053C699.702 120.648 700.08 121.823 700.793 122.578C701.549 123.334 701.885 124.257 701.885 125.39C701.885 128.076 699.828 129.838 695.758 130.72C693.617 131.181 690.512 131.433 686.441 131.433C681.405 131.433 677.796 130.93 675.572 129.964C673.348 128.999 672.215 127.488 672.215 125.39C672.215 124.173 672.718 123.208 673.726 122.494C675.992 120.816 677.125 118.298 677.125 114.983V96.224H677.083Z" fill="#000000"/>
<path d="M767.981 107.219C766.722 107.219 765.925 107.302 765.673 107.428C765.421 107.554 765.254 107.974 765.254 108.645C765.254 111.037 766.471 113.178 768.947 115.066C771.423 116.955 773.94 117.878 776.458 117.878C778.85 117.878 781.159 117.374 783.341 116.409C785.523 115.444 787.663 114.437 789.803 113.346C790.727 113.346 791.608 113.933 792.447 115.108C793.287 116.283 793.706 117.374 793.706 118.381C793.706 121.99 790.979 125.18 785.565 127.908C780.529 130.426 775.535 131.726 770.499 131.726C761.938 131.726 755.098 129.041 750.02 123.627C745.404 118.759 743.096 112.8 743.096 105.792C743.096 98.1959 745.865 91.8171 751.405 86.7393C756.944 81.6615 763.575 79.1016 771.255 79.1016C778.934 79.1016 785.145 81.6195 789.929 86.6134C793.874 90.768 795.847 95.1324 795.847 99.7486C795.847 102.77 795.217 104.826 793.958 105.96C793.035 106.841 791.566 107.26 789.636 107.26H767.855L767.981 107.219ZM776.71 94.6288C776.71 92.7404 776.165 91.1877 775.115 89.9707C774.024 88.7537 772.598 88.1661 770.793 88.1661C769.198 88.1661 767.772 88.8376 766.596 90.2224C765.379 91.6073 764.792 93.1181 764.792 94.7967C764.792 95.9298 765.128 96.6852 765.757 97.1048C766.387 97.5245 767.268 97.6923 768.401 97.6923H772.933C774.192 97.6923 775.074 97.5664 775.535 97.2727C776.333 96.8111 776.752 95.9298 776.752 94.6288H776.71Z" fill="#000000"/>
</svg>
