<?xml version="1.0" encoding="utf-8"?>
<!-- Generator: Adobe Illustrator 27.6.1, SVG Export Plug-In . SVG Version: 6.00 Build 0)  -->
<svg version="1.1" id="Слой_1" xmlns="http://www.w3.org/2000/svg" xmlns:xlink="http://www.w3.org/1999/xlink" x="0px" y="0px"
	 viewBox="0 0 177 112.9" enable-background="new 0 0 177 112.9" xml:space="preserve">
<g>
	<path fill-rule="evenodd" clip-rule="evenodd" fill="#ED1B2F" d="M48.6,39.8C48.6,17.8,66.5,0,88.5,0c22,0,39.8,17.8,39.8,39.8
		c0,22-17.8,39.8-39.8,39.8C66.5,79.7,48.6,61.9,48.6,39.8 M103.1,71.7c-4.4,2-9.4,3.2-14.6,3.2c-13.9,0-25.9-8.1-31.5-19.7
		c1.7-6.2,5.2-11.6,9.8-15.8c0,0.2,0,0.3,0,0.5C66.8,57.6,81.1,72,98.9,72C100.3,72,101.7,71.9,103.1,71.7z M88.5,63.8
		c17.9,0,32.3-14.5,32.3-32.3c0-2.3-0.2-4.6-0.7-6.8c2.2,4.6,3.4,9.7,3.4,15.1c0,14.1-8.4,26.3-20.4,31.9
		c-14.4-3.4-25.1-16.4-25.1-31.8c0-9.4,4-18,10.4-24c-17.9,0-32.3,14.5-32.3,32.3c0,2.3,0.2,4.5,0.7,6.7c-2.2-4.6-3.4-9.7-3.4-15.1
		c0-19.4,15.7-35.1,35.1-35.1c13.9,0,25.9,8.1,31.6,19.8c-1.7,6.2-5.2,11.7-9.8,15.8c0-0.2,0-0.3,0-0.5c0-17.7-14.4-32.1-32.1-32.1
		c-1.5,0-2.9,0.1-4.3,0.3c14.4,3.4,25.1,16.4,25.1,31.8C98.9,49.3,94.9,57.9,88.5,63.8z"/>
	<path fill-rule="evenodd" clip-rule="evenodd" d="M166.8,101.9h5.8h4.4c0,3.7,0,7.3,0,11c-4.7,0-9.4,0-14.1,0c-2.8,0-5-2.3-5-5
		v-7.5c0-2.8,2.3-5,5-5c4.7,0,9.4,0,14.1,0v4h-0.1c-4.1,0-8.3,0-12.4,0c-1.2,0-2.2,1-2.2,2.2v5.1c0,1.2,1,2.2,2.2,2.2h5.9l2.2,0
		v-3.2h-5.8V101.9z M134.7,95.4h4h0.2l10.4,11.4V95.4h4.2v17.5h-4.2l-10.4-11.2v11.2h-4.2V95.4z M4.4,101.9H0c0,3.7,0,7.3,0,11
		c4.7,0,9.4,0,14.1,0c2.8,0,5-2.3,5-5v-7.5c0-2.8-2.3-5-5-5c-4.7,0-9.4,0-14.1,0v4h0.1c4.1,0,8.3,0,12.4,0c1.2,0,2.2,1,2.2,2.2v5.1
		c0,1.2-1,2.2-2.2,2.2H6.6l-2.2,0v-3.2V101.9z M118.4,101.9h11.9v3.7h-11.9v3.5h11.9v3.7h-11.9h-4.3v-3.7v-3.5v-3.7v-2.5v-2.8v-0.9
		h16.2v3.7h-11.9V101.9z M97.5,95.6H98h6.8h4.9v3.7h-0.9H98h-4.5C93.6,97.3,95.4,95.6,97.5,95.6z M93.5,101.9h4.3h11.9v3.7H97.8v7.3
		h-4.3v-7.3V101.9z M78.4,101.9h5.8h4.4c0,3.7,0,7.3,0,11c-4.7,0-9.4,0-14.1,0c-2.8,0-5-2.3-5-5v-7.5c0-2.8,2.3-5,5-5
		c4.7,0,9.4,0,14.1,0v4h-0.1c-4.1,0-8.3,0-12.4,0c-1.2,0-2.2,1-2.2,2.2v5.1c0,1.2,1,2.2,2.2,2.2H82l2.2,0v-3.2h-5.8V101.9z M46,95.4
		h4h0.2l10.4,11.4V95.4h4.2v17.5h-4.2l-10.4-11.2v11.2H46V95.4z M27.6,95.4h9.1c2.8,0,5,2.3,5,5v7.5c0,2.8-2.3,5-5,5h-9.1
		c-2.8,0-5-2.3-5-5v-7.5C22.6,97.6,24.8,95.4,27.6,95.4z M29.2,99.4h5.9c1.2,0,2.2,1,2.2,2.2v5.1c0,1.2-1,2.2-2.2,2.2h-5.9
		c-1.2,0-2.2-1-2.2-2.2v-5.1C27,100.4,28,99.4,29.2,99.4z"/>
</g>
<g>
</g>
<g>
</g>
<g>
</g>
<g>
</g>
<g>
</g>
<g>
</g>
</svg>
