<?xml version="1.0" encoding="utf-8"?>
<!-- Generator: Adobe Illustrator 27.6.1, SVG Export Plug-In . SVG Version: 6.00 Build 0)  -->
<svg version="1.1" id="Layer_1" xmlns="http://www.w3.org/2000/svg" xmlns:xlink="http://www.w3.org/1999/xlink" x="0px" y="0px"
	 viewBox="0 0 718 138" style="enable-background:new 0 0 718 138;" xml:space="preserve">
<g>
	<path d="M465.4,0h-91.6c-2,0-3.9,0.8-5.3,2.2c-1.4,1.4-2.2,3.3-2.2,5.3v53c0,2,0.8,3.9,2.2,5.4c1.4,1.4,3.3,2.2,5.3,2.2h91.6
		c2,0,3.9-0.8,5.3-2.2c1.4-1.4,2.2-3.3,2.2-5.4v-53c0-2-0.8-3.9-2.2-5.3C469.4,0.8,467.5,0,465.4,0z M386.6,53.8V14.3
		c0,0,0-0.1,0-0.1c0,0,0-0.1,0.1-0.1c0,0,0.1-0.1,0.1-0.1c0,0,0.1,0,0.1,0h65.5c0,0,0.1,0,0.1,0c0,0,0.1,0,0.1,0.1
		c0,0,0.1,0.1,0.1,0.1c0,0,0,0.1,0,0.1v39.4c0,0.1,0,0.2-0.1,0.2c-0.1,0.1-0.2,0.1-0.2,0.1h-65.5c0,0-0.1,0-0.1,0c0,0-0.1,0-0.1-0.1
		s-0.1-0.1-0.1-0.1C386.6,53.9,386.6,53.8,386.6,53.8z"/>
	<path d="M102.9,0H84c-0.2,0-0.4,0.1-0.5,0.2c-0.1,0.1-0.2,0.3-0.2,0.5v53.1c0,0,0,0.1,0,0.1c0,0,0,0.1-0.1,0.1c0,0-0.1,0.1-0.1,0.1
		c0,0-0.1,0-0.1,0H20.6c-0.1,0-0.2,0-0.2-0.1c-0.1-0.1-0.1-0.2-0.1-0.2V42.5c0-0.2-0.1-0.4-0.2-0.5c-0.1-0.1-0.3-0.2-0.5-0.2H0.7
		c-0.2,0-0.4,0.1-0.5,0.2C0.1,42.2,0,42.3,0,42.5v18c0,2,0.8,3.9,2.2,5.4c1.4,1.4,3.3,2.2,5.3,2.2H96c2,0,3.9-0.8,5.3-2.2
		c1.4-1.4,2.2-3.3,2.2-5.4V0.7c0-0.1,0-0.2-0.1-0.3c0-0.1-0.1-0.2-0.1-0.2c-0.1-0.1-0.1-0.1-0.2-0.1C103.1,0,103,0,102.9,0z"/>
	<path d="M347.5,0h-104c-0.2,0-0.4,0.1-0.5,0.2c-0.1,0.1-0.2,0.3-0.2,0.5v12.6c0,0.2,0.1,0.4,0.2,0.5c0.1,0.1,0.3,0.2,0.5,0.2H285
		c0,0,0.1,0,0.1,0c0,0,0.1,0,0.1,0.1c0,0,0.1,0.1,0.1,0.1c0,0,0,0.1,0,0.1v53.1c0,0.2,0.1,0.4,0.2,0.5c0.1,0.1,0.3,0.2,0.5,0.2h18.9
		c0.2,0,0.4-0.1,0.5-0.2c0.1-0.1,0.2-0.3,0.2-0.5V14.3c0,0,0-0.1,0-0.1c0,0,0-0.1,0.1-0.1c0,0,0.1-0.1,0.1-0.1c0,0,0.1,0,0.1,0h41.5
		c0.2,0,0.4-0.1,0.5-0.2c0.1-0.1,0.2-0.3,0.2-0.5V0.7c0-0.2-0.1-0.4-0.2-0.5C347.9,0.1,347.7,0,347.5,0z"/>
	<path d="M593.5,0h-18.9c-0.2,0-0.4,0.1-0.5,0.2c-0.1,0.1-0.2,0.3-0.2,0.5v53.1c0,0,0,0.1,0,0.1c0,0,0,0.1-0.1,0.1s-0.1,0.1-0.1,0.1
		c0,0-0.1,0-0.1,0h-61.8c0,0-0.1,0-0.1,0c0,0-0.1,0-0.1-0.1c0,0-0.1-0.1-0.1-0.1c0,0,0-0.1,0-0.1V0.7c0-0.1,0-0.2-0.1-0.3
		c0-0.1-0.1-0.2-0.2-0.2c-0.1-0.1-0.1-0.1-0.2-0.1c-0.1,0-0.2-0.1-0.3-0.1h-18.9c-0.1,0-0.2,0-0.3,0.1c-0.1,0-0.2,0.1-0.2,0.1
		c-0.1,0.1-0.1,0.1-0.1,0.2s-0.1,0.2-0.1,0.3v59.8c0,2,0.8,3.9,2.2,5.4c1.4,1.4,3.3,2.2,5.3,2.2h88c2,0,3.9-0.8,5.3-2.2
		c1.4-1.4,2.2-3.3,2.2-5.4V0.7c0-0.2-0.1-0.4-0.2-0.5C593.9,0.1,593.7,0,593.5,0z"/>
	<path d="M717.7,66.9l-38.6-26.5h30.1c2,0,3.9-0.8,5.3-2.2c1.4-1.4,2.2-3.3,2.2-5.3V7.6c0-1-0.2-2-0.6-2.9c-0.4-0.9-0.9-1.8-1.6-2.5
		C713.8,1.5,713,1,712,0.6c-0.9-0.4-1.9-0.6-2.9-0.6H613c-0.1,0-0.2,0-0.3,0.1c-0.1,0-0.2,0.1-0.2,0.1c-0.1,0.1-0.1,0.1-0.1,0.2
		c0,0.1-0.1,0.2-0.1,0.3v66.7c0,0.2,0.1,0.4,0.2,0.5c0.1,0.1,0.3,0.2,0.5,0.2h18.9c0.2,0,0.4-0.1,0.5-0.2c0.1-0.1,0.2-0.3,0.2-0.5
		V28.9l56.8,39c0.3,0.2,0.6,0.3,1,0.3h27c0.1,0,0.3,0,0.4-0.1c0.1-0.1,0.2-0.2,0.2-0.3c0-0.1,0-0.3,0-0.4
		C717.9,67.1,717.8,66.9,717.7,66.9z M632.9,14h63.2c0,0,0.1,0,0.1,0c0,0,0.1,0,0.1,0.1c0,0,0.1,0.1,0.1,0.1c0,0,0,0.1,0,0.1V26
		c0,0,0,0.1,0,0.1c0,0,0,0.1-0.1,0.1c0,0-0.1,0.1-0.1,0.1c0,0-0.1,0-0.1,0h-63.2c0,0-0.1,0-0.1,0c0,0-0.1,0-0.1-0.1
		c0,0-0.1-0.1-0.1-0.1c0,0,0-0.1,0-0.1V14.3c0,0,0-0.1,0-0.1c0,0,0-0.1,0.1-0.1c0,0,0.1-0.1,0.1-0.1C632.8,14,632.9,14,632.9,14z"/>
	<path d="M224,14c0.2,0,0.4-0.1,0.5-0.2c0.1-0.1,0.2-0.3,0.2-0.5V0.7c0-0.1,0-0.2-0.1-0.3c0-0.1-0.1-0.2-0.1-0.2
		c-0.1-0.1-0.1-0.1-0.2-0.1C224.2,0,224.1,0,224,0h-94.7c-1,0-2,0.2-2.9,0.6s-1.8,0.9-2.5,1.6c-0.7,0.7-1.3,1.5-1.6,2.5
		c-0.4,0.9-0.6,1.9-0.6,2.9v53c0,2,0.8,3.9,2.2,5.4c1.4,1.4,3.3,2.2,5.3,2.2H224c0.2,0,0.4-0.1,0.5-0.2c0.1-0.1,0.2-0.3,0.2-0.5
		V54.8c0-0.1,0-0.2-0.1-0.3c0-0.1-0.1-0.2-0.1-0.2c-0.1-0.1-0.1-0.1-0.2-0.2c-0.1,0-0.2-0.1-0.3-0.1h-81.7c0,0-0.1,0-0.1,0
		c0,0-0.1,0-0.1-0.1c0,0-0.1-0.1-0.1-0.1c0,0,0-0.1,0-0.1V41.4c0,0,0-0.1,0-0.1c0,0,0-0.1,0.1-0.1s0.1-0.1,0.1-0.1c0,0,0.1,0,0.1,0
		h76.4c0.1,0,0.2,0,0.3,0c0.1,0,0.2-0.1,0.2-0.1c0.1-0.1,0.1-0.1,0.2-0.2c0-0.1,0.1-0.2,0.1-0.3V27.8c0-0.1,0-0.2-0.1-0.3
		c0-0.1-0.1-0.2-0.2-0.2c-0.1-0.1-0.1-0.1-0.2-0.1c-0.1,0-0.2-0.1-0.3-0.1h-76.4c-0.1,0-0.2,0-0.2-0.1c-0.1-0.1-0.1-0.2-0.1-0.2
		V14.3c0,0,0-0.1,0-0.1c0,0,0-0.1,0.1-0.1c0,0,0.1-0.1,0.1-0.1c0,0,0.1,0,0.1,0L224,14z"/>
</g>
<g>
	<path d="M109.9,98.8c1.8,0,3.6,0.3,5.2,1.1c3.1,1.4,5.6,3.9,7,7c0.7,1.6,1.1,3.3,1.2,5.1c0,0.8,0.1,1.7,0.1,2.9c0,1.1,0,2.3,0,3.5
		c0,1.2,0,2.3,0,3.4c0,1.1,0,2.1-0.1,2.8c-0.1,1.7-0.5,3.5-1.2,5.1c-1.4,3.1-3.9,5.6-7,7c-1.6,0.7-3.4,1.1-5.2,1.1H85.6
		c-0.3,0-0.4-0.2-0.4-0.5V99.3c0-0.3,0.1-0.5,0.4-0.5L109.9,98.8z M109.1,131.1c0.8,0,1.6-0.2,2.3-0.6c0.7-0.4,1.3-0.9,1.7-1.6
		c0.5-0.7,0.9-1.4,1.1-2.2c0.3-0.8,0.4-1.6,0.5-2.4c0-0.7,0.1-1.6,0.1-2.7c0-1.1,0-2.2,0-3.3c0-1.1,0-2.3,0-3.3c0-1.1,0-2-0.1-2.8
		c0-0.8-0.2-1.6-0.4-2.4c-0.2-0.8-0.6-1.5-1.1-2.2c-0.5-0.6-1.1-1.2-1.7-1.6c-0.7-0.4-1.5-0.6-2.4-0.6H93.7v25.6H109.1z"/>
	<path d="M152.2,109.9c0.1,0,0.1,0,0.2,0c0.1,0,0.1,0.1,0.2,0.1c0,0,0.1,0.1,0.1,0.2c0,0.1,0,0.1,0,0.2v5.1c0,0.1,0,0.1,0,0.2
		s-0.1,0.1-0.1,0.2c0,0-0.1,0.1-0.2,0.1c-0.1,0-0.1,0-0.2,0h-11.1c-0.9,0-1.8,0.1-2.7,0.3c-0.6,0.1-1.1,0.4-1.6,0.8
		c-0.4,0.3-0.6,0.8-0.7,1.2c-0.1,0.5-0.2,1.1-0.2,1.6v17.3c0,0.1,0,0.1,0,0.2c0,0.1-0.1,0.1-0.1,0.2c0,0-0.1,0.1-0.2,0.1
		c-0.1,0-0.1,0-0.2,0h-6.6c-0.1,0-0.1,0-0.2,0c-0.1,0-0.1-0.1-0.2-0.1c0,0-0.1-0.1-0.1-0.2c0-0.1,0-0.1,0-0.2v-18.1
		c-0.1-1.3,0.1-2.6,0.7-3.8c0.5-1.2,1.3-2.2,2.3-3.1c2.8-1.8,6-2.6,9.3-2.3H152.2z"/>
	<path d="M164.6,98.8c0.3,0,0.5,0.1,0.5,0.4v6.3c0,0.1,0,0.1,0,0.2c0,0.1-0.1,0.1-0.1,0.2c0,0-0.1,0.1-0.2,0.1c-0.1,0-0.1,0-0.2,0
		H158c-0.1,0-0.1,0-0.2,0c-0.1,0-0.1-0.1-0.2-0.1c0,0-0.1-0.1-0.1-0.2s0-0.1,0-0.2v-6.3c0-0.3,0.2-0.4,0.5-0.4H164.6z M164.6,109.9
		c0.3,0,0.5,0.1,0.5,0.4v26.8c0,0.1,0,0.1,0,0.2c0,0.1-0.1,0.1-0.1,0.2c0,0-0.1,0.1-0.2,0.1c-0.1,0-0.1,0-0.2,0H158
		c-0.1,0-0.1,0-0.2,0c-0.1,0-0.1-0.1-0.2-0.1c0,0-0.1-0.1-0.1-0.2s0-0.1,0-0.2v-26.8c0-0.3,0.2-0.4,0.5-0.4H164.6z"/>
	<path d="M203.6,109.8c0.6,0,0.7,0.2,0.4,0.7c-1.7,4-3.3,7.5-4.7,10.7c-0.6,1.4-1.2,2.7-1.8,4.1c-0.6,1.3-1.1,2.5-1.6,3.6
		c-0.5,1.1-0.9,2-1.2,2.7c-0.3,0.7-0.5,1.2-0.6,1.3c-0.4,1-1,1.9-1.7,2.8c-0.6,0.7-1.3,1.2-2.2,1.5c-0.5,0.2-1,0.3-1.5,0.4
		c-0.6,0.1-1.2,0.1-1.9,0.1c-0.6,0-1.2,0-1.8-0.1c-0.5-0.1-1-0.2-1.4-0.4c-0.8-0.3-1.6-0.9-2.2-1.5c-0.7-0.8-1.3-1.8-1.7-2.8
		c-0.1-0.1-0.3-0.6-0.6-1.3c-0.3-0.7-0.7-1.6-1.2-2.7c-0.5-1.1-1-2.3-1.6-3.6c-0.6-1.3-1.2-2.7-1.8-4.1c-1.4-3.2-3-6.8-4.7-10.7
		c-0.1-0.5,0-0.7,0.5-0.7h6.2c0.3,0,0.6,0.1,0.9,0.2c0.3,0.2,0.5,0.4,0.6,0.8l8.3,18.8c0,0.1,0.1,0.1,0.1,0.2c0,0.1,0.1,0.1,0.2,0.1
		c0.1,0,0.2,0.1,0.3,0.1c0.1,0,0.2,0,0.3-0.1c0.1,0,0.2-0.1,0.2-0.1c0.1-0.1,0.1-0.1,0.1-0.2l8.3-18.8c0.1-0.3,0.3-0.6,0.6-0.8
		c0.3-0.2,0.6-0.3,0.9-0.2H203.6z"/>
	<path d="M231.6,109.9c1.3,0,2.6,0.2,3.7,0.7c1.2,0.5,2.3,1.2,3.1,2.2c0.9,0.9,1.5,1.9,2,3.1c0.5,1.1,0.8,2.4,0.7,3.6v4.7
		c0,0.7-0.3,1.4-0.9,1.9c-0.3,0.3-0.6,0.5-1,0.7c-0.4,0.2-0.8,0.2-1.2,0.2h-21.6v1.1c0,0.9,0.3,1.7,0.8,2.4c0.3,0.4,0.6,0.6,1,0.8
		c0.4,0.2,0.8,0.3,1.3,0.3h19.5c0.3,0,0.5,0.1,0.5,0.4v5.1c0,0.1,0,0.1,0,0.2c0,0.1-0.1,0.1-0.1,0.2c0,0-0.1,0.1-0.2,0.1
		c-0.1,0-0.1,0-0.2,0h-20.5c-1.3,0-2.7-0.3-3.9-0.9c-1.1-0.6-2.2-1.4-3-2.3c-0.8-1-1.5-2.1-2-3.2c-0.5-1.2-0.8-2.4-0.9-3.7
		c0-0.5-0.1-1.1-0.1-1.8c0-0.6,0-1.3,0-2c0-0.7,0-1.3,0-1.9c0-0.6,0-1.2,0.1-1.8c0-1.3,0.3-2.5,0.8-3.7c0.5-1.2,1.2-2.3,2-3.3
		c0.8-1,1.9-1.7,3-2.3c1.2-0.6,2.5-0.9,3.9-0.9H231.6z M232.8,121.1c0.1,0,0.2,0,0.3-0.1c0.1,0,0.2-0.1,0.3-0.2
		c0.1-0.1,0.2-0.2,0.2-0.3c0-0.1,0.1-0.2,0.1-0.4v-0.9c0.1-0.4,0.1-0.9,0-1.3c-0.1-0.4-0.3-0.8-0.6-1.1c-0.3-0.3-0.7-0.5-1.1-0.7
		c-0.4-0.1-0.8-0.2-1.3-0.1h-10.9c-0.4,0-0.8,0-1.2,0.2c-0.4,0.2-0.7,0.4-1,0.7c-0.6,0.6-0.9,1.4-0.8,2.2v1.9H232.8z"/>
	<path d="M311.9,98.8c0.1,0,0.2,0,0.3,0.1c0.1,0,0.1,0.1,0.2,0.2c0,0.1,0,0.2,0,0.3c0,0.1-0.1,0.2-0.1,0.2l-21,23.1v14.6
		c0,0.1,0,0.1,0,0.2s-0.1,0.1-0.1,0.2c0,0-0.1,0.1-0.2,0.1c-0.1,0-0.1,0-0.2,0h-7.5c-0.1,0-0.1,0-0.2,0c-0.1,0-0.1-0.1-0.2-0.1
		c0,0-0.1-0.1-0.1-0.2c0-0.1,0-0.1,0-0.2v-14.7l-20.9-22.9c-0.1-0.1-0.1-0.1-0.1-0.2c0-0.1,0-0.2,0-0.3c0-0.1,0.1-0.2,0.2-0.2
		c0.1,0,0.2-0.1,0.3-0.1h8.4c0.3,0,0.7,0,1,0.2c0.3,0.1,0.6,0.3,0.8,0.6l13.4,14.6c0.3,0.3,0.8,0.5,1.2,0.5c0.5,0,0.9-0.2,1.2-0.5
		l13.4-14.6c0.2-0.3,0.5-0.5,0.8-0.6c0.3-0.1,0.7-0.2,1-0.2L311.9,98.8z"/>
	<path d="M329.9,109.7c1.9,0,3.7,0,5.5,0.1c1.6,0,3.2,0.3,4.8,0.8c1.3,0.4,2.4,1.1,3.4,2c0.9,0.9,1.6,1.9,2,3.1h-0.1
		c0.5,1.2,0.9,2.5,1,3.8c0.2,1.4,0.3,2.9,0.2,4.3c0,1.4-0.1,2.8-0.2,4.2c-0.2,1.3-0.5,2.6-1,3.8h0.1c-0.4,1.2-1.1,2.3-2,3.1
		c-1,0.9-2.1,1.6-3.4,2c-1.5,0.4-3.1,0.7-4.7,0.8c-1.8,0.1-3.7,0.1-5.7,0.1c-1.9,0-3.8,0-5.6-0.1c-1.6-0.1-3.1-0.3-4.7-0.8
		c-1.3-0.4-2.4-1-3.4-1.9c-1-0.9-1.7-2-2.1-3.2c-0.5-1.2-0.8-2.5-1-3.8c-0.2-1.4-0.3-2.8-0.3-4.3c0-1.5,0.1-2.9,0.3-4.4
		c0.2-1.3,0.5-2.6,1-3.8c0.5-1.2,1.2-2.2,2.1-3.1c1-0.9,2.1-1.6,3.4-2c1.6-0.4,3.2-0.7,4.8-0.8C326.2,109.7,328.1,109.7,329.9,109.7
		z M329.9,131.9c1.3,0,2.5,0,3.7-0.1c1,0,2-0.2,2.9-0.4c0.6-0.2,1.1-0.6,1.6-1.1c0.4-0.5,0.6-1,0.8-1.6c0.2-0.7,0.3-1.5,0.4-2.2
		c0.1-0.8,0.1-1.7,0.1-2.7c0-1,0-1.9-0.1-2.8c0-0.8-0.2-1.5-0.4-2.3c-0.2-0.6-0.4-1.2-0.8-1.7c-0.4-0.5-0.9-0.9-1.6-1
		c-1-0.2-2-0.4-3-0.4c-1.2-0.1-2.4-0.1-3.6-0.1c-1.3,0-2.5,0-3.7,0.1c-1,0-2,0.2-2.9,0.4c-0.6,0.1-1.1,0.5-1.5,1
		c-0.4,0.5-0.6,1.1-0.8,1.7c-0.2,0.8-0.3,1.5-0.4,2.3c-0.1,0.8-0.1,1.7-0.1,2.7c0,0.9,0,1.7,0.1,2.6c0.1,0.8,0.2,1.6,0.4,2.3
		c0.2,0.6,0.4,1.1,0.8,1.6c0.4,0.5,0.9,0.8,1.5,1.1c0.9,0.3,1.9,0.4,2.9,0.4C327.3,131.9,328.6,131.9,329.9,131.9z"/>
	<path d="M382,109.9c0.1,0,0.1,0,0.2,0c0.1,0,0.1,0.1,0.2,0.1c0,0,0.1,0.1,0.1,0.2c0,0.1,0,0.1,0,0.2v13.1c0,1.5-0.1,3-0.3,4.5
		c-0.1,1.3-0.4,2.6-0.9,3.9c-0.5,1.2-1.1,2.2-2,3.1c-1,0.9-2.2,1.6-3.5,2c-1.3,0.4-2.6,0.7-3.9,0.8c-1.3,0.1-2.9,0.2-4.8,0.2
		c-1.9,0-3.5-0.1-4.9-0.2c-1.3-0.1-2.6-0.4-3.9-0.8c-1.3-0.4-2.5-1.1-3.4-2c-0.9-0.9-1.6-1.9-2.1-3.1c-0.5-1.3-0.8-2.6-1-3.9
		c-0.2-1.5-0.3-2.9-0.3-4.4v-13.1c0-0.1,0-0.1,0-0.2c0-0.1,0.1-0.1,0.1-0.2c0,0,0.1-0.1,0.2-0.1c0.1,0,0.1,0,0.2,0h6.6
		c0.1,0,0.1,0,0.2,0c0.1,0,0.1,0.1,0.2,0.1c0,0,0.1,0.1,0.1,0.2c0,0.1,0,0.1,0,0.2v13.1c0,0.9,0,1.8,0.1,2.7
		c0.1,0.8,0.2,1.6,0.4,2.4c0.2,0.6,0.4,1.1,0.8,1.6c0.4,0.5,0.9,0.8,1.5,1.1c0.7,0.3,1.4,0.5,2.2,0.6c1.9,0.1,3.9,0.1,5.8,0
		c0.7-0.1,1.5-0.3,2.2-0.6c0.6-0.2,1.1-0.6,1.5-1.1c0.4-0.5,0.6-1,0.8-1.6c0.2-0.8,0.3-1.5,0.4-2.3c0.1-0.9,0.1-1.8,0.1-2.8v-13.1
		c0-0.1,0-0.1,0-0.2c0-0.1,0.1-0.1,0.1-0.2c0,0,0.1-0.1,0.2-0.1c0.1,0,0.1,0,0.2,0H382z"/>
	<path d="M411.3,109.9c0.1,0,0.1,0,0.2,0c0.1,0,0.1,0.1,0.2,0.1c0,0,0.1,0.1,0.1,0.2c0,0.1,0,0.1,0,0.2v5.1c0,0.1,0,0.1,0,0.2
		c0,0.1-0.1,0.1-0.1,0.2c0,0-0.1,0.1-0.2,0.1c-0.1,0-0.1,0-0.2,0h-11.1c-0.9,0-1.8,0.1-2.7,0.3c-0.6,0.1-1.1,0.4-1.6,0.8
		c-0.4,0.3-0.6,0.8-0.7,1.2c-0.1,0.5-0.2,1.1-0.2,1.6v17.3c0,0.1,0,0.1,0,0.2c0,0.1-0.1,0.1-0.1,0.2c0,0-0.1,0.1-0.2,0.1
		c-0.1,0-0.1,0-0.2,0h-6.6c-0.1,0-0.1,0-0.2,0c-0.1,0-0.1-0.1-0.2-0.1c0,0-0.1-0.1-0.1-0.2c0-0.1,0-0.1,0-0.2v-18.1
		c-0.1-1.3,0.1-2.6,0.7-3.8s1.3-2.2,2.3-3.1c2.8-1.8,6-2.6,9.3-2.3H411.3z"/>
	<path d="M499.2,109.9c0.1,0,0.1,0,0.2,0c0.1,0,0.1,0.1,0.2,0.1c0,0,0.1,0.1,0.1,0.2c0,0.1,0,0.1,0,0.2v13.1c0,1.5-0.1,3-0.3,4.5
		c-0.1,1.3-0.4,2.6-0.9,3.9c-0.5,1.2-1.1,2.2-2,3.1c-1,0.9-2.2,1.6-3.5,2c-1.3,0.4-2.6,0.7-3.9,0.8c-1.3,0.1-2.9,0.2-4.8,0.2
		c-1.9,0-3.5-0.1-4.9-0.2c-1.3-0.1-2.6-0.4-3.9-0.8c-1.3-0.4-2.5-1.1-3.4-2c-0.9-0.9-1.6-1.9-2.1-3.1c-0.5-1.3-0.8-2.6-1-3.9
		c-0.2-1.5-0.3-2.9-0.3-4.4v-13.1c0-0.1,0-0.1,0-0.2c0-0.1,0.1-0.1,0.1-0.2c0,0,0.1-0.1,0.2-0.1c0.1,0,0.1,0,0.2,0h6.6
		c0.1,0,0.1,0,0.2,0c0.1,0,0.1,0.1,0.2,0.1c0,0,0.1,0.1,0.1,0.2s0,0.1,0,0.2v13.1c0,0.9,0,1.8,0.1,2.7c0.1,0.8,0.2,1.6,0.4,2.4
		c0.2,0.6,0.4,1.1,0.8,1.6c0.4,0.5,0.9,0.8,1.5,1.1c0.7,0.3,1.4,0.5,2.2,0.6c1.9,0.1,3.9,0.1,5.8,0c0.7-0.1,1.5-0.3,2.2-0.6
		c0.6-0.2,1.1-0.6,1.5-1.1c0.4-0.5,0.6-1,0.8-1.6c0.2-0.8,0.3-1.5,0.4-2.3c0.1-0.9,0.1-1.8,0.1-2.8v-13.1c0-0.1,0-0.1,0-0.2
		c0-0.1,0.1-0.1,0.1-0.2c0,0,0.1-0.1,0.2-0.1c0.1,0,0.1,0,0.2,0H499.2z"/>
	<path d="M517,102.6c0.1,0,0.1,0,0.2,0c0.1,0,0.1,0.1,0.2,0.1c0,0,0.1,0.1,0.1,0.2c0,0.1,0,0.1,0,0.2v6.8h12.4c0.1,0,0.1,0,0.2,0
		c0.1,0,0.1,0.1,0.2,0.1c0,0,0.1,0.1,0.1,0.2c0,0.1,0,0.1,0,0.2v5.1c0,0.1,0,0.1,0,0.2c0,0.1-0.1,0.1-0.1,0.2c0,0-0.1,0.1-0.2,0.1
		c-0.1,0-0.1,0-0.2,0h-12.4v12c0,0.9,0.3,1.8,0.8,2.5c0.2,0.4,0.6,0.7,1,0.9c0.4,0.2,0.8,0.3,1.3,0.3h8.7c0.1,0,0.1,0,0.2,0
		c0.1,0,0.1,0.1,0.2,0.1c0,0,0.1,0.1,0.1,0.2c0,0.1,0,0.1,0,0.2v5.1c0,0.1,0,0.1,0,0.2c0,0.1-0.1,0.1-0.1,0.2c0,0-0.1,0.1-0.2,0.1
		c-0.1,0-0.1,0-0.2,0h-9.6c-1.3,0-2.7-0.3-3.9-0.8c-1.2-0.5-2.2-1.2-3.1-2.1c-1.8-1.8-2.8-4.2-2.7-6.8v-12h-4.8c-0.1,0-0.1,0-0.2,0
		c-0.1,0-0.1-0.1-0.2-0.1c0,0-0.1-0.1-0.1-0.2c0-0.1,0-0.1,0-0.2v-5.1c0-0.1,0-0.1,0-0.2c0-0.1,0.1-0.1,0.1-0.2c0,0,0.1-0.1,0.2-0.1
		c0.1,0,0.1,0,0.2,0h4.8v-6.8c0-0.1,0-0.1,0-0.2c0-0.1,0.1-0.1,0.1-0.2c0,0,0.1-0.1,0.2-0.1c0.1,0,0.1,0,0.2,0H517z"/>
	<path d="M565.6,109.9c0.1,0,0.1,0,0.2,0c0.1,0,0.1,0.1,0.2,0.1c0,0,0.1,0.1,0.1,0.2c0,0.1,0,0.1,0,0.2v13.1c0,1.5-0.1,3-0.2,4.5
		c-0.1,1.3-0.4,2.6-0.9,3.9c-0.5,1.2-1.1,2.2-2,3.1c-1,0.9-2.2,1.6-3.5,2c-1.3,0.4-2.6,0.7-3.9,0.8c-1.3,0.1-2.9,0.2-4.8,0.2
		c-1.9,0-3.5-0.1-4.9-0.2c-1.3-0.1-2.6-0.4-3.9-0.8c-1.3-0.4-2.5-1.1-3.4-2c-0.9-0.9-1.6-1.9-2.1-3.1c-0.5-1.3-0.8-2.6-1-3.9
		c-0.2-1.5-0.3-2.9-0.3-4.4v-13.1c0-0.1,0-0.1,0-0.2c0-0.1,0.1-0.1,0.1-0.2c0,0,0.1-0.1,0.2-0.1c0.1,0,0.1,0,0.2,0h6.6
		c0.1,0,0.1,0,0.2,0c0.1,0,0.1,0.1,0.2,0.1c0,0,0.1,0.1,0.1,0.2c0,0.1,0,0.1,0,0.2v13.1c0,0.9,0,1.8,0.1,2.7
		c0.1,0.8,0.2,1.6,0.4,2.4c0.2,0.6,0.4,1.1,0.8,1.6c0.4,0.5,0.9,0.8,1.5,1.1c0.7,0.3,1.4,0.5,2.2,0.6c1.9,0.1,3.9,0.1,5.8,0
		c0.7-0.1,1.5-0.3,2.2-0.6c0.6-0.2,1.1-0.6,1.5-1.1c0.4-0.5,0.6-1,0.8-1.6c0.2-0.8,0.3-1.5,0.4-2.3c0.1-0.9,0.1-1.8,0.1-2.8v-13.1
		c0-0.1,0-0.1,0-0.2c0-0.1,0.1-0.1,0.1-0.2c0,0,0.1-0.1,0.2-0.1c0.1,0,0.1,0,0.2,0H565.6z"/>
	<path d="M594.8,109.9c0.1,0,0.1,0,0.2,0c0.1,0,0.1,0.1,0.2,0.1c0,0,0.1,0.1,0.1,0.2c0,0.1,0,0.1,0,0.2v5.1c0,0.1,0,0.1,0,0.2
		c0,0.1-0.1,0.1-0.1,0.2c0,0-0.1,0.1-0.2,0.1c-0.1,0-0.1,0-0.2,0h-11.1c-0.9,0-1.8,0.1-2.7,0.3c-0.6,0.1-1.1,0.4-1.6,0.8
		c-0.4,0.3-0.6,0.8-0.7,1.2c-0.1,0.5-0.2,1.1-0.2,1.6v17.3c0,0.1,0,0.1,0,0.2c0,0.1-0.1,0.1-0.1,0.2c0,0-0.1,0.1-0.2,0.1
		c-0.1,0-0.1,0-0.2,0h-6.6c-0.1,0-0.1,0-0.2,0c-0.1,0-0.1-0.1-0.2-0.1c0,0-0.1-0.1-0.1-0.2c0-0.1,0-0.1,0-0.2v-18.1
		c-0.1-1.3,0.1-2.6,0.7-3.8c0.5-1.2,1.3-2.2,2.3-3.1c2.8-1.8,6-2.6,9.3-2.3H594.8z"/>
	<path d="M622.8,109.9c1.3,0,2.6,0.2,3.7,0.7c1.2,0.5,2.3,1.2,3.1,2.2c0.9,0.9,1.5,1.9,2,3.1c0.5,1.1,0.8,2.4,0.7,3.6v4.7
		c0,0.7-0.3,1.4-0.9,1.9c-0.3,0.3-0.6,0.5-1,0.7c-0.4,0.2-0.8,0.2-1.2,0.2h-21.6v1.1c0,0.9,0.3,1.7,0.8,2.4c0.3,0.4,0.6,0.6,1,0.8
		c0.4,0.2,0.8,0.3,1.3,0.3h19.5c0.3,0,0.5,0.1,0.5,0.4v5.1c0,0.1,0,0.1,0,0.2c0,0.1-0.1,0.1-0.1,0.2c0,0-0.1,0.1-0.2,0.1
		c-0.1,0-0.1,0-0.2,0H610c-1.3,0-2.7-0.3-3.9-0.9c-1.1-0.6-2.2-1.4-3-2.3c-0.8-1-1.5-2.1-2-3.2c-0.5-1.2-0.8-2.4-0.9-3.7
		c0-0.5-0.1-1.1-0.1-1.8c0-0.6,0-1.3,0-2c0-0.7,0-1.3,0-1.9c0-0.6,0-1.2,0.1-1.8c0-1.3,0.3-2.5,0.8-3.7c0.5-1.2,1.2-2.3,2-3.3
		c0.8-1,1.9-1.7,3-2.3c1.2-0.6,2.5-0.9,3.9-0.9H622.8z M624,121.1c0.1,0,0.2,0,0.3-0.1c0.1,0,0.2-0.1,0.3-0.2
		c0.1-0.1,0.2-0.2,0.2-0.3c0-0.1,0.1-0.2,0.1-0.4v-0.9c0.1-0.4,0.1-0.9,0-1.3c-0.1-0.4-0.3-0.8-0.6-1.1c-0.3-0.3-0.7-0.5-1.1-0.7
		c-0.4-0.1-0.8-0.2-1.3-0.1H611c-0.4,0-0.8,0-1.2,0.2c-0.4,0.2-0.7,0.4-1,0.7c-0.6,0.6-0.9,1.4-0.8,2.2v1.9H624z"/>
	<path d="M67,121.3H0v2.4h67V121.3z"/>
	<path d="M463.6,98.8l-29.9-0.1l0,38.3c0,0.4,0.1,0.6,0.4,0.6h7.6c0.3,0,0.5-0.2,0.5-0.6v-15.5h20.4c0.5,0,0.7-0.2,0.7-0.5v-5.7
		c0-0.3-0.2-0.4-0.7-0.4l-20.5,0.1v-9.5l21.5,0c0.1,0,0.1,0,0.2,0c0.1,0,0.1-0.1,0.2-0.1c0,0,0.1-0.1,0.1-0.2c0-0.1,0-0.1,0-0.2
		v-5.7c0-0.1,0-0.1,0-0.2c0-0.1-0.1-0.1-0.1-0.2c0,0-0.1-0.1-0.2-0.1C463.7,98.8,463.6,98.8,463.6,98.8z"/>
	<path d="M717.6,121.3h-67v2.4h67V121.3z"/>
</g>
</svg>
