<svg viewBox="0 0 25 17" fill="none" xmlns="http://www.w3.org/2000/svg">
<g clip-path="url(#clip0_1227_72)">
<path fill-rule="evenodd" clip-rule="evenodd" d="M0.193037 0.869814C0.24328 0.899503 1.72319 1.70112 3.48171 2.65346C5.24024 3.60353 6.68817 4.39144 6.69731 4.40057C6.70645 4.40971 6.3182 4.51705 5.83175 4.63809C5.3453 4.76142 4.92965 4.86875 4.90452 4.87789C4.87027 4.88931 5.64904 5.46711 8.5883 7.60932C10.6392 9.10521 12.3292 10.327 12.3429 10.327C12.3543 10.327 14.0443 9.10521 16.0952 7.60932C18.8837 5.57902 19.8132 4.88931 19.7835 4.87789C19.7607 4.87104 19.3427 4.7637 18.8563 4.64037C18.3698 4.51705 17.9793 4.40743 17.9884 4.39829C17.9976 4.38916 19.4843 3.58297 21.2908 2.6055L24.5749 0.826421L22.7479 0.81957L20.9208 0.815002L16.6319 1.89981L12.3452 2.98462L8.05617 1.89981L3.76491 0.815002H0.101685L0.193037 0.869814ZM8.33251 2.58723C11.0845 3.42996 12.3383 3.80679 12.3817 3.79765C12.416 3.7908 14.2202 3.2404 16.3943 2.57353L20.343 1.36312L21.2223 1.36768L22.0993 1.37453L18.2785 2.9161C16.1774 3.76339 14.4691 4.46224 14.4851 4.47137C14.5011 4.47822 14.983 4.62667 15.5562 4.80252C16.1317 4.97609 16.6022 5.12454 16.6022 5.13139C16.6022 5.13824 15.6475 5.66123 14.4782 6.29385C13.0075 7.0909 12.3429 7.43803 12.3155 7.4289C12.2401 7.40149 8.08358 5.14509 8.08358 5.13139C8.08358 5.12454 8.55404 4.97609 9.12956 4.80252C9.7028 4.62667 10.1847 4.47822 10.2007 4.47137C10.2167 4.46224 8.72533 3.85246 6.88915 3.11023C5.05297 2.37027 3.3287 1.676 3.05921 1.56409L2.56819 1.3654L3.45659 1.36312H4.34271L8.33251 2.58723Z" fill="black"/>
<path fill-rule="evenodd" clip-rule="evenodd" d="M0.135956 14.6549V16.185H1.60901L3.31958 14.9517C4.26051 14.2735 5.03472 13.7185 5.03928 13.7185C5.04385 13.7185 4.80177 14.0245 4.50031 14.3968C4.19884 14.7713 3.95448 15.0774 3.95676 15.0796C3.95904 15.0819 4.3039 15.3309 4.72412 15.6346L5.48919 16.185H6.22001C6.6585 16.185 6.94169 16.1759 6.92799 16.1644C6.91657 16.153 6.4758 15.8333 5.94824 15.4542C5.42068 15.0751 4.98219 14.7576 4.97077 14.7485C4.96163 14.7394 5.19002 14.3739 5.48006 13.9332L6.00305 13.1361L5.1923 13.1293L4.37926 13.1247L2.77147 14.2826C1.88763 14.9221 1.15453 15.4451 1.14083 15.4496C1.12484 15.4565 1.11799 15.0682 1.11799 14.2917V13.1247H0.135956V14.6549Z" fill="black"/>
<path fill-rule="evenodd" clip-rule="evenodd" d="M9.43102 14.4653C8.70934 15.2007 8.0379 15.8904 7.9397 15.9954L7.75928 16.185H9.22091L10.3354 14.9746L11.4522 13.7642L12.3063 14.6389C12.7768 15.1185 13.3112 15.662 13.4939 15.8493L13.8273 16.185L14.4714 16.1804L15.1154 16.1736L13.7086 14.648L12.2995 13.1247H10.7442L9.43102 14.4653Z" fill="black"/>
<path fill-rule="evenodd" clip-rule="evenodd" d="M15.9171 14.6549V16.185H16.4081H16.8991V14.6549V13.1247H16.4081H15.9171V14.6549Z" fill="black"/>
<path fill-rule="evenodd" clip-rule="evenodd" d="M18.8768 13.8121C19.4044 14.1912 19.852 14.5178 19.8748 14.5384C19.9137 14.5749 19.8885 14.616 19.3907 15.3765L18.8654 16.1736L19.6739 16.1804L20.4846 16.185L22.0764 15.0363L23.6705 13.8875L23.6774 15.0363L23.6819 16.185H24.6868L24.6914 14.6549L24.6982 13.1247H23.2549L21.5648 14.3443C20.6331 15.0134 19.8588 15.5707 19.8429 15.5798C19.8269 15.5912 20.0598 15.2943 20.359 14.9243C20.6582 14.5521 20.9003 14.2392 20.9003 14.2301C20.9003 14.2186 20.5623 13.9651 20.1512 13.6683L19.3998 13.1247H17.9222L18.8768 13.8121Z" fill="black"/>
</g>
<defs>
<clipPath id="clip0_1227_72">
<rect width="24.5966" height="15.37" fill="white" transform="translate(0.101685 0.815002)"/>
</clipPath>
</defs>
</svg>
