<svg viewBox="0 0 43 62" fill="none" xmlns="http://www.w3.org/2000/svg">
<g clip-path="url(#clip0_1227_57)">
<path opacity="0.2" d="M35 58.4C35 60.4 28.8 62 21.2 62C13.6 62 7.39999 60.4 7.39999 58.4C7.39999 56.4 13.6 54.8 21.2 54.8C28.8 54.7 35 56.4 35 58.4Z" fill="#05141F"/>
<path d="M21.4 0C9.6 0 0 9.6 0 21.4C0 34 21.4 58.5 21.4 58.5C21.4 58.5 42.8 35 42.8 21.4C42.8 9.6 33.2 0 21.4 0ZM21.4 33.7C14.1 33.7 8.2 27.8 8.2 20.5C8.2 13.2 14.1 7.3 21.4 7.3C28.7 7.3 34.6 13.2 34.6 20.5C34.6 27.8 28.7 33.7 21.4 33.7Z" fill="#05141F"/>
<path d="M21.4 38.2C30.6232 38.2 38.1 30.7232 38.1 21.5C38.1 12.2768 30.6232 4.8 21.4 4.8C12.1769 4.8 4.70001 12.2768 4.70001 21.5C4.70001 30.7232 12.1769 38.2 21.4 38.2Z" fill="white"/>
<g clip-path="url(#clip1_1227_57)">
<path fill-rule="evenodd" clip-rule="evenodd" d="M9.19304 13.8698C9.24328 13.8995 10.7232 14.7011 12.4817 15.6535C14.2402 16.6035 15.6882 17.3914 15.6973 17.4006C15.7064 17.4097 15.3182 17.517 14.8317 17.6381C14.3453 17.7614 13.9296 17.8688 13.9045 17.8779C13.8703 17.8893 14.649 18.4671 17.5883 20.6093C19.6392 22.1052 21.3292 23.327 21.3429 23.327C21.3543 23.327 23.0443 22.1052 25.0952 20.6093C27.8837 18.579 28.8132 17.8893 28.7835 17.8779C28.7607 17.871 28.3427 17.7637 27.8563 17.6404C27.3698 17.517 26.9793 17.4074 26.9884 17.3983C26.9976 17.3892 28.4843 16.583 30.2908 15.6055L33.5749 13.8264L31.7479 13.8196L29.9208 13.815L25.6319 14.8998L21.3452 15.9846L17.0562 14.8998L12.7649 13.815H9.10168L9.19304 13.8698ZM17.3325 15.5872C20.0845 16.43 21.3383 16.8068 21.3817 16.7977C21.416 16.7908 23.2202 16.2404 25.3943 15.5735L29.343 14.3631L30.2223 14.3677L31.0993 14.3745L27.2785 15.9161C25.1774 16.7634 23.4691 17.4622 23.4851 17.4714C23.5011 17.4782 23.983 17.6267 24.5562 17.8025C25.1317 17.9761 25.6022 18.1245 25.6022 18.1314C25.6022 18.1382 24.6475 18.6612 23.4782 19.2938C22.0075 20.0909 21.3429 20.438 21.3155 20.4289C21.2401 20.4015 17.0836 18.1451 17.0836 18.1314C17.0836 18.1245 17.554 17.9761 18.1296 17.8025C18.7028 17.6267 19.1847 17.4782 19.2007 17.4714C19.2167 17.4622 17.7253 16.8525 15.8892 16.1102C14.053 15.3703 12.3287 14.676 12.0592 14.5641L11.5682 14.3654L12.4566 14.3631H13.3427L17.3325 15.5872Z" fill="black"/>
<path fill-rule="evenodd" clip-rule="evenodd" d="M9.13596 27.6549V29.185H10.609L12.3196 27.9518C13.2605 27.2735 14.0347 26.7185 14.0393 26.7185C14.0439 26.7185 13.8018 27.0245 13.5003 27.3968C13.1988 27.7713 12.9545 28.0774 12.9568 28.0796C12.959 28.0819 13.3039 28.3309 13.7241 28.6346L14.4892 29.185H15.22C15.6585 29.185 15.9417 29.1759 15.928 29.1645C15.9166 29.153 15.4758 28.8333 14.9482 28.4542C14.4207 28.0751 13.9822 27.7576 13.9708 27.7485C13.9616 27.7394 14.19 27.374 14.4801 26.9332L15.003 26.1361L14.1923 26.1293L13.3793 26.1247L11.7715 27.2826C10.8876 27.9221 10.1545 28.4451 10.1408 28.4496C10.1248 28.4565 10.118 28.0682 10.118 27.2917V26.1247H9.13596V27.6549Z" fill="black"/>
<path fill-rule="evenodd" clip-rule="evenodd" d="M18.431 27.4653C17.7093 28.2007 17.0379 28.8904 16.9397 28.9955L16.7593 29.185H18.2209L19.3354 27.9746L20.4522 26.7642L21.3063 27.6389C21.7768 28.1185 22.3112 28.662 22.4939 28.8493L22.8273 29.185L23.4714 29.1804L24.1154 29.1736L22.7086 27.648L21.2995 26.1247H19.7442L18.431 27.4653Z" fill="black"/>
<path fill-rule="evenodd" clip-rule="evenodd" d="M24.917 27.6549V29.185H25.408H25.8991V27.6549V26.1247H25.408H24.917V27.6549Z" fill="black"/>
<path fill-rule="evenodd" clip-rule="evenodd" d="M27.8768 26.8121C28.4044 27.1912 28.852 27.5178 28.8749 27.5384C28.9137 27.5749 28.8886 27.616 28.3907 28.3765L27.8654 29.1736L28.6739 29.1804L29.4846 29.185L31.0765 28.0363L32.6705 26.8875L32.6774 28.0363L32.682 29.185H33.6868L33.6914 27.6549L33.6983 26.1247H32.2549L30.5649 27.3443C29.6331 28.0134 28.8589 28.5707 28.8429 28.5798C28.8269 28.5912 29.0599 28.2943 29.359 27.9243C29.6582 27.5521 29.9003 27.2392 29.9003 27.2301C29.9003 27.2187 29.5623 26.9651 29.1512 26.6683L28.3998 26.1247H26.9222L27.8768 26.8121Z" fill="black"/>
</g>
</g>
<defs>
<clipPath id="clip0_1227_57">
<rect width="42.8" height="62" fill="white"/>
</clipPath>
<clipPath id="clip1_1227_57">
<rect width="24.5966" height="15.37" fill="white" transform="translate(9.10168 13.815)"/>
</clipPath>
</defs>
</svg>
