<svg viewBox="0 0 43 62" fill="none" xmlns="http://www.w3.org/2000/svg">
<g clip-path="url(#clip0_801_14)">
<path opacity="0.2" d="M35 58.4C35 60.4 28.8 62 21.2 62C13.6 62 7.4 60.4 7.4 58.4C7.4 56.4 13.6 54.8 21.2 54.8C28.8 54.7 35 56.4 35 58.4Z" fill="#05141F"/>
<path d="M21.4 0C9.6 0 0 9.6 0 21.4C0 34 21.4 58.5 21.4 58.5C21.4 58.5 42.8 35 42.8 21.4C42.8 9.6 33.2 0 21.4 0ZM21.4 33.7C14.1 33.7 8.2 27.8 8.2 20.5C8.2 13.2 14.1 7.3 21.4 7.3C28.7 7.3 34.6 13.2 34.6 20.5C34.6 27.8 28.7 33.7 21.4 33.7Z" fill="#010101"/>
<path d="M21.7 38.4C30.9232 38.4 38.4 30.9232 38.4 21.7C38.4 12.4768 30.9232 5 21.7 5C12.4768 5 5 12.4768 5 21.7C5 30.9232 12.4768 38.4 21.7 38.4Z" fill="white"/>
<path d="M15.4341 14.8387C15.4513 15.2959 15.4729 15.8652 15.4815 16.1024C15.4945 16.3396 15.5117 16.7061 15.5203 16.9175C15.5333 17.146 15.5592 17.3142 15.5894 17.3315C15.6195 17.3487 15.9171 17.3789 16.2535 17.3962C16.5856 17.4091 16.9479 17.4307 17.0557 17.4393C17.1635 17.4479 17.5042 17.4695 17.8104 17.4824C18.1209 17.4954 18.7506 17.5256 19.2121 17.5471C20.2946 17.5989 22.3992 17.5989 23.5032 17.5471C23.9776 17.5256 24.6073 17.4954 24.9049 17.4824C25.2024 17.4695 25.5431 17.4479 25.6596 17.4393C25.7803 17.4307 26.1383 17.4091 26.4574 17.3962C26.7766 17.3789 27.0698 17.3574 27.1087 17.3487C27.1647 17.3315 27.182 17.228 27.2079 16.7363C27.238 16.0765 27.2941 14.5282 27.2984 14.2263V14.0322L21.3512 14.0193L15.4039 14.0107L15.4341 14.8387Z" fill="black"/>
<path d="M12.955 14.0708C12.9464 14.0794 12.3641 14.0966 11.6655 14.1139C10.3156 14.1398 9.31936 14.2001 8.97866 14.2691C8.33606 14.4028 8.03417 14.8212 8.02554 15.6061C8.01692 16.184 8.05573 16.7274 8.10317 16.7662C8.12905 16.7878 8.35331 16.818 8.60345 16.8309C8.85359 16.8482 9.59969 16.9085 10.2639 16.9646C10.928 17.0207 11.6267 17.0767 11.8164 17.0897C12.0062 17.1069 12.2865 17.1242 12.4418 17.1371C12.735 17.1587 14.3566 17.2751 14.8699 17.3096L15.1674 17.3312L15.1415 17.0379C15.1286 16.8784 15.1071 16.4471 15.0941 16.0805C15.0769 15.7139 15.0596 15.2654 15.051 15.0886C15.0381 14.9117 15.0294 14.6055 15.0294 14.4072V14.0535H14.003C13.438 14.0535 12.9636 14.0621 12.955 14.0708Z" fill="black"/>
<path d="M27.7093 14.1225C27.7093 14.1656 27.6791 14.8039 27.6446 15.5414C27.6101 16.2746 27.5799 16.9819 27.5799 17.1026V17.3312L27.8731 17.3096C28.0327 17.2967 28.7055 17.2492 29.3697 17.2018C30.9352 17.0897 30.9179 17.0897 32.4317 16.9646C33.1433 16.9042 33.9196 16.8439 34.1568 16.8309C34.394 16.8137 34.6053 16.7878 34.6269 16.7662C34.6485 16.749 34.67 16.3651 34.67 15.9209C34.6743 15.1533 34.67 15.0972 34.5708 14.8816C34.3336 14.3554 33.9411 14.2217 32.4317 14.1613C32.0781 14.1441 31.6597 14.1268 31.5045 14.1182C31.3492 14.1096 30.4349 14.088 29.4689 14.0708C27.7567 14.0406 27.7093 14.0406 27.7093 14.1225Z" fill="black"/>
<path d="M8.15513 17.3747C8.36214 18.8971 8.9573 19.531 10.7298 20.1133C11.463 20.3504 13.8867 20.8809 15.2798 21.1052L15.4652 21.1354L15.4393 20.8594C15.3488 19.8372 15.2453 18.5779 15.2194 18.2027C15.2021 17.9612 15.1763 17.7499 15.1547 17.7412C15.1245 17.7197 14.5078 17.6679 13.6064 17.6119C13.1018 17.5774 10.553 17.3833 10.2856 17.3574C10.1778 17.3445 9.9061 17.3229 9.68184 17.3057C9.45757 17.2927 9.01336 17.2539 8.69853 17.228L8.12494 17.1763L8.15513 17.3747Z" fill="black"/>
<path d="M34.0013 17.224C33.6994 17.2542 33.2725 17.293 33.0525 17.306C32.8283 17.3232 32.5522 17.3448 32.4315 17.3534C32.1425 17.3793 30.0983 17.5389 29.6929 17.569C29.5161 17.582 29.2357 17.6035 29.0675 17.6122C28.3387 17.6639 27.5624 17.7243 27.5538 17.7329C27.5322 17.7588 27.2691 21.0925 27.2907 21.1098C27.3295 21.1529 29.1193 20.8079 30.6201 20.4758C32.3711 20.0834 33.2811 19.6995 33.8374 19.113C34.2342 18.699 34.3981 18.3324 34.5447 17.5518C34.6224 17.1335 34.618 17.1593 34.5792 17.1636C34.5577 17.168 34.2989 17.1938 34.0013 17.224Z" fill="black"/>
<path d="M15.5808 17.7413C15.5722 17.7499 15.598 18.1251 15.6369 18.5693C15.6757 19.0135 15.7188 19.544 15.7361 19.7467C15.7749 20.2858 15.8568 21.1914 15.8654 21.2001C15.9043 21.2475 18.1598 21.5882 19.3415 21.7306C21.0191 21.9289 21.6575 21.9289 23.3739 21.7306C24.4952 21.6012 26.5912 21.282 26.781 21.213C26.85 21.1872 26.8715 21.1354 26.8802 20.993C26.8845 20.8896 26.9104 20.6092 26.9319 20.372C27.0484 19.1472 27.1476 17.7887 27.1174 17.7628C27.1001 17.7499 26.5696 17.7671 25.94 17.8103C25.3103 17.8491 24.4176 17.9008 23.9561 17.9224C22.9081 17.9655 19.8289 17.9698 18.8456 17.9224C17.845 17.8793 15.8999 17.7671 15.7318 17.7456C15.6584 17.7326 15.5894 17.7326 15.5808 17.7413Z" fill="black"/>
<path d="M8.7127 25.1075C8.61925 25.1585 8.52581 25.2562 8.46635 25.3751C8.36866 25.562 8.36866 25.5747 8.3814 26.9849C8.39414 28.3992 8.39414 28.4077 8.49183 28.5479C8.68721 28.8197 8.60651 28.8112 11.1125 28.8112H13.3848V27.7069V26.6026L11.7411 26.6111L10.0931 26.6238L10.0804 26.9296L10.0676 27.2397H11.3673H12.6628V27.7069V28.1741H10.8789H9.09496V26.9211V25.6682H11.2399H13.3848V25.3496V25.0311H11.121C9.01426 25.0311 8.84861 25.0353 8.7127 25.1075Z" fill="black"/>
<path d="M14.4975 26.747L14.5102 28.463L14.6164 28.5776C14.8415 28.8155 14.7736 28.8113 17.1436 28.8113H19.331V28.4927V28.1741H17.2498H15.1685V27.7069V27.2397H17.1861H19.2036V26.9212V26.6026H17.1861H15.1685V26.1354V25.6682H17.2498H19.331V25.3496V25.0311H16.91H14.4847L14.4975 26.747Z" fill="black"/>
<path d="M20.351 26.6748C20.351 28.5139 20.351 28.5182 20.6441 28.7136L20.7885 28.8113H22.9886H25.1931V28.4927V28.1742H23.1118H21.0306V27.7069V27.2397H23.0481H25.0656V26.9212V26.6026H23.0481H21.0306V26.1354V25.6682H23.1118H25.1931V25.3496V25.0311H22.772H20.351V26.6748Z" fill="black"/>
<path d="M26.2205 26.6961C26.2332 28.2761 26.2375 28.3738 26.3182 28.5055C26.3649 28.5819 26.4626 28.6838 26.5348 28.7306C26.6622 28.807 26.7641 28.8113 28.5863 28.8113H30.5018V28.4927V28.1742H28.718H26.934V26.6026V25.0311H26.5688H26.2077L26.2205 26.6961Z" fill="black"/>
<path d="M30.4083 26.1906L31.5636 27.3459V28.0807V28.8113H31.9246H32.2856V28.0807V27.3459L33.4409 26.1906L34.6005 25.0311H34.1545H33.7085L32.8166 25.923L31.9246 26.815L31.0327 25.923L30.1407 25.0311H29.6947H29.2488L30.4083 26.1906Z" fill="black"/>
</g>
<defs>
<clipPath id="clip0_801_14">
<rect width="42.8" height="62" fill="white"/>
</clipPath>
</defs>
</svg>
