<svg width="168" height="168" viewBox="0 0 168 168" fill="none" xmlns="http://www.w3.org/2000/svg">
<rect width="168" height="168" fill="white"/>
<path fill-rule="evenodd" clip-rule="evenodd" d="M19 57.0994V65.1988H26.8002L35.8624 58.6672C40.8456 55.0762 44.9311 52.1422 44.9441 52.1552C44.9571 52.1617 43.6755 53.7751 42.0947 55.7397C40.5203 57.7044 39.2322 59.3243 39.2322 59.3503C39.2322 59.3698 41.0473 60.697 43.2592 62.2973L47.2861 65.1988L51.1569 65.1858L55.0277 65.1663L49.7582 61.367C46.3038 58.8754 44.5017 57.5418 44.5278 57.4832C44.5473 57.4377 45.8029 55.5121 47.3251 53.2026L50.09 49H45.7833L41.4767 49.0065L32.8698 55.2128C28.1338 58.6282 24.25 61.4256 24.2305 61.4256C24.2174 61.4256 24.2044 58.6282 24.2044 55.2128V49H19V57.0994Z" fill="black"/>
<path fill-rule="evenodd" clip-rule="evenodd" d="M68.5722 55.6747C64.9746 59.3503 61.4096 62.9934 60.6484 63.7741L59.2562 65.1988H63.153L67.0434 65.1923L72.9244 58.8169C76.1576 55.3104 78.8184 52.4479 78.8444 52.461C78.8705 52.474 81.6939 55.3429 85.1223 58.8364L91.3546 65.1988H98.1789L98.0293 65.0101C97.9447 64.9126 94.5878 61.263 90.5674 56.9107L83.2617 49H75.1102L68.5722 55.6747Z" fill="black"/>
<path fill-rule="evenodd" clip-rule="evenodd" d="M102.401 57.0994V65.1988H105.003H107.605V57.0994V49H105.003H102.401V57.0994Z" fill="black"/>
<path fill-rule="evenodd" clip-rule="evenodd" d="M113.103 49.1041C113.174 49.1561 115.555 50.8736 118.392 52.9163C121.228 54.9656 123.538 56.67 123.518 56.7091C123.492 56.7741 118.58 64.2685 118.131 64.9191L117.943 65.1988H122.256L126.569 65.1923L134.994 59.1161C139.626 55.7723 143.438 53.0334 143.471 53.0334C143.497 53.0334 143.516 55.7723 143.516 59.1161V65.1988H148.72V49.2082L148.87 49.1106C149 49.013 148.675 49.0065 145.129 49.0065L141.246 49L132.183 55.5316C127.2 59.1226 123.115 62.0566 123.102 62.0436C123.089 62.0306 124.37 60.4172 125.945 58.4591C127.525 56.4944 128.807 54.868 128.801 54.842C128.788 54.816 126.972 53.4953 124.761 51.9015L120.74 49H116.856C113.376 49.0065 112.986 49.013 113.103 49.1041Z" fill="black"/>
<path d="M62.3858 111.586C62.3858 113.402 61.7033 115.001 60.341 116.368C58.9731 117.734 57.3834 118.417 55.5577 118.417H39V95.0038H55.5577C57.4002 95.0038 58.9928 95.6841 60.3522 97.0474C61.7089 98.3995 62.383 99.999 62.383 101.843C62.383 103.687 61.7875 105.216 60.6107 106.529C61.7903 107.853 62.383 109.36 62.383 111.041V111.586H62.3858ZM55.3723 101.958C55.3723 101.345 55.1476 100.825 54.6898 100.376C54.2376 99.9174 53.7095 99.6926 53.1056 99.6926H46.0163V104.376H53.1056C53.7404 104.376 54.2797 104.134 54.715 103.648C55.156 103.167 55.3723 102.608 55.3723 101.961M55.3723 111.327C55.3723 110.717 55.1476 110.189 54.6898 109.734C54.2376 109.284 53.7095 109.056 53.1056 109.056H46.0163V113.736H53.1056C53.7404 113.736 54.2797 113.495 54.715 113.008C55.156 112.533 55.3723 111.963 55.3723 111.325" fill="#D12519"/>
<path d="M90.4454 118.413H83.4319V113.733H74.0759V118.413H67.0652V101.839C67.0652 100.012 67.7449 98.4154 69.11 97.0577C70.4722 95.6943 72.0732 95 73.9158 95H83.6172C85.4401 95 87.0383 95.6943 88.4034 97.0577C89.7628 98.4182 90.4454 100.015 90.4454 101.839V118.413ZM83.4319 109.049V101.957C83.4319 101.347 83.2072 100.819 82.755 100.366C82.3027 99.9024 81.7691 99.6832 81.1624 99.6832H76.3706C75.7499 99.6832 75.2106 99.9052 74.7556 100.352C74.3034 100.799 74.0759 101.33 74.0759 101.957V109.049H83.4319Z" fill="#D12519"/>
<path d="M102.138 95.0085H95.1248V118.413H102.138V95.0085Z" fill="#D12519"/>
<path d="M128.81 118.413H114.516C112.699 118.413 111.095 117.733 109.725 116.364C108.351 115 107.669 113.404 107.669 111.579V101.8C107.669 100.004 108.351 98.4238 109.725 97.0633C111.095 95.6943 112.677 95.0113 114.472 95.0113H128.81V99.686H116.974C116.348 99.686 115.814 99.9081 115.362 100.358C114.91 100.805 114.679 101.342 114.679 101.96V111.444C114.679 112.046 114.91 112.589 115.37 113.041C115.831 113.505 116.362 113.73 116.971 113.73H128.807V118.41L128.81 118.413Z" fill="#D12519"/>
</svg>
