<svg id="Layer_1" data-name="Layer 1" xmlns="http://www.w3.org/2000/svg" viewBox="0 0 52 52"><defs><style>.cls-1{fill:#7ba343;}</style></defs><path class="cls-1" d="M26,1A25,25,0,1,1,1,26,25,25,0,0,1,26,1m0-1A26,26,0,1,0,52,26,26,26,0,0,0,26,0Z"/><path class="cls-1" d="M16.39,17.26a2,2,0,1,0,2,2A2,2,0,0,0,16.39,17.26Z"/><path class="cls-1" d="M35.61,17.26a2,2,0,1,0,2,2A2,2,0,0,0,35.61,17.26Z"/><path class="cls-1" d="M26,39.79c-6.91,0-11.59-2.06-13.94-6.13a.5.5,0,0,1,.87-.5c2.15,3.73,6.55,5.63,13.07,5.63s10.92-1.9,13.07-5.63a.49.49,0,0,1,.68-.18.51.51,0,0,1,.19.68C37.59,37.73,32.91,39.79,26,39.79Z"/></svg>