<svg id="Layer_1" data-name="Layer 1" xmlns="http://www.w3.org/2000/svg" viewBox="0 0 52 52"><defs><style>.cls-1{fill:#f26522;}</style></defs><path class="cls-1" d="M26,1A25,25,0,1,1,1,26,25,25,0,0,1,26,1m0-1A26,26,0,1,0,52,26,26,26,0,0,0,26,0Z"/><path class="cls-1" d="M16.39,17.26a2,2,0,1,0,2,2A2,2,0,0,0,16.39,17.26Z"/><path class="cls-1" d="M35.61,17.26a2,2,0,1,0,2,2A2,2,0,0,0,35.61,17.26Z"/><path class="cls-1" d="M12.5,39.79a.55.55,0,0,1-.25-.07.51.51,0,0,1-.19-.68c2.35-4.07,7-6.13,13.94-6.13S37.59,35,39.94,39a.51.51,0,0,1-.19.68.49.49,0,0,1-.68-.18c-2.15-3.73-6.55-5.63-13.07-5.63s-10.92,1.9-13.07,5.63A.5.5,0,0,1,12.5,39.79Z"/></svg>