<svg id="Layer_1" data-name="Layer 1" xmlns="http://www.w3.org/2000/svg" viewBox="0 0 52 52"><defs><style>.cls-1{fill:#279548;}</style></defs><path class="cls-1" d="M26,1A25,25,0,1,1,1,26,25,25,0,0,1,26,1m0-1A26,26,0,1,0,52,26,26,26,0,0,0,26,0Z"/><path class="cls-1" d="M16.39,17.26a2,2,0,1,0,2,2A2,2,0,0,0,16.39,17.26Z"/><path class="cls-1" d="M35.61,17.26a2,2,0,1,0,2,2A2,2,0,0,0,35.61,17.26Z"/><path class="cls-1" d="M26,40.15a15.19,15.19,0,0,1-13.63-8.39.49.49,0,0,1,.22-.67.49.49,0,0,1,.67.22,14.27,14.27,0,0,0,25.48,0,.49.49,0,0,1,.67-.22.49.49,0,0,1,.22.67A15.19,15.19,0,0,1,26,40.15Z"/></svg>