<svg id="Layer_1" data-name="Layer 1" xmlns="http://www.w3.org/2000/svg" viewBox="0 0 52 52"><defs><style>.cls-1{fill:#ed1c24;}</style></defs><path class="cls-1" d="M26,1A25,25,0,1,1,1,26,25,25,0,0,1,26,1m0-1A26,26,0,1,0,52,26,26,26,0,0,0,26,0Z"/><path class="cls-1" d="M39.19,40.15a.5.5,0,0,1-.45-.27,14.26,14.26,0,0,0-25.48,0,.51.51,0,0,1-.67.22.49.49,0,0,1-.22-.67,15.26,15.26,0,0,1,27.26,0,.49.49,0,0,1-.22.67A.59.59,0,0,1,39.19,40.15Z"/><path class="cls-1" d="M16.39,17.26a2,2,0,1,0,2,2A2,2,0,0,0,16.39,17.26Z"/><path class="cls-1" d="M35.61,17.26a2,2,0,1,0,2,2A2,2,0,0,0,35.61,17.26Z"/></svg>