<svg id="Layer_1" data-name="Layer 1" xmlns="http://www.w3.org/2000/svg" viewBox="0 0 52 52"><path fill="#7ba343" d="M26,2A24,24,0,1,1,2,26,24,24,0,0,1,26,2m0-2A26,26,0,1,0,52,26,26,26,0,0,0,26,0Z"/><path fill="#7ba343" d="M16.4,17.5a2,2,0,1,0,2,2A1.94,1.94,0,0,0,16.4,17.5Z"/><path fill="#7ba343" d="M35.6,17.5a2,2,0,1,0,2,2A1.94,1.94,0,0,0,35.6,17.5Z"/><path fill="#7ba343" d="M26,40.5c-7,0-11.93-2.21-14.36-6.4a1,1,0,1,1,1.72-1c2.09,3.58,6.34,5.4,12.64,5.4s10.55-1.82,12.64-5.4a1,1,0,1,1,1.72,1C37.93,38.29,33,40.5,26,40.5Z"/></svg>