<svg id="Layer_1" data-name="Layer 1" xmlns="http://www.w3.org/2000/svg" viewBox="0 0 52 52"><path fill="#f26522" d="M26,2A24,24,0,1,1,2,26,24,24,0,0,1,26,2m0-2A26,26,0,1,0,52,26,26,26,0,0,0,26,0Z"/><path fill="#f26522" d="M16.4,17.5a2,2,0,1,0,2,2A1.94,1.94,0,0,0,16.4,17.5Z"/><path fill="#f26522" d="M35.6,17.5a2,2,0,1,0,2,2A1.94,1.94,0,0,0,35.6,17.5Z"/><path fill="#f26522" d="M39.5,40.5a1,1,0,0,1-.86-.5C36.55,36.42,32.3,34.6,26,34.6S15.45,36.42,13.36,40a1,1,0,0,1-1.72-1C14.07,34.81,19,32.6,26,32.6S37.93,34.81,40.36,39A1,1,0,0,1,40,40.36.93.93,0,0,1,39.5,40.5Z"/></svg>