<svg id="Layer_1" data-name="Layer 1" xmlns="http://www.w3.org/2000/svg" viewBox="0 0 52 52"><path fill="#279548" d="M26,2A24,24,0,1,1,2,26,24,24,0,0,1,26,2m0-2A26,26,0,1,0,52,26,26,26,0,0,0,26,0Z"/><path fill="#279548" d="M16.4,17.5a2,2,0,1,0,2,2A2,2,0,0,0,16.4,17.5Z"/><path fill="#279548" d="M35.6,17.5a2,2,0,1,0,2,2A1.94,1.94,0,0,0,35.6,17.5Z"/><path fill="#279548" d="M26,40.8a15.63,15.63,0,0,1-14.09-8.65,1,1,0,0,1,1.78-.9,13.81,13.81,0,0,0,24.62,0,1,1,0,1,1,1.78.9A15.63,15.63,0,0,1,26,40.8Z"/></svg>