<svg id="Layer_1" data-name="Layer 1" xmlns="http://www.w3.org/2000/svg" viewBox="0 0 52 52"><path fill="#ed1c24" d="M26,2A24,24,0,1,1,2,26,24,24,0,0,1,26,2m0-2A26,26,0,1,0,52,26,26,26,0,0,0,26,0Z"/><path fill="#ed1c24" d="M39.2,40.8a1,1,0,0,1-.89-.55,13.81,13.81,0,0,0-24.62,0,1,1,0,1,1-1.78-.9,15.8,15.8,0,0,1,28.18,0,1,1,0,0,1-.44,1.34A.93.93,0,0,1,39.2,40.8Z"/><path fill="#ed1c24" d="M16.4,17.5a2,2,0,1,0,2,2A1.94,1.94,0,0,0,16.4,17.5Z"/><path fill="#ed1c24" d="M35.6,17.5a2,2,0,1,0,2,2A1.94,1.94,0,0,0,35.6,17.5Z"/></svg>