<svg viewBox="0 0 44 62" fill="none" xmlns="http://www.w3.org/2000/svg">
<g clip-path="url(#clip0_1412_8)">
<path opacity="0.2" d="M35.8001 58.4C35.8001 60.4 29.6001 62 22.0001 62C14.4001 62 8.20007 60.4 8.20007 58.4C8.20007 56.4 14.4001 54.8 22.0001 54.8C29.6001 54.7 35.8001 56.4 35.8001 58.4Z" fill="#05141F"/>
<path d="M22.2 0C10.4 0 0.800049 9.6 0.800049 21.4C0.800049 34 22.2 58.5 22.2 58.5C22.2 58.5 43.6 35 43.6 21.4C43.6 9.6 34 0 22.2 0ZM22.2 33.7C14.9 33.7 9.00005 27.8 9.00005 20.5C9.00005 13.2 14.9 7.3 22.2 7.3C29.5 7.3 35.4 13.2 35.4 20.5C35.4 27.8 29.5 33.7 22.2 33.7Z" fill="#05141F"/>
<path d="M22.2 38.2C31.4232 38.2 38.9 30.7232 38.9 21.5C38.9 12.2768 31.4232 4.8 22.2 4.8C12.9768 4.8 5.5 12.2768 5.5 21.5C5.5 30.7232 12.9768 38.2 22.2 38.2Z" fill="white"/>
<g clip-path="url(#clip1_1412_8)">
<path d="M29.5358 21.0192C29.6124 21.0192 29.6681 20.9565 29.6681 20.8869V20.4483C29.6681 20.3717 29.6055 20.316 29.5358 20.316C28.4148 20.316 27.3008 20.316 26.1798 20.316V23.2612H25.3442V19.5152H29.696C30.0929 19.5152 30.4201 19.8425 30.4201 20.2394V20.9774C30.4201 21.3813 30.0929 21.7016 29.696 21.7016H28.3313L30.441 23.2543H29.0276L26.1728 21.0192H29.5358Z" fill="#ED1D24"/>
<path d="M20.6445 20.309H24.6759V19.5152H20.3868C19.983 19.5152 19.6627 19.8425 19.6627 20.2394V22.5301C19.6627 22.927 19.99 23.2543 20.3868 23.2543H24.6759V22.4605H20.6445C20.6445 22.4605 20.5122 22.4605 20.5122 22.3004V21.813V21.7851H24.293V20.9844H20.5122V20.4691C20.5052 20.309 20.6445 20.309 20.6445 20.309Z" fill="#ED1D24"/>
<path d="M14.8097 19.5152V20.9287H18.1518V19.5152H18.9804V23.2543H18.1518V21.806H14.8097V23.2543H13.9741V19.5152H14.8097Z" fill="#ED1D24"/>
<path d="M8.3551 22.5301C8.3551 22.927 8.68235 23.2543 9.07923 23.2543H13.2987V22.3839H9.34382C9.26723 22.3839 9.21153 22.3212 9.21153 22.2516V20.5179C9.21153 20.4413 9.27419 20.3856 9.34382 20.3856H13.3056V19.5152H9.07923C8.68235 19.5152 8.3551 19.8425 8.3551 20.2394V22.5301Z" fill="#ED1D24"/>
<path d="M33.644 21.249L35.4195 19.5152H36.6449L34.1244 21.9522V23.2543H33.0939V21.9592L30.5664 19.5152H31.7919L33.644 21.249Z" fill="#ED1D24"/>
</g>
</g>
<defs>
<clipPath id="clip0_1412_8">
<rect width="42.8" height="62" fill="white" transform="translate(0.800049)"/>
</clipPath>
<clipPath id="clip1_1412_8">
<rect width="29" height="4.81825" fill="white" transform="translate(8 19)"/>
</clipPath>
</defs>
</svg>
