<svg version="1.1" baseProfile="basic" id="Layer_1"
	 xmlns="http://www.w3.org/2000/svg" xmlns:xlink="http://www.w3.org/1999/xlink" x="0px" y="0px" viewBox="0 0 44 62"
	 xml:space="preserve">
<g>
	<path opacity="0.2" fill="#05141F" d="M35.8,58.4c0,2-6.2,3.6-13.8,3.6S8.2,60.4,8.2,58.4s6.2-3.6,13.8-3.6
		C29.6,54.7,35.8,56.4,35.8,58.4z"/>
	<path fill="#05141F" d="M22.2,0C10.4,0,0.8,9.6,0.8,21.4c0,12.6,21.4,37.1,21.4,37.1S43.6,35,43.6,21.4C43.6,9.6,34,0,22.2,0z
		 M22.2,33.7C14.9,33.7,9,27.8,9,20.5S14.9,7.3,22.2,7.3s13.2,5.9,13.2,13.2S29.5,33.7,22.2,33.7z"/>
	<path fill="#FFFFFF" d="M22.2,38.2c9.2,0,16.7-7.5,16.7-16.7S31.4,4.8,22.2,4.8S5.5,12.3,5.5,21.5S13,38.2,22.2,38.2z"/>
</g>
</svg>
