<svg viewBox="0 0 43 62" fill="none" xmlns="http://www.w3.org/2000/svg">
<g clip-path="url(#clip0_1412_2)">
<path opacity="0.2" d="M35 58.4C35 60.4 28.8 62 21.2 62C13.6 62 7.40002 60.4 7.40002 58.4C7.40002 56.4 13.6 54.8 21.2 54.8C28.8 54.7 35 56.4 35 58.4Z" fill="#05141F"/>
<path d="M21.4 0C9.6 0 0 9.6 0 21.4C0 34 21.4 58.5 21.4 58.5C21.4 58.5 42.8 35 42.8 21.4C42.8 9.6 33.2 0 21.4 0ZM21.4 33.7C14.1 33.7 8.2 27.8 8.2 20.5C8.2 13.2 14.1 7.3 21.4 7.3C28.7 7.3 34.6 13.2 34.6 20.5C34.6 27.8 28.7 33.7 21.4 33.7Z" fill="#05141F"/>
<path d="M21.7 38.4C30.9232 38.4 38.4 30.9232 38.4 21.7C38.4 12.4768 30.9232 5 21.7 5C12.4768 5 5 12.4768 5 21.7C5 30.9232 12.4768 38.4 21.7 38.4Z" fill="white"/>
<path d="M30.2799 23.9975C30.2799 23.9975 30.2799 23.5815 30.2799 23.3293C29.0164 23.3293 27.7966 23.3231 26.5769 23.3327C26.1566 23.3359 25.8911 23.2156 25.9486 22.6828C27.2912 22.6828 28.6334 22.6828 30.0127 22.6828C30.0127 22.4033 30.0127 22.1748 30.0127 21.8932C28.6713 21.8932 27.3266 21.8932 25.9894 21.8932C25.9044 21.2349 26.0048 21.1052 26.5817 21.1033C27.7851 21.0992 28.9885 21.102 30.2324 21.102C30.2324 20.8494 30.2324 20.6208 30.2324 20.3225C29.2688 20.3225 28.2928 20.3225 27.3168 20.3225C26.8162 20.3225 26.3154 20.3133 25.8151 20.3251C25.2892 20.3375 24.9441 20.66 24.9322 21.1712C24.9157 21.8753 24.9055 22.5813 24.9417 23.2839C24.9527 23.4961 24.9417 23.9452 25.2403 23.9452C26.8948 23.9866 28.5874 23.9996 30.2799 23.9975Z" fill="#C68D66"/>
<path d="M24.4891 23.9975C24.4891 23.9975 24.4891 23.5816 24.4891 23.3292C23.2073 23.3292 21.9693 23.3274 20.7313 23.3302C20.3183 23.3312 20.0291 23.2279 20.1801 22.6718C21.4692 22.6718 22.7774 22.6718 24.1164 22.6718C24.1164 22.3929 24.1164 22.1645 24.1164 21.882C22.7947 21.882 21.4876 21.882 20.1877 21.882C20.1053 21.1489 20.1407 21.1047 20.8242 21.1029C22.0249 21.0997 23.2256 21.102 24.454 21.102C24.454 20.8406 24.454 20.6248 24.454 20.3225C24.2915 20.3225 24.1161 20.3225 23.9407 20.3225C22.6617 20.3225 21.3827 20.3187 20.1038 20.3241C19.4521 20.3268 19.1381 20.6501 19.1372 21.2975C19.1362 21.9277 19.1097 22.5597 19.1506 23.1872C19.1666 23.4324 19.1506 23.9375 19.4492 23.945C21.1039 23.9866 22.7965 23.9996 24.4891 23.9975Z" fill="#C68D66"/>
<path d="M12.3505 23.996C12.3505 23.996 12.3505 23.5816 12.3505 23.3292C11.0692 23.3292 9.83139 23.3265 8.59364 23.3308C8.16447 23.3322 7.89597 23.179 7.90689 22.6561C9.26733 22.6561 10.6135 22.6561 11.9843 22.6561C11.9843 22.3939 11.9843 22.1775 11.9843 21.9076C10.65 21.9076 9.30608 21.9076 7.97133 21.9076C7.87216 21.284 8.00182 21.105 8.52876 21.1033C9.78414 21.0993 11.0395 21.102 12.319 21.102C12.319 20.8345 12.319 20.618 12.319 20.3225C11.8341 20.3225 11.3411 20.3225 10.8481 20.3225C9.88445 20.3225 8.92056 20.3103 7.95728 20.3292C7.62636 20.3357 7.24679 20.3113 7.04947 20.7429C7.00817 21.5907 6.99759 22.4213 7.00043 23.2518C7.00241 23.8302 7.17083 23.9946 7.76006 23.996C9.25546 23.9994 10.803 24.003 12.3505 23.996Z" fill="#C68D66"/>
<path d="M35.6853 23.9886C36.0084 23.9313 36.1199 23.5981 36.1328 23.3945C36.1816 22.6212 36.1866 21.8416 36.1469 21.0675C36.1196 20.5365 35.7036 20.3347 35.2323 20.3292C33.7532 20.3119 32.2738 20.3228 30.7175 20.3228C30.7175 21.5265 30.7203 22.7606 30.7175 23.9886C30.7175 23.9886 33.9928 23.9904 35.6853 23.9886ZM34.7175 23.3243C33.7258 23.3243 32.7342 23.3243 31.766 23.3243C31.766 22.5367 31.766 21.8258 31.766 21.102C32.4221 21.102 33.0332 21.1013 33.6442 21.1022C35.3694 21.1045 35.1573 20.9232 35.1794 22.6493C35.1833 22.9585 35.1264 23.1878 34.7175 23.3243Z" fill="#C68D66"/>
<path d="M18.6359 23.9535C16.459 22.1971 18.6359 23.9535 16.459 22.1971C17.2303 21.5956 17.963 21.0242 18.7265 20.4287C17.2362 20.4287 18.7265 20.4287 17.2362 20.4287C15.6847 21.6032 15.6847 21.6032 15.6847 21.6032C15.6847 21.6032 15.6847 21.6032 14.2045 20.442C12.7584 20.442 14.2045 20.442 12.7584 20.442C15.0166 22.1971 15.0166 22.1971 15.0166 22.1971C15.0166 22.1971 15.0166 22.1971 12.7996 23.9483C14.2045 23.9535 12.7996 23.9483 14.2045 23.9535C14.6875 23.5727 15.2542 23.1537 15.6847 22.8282C15.6154 22.7764 15.7555 22.7746 15.6847 22.8282C16.1557 23.1794 16.776 23.5827 17.2362 23.9483C18.6359 23.9535 17.2362 23.9483 18.6359 23.9535Z" fill="#C68D66"/>
</g>
<defs>
<clipPath id="clip0_1412_2">
<rect width="42.8" height="62" fill="white"/>
</clipPath>
</defs>
</svg>
