<svg viewBox="0 0 43 62" fill="none" xmlns="http://www.w3.org/2000/svg">
<g clip-path="url(#clip0_1403_34)">
<path opacity="0.2" d="M35 58.4C35 60.4 28.8 62 21.2 62C13.6 62 7.40002 60.4 7.40002 58.4C7.40002 56.4 13.6 54.8 21.2 54.8C28.8 54.7 35 56.4 35 58.4Z" fill="#05141F"/>
<path d="M21.4 0C9.6 0 0 9.6 0 21.4C0 34 21.4 58.5 21.4 58.5C21.4 58.5 42.8 35 42.8 21.4C42.8 9.6 33.2 0 21.4 0ZM21.4 33.7C14.1 33.7 8.2 27.8 8.2 20.5C8.2 13.2 14.1 7.3 21.4 7.3C28.7 7.3 34.6 13.2 34.6 20.5C34.6 27.8 28.7 33.7 21.4 33.7Z" fill="#05141F"/>
<path d="M21.4 0C9.6 0 0 9.6 0 21.4C0 34 21.4 58.5 21.4 58.5C21.4 58.5 42.8 35 42.8 21.4C42.8 9.6 33.2 0 21.4 0ZM21.4 33.7C14.1 33.7 8.2 27.8 8.2 20.5C8.2 13.2 14.1 7.3 21.4 7.3C28.7 7.3 34.6 13.2 34.6 20.5C34.6 27.8 28.7 33.7 21.4 33.7Z" fill="#05141F"/>
<path d="M21.7 38.4C30.9232 38.4 38.4 30.9232 38.4 21.7C38.4 12.4768 30.9232 5 21.7 5C12.4768 5 5 12.4768 5 21.7C5 30.9232 12.4768 38.4 21.7 38.4Z" fill="white"/>
<g clip-path="url(#clip1_1403_34)">
<path d="M29.0241 23.8163V25.4472H29.8207C30.1345 25.4472 30.3759 25.3763 30.569 25.2109C30.7621 25.0454 30.8586 24.8327 30.8586 24.5727C30.8586 24.3363 30.7621 24.1472 30.5931 24.0054C30.4241 23.8636 30.1586 23.7927 29.8448 23.7927H29.0241V23.8163ZM32.1138 27.929H31.3172L30.4483 26.6527C30.2793 26.3927 30.1103 26.2272 29.9897 26.1327C29.8448 26.0381 29.6759 25.9909 29.4828 25.9909H29V27.929H28.3241V23.2963H29.8931C30.4 23.2963 30.7862 23.4145 31.0759 23.6272C31.3655 23.84 31.5103 24.1472 31.5103 24.549C31.5103 25.1872 31.1241 25.6127 30.3517 25.8018V25.8254C30.4966 25.8727 30.6172 25.9672 30.7138 26.0618C30.8103 26.1563 30.9552 26.3218 31.1241 26.5818L32.1138 27.929ZM23.4241 25.6127C23.4241 26.18 23.5931 26.629 23.9069 26.96C24.2207 27.2909 24.631 27.4563 25.1621 27.4563C25.7172 27.4563 26.1517 27.2909 26.4655 26.96C26.7793 26.629 26.9483 26.18 26.9483 25.589C26.9483 24.9981 26.8034 24.5254 26.4897 24.1945C26.1759 23.8636 25.7655 23.6981 25.2345 23.6981C24.7034 23.6981 24.269 23.8636 23.9552 24.2181C23.5931 24.62 23.4241 25.069 23.4241 25.6127ZM22.7241 25.66C22.7241 24.9036 22.9414 24.3127 23.4 23.8872C23.8586 23.4381 24.4621 23.2254 25.2345 23.2254C25.9586 23.2254 26.5379 23.4381 26.9724 23.8636C27.4069 24.289 27.6241 24.8563 27.6241 25.5418C27.6241 26.2981 27.4069 26.889 26.9483 27.3381C26.4897 27.7872 25.9103 28 25.1379 28C24.4138 28 23.8103 27.7872 23.3759 27.3618C22.9414 26.9127 22.7241 26.3454 22.7241 25.66ZM22.6276 23.8163H21.131V27.9054H20.4552V23.8163H18.9586V23.2963H22.6034V23.8163H22.6276ZM14.5897 25.6127C14.5897 26.18 14.7586 26.629 15.0724 26.96C15.3862 27.2909 15.7966 27.4563 16.3276 27.4563C16.8828 27.4563 17.3172 27.2909 17.631 26.96C17.9448 26.629 18.1138 26.18 18.1138 25.589C18.1138 24.9981 17.969 24.5254 17.6552 24.1945C17.3414 23.8636 16.931 23.6981 16.4 23.6981C15.869 23.6981 15.4345 23.8636 15.1207 24.2181C14.7586 24.62 14.5897 25.069 14.5897 25.6127ZM13.8897 25.66C13.8897 24.9036 14.1069 24.3127 14.5655 23.8872C15.0241 23.4381 15.6276 23.2254 16.4 23.2254C17.1241 23.2254 17.7034 23.4381 18.1379 23.8636C18.5724 24.289 18.7897 24.8563 18.7897 25.5418C18.7897 26.2981 18.5724 26.889 18.1138 27.3381C17.6552 27.7872 17.0759 28 16.3034 28C15.5793 28 14.9759 27.7872 14.5414 27.3618C14.131 26.9127 13.8897 26.3454 13.8897 25.66ZM12.6828 27.929V24.8563C12.6828 24.5963 12.7069 24.289 12.731 23.9345H12.7069C12.6586 24.1472 12.5862 24.3127 12.5621 24.4072L10.8483 27.929H10.4862L8.79655 24.4545C8.74828 24.3836 8.7 24.2181 8.65172 23.9581H8.60345C8.62759 24.1709 8.62759 24.4781 8.62759 24.9036V27.9527H8V23.2963H8.8931L10.4138 26.4636C10.5345 26.7 10.6069 26.889 10.6552 27.0309H10.6793C10.8 26.7472 10.8724 26.5581 10.9207 26.44L12.4655 23.2727H13.3345V27.9054H12.6828V27.929ZM32.6207 27.0309C32.7655 27.149 32.9828 27.2436 33.2483 27.3381C33.5138 27.409 33.7552 27.4563 33.9724 27.4563C34.6724 27.4563 35.0345 27.22 35.0345 26.7709C35.0345 26.6527 34.9862 26.5345 34.9138 26.44C34.8414 26.3454 34.7448 26.2509 34.6 26.18C34.4793 26.109 34.2138 25.9909 33.8517 25.8254C33.3448 25.589 33.0069 25.4 32.8621 25.1872C32.6931 24.9981 32.6207 24.7618 32.6207 24.5254C32.6207 24.1472 32.7897 23.8636 33.1276 23.6272C33.4655 23.4145 33.9 23.2963 34.4069 23.2963C34.9138 23.2963 35.2759 23.3436 35.5172 23.4618V24.1C35.2034 23.9109 34.8414 23.8163 34.3586 23.8163C34.0448 23.8163 33.8034 23.8636 33.6103 23.9818C33.4172 24.1 33.3207 24.2654 33.3207 24.4545C33.3207 24.6436 33.3931 24.7854 33.5138 24.9036C33.6586 25.0218 33.9483 25.1636 34.3828 25.3763C34.8655 25.589 35.2276 25.8018 35.4207 26.0145C35.6138 26.2272 35.7103 26.4636 35.7103 26.7236C35.7103 27.1254 35.5414 27.4327 35.2276 27.6454C34.9138 27.8581 34.4552 27.9527 33.9 27.9527C33.7069 27.9527 33.4655 27.929 33.2 27.8818C32.9345 27.8345 32.7414 27.7636 32.6207 27.6927V27.0309Z" fill="black"/>
<path fill-rule="evenodd" clip-rule="evenodd" d="M15.724 15.1417C14.9999 15.1417 14.2758 15.1417 13.5516 15.1417C13.3827 15.1417 13.3585 15.1417 13.3585 15.3308V19.6799C13.3585 19.9635 13.093 20.3181 12.6827 20.3181L11.3068 20.3417C10.9206 20.3417 10.5827 20.0581 10.5827 19.6326V19.2072C10.5827 19.1126 10.5585 19.0654 10.462 19.0654H8.14474C8.04819 19.0654 8.02405 19.1126 8.02405 19.2072V19.7508C8.02405 20.7435 8.96543 21.8308 10.2447 21.8308H13.5758C14.9275 21.8308 15.893 20.8617 15.893 19.6326V15.3545C15.9171 15.189 15.8689 15.1417 15.724 15.1417Z" fill="#CC000E"/>
<path fill-rule="evenodd" clip-rule="evenodd" d="M31.2448 15C33.3449 15 35.1311 15.9691 35.8069 17.3164C35.9276 17.5764 35.7586 17.5764 35.6138 17.5764H33.1517C33.0069 17.5764 32.9345 17.5291 32.8621 17.4109C32.5 16.9618 31.9206 16.6782 31.2689 16.6782C30.1586 16.6782 29.2654 17.5055 29.2654 18.4982C29.2654 19.4909 30.1586 20.3182 31.2689 20.3182C31.9206 20.3182 32.5 20.0345 32.8621 19.6091C32.9586 19.4909 33.0311 19.4436 33.1759 19.4436C35.1552 19.4436 35.2517 19.4436 35.6621 19.4436C35.8311 19.4436 35.9517 19.4909 35.8552 19.68C35.1793 21.0509 33.3931 22.02 31.2689 22.02C28.5896 22.02 26.4172 20.4364 26.4172 18.4982C26.3931 16.5836 28.5655 15 31.2448 15Z" fill="#CC000E"/>
<path fill-rule="evenodd" clip-rule="evenodd" d="M21.2516 17.4345L18.5964 21.7836C18.5481 21.8781 18.524 21.8781 18.4516 21.8781H16.0619C15.9654 21.8781 15.9171 21.8309 15.9895 21.689L19.8516 15.4963C20.0206 15.2363 20.1171 15.189 20.3826 15.189H22.4102C22.724 15.189 22.7723 15.2127 22.9412 15.4963L26.7309 21.6418C26.8757 21.8781 26.8757 21.8781 26.5378 21.8781H24.5102C24.2447 21.8781 24.1964 21.8309 24.0999 21.6654L23.5447 20.7672H20.1171C19.8999 20.7672 19.8274 20.7909 19.924 20.6254L20.624 19.4672C20.7206 19.2781 20.7447 19.3018 20.9861 19.3018H22.6516L21.5171 17.4345C21.4447 17.2454 21.324 17.269 21.2516 17.4345Z" fill="#CC000E"/>
</g>
</g>
<defs>
<clipPath id="clip0_1403_34">
<rect width="42.8" height="62" fill="white"/>
</clipPath>
<clipPath id="clip1_1403_34">
<rect width="28" height="13" fill="white" transform="translate(8 15)"/>
</clipPath>
</defs>
</svg>
