<svg width="43" height="62" viewBox="0 0 43 62" fill="none" xmlns="http://www.w3.org/2000/svg">
<g clip-path="url(#clip0_1885_802)">
<path opacity="0.2" d="M35 58.4C35 60.4 28.8 62 21.2 62C13.6 62 7.40002 60.4 7.40002 58.4C7.40002 56.4 13.6 54.8 21.2 54.8C28.8 54.7 35 56.4 35 58.4Z" fill="#05141F"/>
<path d="M21.4 0C9.6 0 0 9.6 0 21.4C0 34 21.4 58.5 21.4 58.5C21.4 58.5 42.8 35 42.8 21.4C42.8 9.6 33.2 0 21.4 0ZM21.4 33.7C14.1 33.7 8.2 27.8 8.2 20.5C8.2 13.2 14.1 7.3 21.4 7.3C28.7 7.3 34.6 13.2 34.6 20.5C34.6 27.8 28.7 33.7 21.4 33.7Z" fill="#010101"/>
<path d="M21.7 38.4C30.9232 38.4 38.4 30.9232 38.4 21.7C38.4 12.4768 30.9232 5 21.7 5C12.4768 5 5 12.4768 5 21.7C5 30.9232 12.4768 38.4 21.7 38.4Z" fill="white"/>
</g>
<g clip-path="url(#clip1_1885_802)">
<path d="M17.1957 21.3633V21.9998H20.4001V21.3633H17.1957Z" fill="black"/>
<path d="M31.7003 19.5268V21.4759L32.268 21.9912L32.2779 21.9998H33.7589V21.3633H32.8728L32.5637 21.0826V19.9181L32.8498 19.6367H33.7589V19.0001H32.2352L31.7003 19.5268Z" fill="black"/>
<path d="M26.4429 19.5268V21.4759L27.0102 21.9912L27.0197 21.9998H28.5011V21.3633H27.615L27.3058 21.0826V19.9181L27.592 19.6367H28.5011V19.0001H26.9777L26.4429 19.5268Z" fill="black"/>
<path d="M30.2081 19.0001H28.6836V19.6367H29.5927L29.875 19.9154V21.0833L29.5667 21.3633H28.6836V21.9998H30.1665L30.7316 21.4866L30.7418 21.4776V19.5248L30.2183 19.0098L30.2081 19.0001Z" fill="black"/>
<path d="M35.4663 19.0001H33.9414V19.6367H34.8505L35.1329 19.9154V21.0833L34.8245 21.3633H33.9414V21.9998H35.4243L35.9894 21.4866L35.9996 21.4776V19.5248L35.4762 19.0098L35.4663 19.0001Z" fill="black"/>
<path d="M21.3226 19.5177L21.3135 19.5268V21.4759L21.8907 21.9998H22.1757V19.0001H21.8484L21.3226 19.5177Z" fill="black"/>
<path d="M22.3584 21.9998H25.5632V21.3633H22.3584V21.9998Z" fill="black"/>
<path d="M16.8673 19.0001H16.1508V21.9998H17.013V19.0001H16.8673Z" fill="black"/>
<path d="M8.96594 19.0001V21.9998H9.76637L10.3421 21.4776V19.0001H8.96594Z" fill="black"/>
<path d="M6.61844 21.9998H8.78318V21.3633H6L6.61844 21.9998Z" fill="black"/>
<path d="M20.1738 20.8183V20.1817H17.1957V20.8183H20.1738Z" fill="black"/>
<path d="M22.3584 19.6367H25.5632V19.0001H22.3584V19.6367Z" fill="black"/>
<path d="M17.1957 19.0001V19.6367H20.4001V19.0001H17.1957Z" fill="black"/>
<path d="M11.6958 19.0001H12.6053L12.4588 19.6367H12.4581L11.9144 21.9998H11.0056L11.6958 19.0001ZM13.7507 19.0001H14.6144L15.3046 21.9998H14.3939L13.8502 19.6367H12.6549L12.8014 19.0001H13.7507Z" fill="black"/>
</g>
<defs>
<clipPath id="clip0_1885_802">
<rect width="42.8" height="62" fill="white"/>
</clipPath>
<clipPath id="clip1_1885_802">
<rect width="30" height="3" fill="white" transform="translate(6 19)"/>
</clipPath>
</defs>
</svg>
