<svg viewBox="0 0 43 62" fill="none" xmlns="http://www.w3.org/2000/svg">
<g clip-path="url(#clip0_1245_50)">
<path opacity="0.2" d="M35 58.4C35 60.4 28.8 62 21.2 62C13.6 62 7.40002 60.4 7.40002 58.4C7.40002 56.4 13.6 54.8 21.2 54.8C28.8 54.7 35 56.4 35 58.4Z" fill="#05141F"/>
<path d="M21.4 0C9.6 0 0 9.6 0 21.4C0 34 21.4 58.5 21.4 58.5C21.4 58.5 42.8 35 42.8 21.4C42.8 9.6 33.2 0 21.4 0ZM21.4 33.7C14.1 33.7 8.2 27.8 8.2 20.5C8.2 13.2 14.1 7.3 21.4 7.3C28.7 7.3 34.6 13.2 34.6 20.5C34.6 27.8 28.7 33.7 21.4 33.7Z" fill="#05141F"/>
<path d="M21.4 0C9.6 0 0 9.6 0 21.4C0 34 21.4 58.5 21.4 58.5C21.4 58.5 42.8 35 42.8 21.4C42.8 9.6 33.2 0 21.4 0ZM21.4 33.7C14.1 33.7 8.2 27.8 8.2 20.5C8.2 13.2 14.1 7.3 21.4 7.3C28.7 7.3 34.6 13.2 34.6 20.5C34.6 27.8 28.7 33.7 21.4 33.7Z" fill="#05141F"/>
<path d="M21.7 38.4C30.9232 38.4 38.4 30.9232 38.4 21.7C38.4 12.4768 30.9232 5 21.7 5C12.4768 5 5 12.4768 5 21.7C5 30.9232 12.4768 38.4 21.7 38.4Z" fill="white"/>
<path d="M23.0463 14.1229L21.2705 10.2239C21.1715 10.0061 20.87 10.0061 20.7711 10.2239L16.3245 19.9842C15.8918 20.9348 15.8918 22.0322 16.3245 22.9828L17.8118 26.248C17.9108 26.4658 18.2123 26.4658 18.3112 26.248L23.0463 15.8552C23.2966 15.3071 23.2966 14.6722 23.0463 14.1229Z" fill="black"/>
<path d="M23.7291 16.7189L18.994 27.1118C18.7438 27.6611 18.7438 28.296 18.994 28.8441L20.7698 32.7431C20.8688 32.9608 21.1703 32.9608 21.2692 32.7431L25.7158 22.9828C26.1484 22.0322 26.1484 20.9348 25.7158 19.9842L24.2284 16.7189C24.1295 16.5012 23.828 16.5012 23.7291 16.7189Z" fill="black"/>
</g>
<defs>
<clipPath id="clip0_1245_50">
<rect width="42.8" height="62" fill="white"/>
</clipPath>
</defs>
</svg>
