<svg width="43" height="62" viewBox="0 0 43 62" fill="none" xmlns="http://www.w3.org/2000/svg">
<g clip-path="url(#clip0_1871_256)">
<path opacity="0.2" d="M35 58.4C35 60.4 28.8 62 21.2 62C13.6 62 7.40002 60.4 7.40002 58.4C7.40002 56.4 13.6 54.8 21.2 54.8C28.8 54.7 35 56.4 35 58.4Z" fill="#05141F"/>
<path d="M21.4 0C9.6 0 0 9.6 0 21.4C0 34 21.4 58.5 21.4 58.5C21.4 58.5 42.8 35 42.8 21.4C42.8 9.6 33.2 0 21.4 0ZM21.4 33.7C14.1 33.7 8.2 27.8 8.2 20.5C8.2 13.2 14.1 7.3 21.4 7.3C28.7 7.3 34.6 13.2 34.6 20.5C34.6 27.8 28.7 33.7 21.4 33.7Z" fill="#010101"/>
<path d="M21.7 38.4C30.9232 38.4 38.4 30.9232 38.4 21.7C38.4 12.4768 30.9232 5 21.7 5C12.4768 5 5 12.4768 5 21.7C5 30.9232 12.4768 38.4 21.7 38.4Z" fill="white"/>
<path d="M32.0551 16.2971C31.3277 15.9222 30.5779 15.5923 29.81 15.3092C26.1353 14.1091 22.2429 13.7259 18.4047 14.1866C14.8349 14.6581 11.3774 15.5113 8.66082 17.9809C7.35865 19.1933 6.5953 21.0118 7.22394 22.7406C8.05464 24.8735 10.2549 26.2879 12.2306 27.0962C18.0679 29.4536 25.9933 29.3638 31.6286 26.6696C33.5594 25.7042 35.7147 24.0652 35.9841 21.7527C36.2086 19.2382 34.0084 17.3657 32.0551 16.2971ZM19.0334 17.3074C19.5273 16.3644 20.3804 15.2418 21.5928 15.2194C24.0606 15.2088 26.5174 15.5489 28.8895 16.2297C29.0242 16.2971 29.2038 16.342 29.2712 16.4767C29.3385 16.6114 29.2038 16.7236 29.114 16.8359C27.2056 18.3177 25.0279 19.1484 22.8052 19.8893C21.6826 20.1587 20.5376 20.6526 19.2803 20.3832C19.128 20.3451 18.9853 20.2755 18.8615 20.1788C18.7378 20.0821 18.6357 19.9605 18.5619 19.8219C18.2476 18.9373 18.6741 18.0393 19.0334 17.3074ZM11.2876 25.0531C10.9958 25.3225 10.7039 24.9633 10.4345 24.851C9.0874 23.9754 7.87503 22.5385 8.23425 20.8547C8.79553 18.6544 11.0631 17.4645 12.9715 16.6563C14.1109 16.2166 15.2919 15.8931 16.4963 15.6909C16.6311 15.6909 16.8107 15.6684 16.8556 15.8031L16.8107 15.9378C14.3859 18.6994 12.7919 21.8874 11.2876 25.0531ZM23.6583 26.1083C23.097 26.9615 22.199 27.7024 21.0989 27.5901C18.6959 27.5565 16.3088 27.1939 14.0042 26.5124C13.9521 26.5032 13.9028 26.4823 13.86 26.4512C13.8172 26.42 13.7821 26.3796 13.7573 26.3328C13.7411 26.2719 13.7431 26.2075 13.7631 26.1476C13.783 26.0878 13.82 26.0351 13.8695 25.996C15.9126 24.3571 18.3149 23.5938 20.7172 22.7855C21.6153 22.5385 22.5582 22.2467 23.5685 22.3814C23.7784 22.4056 23.9782 22.4848 24.1477 22.611C24.3172 22.7371 24.4504 22.9057 24.5339 23.0998C24.7584 24.2448 24.1523 25.1878 23.6583 26.1083ZM34.7493 21.9997C34.188 24.2897 31.6959 25.5021 29.7202 26.2655C28.6425 26.6247 27.5649 26.9839 26.3749 27.0962C26.3076 27.0962 26.1729 27.0962 26.1729 26.9839L26.1953 26.8492C27.8792 24.9633 29.1365 22.8529 30.259 20.6975C30.7754 19.7321 31.2469 18.7443 31.6959 17.7564C31.7519 17.6965 31.8211 17.6503 31.898 17.6217C32.3021 17.689 32.594 18.0034 32.9307 18.2279C34.0758 19.1619 35.1085 20.4506 34.7493 21.9997Z" fill="#003469"/>
</g>
<defs>
<clipPath id="clip0_1871_256">
<rect width="42.8" height="62" fill="white"/>
</clipPath>
</defs>
</svg>
