<svg width="123" height="62" viewBox="0 0 123 62" fill="none" xmlns="http://www.w3.org/2000/svg">
<path d="M106.043 9.64126C102.992 8.06915 99.8474 6.68564 96.6272 5.49851C81.2168 0.465508 64.8932 -1.14115 48.7973 0.790841C33.8269 2.76806 19.3273 6.34589 7.93472 16.7028C2.47382 21.787 -0.727391 29.4135 1.9089 36.6633C5.39258 45.6079 14.6196 51.5395 22.9051 54.929C47.385 64.8151 80.6211 64.4385 104.254 53.1401C112.351 49.0915 121.39 42.2183 122.519 32.5205C123.461 21.9754 114.234 14.123 106.043 9.64126ZM51.4336 13.8782C53.505 9.92372 57.0828 5.21605 62.1671 5.1219C72.5162 5.07727 82.8192 6.50384 92.7669 9.3588C93.3318 9.64126 94.0851 9.82957 94.3675 10.3945C94.65 10.9594 94.0851 11.4302 93.7084 11.9009C85.7054 18.1151 76.5725 21.5987 67.2513 24.7058C62.5437 25.8356 57.7419 27.907 52.4693 26.7772C51.8304 26.6174 51.2321 26.3254 50.7131 25.9199C50.1941 25.5144 49.766 25.0046 49.4564 24.4233C48.1382 20.7137 49.9271 16.9476 51.4336 13.8782ZM18.9507 46.3611C17.7267 47.4909 16.5027 45.9845 15.3728 45.5137C9.72363 41.8417 4.63935 35.8159 6.14581 28.7544C8.49964 19.5274 18.0091 14.5372 26.0122 11.1477C30.7906 9.30371 35.7431 7.94729 40.7942 7.09912C41.3592 7.09912 42.1124 7.00496 42.3007 7.56988L42.1124 8.1348C31.9438 19.7157 25.2589 33.0855 18.9507 46.3611ZM70.8292 50.7863C68.4753 54.3641 64.7092 57.4712 60.0957 57.0004C50.0184 56.8596 40.0078 55.339 30.3432 52.4811C30.1247 52.4425 29.9178 52.3546 29.7383 52.2241C29.5589 52.0936 29.4115 51.9239 29.3075 51.7278C29.2397 51.4722 29.2481 51.2022 29.3317 50.9513C29.4154 50.7003 29.5706 50.4793 29.7783 50.3155C38.3463 43.4423 48.4207 40.2411 58.4951 36.8516C62.2612 35.8159 66.2157 34.5919 70.4526 35.1568C71.3328 35.2586 72.1706 35.5907 72.8814 36.1197C73.5922 36.6487 74.1509 37.3558 74.5012 38.1697C75.4427 42.9716 72.9005 46.926 70.8292 50.7863ZM117.341 33.5562C114.987 43.1599 104.536 48.2441 96.2506 51.4454C91.7312 52.9518 87.2119 54.4583 82.2217 54.929C81.9393 54.929 81.3744 54.929 81.3744 54.4583L81.4685 53.8934C88.53 45.9845 93.8026 37.134 98.5103 28.0953C100.676 24.0467 102.653 19.904 104.536 15.7612C104.771 15.5099 105.061 15.3165 105.383 15.1963C107.078 15.4788 108.302 16.7969 109.715 17.7384C114.516 21.6552 118.847 27.0596 117.341 33.5562Z" fill="#003469"/>
</svg>
