<svg width="44" height="62" viewBox="0 0 44 62" fill="none" xmlns="http://www.w3.org/2000/svg">
<g clip-path="url(#clip0_1871_263)">
<path opacity="0.2" d="M35.8001 58.4C35.8001 60.4 29.6001 62 22.0001 62C14.4001 62 8.20007 60.4 8.20007 58.4C8.20007 56.4 14.4001 54.8 22.0001 54.8C29.6001 54.7 35.8001 56.4 35.8001 58.4Z" fill="#05141F"/>
<path d="M22.2 0C10.4 0 0.800049 9.6 0.800049 21.4C0.800049 34 22.2 58.5 22.2 58.5C22.2 58.5 43.6 35 43.6 21.4C43.6 9.6 34 0 22.2 0ZM22.2 33.7C14.9 33.7 9.00005 27.8 9.00005 20.5C9.00005 13.2 14.9 7.3 22.2 7.3C29.5 7.3 35.4 13.2 35.4 20.5C35.4 27.8 29.5 33.7 22.2 33.7Z" fill="#010101"/>
<path d="M22.5 38.4C31.7232 38.4 39.2 30.9232 39.2 21.7C39.2 12.4768 31.7232 5 22.5 5C13.2769 5 5.80005 12.4768 5.80005 21.7C5.80005 30.9232 13.2769 38.4 22.5 38.4Z" fill="white"/>
<path d="M22.4971 16C15.3582 16 9.42408 18.0647 8.22715 20.783C8.07894 21.106 8.00152 21.4566 8 21.8116C8.00163 22.1618 8.08014 22.5076 8.23007 22.8247C8.23007 22.8343 8.23977 22.8439 8.24366 22.8536C8.24754 22.8632 8.26404 22.897 8.27472 22.9182C9.57746 25.5863 15.4514 27.6 22.5019 27.6C30.5096 27.6 37 25.0031 37 21.8C37 18.5968 30.5047 16 22.4971 16ZM21.4225 17.2281C21.9302 17.7023 21.6166 18.7337 20.6459 20.1584C19.5664 21.7364 18.5296 22.603 17.2978 22.9211L19.9751 16.9543H19.9858C20.6701 16.9234 21.1332 16.961 21.4225 17.2281ZM27.4964 23.0444C27.4818 23.0349 27.4698 23.0218 27.4615 23.0065C27.4532 22.9912 27.4488 22.9741 27.4488 22.9567C27.4488 22.9324 27.4571 22.9087 27.4725 22.8898C27.4878 22.8708 27.5093 22.8577 27.5333 22.8526L28.7399 22.6039C28.7548 22.6007 28.7685 22.5937 28.7798 22.5835C28.791 22.5734 28.7994 22.5605 28.804 22.5461L28.9982 21.959C29.002 21.9467 29.003 21.9336 29.001 21.9208C28.999 21.908 28.9942 21.8959 28.9868 21.8852C28.9794 21.8745 28.9697 21.8657 28.9584 21.8593C28.9471 21.8529 28.9345 21.8491 28.9215 21.8482L26.6664 21.721C26.5894 21.7173 26.5132 21.7382 26.449 21.7807L25.5452 22.3938C25.4668 22.4463 25.4055 22.5205 25.3689 22.6071C25.3324 22.6938 25.3221 22.7892 25.3394 22.8815C25.5918 24.231 25.0957 24.9646 22.4952 25.2837C18.95 25.7174 16.2377 25.3367 15.431 25.1979L15.4048 25.193C15.3476 25.1831 15.2886 25.1923 15.2373 25.2194C15.1859 25.2465 15.1451 25.2898 15.1214 25.3424L14.8651 25.915C12.1955 25.1024 10.3424 23.8705 9.89586 22.4593C9.89586 22.4545 9.89586 22.4506 9.89586 22.4468C9.88324 22.4073 9.87256 22.3668 9.86188 22.3263V22.3176C9.81927 22.1473 9.79776 21.9726 9.79782 21.7971C9.79782 19.4557 13.6478 17.4796 18.9141 16.8589H18.9325C18.9325 16.8589 16.2358 22.8748 15.7766 23.8956C15.7695 23.9118 15.7664 23.9296 15.7678 23.9473C15.7692 23.9649 15.7749 23.982 15.7845 23.997C15.7941 24.012 15.8072 24.0243 15.8228 24.033C15.8383 24.0418 15.8558 24.0465 15.8737 24.0469H16.0232C17.6055 24.1019 19.5179 24.1597 21.9078 23.5572C24.4473 22.9162 26.3645 21.0761 27.0984 19.7372C27.843 18.378 27.4168 17.3341 27.3343 16.9765C32.0201 17.7129 35.0177 19.5685 35.0837 21.7267C35.0668 22.1672 34.95 22.5982 34.742 22.9876C33.8625 24.4894 31.3629 25.7348 28.0362 26.4038C29.3457 24.9328 28.3206 23.5948 27.4964 23.0473V23.0444Z" fill="#4C5865"/>
</g>
<defs>
<clipPath id="clip0_1871_263">
<rect width="42.8" height="62" fill="white" transform="translate(0.800049)"/>
</clipPath>
</defs>
</svg>
