<svg width="92" height="67" viewBox="0 0 92 67" fill="none" xmlns="http://www.w3.org/2000/svg">
<path d="M45.5883 0.1875C23.1391 0.1875 4.47824 6.5286 0.714322 14.8768C0.248251 15.8688 0.00476983 16.9455 0 18.0355C0.00511231 19.1113 0.252005 20.173 0.723479 21.1469C0.723479 21.1764 0.754006 21.206 0.766216 21.2357C0.778427 21.2653 0.830322 21.3689 0.8639 21.434C4.96055 29.6282 23.4321 35.8125 45.6036 35.8125C70.7849 35.8125 91.1949 27.8373 91.1949 18C91.1949 8.16271 70.7696 0.1875 45.5883 0.1875ZM42.209 3.959C43.8055 5.41549 42.8195 8.58309 39.7669 12.9585C36.3723 17.8047 33.112 20.466 29.2383 21.4429L37.6576 3.11826H37.691C39.8432 3.02352 41.2993 3.13898 42.209 3.959ZM61.3095 21.8218C61.2635 21.7924 61.2258 21.7524 61.1996 21.7054C61.1735 21.6585 61.1598 21.6058 61.1598 21.5524C61.1596 21.4777 61.1857 21.405 61.2342 21.3468C61.2825 21.2887 61.3501 21.2483 61.4255 21.2327L65.2199 20.4689C65.2666 20.4592 65.3098 20.4376 65.3452 20.4063C65.3806 20.3752 65.4068 20.3355 65.4213 20.2913L66.0319 18.4884C66.0439 18.4505 66.047 18.4104 66.0408 18.3711C66.0347 18.3318 66.0193 18.2944 65.9962 18.2617C65.973 18.2289 65.9425 18.2018 65.9069 18.182C65.8713 18.1623 65.8316 18.1507 65.7907 18.148L58.6995 17.7573C58.4571 17.7459 58.2175 17.8101 58.0156 17.9407L55.1737 19.8235C54.9269 19.9849 54.7343 20.2127 54.6192 20.4788C54.5043 20.7449 54.472 21.0379 54.5265 21.3216C55.3201 25.466 53.7602 27.7189 45.5822 28.6988C34.4339 30.0309 25.9048 28.8616 23.368 28.4353L23.2856 28.4204C23.1056 28.3898 22.9201 28.4183 22.7587 28.5014C22.5972 28.5845 22.469 28.7175 22.3943 28.8793L21.5883 30.6377C13.1935 28.1422 7.36605 24.3588 5.96183 20.0249C5.96183 20.0101 5.96183 19.9982 5.96183 19.9865C5.92214 19.865 5.88856 19.7406 5.85498 19.6163V19.5897C5.72098 19.0667 5.65333 18.53 5.65351 17.9911C5.65351 10.8004 17.7603 4.73166 34.3209 2.82519H34.379C34.379 2.82519 25.8987 21.3008 24.4548 24.4358C24.4323 24.4856 24.4226 24.5402 24.4269 24.5945C24.4313 24.6488 24.4492 24.7013 24.4795 24.7473C24.5097 24.7932 24.551 24.8312 24.5999 24.8579C24.6489 24.8848 24.7038 24.8994 24.76 24.9006H25.2301C30.206 25.0693 36.2197 25.247 43.7353 23.3967C51.721 21.4281 57.7501 15.7768 60.0578 11.6648C62.3992 7.49071 61.0591 4.28464 60.7997 3.18634C75.5348 5.44807 84.9614 11.1468 85.169 17.775C85.1158 19.1277 84.7485 20.4512 84.0944 21.6472C81.3287 26.2594 73.4682 30.0842 63.0068 32.1387C67.1248 27.6211 63.9012 23.5121 61.3095 21.8308V21.8218Z" fill="#4C5865"/>
<path d="M6.52402 47H2V66.8108H18.1088V62.8468H6.52402V47Z" fill="#4C5865"/>
<path d="M29.4024 47L20.1779 66.8108H24.9374L26.6652 62.9622H36.696L38.4511 66.8108H43.2011L33.9849 47H29.4024ZM31.6776 51.103L35.1178 58.9895H28.298L31.6776 51.103Z" fill="#4C5865"/>
<path d="M55.1913 47H46.1165V66.8108H54.4005C56.2648 66.8292 58.1245 66.6494 59.9473 66.2749C61.5658 65.9323 63.0585 65.1688 64.2638 64.0665C66.0961 62.2902 67.0117 59.9032 67.0117 56.9054C67.0117 53.8306 66.1068 51.4533 64.2971 49.7739C62.3318 47.9246 59.2965 47 55.1913 47ZM60.3261 61.3311C59.0804 62.3435 57.0284 62.8488 54.1689 62.8468H50.6373V50.9255H54.6938C57.3395 50.9255 59.2953 51.482 60.5612 52.5951C61.7095 53.6076 62.2831 55.0295 62.2831 56.861C62.2831 58.7793 61.6311 60.2693 60.3261 61.3311Z" fill="#4C5865"/>
<path d="M85.8229 66.8108H90.5789L81.3591 47H76.7801L67.558 66.8108H72.3139L74.0453 62.9622H84.0737L85.8229 66.8108ZM79.0518 51.103L82.4884 58.9895H75.6698L79.0518 51.103Z" fill="#4C5865"/>
</svg>
