<svg width="69" height="40" viewBox="0 0 69 40" fill="none" xmlns="http://www.w3.org/2000/svg">
<path fill-rule="evenodd" clip-rule="evenodd" d="M2.53315 30.3212H10.8132L34.2164 9.23471C43.971 17.4973 59.8882 28.9005 56.4855 30.2465H66.0132L34.1786 2.50496L2.53315 30.3212ZM36.2581 2.43019L38.0351 0.44865L38.64 0.972074L37.7704 2.61712L39.3584 1.57027L39.9633 2.0937L38.1863 4.11262L37.8082 3.77614L39.2071 2.20586L37.4301 3.40226L37.0521 3.06577L38.0351 1.15901L36.6362 2.72929L36.2581 2.43019ZM39.1693 3.25271C39.3584 3.06577 39.5474 2.91622 39.6986 2.84145C39.8499 2.76667 39.9633 2.72929 40.1145 2.72929C40.2658 2.72929 40.417 2.72929 40.5304 2.76667C40.7195 2.84145 40.8707 2.91622 41.0219 3.06577C41.3244 3.32749 41.4756 3.62659 41.4756 3.96307C41.4756 4.29956 41.3622 4.63605 41.0597 4.93515C40.7573 5.27163 40.4548 5.42118 40.1145 5.45857C39.7742 5.49596 39.4718 5.3838 39.1693 5.12208C38.8668 4.86037 38.7156 4.56127 38.7156 4.22479C38.7534 3.8883 38.9047 3.55181 39.1693 3.25271ZM39.5852 3.5892C39.3962 3.81352 39.2827 4.03785 39.2827 4.22479C39.2827 4.44911 39.3584 4.59866 39.5096 4.74821C39.6608 4.89776 39.8499 4.93515 40.0767 4.93515C40.2658 4.89776 40.4926 4.7856 40.6816 4.56127C40.8707 4.33695 40.9841 4.11262 40.9841 3.92569C40.9841 3.73875 40.9085 3.55181 40.7195 3.40226C40.5682 3.25271 40.3792 3.17794 40.1523 3.21532C40.0011 3.25271 39.8121 3.36487 39.5852 3.5892ZM42.2696 6.39326L42.5342 6.84191C42.2696 6.99146 42.0427 7.06623 41.8159 7.06623C41.589 7.06623 41.3622 6.95407 41.1353 6.76713C40.8707 6.54281 40.7195 6.24371 40.7195 5.90722C40.7195 5.57073 40.8329 5.27163 41.1353 4.93515C41.4378 4.59866 41.7403 4.41172 42.0805 4.41172C42.4208 4.37433 42.7233 4.4865 42.9879 4.74821C43.2148 4.97253 43.366 5.19686 43.4038 5.49596C43.4038 5.64551 43.366 5.83245 43.2904 6.05677L42.7989 5.79506C42.8745 5.6829 42.8745 5.53335 42.8745 5.42118C42.8367 5.30902 42.7989 5.19686 42.6855 5.0847C42.5342 4.97253 42.383 4.89776 42.194 4.93515C42.0049 4.97253 41.8159 5.0847 41.589 5.30902C41.3622 5.57073 41.2488 5.75767 41.2488 5.94461C41.2488 6.13155 41.3244 6.2811 41.4756 6.43065C41.589 6.54281 41.7025 6.5802 41.8537 6.5802C41.9671 6.5802 42.1184 6.50542 42.2696 6.39326ZM43.9331 5.64551L44.349 6.01938L43.5929 6.84191C43.7063 6.91668 43.7819 6.95407 43.8197 6.91668C43.8953 6.91668 44.0088 6.84191 44.2356 6.72975C44.5003 6.5802 44.7271 6.54281 44.8405 6.54281C44.954 6.5802 45.143 6.65497 45.3321 6.80452C45.3321 6.80452 45.3699 6.84191 45.4077 6.84191L45.143 7.14101L45.1052 7.10362C45.0296 7.02885 44.954 6.99146 44.8784 6.99146C44.8027 6.99146 44.7649 6.99146 44.6893 6.99146C44.6137 7.02885 44.5003 7.06623 44.349 7.14101C44.2734 7.1784 44.1978 7.21578 44.1222 7.25317C44.0466 7.29056 43.971 7.25317 43.8575 7.25317C43.9332 7.36533 43.971 7.4775 43.9331 7.58966C43.9331 7.70182 43.8953 7.88876 43.8197 8.0757L43.5929 8.86083L43.1014 8.44957L43.3282 7.73921C43.3282 7.73921 43.3282 7.70182 43.3282 7.66443C43.3282 7.66443 43.3282 7.58966 43.366 7.51488C43.4038 7.36533 43.4038 7.29056 43.4038 7.21578C43.4038 7.1784 43.366 7.10362 43.2904 7.02885L42.4964 7.88876L42.0805 7.55227L43.9331 5.64551ZM44.4625 7.88876C44.6515 7.70182 44.8405 7.55227 44.9918 7.4775C45.143 7.40272 45.2564 7.36533 45.4077 7.36533C45.5589 7.36533 45.7101 7.36533 45.8236 7.40272C46.0126 7.4775 46.1638 7.55227 46.3151 7.70182C46.6175 7.96353 46.7688 8.26263 46.7688 8.59912C46.7688 8.93561 46.6553 9.27209 46.3529 9.57119C46.0504 9.90768 45.7479 10.0572 45.4077 10.0946C45.0674 10.132 44.7649 10.0198 44.4625 9.75813C44.16 9.49642 44.0088 9.19732 44.0088 8.86083C44.0088 8.52435 44.16 8.18786 44.4625 7.88876ZM44.8784 8.22525C44.6893 8.44957 44.5759 8.67389 44.5759 8.86083C44.5759 9.08516 44.6515 9.23471 44.8027 9.38426C44.954 9.53381 45.143 9.57119 45.3699 9.57119C45.5589 9.53381 45.7858 9.42165 45.9748 9.19732C46.1638 8.97299 46.2773 8.74867 46.2773 8.56173C46.2773 8.37479 46.2016 8.18786 46.0126 8.03831C45.8614 7.88876 45.6723 7.81398 45.4455 7.85137C45.2942 7.88876 45.0674 8.00092 44.8784 8.22525ZM47.3737 8.67389L48.1677 9.38426C48.3189 9.53381 48.4323 9.64597 48.5079 9.72074C48.5836 9.79552 48.6214 9.87029 48.6592 9.98246C48.697 10.0946 48.697 10.1694 48.6592 10.2816C48.6214 10.3937 48.5836 10.4685 48.5079 10.5807C48.4323 10.6554 48.3189 10.7302 48.2055 10.7676C48.0921 10.805 47.9786 10.805 47.8274 10.7676C47.903 10.9171 47.9408 11.0667 47.9408 11.1789C47.9408 11.3284 47.8652 11.4406 47.7896 11.5527C47.714 11.6275 47.6005 11.7023 47.4871 11.7771C47.3737 11.8144 47.2603 11.8518 47.1468 11.8144C47.0334 11.8144 46.92 11.7397 46.8066 11.6649C46.731 11.6275 46.5797 11.478 46.3151 11.2536L45.6345 10.6554L47.3737 8.67389ZM47.4871 9.34687L47.0712 9.79552L47.3359 10.0198C47.4871 10.1694 47.6005 10.2442 47.6384 10.2816C47.714 10.3189 47.7896 10.3563 47.8652 10.3563C47.9408 10.3563 48.0164 10.3189 48.0542 10.2442C48.0921 10.1694 48.1299 10.132 48.1299 10.0572C48.1299 9.98246 48.0921 9.90768 48.0542 9.87029C48.0164 9.83291 47.903 9.72074 47.714 9.57119L47.4871 9.34687ZM46.8066 10.132L46.3151 10.6554L46.6931 10.9919C46.8444 11.1041 46.92 11.1789 46.9956 11.2162C47.0712 11.2536 47.1469 11.291 47.2225 11.2536C47.2981 11.2536 47.3737 11.2162 47.4493 11.1415C47.4871 11.0667 47.5249 11.0293 47.5249 10.9545C47.5249 10.8798 47.5249 10.805 47.4871 10.7676C47.4493 10.6928 47.3359 10.5807 47.1468 10.4311L46.8066 10.132ZM49.2641 12.5622L49.5288 13.0108C49.2641 13.1604 49.0373 13.2352 48.8104 13.2352C48.5836 13.2352 48.3567 13.123 48.1299 12.9361C47.8652 12.7117 47.714 12.4126 47.714 12.0762C47.714 11.7397 47.8274 11.4406 48.1299 11.1041C48.4323 10.7676 48.7348 10.5807 49.0751 10.5807C49.4153 10.5433 49.7178 10.6554 49.9825 10.9171C50.2093 11.1415 50.3605 11.3658 50.3984 11.6649C50.3984 11.8144 50.3605 12.0014 50.2849 12.2257L49.7934 11.964C49.869 11.8518 49.869 11.7023 49.869 11.5901C49.8312 11.478 49.7934 11.3658 49.68 11.2536C49.5288 11.1415 49.3775 11.0667 49.1885 11.1041C48.9995 11.1415 48.8104 11.2536 48.5836 11.478C48.3567 11.7397 48.2433 11.964 48.2433 12.1135C48.2433 12.2631 48.3189 12.45 48.4701 12.5996C48.5836 12.6744 48.697 12.7491 48.8482 12.7491C48.9238 12.7117 49.0751 12.6744 49.2641 12.5622ZM50.9277 11.7771L51.3436 12.1135L50.5874 12.9361C50.7008 13.0108 50.7764 13.0482 50.8142 13.0108C50.8899 13.0108 51.0033 12.9361 51.2301 12.8239C51.4948 12.6744 51.7216 12.637 51.8351 12.637C51.9485 12.6744 52.1375 12.7491 52.3266 12.8987C52.3266 12.8987 52.3644 12.9361 52.4022 12.9361L52.1375 13.2352L52.0997 13.1978C52.0241 13.123 51.9485 13.0856 51.8729 13.0856C51.8351 13.0856 51.7594 13.0856 51.6838 13.0856C51.6082 13.123 51.4948 13.1604 51.3436 13.2352C51.2679 13.2726 51.1923 13.3099 51.1167 13.3473C51.0411 13.3847 50.9655 13.3847 50.8521 13.3473C50.9277 13.4595 50.9655 13.5717 50.9277 13.6838C50.9277 13.796 50.8899 13.9829 50.8142 14.1699L50.5874 14.955L50.0959 14.5437L50.3227 13.8334C50.3227 13.8334 50.3227 13.796 50.3227 13.7586C50.3227 13.7586 50.3227 13.6838 50.3605 13.609C50.3984 13.4595 50.3984 13.3847 50.3984 13.3099C50.3984 13.2726 50.3605 13.1978 50.2849 13.123L49.491 13.9829L49.0751 13.6464L50.9277 11.7771ZM51.4192 14.0203C51.6082 13.8334 51.7973 13.6838 51.9485 13.609C52.0997 13.5343 52.2132 13.4969 52.3644 13.4969C52.5156 13.4969 52.6669 13.4969 52.7803 13.5343C52.9693 13.609 53.1205 13.6838 53.2718 13.8334C53.5742 14.0951 53.7255 14.3942 53.7255 14.7307C53.7255 15.0672 53.6121 15.4036 53.3096 15.7027C53.0071 16.0392 52.7047 16.1888 52.3644 16.2262C52.0241 16.2636 51.7216 16.1514 51.4192 15.8897C51.1167 15.628 50.9655 15.3289 50.9655 14.9924C51.0033 14.6559 51.1545 14.3194 51.4192 14.0203ZM51.8351 14.3568C51.646 14.5811 51.5326 14.8054 51.5326 14.9924C51.5326 15.2167 51.6082 15.3663 51.7594 15.5158C51.9107 15.6654 52.0997 15.7027 52.3266 15.7027C52.5156 15.6654 52.7425 15.5532 52.9315 15.3289C53.1205 15.1045 53.234 14.8802 53.234 14.6933C53.234 14.5063 53.1584 14.3194 52.9693 14.1699C52.8181 14.0203 52.629 13.9455 52.4022 13.9829C52.251 14.0203 52.0619 14.1325 51.8351 14.3568ZM54.3682 14.8054L54.7463 15.1419L53.5742 16.4505L55.5781 15.8523L55.994 16.1888L54.217 18.1703L53.8389 17.8338L55.011 16.5627L53.0449 17.1235L52.629 16.787L54.3682 14.8054ZM55.8427 15.2167L56.0318 15.3663C55.9184 15.4784 55.7671 15.5532 55.6537 15.5532C55.5025 15.5532 55.389 15.5158 55.2756 15.4036C55.1622 15.2915 55.0866 15.1793 55.0866 15.0298C55.0866 14.8802 55.1244 14.7681 55.2 14.6185L55.389 14.7681C55.3512 14.8428 55.3134 14.9176 55.3134 14.955C55.3134 15.0298 55.3512 15.1045 55.4268 15.1419C55.5025 15.2167 55.5781 15.2541 55.6537 15.2541C55.7293 15.3289 55.8049 15.2915 55.8427 15.2167ZM55.9562 18.0208C56.1452 17.8338 56.3342 17.6843 56.4855 17.6095C56.6367 17.5347 56.7501 17.4973 56.9014 17.4973C57.0526 17.4973 57.2038 17.4973 57.3173 17.5347C57.5063 17.6095 57.6575 17.6843 57.8088 17.8338C58.1112 18.0955 58.2625 18.3946 58.2625 18.7311C58.2625 19.0676 58.149 19.4041 57.8466 19.7032C57.5441 20.0397 57.2416 20.1892 56.9014 20.2266C56.5611 20.264 56.2586 20.1519 55.9562 19.8901C55.6537 19.6284 55.5025 19.3293 55.5025 18.9928C55.5403 18.6564 55.6915 18.3199 55.9562 18.0208ZM56.4099 18.3573C56.2208 18.5816 56.1074 18.8059 56.1074 18.9928C56.1074 19.2172 56.183 19.3667 56.3342 19.5163C56.4855 19.6658 56.6745 19.7032 56.9014 19.7032C57.0904 19.6658 57.3173 19.5537 57.5063 19.3293C57.6953 19.105 57.8088 18.8807 57.8088 18.6937C57.8088 18.5068 57.7332 18.3199 57.5441 18.1703C57.3929 18.0208 57.2038 17.946 56.977 17.9834C56.7879 18.0208 56.5989 18.1329 56.4099 18.3573ZM58.9052 18.8059L60.3797 20.1145L60.0773 20.451L58.9808 19.4789L58.5649 19.9275L59.0942 20.4136C59.2455 20.5631 59.3589 20.6753 59.4345 20.7874C59.5101 20.8996 59.5101 21.0492 59.5101 21.1987C59.5101 21.3483 59.4345 21.4978 59.3211 21.6474C59.2077 21.7969 59.0564 21.8717 58.9052 21.9091C58.754 21.9464 58.6027 21.9464 58.4893 21.9091C58.3759 21.8717 58.2247 21.7595 58.0734 21.61L57.1282 20.7874L58.9052 18.8059ZM57.8466 20.8248L58.2247 21.1613C58.3381 21.2735 58.4515 21.3483 58.4893 21.3856C58.5649 21.423 58.6027 21.423 58.6784 21.423C58.754 21.423 58.8296 21.3856 58.8674 21.3109C58.943 21.2361 58.9808 21.1239 58.943 21.0118C58.9052 20.8996 58.8296 20.7874 58.6784 20.6379L58.2625 20.264L57.8466 20.8248ZM60.7956 20.451L62.1945 21.6847L60.4175 23.6663L60.0016 23.3298L61.4762 21.6847L60.8712 21.1613L60.1151 22.0212C59.8882 22.2456 59.737 22.4325 59.6236 22.5073C59.5101 22.582 59.3967 22.6194 59.3211 22.6194C59.2077 22.6194 59.0942 22.5446 58.943 22.4325C58.9052 22.3951 58.8296 22.3203 58.7162 22.2082L58.9808 21.9091L59.0564 21.9838C59.1321 22.0586 59.2077 22.096 59.2455 22.096C59.2833 22.096 59.3589 22.0586 59.4345 21.9838L59.737 21.6474L60.7956 20.451ZM62.4214 25.4235L61.9677 25.0496L62.1945 24.4514L61.4005 23.741L60.8334 24.0401L60.4175 23.6663L62.9885 22.3951L63.4044 22.769L62.4214 25.4235ZM62.3836 24.0028L62.7616 23.0307L61.8164 23.5167L62.3836 24.0028ZM64.274 25.76L64.5386 26.2086C64.274 26.3582 64.0471 26.4329 63.8203 26.4329C63.5934 26.4329 63.3666 26.3208 63.1397 26.1338C62.8751 25.9095 62.7238 25.6104 62.7238 25.2739C62.7238 24.9374 62.8373 24.6383 63.1397 24.3019C63.4422 23.9654 63.7447 23.7784 64.0849 23.7784C64.4252 23.741 64.7277 23.8532 64.9923 24.1149C65.2192 24.3392 65.3704 24.5636 65.4082 24.8627C65.4082 25.0122 65.3704 25.1992 65.2948 25.4235L64.8033 25.1618C64.8789 25.0496 64.8789 24.9001 64.8789 24.7879C64.8411 24.6757 64.8033 24.5636 64.6899 24.4514C64.5386 24.3392 64.3874 24.2645 64.1984 24.3019C64.0093 24.3392 63.8203 24.4514 63.5934 24.6757C63.3666 24.9374 63.2532 25.1244 63.2532 25.3113C63.2532 25.4983 63.3288 25.6478 63.48 25.7974C63.5934 25.9095 63.7068 25.9469 63.8581 25.9469C63.9715 25.9469 64.1227 25.8721 64.274 25.76ZM64.5386 27.2929L66.0132 25.6478L65.4082 25.1244L65.7107 24.7879L67.2986 26.1712L66.9962 26.5077L66.3912 25.9843L64.9167 27.6293L64.5386 27.2929ZM67.3742 26.246L67.7523 26.5825L66.5803 27.8911L68.5841 27.2929L69 27.6293L67.223 29.6109L66.8449 29.2744L68.017 28.0032L66.051 28.564L65.6351 28.2275L67.3742 26.246ZM0 27.6293L1.32329 26.4329L1.62575 26.7694L0.680548 27.6293L2.19288 29.237L1.77699 29.6109L0 27.6293ZM1.55014 26.246L1.92822 25.9095L3.13808 27.2181L2.76 25.1992L3.13808 24.8253L4.95288 26.7694L4.57479 27.1059L3.40274 25.8347L3.78082 27.8163L3.36493 28.1902L1.55014 26.246ZM3.6674 24.3392L5.0663 23.1055L6.8811 25.0496L6.46521 25.4235L4.95288 23.8158L4.34795 24.3019L5.10411 25.1244C5.33096 25.3487 5.48219 25.5356 5.55781 25.6478C5.63342 25.76 5.67123 25.8721 5.63342 25.9843C5.63342 26.0965 5.55781 26.2086 5.40658 26.3208C5.36877 26.3582 5.25534 26.4329 5.14192 26.5451L4.87726 26.246L4.95288 26.1712C5.02849 26.0965 5.0663 26.0217 5.10411 25.9843C5.10411 25.9469 5.0663 25.8721 4.99068 25.7974L4.68822 25.4235L3.6674 24.3392ZM5.48219 22.6942L5.89808 22.3203L6.61644 23.1055L7.14575 22.6194C7.41041 22.3951 7.63726 22.2829 7.86411 22.2829C8.09096 22.2829 8.28 22.3951 8.43123 22.5446C8.54466 22.6942 8.62027 22.8064 8.65808 22.9933C8.65808 23.1428 8.65808 23.2924 8.58247 23.4046C8.50685 23.5167 8.43123 23.6289 8.24219 23.7784L7.29699 24.601L5.48219 22.6942ZM7.3726 23.9654L7.75068 23.6289C7.86411 23.5167 7.93973 23.4419 7.97753 23.3672C8.01534 23.3298 8.01534 23.255 8.01534 23.1802C8.01534 23.1055 7.97753 23.0307 7.93973 22.9559C7.86411 22.8811 7.75068 22.8437 7.67507 22.8437C7.56164 22.8437 7.44822 22.9559 7.29699 23.0681L6.8811 23.4419L7.3726 23.9654ZM7.56164 20.8248L8.92274 19.591L10.4351 21.1987L10.6241 21.0492L11.3047 21.7969L10.9644 22.096L10.5863 21.6847L9.33863 22.8064L9.71671 23.2176L9.37644 23.5167L8.69589 22.769L8.84712 22.6194C8.77151 22.3951 8.65808 22.1334 8.46904 21.9091C8.28 21.6474 8.05315 21.3856 7.75068 21.0492L7.56164 20.8248ZM8.24219 20.7874C8.77151 21.3856 9.14959 21.8717 9.26301 22.2456L10.0192 21.5726L8.80931 20.264L8.24219 20.7874ZM9.37644 19.1798L9.75452 18.8433L10.9644 20.1519L10.5485 18.1329L10.9644 17.7591L12.7792 19.7032L12.4011 20.0397L11.229 18.7685L11.6071 20.75L11.1912 21.1239L9.37644 19.1798ZM14.3293 18.2825L13.5732 17.46L13.4975 17.5347C13.3841 17.6469 13.3085 17.7591 13.2707 17.8338C13.2707 17.9086 13.2707 18.0955 13.3085 18.3946L13.4219 19.0676L12.9304 19.4789L12.8548 18.9181C12.817 18.6937 12.7792 18.5068 12.7792 18.3946C12.7792 18.2825 12.817 18.1703 12.8548 18.0582C12.6279 18.2077 12.4389 18.2451 12.2877 18.2451C12.0986 18.2077 11.9474 18.1329 11.834 18.0208C11.7205 17.9086 11.6449 17.7591 11.6449 17.6095C11.6071 17.46 11.6449 17.3104 11.7205 17.1982C11.7962 17.0861 11.9096 16.9365 12.1364 16.7496L12.9682 16.0018L14.7452 17.946L14.3293 18.2825ZM12.8548 16.6748L12.5523 16.9739C12.4011 17.1235 12.2877 17.1982 12.2499 17.273C12.2121 17.3104 12.1742 17.3852 12.1742 17.46C12.1742 17.5347 12.2121 17.6095 12.2499 17.6843C12.3255 17.7591 12.3633 17.7964 12.4389 17.7964C12.5145 17.7964 12.5901 17.7964 12.6279 17.7591C12.7036 17.7217 12.817 17.6095 12.9682 17.46L13.2707 17.1982L12.8548 16.6748ZM15.9173 16.8618L14.1025 14.9176L14.7452 14.3568C14.9721 14.1325 15.1611 14.0203 15.2367 13.9455C15.3879 13.8708 15.5392 13.8334 15.6904 13.8708C15.8416 13.9081 15.9929 13.9829 16.1441 14.1325C16.2575 14.2446 16.3332 14.3568 16.371 14.5063C16.4088 14.6185 16.4088 14.7307 16.371 14.8428C16.3332 14.955 16.2953 15.0298 16.2575 15.1045C16.1819 15.2167 16.0685 15.3289 15.8795 15.5158L15.6148 15.7401L16.2953 16.4879L15.9173 16.8618ZM14.8208 14.8802L15.3501 15.441L15.577 15.2541C15.7282 15.1045 15.8416 14.9924 15.8795 14.955C15.9173 14.8802 15.9173 14.8054 15.9173 14.7307C15.9173 14.6559 15.8795 14.5811 15.8038 14.5437C15.7282 14.469 15.6526 14.4316 15.577 14.4316C15.5014 14.4316 15.4258 14.4316 15.3501 14.5063C15.3123 14.5437 15.1989 14.6185 15.0477 14.7681L14.8208 14.8802ZM15.9551 13.2726L16.3332 12.9361L17.543 14.2446L17.1271 12.2257L17.543 11.8518L19.3578 13.796L18.9797 14.1325L17.7699 12.8613L18.1479 14.8428L17.7321 15.2167L15.9551 13.2726ZM19.2822 11.7397L19.8871 11.1789C19.7359 11.0667 19.5847 10.9545 19.3956 10.9545C19.2444 10.9171 19.0553 10.9919 18.9419 11.1041C18.8285 11.2162 18.7529 11.3284 18.7529 11.4406C18.7151 11.5527 18.7529 11.7023 18.8285 11.8144L18.337 12.0762C18.2236 11.8518 18.1858 11.6649 18.2236 11.4032C18.2614 11.1789 18.4126 10.9545 18.6016 10.7676C18.9041 10.5059 19.2066 10.3937 19.5469 10.4311C19.8871 10.4685 20.1896 10.6554 20.4542 10.9545C20.6433 11.1789 20.7567 11.3658 20.8323 11.5901C20.9079 11.8144 20.9079 12.0014 20.8323 12.2257C20.7945 12.4126 20.6433 12.5996 20.4542 12.7865C20.0005 13.1978 19.5469 13.2352 19.0553 12.8987L19.3578 12.4126C19.509 12.5248 19.6603 12.5996 19.8115 12.5996C19.9627 12.5996 20.0762 12.5248 20.1896 12.45C20.303 12.3379 20.3786 12.2257 20.3786 12.0762C20.3786 11.9266 20.303 11.7397 20.1896 11.5527L19.5847 12.1135L19.2822 11.7397ZM19.9249 9.68336L21.3238 8.44957L23.1386 10.3937L22.7227 10.7676L21.2104 9.15993L20.6055 9.68336L21.3616 10.5059C21.5885 10.7302 21.7397 10.9171 21.8153 11.0293C21.891 11.1415 21.9288 11.2536 21.891 11.3658C21.891 11.478 21.8153 11.5901 21.6641 11.7023C21.6263 11.7397 21.5129 11.8144 21.3995 11.9266L21.1348 11.5901L21.2104 11.5153C21.286 11.4406 21.3238 11.3658 21.3616 11.3284C21.3616 11.291 21.3238 11.2162 21.2482 11.1415L20.9458 10.805L19.9249 9.68336ZM23.9704 9.60858L22.4581 8.00092L21.891 8.52434L21.5885 8.18786L23.1386 6.76713L23.4411 7.10362L22.874 7.62705L24.3485 9.23471L23.9704 9.60858ZM24.1595 7.66443C23.9704 7.4775 23.857 7.25317 23.7814 7.06623C23.7436 6.91668 23.7058 6.76713 23.7058 6.61758C23.7058 6.46803 23.7436 6.31848 23.7814 6.20632C23.857 6.05677 23.9704 5.90722 24.1216 5.75767C24.4241 5.49596 24.7266 5.3838 25.0669 5.3838C25.4071 5.42118 25.7096 5.57073 26.0121 5.90722C26.3145 6.20632 26.4279 6.54281 26.4279 6.8793C26.4279 7.21578 26.2767 7.51488 25.9742 7.7766C25.6718 8.03831 25.3693 8.15047 25.029 8.15047C24.7644 8.15047 24.4619 7.96353 24.1595 7.66443ZM24.5753 7.29056C24.7644 7.51488 24.9912 7.62705 25.1803 7.66443C25.4071 7.70182 25.5584 7.62705 25.7474 7.4775C25.8986 7.32795 25.9742 7.1784 25.9742 6.95407C25.9742 6.76713 25.8608 6.54281 25.6718 6.31848C25.4827 6.09416 25.2559 5.982 25.0669 5.94461C24.8778 5.90722 24.6888 5.982 24.5375 6.13155C24.3863 6.2811 24.3107 6.46803 24.3107 6.65497C24.2729 6.84191 24.3485 7.06623 24.5753 7.29056ZM27.2975 6.61758L25.4827 4.67343L26.1255 4.11262C26.3523 3.8883 26.5414 3.77614 26.617 3.70136C26.7682 3.62659 26.9195 3.5892 27.0707 3.62659C27.2219 3.66397 27.411 3.73875 27.5244 3.8883C27.6378 4.00046 27.7134 4.11262 27.7512 4.26217C27.789 4.37433 27.789 4.4865 27.7512 4.59866C27.7134 4.71082 27.6756 4.7856 27.6378 4.86037C27.5622 4.97253 27.4488 5.0847 27.2597 5.27163L26.9951 5.49596L27.6756 6.24371L27.2975 6.61758ZM26.2011 4.63605L26.6926 5.19686L26.9195 5.00992C27.0707 4.86037 27.1841 4.74821 27.2219 4.71082C27.2597 4.63605 27.2597 4.56127 27.2597 4.4865C27.2597 4.41172 27.2219 4.33695 27.1463 4.29956C27.0707 4.22478 26.9951 4.1874 26.9195 4.1874C26.8438 4.1874 26.7682 4.1874 26.6926 4.26217C26.6548 4.29956 26.5414 4.37434 26.3901 4.52389L26.2011 4.63605ZM28.1293 4.11262C27.9403 3.92569 27.8268 3.70136 27.7512 3.51442C27.7134 3.36487 27.6756 3.21532 27.6756 3.06577C27.6756 2.91622 27.7134 2.76667 27.7512 2.65451C27.8647 2.54235 27.9781 2.3928 28.1293 2.24325C28.4318 1.98154 28.7342 1.86937 29.0745 1.86937C29.4148 1.90676 29.7173 2.05631 30.0197 2.3928C30.3222 2.6919 30.4356 3.02839 30.4356 3.36487C30.4356 3.70136 30.2844 4.00046 29.9819 4.26217C29.6795 4.52388 29.377 4.63605 29.0367 4.63605C28.7342 4.59866 28.394 4.41172 28.1293 4.11262ZM28.5074 3.73875C28.6964 3.96307 28.9233 4.07524 29.1123 4.11262C29.3392 4.15001 29.4904 4.07524 29.6795 3.92569C29.8307 3.77614 29.9063 3.62659 29.9063 3.40226C29.9063 3.21532 29.7929 2.991 29.6038 2.76667C29.4148 2.54235 29.1879 2.43019 28.9989 2.3928C28.8099 2.35541 28.6208 2.43019 28.4696 2.57974C28.3184 2.72929 28.2427 2.91622 28.2427 3.10316C28.2049 3.2901 28.3184 3.51442 28.5074 3.73875ZM29.4526 1.12162L30.2466 0.411262C30.3978 0.261712 30.5112 0.186937 30.6247 0.112162C30.7003 0.074775 30.8137 0.0373875 30.8893 0C31.0027 0 31.0784 0 31.1918 0.0373875C31.3052 0.074775 31.3808 0.112162 31.4564 0.224325C31.5321 0.2991 31.6077 0.411262 31.6077 0.560812C31.6455 0.672975 31.6077 0.785137 31.5699 0.8973C31.7211 0.822525 31.8723 0.785137 32.0236 0.822525C32.1748 0.859912 32.2882 0.934687 32.4016 1.04685C32.4773 1.12162 32.5529 1.23379 32.5907 1.34595C32.6285 1.45811 32.6285 1.57027 32.5907 1.68244C32.5529 1.7946 32.5151 1.90676 32.4016 2.01892C32.326 2.0937 32.1748 2.24325 31.9479 2.46757L31.2674 3.06577L29.4526 1.12162ZM30.1331 1.08424L30.549 1.53289L30.8137 1.30856C30.9649 1.15901 31.0784 1.08424 31.1162 1.04685C31.1918 0.972074 31.1918 0.8973 31.2296 0.822525C31.2296 0.74775 31.1918 0.672975 31.154 0.5982C31.1162 0.523425 31.0405 0.486037 30.9649 0.486037C30.8893 0.486037 30.8137 0.486037 30.7381 0.560812C30.7003 0.5982 30.5868 0.710362 30.3978 0.859912L30.1331 1.08424ZM30.8515 1.86937L31.343 2.3928L31.7211 2.05631C31.8723 1.94415 31.9479 1.83199 31.9858 1.7946C32.0236 1.71982 32.0614 1.64505 32.0614 1.57027C32.0614 1.4955 32.0236 1.42072 31.9479 1.34595C31.9101 1.27117 31.8345 1.23379 31.7589 1.23379C31.6833 1.23379 31.6077 1.23379 31.5699 1.27117C31.4942 1.30856 31.3808 1.38334 31.1918 1.57027L30.8515 1.86937ZM5.52 32.0037H15.5392L19.3956 36.6023L23.2521 32.0037H33.2712V39.556H27.0329V33.7983L22.1934 39.556H16.56L11.7584 33.7983V39.556H5.52V32.0037ZM37.1655 35.7798C37.1655 34.546 38.2997 33.574 40.5304 32.901C42.7611 32.228 45.8992 31.8541 49.9068 31.8541C54.0279 31.8541 57.166 32.1906 59.3967 32.8636C61.6274 33.5366 62.7238 34.4713 62.7238 35.705C62.7238 36.6023 62.2323 37.3127 61.2493 37.8735C60.2663 38.4343 58.8674 38.883 57.0526 39.1821C55.2 39.4812 52.9315 39.6681 50.1715 39.6681C47.3737 39.6681 45.0674 39.5186 43.2526 39.2569C41.4378 38.9951 39.9633 38.5465 38.829 37.9857C37.7326 37.4249 37.1655 36.6771 37.1655 35.7798ZM44.8027 35.8172C44.8027 36.565 45.2564 37.1258 46.2016 37.4623C47.1468 37.7987 48.3945 37.9483 49.9825 37.9483C51.6082 37.9483 52.8937 37.7987 53.8011 37.4623C54.7085 37.1258 55.1622 36.565 55.1622 35.705C55.1622 34.9947 54.7085 34.4713 53.7633 34.1348C52.8181 33.7983 51.5704 33.6487 49.9447 33.6487C48.3945 33.6487 47.1847 33.7983 46.2395 34.1348C45.2942 34.4713 44.8027 35.0321 44.8027 35.8172ZM13.0438 30.1717L34.1786 11.1041L54.0279 27.2929C55.4647 28.5266 54.0658 30.5456 52.7047 30.2839H27.8268C25.5962 29.9474 24.9156 27.4424 23.2899 26.0217L18.9419 30.1343H13.0438V30.1717ZM26.6926 23.1802L34.2164 16.4879L43.7819 23.8532C44.954 24.6383 44.3112 25.8721 43.366 25.9095H29.566C27.9025 25.9469 27.4866 24.2645 26.6926 23.1802Z" fill="#102A83"/>
</svg>
