<svg width="43" height="62" viewBox="0 0 43 62" fill="none" xmlns="http://www.w3.org/2000/svg">
<g clip-path="url(#clip0_1003_18)">
<path opacity="0.2" d="M35 58.4C35 60.4 28.8 62 21.2 62C13.6 62 7.39999 60.4 7.39999 58.4C7.39999 56.4 13.6 54.8 21.2 54.8C28.8 54.7 35 56.4 35 58.4Z" fill="#05141F"/>
<path d="M21.4 0C9.6 0 0 9.6 0 21.4C0 34 21.4 58.5 21.4 58.5C21.4 58.5 42.8 35 42.8 21.4C42.8 9.6 33.2 0 21.4 0ZM21.4 33.7C14.1 33.7 8.2 27.8 8.2 20.5C8.2 13.2 14.1 7.3 21.4 7.3C28.7 7.3 34.6 13.2 34.6 20.5C34.6 27.8 28.7 33.7 21.4 33.7Z" fill="#05141F"/>
<path d="M21.4 38.2C30.6232 38.2 38.1 30.7232 38.1 21.5C38.1 12.2768 30.6232 4.8 21.4 4.8C12.1768 4.8 4.7 12.2768 4.7 21.5C4.7 30.7232 12.1768 38.2 21.4 38.2Z" fill="white"/>
<path fill-rule="evenodd" clip-rule="evenodd" d="M8.06466 24.7587H11.5447L21.3808 15.1904C25.4806 18.9397 32.1704 24.114 30.7403 24.7248H34.7447L21.3649 12.1367L8.06466 24.7587ZM22.2389 12.1027L22.9858 11.2036L23.24 11.4411L22.8745 12.1876L23.5419 11.7125L23.7962 11.95L23.0493 12.8662L22.8904 12.7135L23.4783 12.0009L22.7315 12.5438L22.5726 12.3911L22.9858 11.5259L22.3978 12.2385L22.2389 12.1027ZM23.4625 12.476C23.5419 12.3911 23.6214 12.3233 23.6849 12.2894C23.7485 12.2554 23.7962 12.2385 23.8597 12.2385C23.9233 12.2385 23.9869 12.2385 24.0345 12.2554C24.114 12.2894 24.1775 12.3233 24.2411 12.3911C24.3682 12.5099 24.4318 12.6456 24.4318 12.7983C24.4318 12.951 24.3841 13.1037 24.257 13.2394C24.1299 13.3921 24.0027 13.4599 23.8597 13.4769C23.7167 13.4939 23.5896 13.443 23.4625 13.3242C23.3353 13.2055 23.2718 13.0697 23.2718 12.9171C23.2877 12.7644 23.3513 12.6117 23.4625 12.476ZM23.6373 12.6287C23.5578 12.7304 23.5101 12.8322 23.5101 12.9171C23.5101 13.0189 23.5419 13.0867 23.6055 13.1546C23.669 13.2224 23.7485 13.2394 23.8438 13.2394C23.9233 13.2224 24.0186 13.1715 24.0981 13.0697C24.1775 12.968 24.2252 12.8662 24.2252 12.7813C24.2252 12.6965 24.1934 12.6117 24.114 12.5438C24.0504 12.476 23.971 12.442 23.8756 12.459C23.8121 12.476 23.7326 12.5269 23.6373 12.6287ZM24.7655 13.901L24.8767 14.1046C24.7655 14.1725 24.6701 14.2064 24.5748 14.2064C24.4794 14.2064 24.3841 14.1555 24.2887 14.0707C24.1775 13.9689 24.114 13.8332 24.114 13.6805C24.114 13.5278 24.1617 13.3921 24.2887 13.2394C24.4159 13.0867 24.543 13.0019 24.686 13.0019C24.829 12.9849 24.9562 13.0358 25.0674 13.1546C25.1627 13.2564 25.2263 13.3582 25.2422 13.4939C25.2422 13.5617 25.2263 13.6466 25.1945 13.7484L24.9879 13.6296C25.0197 13.5787 25.0197 13.5108 25.0197 13.4599C25.0038 13.409 24.9879 13.3582 24.9403 13.3073C24.8767 13.2564 24.8131 13.2224 24.7337 13.2394C24.6542 13.2564 24.5748 13.3073 24.4794 13.409C24.3841 13.5278 24.3365 13.6126 24.3365 13.6975C24.3365 13.7823 24.3682 13.8501 24.4318 13.918C24.4794 13.9689 24.5271 13.9859 24.5907 13.9859C24.6383 13.9859 24.7019 13.9519 24.7655 13.901ZM25.4646 13.5617L25.6394 13.7314L25.3217 14.1046C25.3693 14.1385 25.4011 14.1555 25.417 14.1385C25.4487 14.1385 25.4965 14.1046 25.5918 14.0537C25.703 13.9859 25.7983 13.9689 25.846 13.9689C25.8937 13.9859 25.9731 14.0198 26.0526 14.0877C26.0526 14.0877 26.0685 14.1046 26.0844 14.1046L25.9731 14.2403L25.9573 14.2234C25.9255 14.1894 25.8937 14.1725 25.8619 14.1725C25.8301 14.1725 25.8142 14.1725 25.7825 14.1725C25.7507 14.1894 25.703 14.2064 25.6394 14.2403C25.6077 14.2573 25.5759 14.2743 25.5441 14.2912C25.5123 14.3082 25.4806 14.2912 25.4329 14.2912C25.4647 14.3421 25.4806 14.393 25.4646 14.4439C25.4646 14.4948 25.4487 14.5796 25.417 14.6645L25.3217 15.0207L25.1151 14.8341L25.2104 14.5118C25.2104 14.5118 25.2104 14.4948 25.2104 14.4779C25.2104 14.4779 25.2104 14.4439 25.2263 14.41C25.2422 14.3421 25.2422 14.3082 25.2422 14.2743C25.2422 14.2573 25.2263 14.2234 25.1945 14.1894L24.8608 14.5796L24.686 14.427L25.4646 13.5617ZM25.6871 14.5796C25.7666 14.4948 25.846 14.427 25.9096 14.393C25.9731 14.3591 26.0208 14.3421 26.0844 14.3421C26.1479 14.3421 26.2115 14.3421 26.2592 14.3591C26.3386 14.393 26.4022 14.427 26.4658 14.4948C26.5929 14.6136 26.6565 14.7493 26.6565 14.902C26.6565 15.0547 26.6087 15.2074 26.4817 15.3431C26.3545 15.4958 26.2274 15.5636 26.0844 15.5806C25.9414 15.5975 25.8142 15.5466 25.6871 15.4279C25.56 15.3091 25.4965 15.1734 25.4965 15.0207C25.4965 14.8681 25.56 14.7154 25.6871 14.5796ZM25.8619 14.7323C25.7825 14.8341 25.7348 14.9359 25.7348 15.0207C25.7348 15.1225 25.7666 15.1904 25.8301 15.2582C25.8937 15.3261 25.9731 15.3431 26.0685 15.3431C26.1479 15.3261 26.2433 15.2752 26.3227 15.1734C26.4022 15.0716 26.4499 14.9698 26.4499 14.885C26.4499 14.8002 26.4181 14.7154 26.3386 14.6475C26.2751 14.5796 26.1956 14.5457 26.1003 14.5627C26.0367 14.5796 25.9414 14.6305 25.8619 14.7323ZM26.9107 14.9359L27.2444 15.2582C27.3079 15.3261 27.3556 15.377 27.3874 15.4109C27.4192 15.4449 27.4351 15.4788 27.451 15.5297C27.4669 15.5806 27.4669 15.6145 27.451 15.6654C27.4351 15.7163 27.4192 15.7502 27.3874 15.8012C27.3556 15.835 27.3079 15.869 27.2603 15.886C27.2126 15.9029 27.1649 15.9029 27.1014 15.886C27.1331 15.9538 27.149 16.0217 27.149 16.0726C27.149 16.1404 27.1173 16.1913 27.0855 16.2422C27.0537 16.2762 27.006 16.3101 26.9583 16.344C26.9107 16.361 26.863 16.3779 26.8153 16.361C26.7677 16.361 26.72 16.3271 26.6723 16.2931C26.6406 16.2762 26.577 16.2083 26.4658 16.1065L26.1797 15.835L26.9107 14.9359ZM26.9583 15.2413L26.7835 15.4449L26.8948 15.5466C26.9583 15.6145 27.006 15.6485 27.0219 15.6654C27.0537 15.6824 27.0855 15.6993 27.1173 15.6993C27.149 15.6993 27.1808 15.6824 27.1967 15.6485C27.2126 15.6145 27.2285 15.5975 27.2285 15.5636C27.2285 15.5297 27.2126 15.4958 27.1967 15.4788C27.1808 15.4618 27.1331 15.4109 27.0537 15.3431L26.9583 15.2413ZM26.6723 15.5975L26.4658 15.835L26.6246 15.9877C26.6882 16.0387 26.72 16.0726 26.7518 16.0895C26.7835 16.1065 26.8154 16.1235 26.8471 16.1065C26.8789 16.1065 26.9107 16.0895 26.9425 16.0556C26.9583 16.0217 26.9742 16.0047 26.9742 15.9708C26.9742 15.9369 26.9742 15.9029 26.9583 15.886C26.9425 15.852 26.8948 15.8012 26.8153 15.7333L26.6723 15.5975ZM27.7052 16.7003L27.8165 16.9038C27.7052 16.9717 27.6099 17.0057 27.5145 17.0057C27.4192 17.0057 27.3238 16.9548 27.2285 16.87C27.1173 16.7681 27.0537 16.6324 27.0537 16.4798C27.0537 16.3271 27.1014 16.1913 27.2285 16.0387C27.3556 15.886 27.4827 15.8012 27.6258 15.8012C27.7687 15.7842 27.8959 15.835 28.0071 15.9538C28.1025 16.0556 28.166 16.1574 28.1819 16.2931C28.1819 16.361 28.166 16.4458 28.1342 16.5476L27.9277 16.4288C27.9594 16.3779 27.9594 16.3101 27.9594 16.2592C27.9435 16.2083 27.9277 16.1574 27.88 16.1065C27.8165 16.0556 27.7529 16.0217 27.6734 16.0387C27.594 16.0556 27.5145 16.1065 27.4192 16.2083C27.3238 16.3271 27.2762 16.4288 27.2762 16.4967C27.2762 16.5646 27.3079 16.6494 27.3715 16.7173C27.4192 16.7512 27.4669 16.7851 27.5304 16.7851C27.5622 16.7681 27.6258 16.7512 27.7052 16.7003ZM28.4044 16.344L28.5792 16.4967L28.2614 16.87C28.309 16.9038 28.3408 16.9208 28.3567 16.9038C28.3885 16.9038 28.4362 16.87 28.5315 16.819C28.6427 16.7512 28.7381 16.7342 28.7858 16.7342C28.8334 16.7512 28.9129 16.7851 28.9923 16.853C28.9923 16.853 29.0082 16.87 29.0241 16.87L28.9129 17.0057L28.897 16.9887C28.8652 16.9548 28.8334 16.9378 28.8017 16.9378C28.7858 16.9378 28.754 16.9378 28.7222 16.9378C28.6904 16.9548 28.6427 16.9717 28.5792 17.0057C28.5474 17.0226 28.5156 17.0396 28.4838 17.0565C28.4521 17.0735 28.4203 17.0735 28.3726 17.0565C28.4044 17.1075 28.4203 17.1584 28.4044 17.2092C28.4044 17.2601 28.3885 17.345 28.3567 17.4298L28.2614 17.7861L28.0548 17.5994L28.1501 17.2771C28.1501 17.2771 28.1501 17.2601 28.1501 17.2432C28.1501 17.2432 28.1501 17.2092 28.166 17.1753C28.1819 17.1075 28.1819 17.0735 28.1819 17.0396C28.1819 17.0226 28.166 16.9887 28.1342 16.9548L27.8006 17.345L27.6258 17.1923L28.4044 16.344ZM28.611 17.3619C28.6904 17.2771 28.7699 17.2092 28.8334 17.1753C28.897 17.1414 28.9447 17.1244 29.0082 17.1244C29.0718 17.1244 29.1354 17.1244 29.183 17.1414C29.2625 17.1753 29.326 17.2092 29.3896 17.2771C29.5167 17.3959 29.5803 17.5316 29.5803 17.6843C29.5803 17.837 29.5326 17.9896 29.4055 18.1253C29.2783 18.278 29.1512 18.3459 29.0082 18.3629C28.8652 18.3799 28.7381 18.3289 28.611 18.2102C28.4838 18.0914 28.4203 17.9557 28.4203 17.803C28.4362 17.6503 28.4997 17.4976 28.611 17.3619ZM28.7858 17.5146C28.7063 17.6164 28.6586 17.7182 28.6586 17.803C28.6586 17.9048 28.6904 17.9727 28.7539 18.0405C28.8175 18.1084 28.897 18.1253 28.9923 18.1253C29.0718 18.1084 29.1671 18.0575 29.2466 17.9557C29.326 17.8539 29.3737 17.7521 29.3737 17.6673C29.3737 17.5825 29.3419 17.4976 29.2625 17.4298C29.1989 17.3619 29.1194 17.328 29.0241 17.345C28.9606 17.3619 28.8811 17.4128 28.7858 17.5146ZM29.8504 17.7182L30.0093 17.8709L29.5167 18.4647L30.3589 18.1932L30.5337 18.3459L29.7869 19.245L29.6279 19.0924L30.1206 18.5156L29.2942 18.77L29.1194 18.6174L29.8504 17.7182ZM30.4701 17.9048L30.5496 17.9727C30.5019 18.0236 30.4383 18.0575 30.3907 18.0575C30.3271 18.0575 30.2794 18.0405 30.2318 17.9896C30.1841 17.9387 30.1523 17.8878 30.1523 17.82C30.1523 17.7521 30.1682 17.7012 30.2 17.6334L30.2794 17.7012C30.2635 17.7351 30.2477 17.7691 30.2477 17.7861C30.2477 17.82 30.2635 17.8539 30.2953 17.8709C30.3271 17.9048 30.3589 17.9218 30.3907 17.9218C30.4225 17.9557 30.4542 17.9387 30.4701 17.9048ZM30.5178 19.1772C30.5973 19.0924 30.6767 19.0245 30.7403 18.9906C30.8038 18.9566 30.8515 18.9397 30.9151 18.9397C30.9786 18.9397 31.0422 18.9397 31.0899 18.9566C31.1693 18.9906 31.2329 19.0245 31.2965 19.0924C31.4235 19.2111 31.4871 19.3468 31.4871 19.4995C31.4871 19.6522 31.4394 19.8049 31.3123 19.9406C31.1852 20.0933 31.0581 20.1612 30.9151 20.1781C30.7721 20.1951 30.6449 20.1442 30.5178 20.0254C30.3907 19.9067 30.3271 19.771 30.3271 19.6183C30.343 19.4656 30.4066 19.3129 30.5178 19.1772ZM30.7085 19.3299C30.629 19.4317 30.5814 19.5335 30.5814 19.6183C30.5814 19.7201 30.6131 19.7879 30.6767 19.8558C30.7403 19.9237 30.8197 19.9406 30.9151 19.9406C30.9945 19.9237 31.0899 19.8728 31.1693 19.771C31.2487 19.6692 31.2965 19.5674 31.2965 19.4825C31.2965 19.3977 31.2647 19.3129 31.1852 19.245C31.1217 19.1772 31.0422 19.1433 30.9469 19.1602C30.8674 19.1772 30.7879 19.2281 30.7085 19.3299ZM31.7573 19.5335L32.377 20.1273L32.2499 20.28L31.789 19.8388L31.6142 20.0424L31.8367 20.263C31.9003 20.3308 31.9479 20.3817 31.9797 20.4326C32.0115 20.4835 32.0115 20.5514 32.0115 20.6192C32.0115 20.6871 31.9797 20.755 31.9321 20.8228C31.8844 20.8907 31.8208 20.9246 31.7573 20.9416C31.6937 20.9585 31.6301 20.9585 31.5825 20.9416C31.5348 20.9246 31.4712 20.8737 31.4077 20.8059L31.0104 20.4326L31.7573 19.5335ZM31.3123 20.4496L31.4713 20.6023C31.5189 20.6532 31.5666 20.6871 31.5825 20.704C31.6142 20.721 31.6301 20.721 31.6619 20.721C31.6937 20.721 31.7255 20.704 31.7414 20.6701C31.7731 20.6362 31.789 20.5853 31.7731 20.5344C31.7573 20.4835 31.7255 20.4326 31.6619 20.3648L31.4871 20.1951L31.3123 20.4496ZM32.5518 20.28L33.1397 20.8398L32.3929 21.7389L32.2181 21.5862L32.8378 20.8398L32.5835 20.6023L32.2658 20.9925C32.1704 21.0943 32.1069 21.1791 32.0592 21.213C32.0115 21.2469 31.9638 21.2639 31.9321 21.2639C31.8844 21.2639 31.8367 21.23 31.7731 21.1791C31.7573 21.1621 31.7255 21.1282 31.6778 21.0773L31.789 20.9416L31.8208 20.9755C31.8526 21.0094 31.8844 21.0264 31.9003 21.0264C31.9162 21.0264 31.9479 21.0094 31.9797 20.9755L32.1069 20.8228L32.5518 20.28ZM33.2351 22.5363L33.0444 22.3666L33.1397 22.0952L32.806 21.7728L32.5677 21.9086L32.3929 21.7389L33.4734 21.1621L33.6482 21.3318L33.2351 22.5363ZM33.2192 21.8916L33.3781 21.4505L32.9808 21.6711L33.2192 21.8916ZM34.0137 22.689L34.1249 22.8925C34.0137 22.9604 33.9183 22.9943 33.823 22.9943C33.7277 22.9943 33.6323 22.9435 33.537 22.8586C33.4258 22.7568 33.3622 22.6211 33.3622 22.4684C33.3622 22.3157 33.4099 22.18 33.537 22.0274C33.6641 21.8747 33.7912 21.7898 33.9342 21.7898C34.0773 21.7728 34.2044 21.8238 34.3156 21.9425C34.411 22.0443 34.4745 22.1461 34.4904 22.2818C34.4904 22.3497 34.4745 22.4345 34.4427 22.5363L34.2362 22.4175C34.2679 22.3666 34.2679 22.2988 34.2679 22.2479C34.2521 22.197 34.2362 22.1461 34.1885 22.0952C34.1249 22.0443 34.0614 22.0104 33.9819 22.0274C33.9025 22.0443 33.823 22.0952 33.7277 22.197C33.6323 22.3157 33.5847 22.4006 33.5847 22.4854C33.5847 22.5702 33.6165 22.6381 33.68 22.706C33.7277 22.7568 33.7753 22.7738 33.8389 22.7738C33.8866 22.7738 33.9501 22.7399 34.0137 22.689ZM34.1249 23.3846L34.7447 22.6381L34.4904 22.4006L34.6175 22.2479L35.2849 22.8756L35.1578 23.0283L34.9035 22.7908L34.2838 23.5372L34.1249 23.3846ZM35.3167 22.9095L35.4756 23.0622L34.983 23.656L35.8252 23.3846L36 23.5372L35.2531 24.4364L35.0942 24.2837L35.5869 23.7069L34.7606 23.9613L34.5858 23.8087L35.3167 22.9095ZM7 23.5372L7.55617 22.9943L7.68329 23.147L7.28603 23.5372L7.92165 24.2667L7.74685 24.4364L7 23.5372ZM7.65151 22.9095L7.81041 22.7568L8.3189 23.3506L8.16 22.4345L8.3189 22.2649L9.08165 23.147L8.92274 23.2997L8.43014 22.7229L8.58904 23.6221L8.41425 23.7917L7.65151 22.9095ZM8.54137 22.0443L9.12931 21.4845L9.89206 22.3666L9.71726 22.5363L9.08165 21.8068L8.8274 22.0274L9.14521 22.4006C9.24055 22.5024 9.30411 22.5872 9.33589 22.6381C9.36767 22.689 9.38356 22.7399 9.36767 22.7908C9.36767 22.8417 9.33589 22.8925 9.27233 22.9435C9.25644 22.9604 9.20877 22.9943 9.1611 23.0452L9.04986 22.9095L9.08165 22.8756C9.11342 22.8417 9.12931 22.8077 9.14521 22.7908C9.14521 22.7738 9.12931 22.7399 9.09753 22.706L8.97041 22.5363L8.54137 22.0443ZM9.30411 21.2978L9.4789 21.1282L9.78082 21.4845L10.0033 21.2639C10.1145 21.1621 10.2099 21.1112 10.3052 21.1112C10.4005 21.1112 10.48 21.1621 10.5436 21.23C10.5912 21.2978 10.623 21.3487 10.6389 21.4336C10.6389 21.5014 10.6389 21.5693 10.6071 21.6202C10.5753 21.6711 10.5436 21.722 10.4641 21.7898L10.0669 22.1631L9.30411 21.2978ZM10.0986 21.8747L10.2575 21.722C10.3052 21.6711 10.337 21.6371 10.3529 21.6032C10.3688 21.5862 10.3688 21.5523 10.3688 21.5184C10.3688 21.4845 10.3529 21.4505 10.337 21.4166C10.3052 21.3826 10.2575 21.3657 10.2258 21.3657C10.1781 21.3657 10.1304 21.4166 10.0669 21.4675L9.89206 21.6371L10.0986 21.8747ZM10.1781 20.4496L10.7501 19.8897L11.3858 20.6192L11.4652 20.5514L11.7513 20.8907L11.6082 21.0264L11.4493 20.8398L10.9249 21.3487L11.0838 21.5353L10.9408 21.6711L10.6548 21.3318L10.7184 21.2639C10.6866 21.1621 10.6389 21.0434 10.5595 20.9416C10.48 20.8228 10.3847 20.704 10.2575 20.5514L10.1781 20.4496ZM10.4641 20.4326C10.6866 20.704 10.8455 20.9246 10.8931 21.0943L11.211 20.7889L10.7025 20.1951L10.4641 20.4326ZM10.9408 19.7031L11.0997 19.5504L11.6082 20.1442L11.4334 19.2281L11.6082 19.0585L12.371 19.9406L12.2121 20.0933L11.7194 19.5165L11.8783 20.4156L11.7035 20.5853L10.9408 19.7031ZM13.0225 19.296L12.7047 18.9227L12.6729 18.9566C12.6252 19.0075 12.5934 19.0585 12.5775 19.0924C12.5775 19.1263 12.5775 19.2111 12.5934 19.3468L12.6411 19.6522L12.4345 19.8388L12.4027 19.5844C12.3869 19.4825 12.371 19.3977 12.371 19.3468C12.371 19.296 12.3869 19.245 12.4027 19.1942C12.3074 19.262 12.2279 19.279 12.1644 19.279C12.0849 19.262 12.0214 19.2281 11.9737 19.1772C11.926 19.1263 11.8942 19.0585 11.8942 18.9906C11.8783 18.9227 11.8942 18.8549 11.926 18.8039C11.9578 18.7531 12.0055 18.6852 12.1008 18.6004L12.4504 18.2611L13.1973 19.1433L13.0225 19.296ZM12.4027 18.5664L12.2756 18.7022C12.2121 18.77 12.1644 18.8039 12.1485 18.8379C12.1326 18.8549 12.1167 18.8888 12.1167 18.9227C12.1167 18.9566 12.1326 18.9906 12.1485 19.0245C12.1803 19.0585 12.1962 19.0754 12.2279 19.0754C12.2597 19.0754 12.2915 19.0754 12.3074 19.0585C12.3392 19.0415 12.3869 18.9906 12.4504 18.9227L12.5775 18.8039L12.4027 18.5664ZM13.6899 18.6513L12.9271 17.7691L13.1973 17.5146C13.2926 17.4128 13.3721 17.3619 13.4038 17.328C13.4674 17.2941 13.531 17.2771 13.5945 17.2941C13.6581 17.311 13.7217 17.345 13.7852 17.4128C13.8329 17.4637 13.8647 17.5146 13.8806 17.5825C13.8965 17.6334 13.8965 17.6843 13.8806 17.7351C13.8647 17.7861 13.8487 17.82 13.8329 17.8539C13.8011 17.9048 13.7534 17.9557 13.674 18.0405L13.5627 18.1423L13.8487 18.4816L13.6899 18.6513ZM13.229 17.7521L13.4515 18.0066L13.5469 17.9218C13.6104 17.8539 13.6581 17.803 13.674 17.7861C13.6899 17.7521 13.6899 17.7182 13.6899 17.6843C13.6899 17.6503 13.674 17.6164 13.6422 17.5994C13.6104 17.5655 13.5786 17.5486 13.5469 17.5486C13.5151 17.5486 13.4833 17.5486 13.4515 17.5825C13.4356 17.5994 13.3879 17.6334 13.3244 17.7012L13.229 17.7521ZM13.7058 17.0226L13.8647 16.87L14.3731 17.4637L14.1983 16.5476L14.3731 16.3779L15.1359 17.2601L14.977 17.4128L14.4685 16.836L14.6274 17.7351L14.4526 17.9048L13.7058 17.0226ZM15.1041 16.3271L15.3583 16.0726C15.2948 16.0217 15.2313 15.9708 15.1518 15.9708C15.0882 15.9538 15.0087 15.9877 14.9611 16.0387C14.9134 16.0895 14.8817 16.1404 14.8817 16.1913C14.8658 16.2422 14.8817 16.3101 14.9134 16.361L14.7069 16.4798C14.6592 16.3779 14.6433 16.2931 14.6592 16.1744C14.6751 16.0726 14.7386 15.9708 14.8181 15.886C14.9452 15.7672 15.0723 15.7163 15.2154 15.7333C15.3583 15.7502 15.4855 15.835 15.5967 15.9708C15.6762 16.0726 15.7238 16.1574 15.7556 16.2592C15.7874 16.361 15.7874 16.4458 15.7556 16.5476C15.7397 16.6324 15.6762 16.7173 15.5967 16.8021C15.406 16.9887 15.2154 17.0057 15.0087 16.853L15.1359 16.6324C15.1994 16.6833 15.263 16.7173 15.3266 16.7173C15.3901 16.7173 15.4378 16.6833 15.4855 16.6494C15.5331 16.5985 15.5649 16.5476 15.5649 16.4798C15.5649 16.4119 15.5331 16.3271 15.4855 16.2422L15.2313 16.4967L15.1041 16.3271ZM15.3742 15.394L15.9622 14.8341L16.7249 15.7163L16.5501 15.886L15.9145 15.1565L15.6603 15.394L15.9781 15.7672C16.0734 15.869 16.137 15.9538 16.1687 16.0047C16.2006 16.0556 16.2165 16.1065 16.2006 16.1574C16.2006 16.2083 16.1687 16.2592 16.1052 16.3101C16.0893 16.3271 16.0417 16.361 15.994 16.4119L15.8827 16.2592L15.9145 16.2252C15.9463 16.1913 15.9622 16.1574 15.9781 16.1404C15.9781 16.1235 15.9622 16.0895 15.9304 16.0556L15.8033 15.9029L15.3742 15.394ZM17.0745 15.36L16.4389 14.6305L16.2006 14.868L16.0734 14.7154L16.7249 14.0707L16.8521 14.2234L16.6137 14.4609L17.2334 15.1904L17.0745 15.36ZM17.154 14.4779C17.0745 14.393 17.0269 14.2912 16.9951 14.2064C16.9792 14.1385 16.9633 14.0707 16.9633 14.0028C16.9633 13.935 16.9792 13.8671 16.9951 13.8162C17.0269 13.7484 17.0745 13.6805 17.1381 13.6126C17.2652 13.4939 17.3923 13.443 17.5354 13.443C17.6783 13.4599 17.8055 13.5278 17.9326 13.6805C18.0597 13.8162 18.1074 13.9689 18.1074 14.1216C18.1074 14.2743 18.0438 14.41 17.9167 14.5287C17.7896 14.6475 17.6625 14.6984 17.5194 14.6984C17.4082 14.6984 17.2811 14.6136 17.154 14.4779ZM17.3287 14.3082C17.4082 14.41 17.5035 14.4609 17.583 14.4779C17.6783 14.4948 17.7419 14.4609 17.8214 14.393C17.8849 14.3252 17.9167 14.2573 17.9167 14.1555C17.9167 14.0707 17.869 13.9689 17.7896 13.8671C17.7101 13.7653 17.6148 13.7144 17.5354 13.6975C17.4559 13.6805 17.3765 13.7144 17.3129 13.7823C17.2493 13.8501 17.2175 13.935 17.2175 14.0198C17.2017 14.1046 17.2334 14.2064 17.3287 14.3082ZM18.4729 14.0028L17.7101 13.1206L17.9803 12.8662C18.0756 12.7644 18.1551 12.7135 18.1869 12.6795C18.2504 12.6456 18.314 12.6287 18.3775 12.6456C18.4411 12.6626 18.5206 12.6965 18.5682 12.7644C18.6159 12.8153 18.6477 12.8662 18.6635 12.934C18.6794 12.9849 18.6794 13.0358 18.6635 13.0867C18.6477 13.1376 18.6318 13.1715 18.6159 13.2055C18.5841 13.2564 18.5365 13.3073 18.457 13.3921L18.3458 13.4939L18.6318 13.8332L18.4729 14.0028ZM18.0121 13.1037L18.2186 13.3582L18.314 13.2733C18.3775 13.2055 18.4252 13.1546 18.4411 13.1376C18.457 13.1037 18.457 13.0697 18.457 13.0358C18.457 13.0019 18.4411 12.968 18.4093 12.951C18.3775 12.9171 18.3458 12.9001 18.314 12.9001C18.2822 12.9001 18.2504 12.9001 18.2186 12.934C18.2027 12.951 18.1551 12.9849 18.0915 13.0528L18.0121 13.1037ZM18.8225 12.8662C18.743 12.7813 18.6953 12.6795 18.6635 12.5947C18.6477 12.5269 18.6318 12.459 18.6318 12.3911C18.6318 12.3233 18.6477 12.2554 18.6635 12.2045C18.7113 12.1536 18.7589 12.0858 18.8225 12.0179C18.9496 11.8992 19.0767 11.8483 19.2197 11.8483C19.3627 11.8652 19.4899 11.9331 19.617 12.0858C19.7441 12.2215 19.7918 12.3742 19.7918 12.5269C19.7918 12.6795 19.7282 12.8153 19.6011 12.934C19.474 13.0528 19.3469 13.1037 19.2038 13.1037C19.0767 13.0867 18.9337 13.0019 18.8225 12.8662ZM18.9814 12.6965C19.0608 12.7983 19.1562 12.8492 19.2356 12.8662C19.331 12.8831 19.3945 12.8492 19.474 12.7813C19.5375 12.7135 19.5693 12.6456 19.5693 12.5438C19.5693 12.459 19.5217 12.3572 19.4422 12.2554C19.3627 12.1536 19.2674 12.1027 19.1879 12.0858C19.1085 12.0688 19.029 12.1027 18.9655 12.1706C18.9019 12.2385 18.8701 12.3233 18.8701 12.4081C18.8542 12.4929 18.9019 12.5947 18.9814 12.6965ZM19.3786 11.509L19.7123 11.1866C19.7759 11.1188 19.8235 11.0848 19.8713 11.0509C19.903 11.0339 19.9507 11.017 19.9825 11C20.0301 11 20.0619 11 20.1096 11.017C20.1573 11.0339 20.189 11.0509 20.2208 11.1018C20.2526 11.1357 20.2844 11.1866 20.2844 11.2545C20.3003 11.3054 20.2844 11.3563 20.2685 11.4072C20.3321 11.3732 20.3956 11.3563 20.4592 11.3732C20.5227 11.3902 20.5704 11.4241 20.6181 11.475C20.6499 11.509 20.6817 11.5599 20.6975 11.6107C20.7134 11.6616 20.7134 11.7125 20.6975 11.7634C20.6817 11.8143 20.6658 11.8652 20.6181 11.9161C20.5863 11.95 20.5227 12.0179 20.4274 12.1197L20.1414 12.3911L19.3786 11.509ZM19.6646 11.492L19.8394 11.6956L19.9507 11.5938C20.0142 11.5259 20.0619 11.492 20.0778 11.475C20.1096 11.4411 20.1096 11.4072 20.1255 11.3732C20.1255 11.3393 20.1096 11.3054 20.0937 11.2714C20.0778 11.2375 20.046 11.2205 20.0142 11.2205C19.9825 11.2205 19.9507 11.2205 19.9189 11.2545C19.903 11.2714 19.8553 11.3223 19.7759 11.3902L19.6646 11.492ZM19.9666 11.8483L20.1731 12.0858L20.3321 11.9331C20.3956 11.8822 20.4274 11.8313 20.4433 11.8143C20.4592 11.7804 20.4751 11.7465 20.4751 11.7125C20.4751 11.6786 20.4592 11.6447 20.4274 11.6107C20.4115 11.5768 20.3797 11.5599 20.3479 11.5599C20.3162 11.5599 20.2844 11.5599 20.2685 11.5768C20.2367 11.5938 20.189 11.6277 20.1096 11.7125L19.9666 11.8483ZM9.32 25.5222H13.531L15.1518 27.6088L16.7726 25.5222H20.9835V28.9491H18.3617V26.3365L16.3277 28.9491H13.96L11.9419 26.3365V28.9491H9.32V25.5222ZM22.6203 27.2356C22.6203 26.6758 23.097 26.2347 24.0345 25.9293C24.9721 25.6239 26.291 25.4543 27.9753 25.4543C29.7074 25.4543 31.0263 25.607 31.9638 25.9124C32.9014 26.2177 33.3622 26.6419 33.3622 27.2017C33.3622 27.6088 33.1556 27.9312 32.7425 28.1857C32.3293 28.4401 31.7414 28.6437 30.9786 28.7795C30.2 28.9152 29.2466 29 28.0866 29C26.9107 29 25.9414 28.9322 25.1786 28.8134C24.4159 28.6946 23.7962 28.4911 23.3194 28.2366C22.8586 27.9821 22.6203 27.6428 22.6203 27.2356ZM25.8301 27.2526C25.8301 27.5919 26.0208 27.8464 26.4181 27.9991C26.8153 28.1517 27.3397 28.2196 28.0071 28.2196C28.6904 28.2196 29.2307 28.1517 29.6121 27.9991C29.9934 27.8464 30.1841 27.5919 30.1841 27.2017C30.1841 26.8794 29.9934 26.6419 29.5962 26.4892C29.1989 26.3365 28.6745 26.2686 27.9912 26.2686C27.3397 26.2686 26.8312 26.3365 26.434 26.4892C26.0367 26.6419 25.8301 26.8963 25.8301 27.2526ZM12.4822 24.6909L21.3649 16.0387L29.7074 23.3846C30.3113 23.9444 29.7233 24.8605 29.1513 24.7418H18.6953C17.7578 24.5891 17.4718 23.4524 16.7885 22.8077L14.9611 24.6739H12.4822V24.6909ZM18.2186 21.5184L21.3808 18.4816L25.4011 21.8238C25.8937 22.18 25.6235 22.7399 25.2263 22.7568H19.4263C18.7271 22.7738 18.5523 22.0104 18.2186 21.5184Z" fill="#102A83"/>
</g>
<defs>
<clipPath id="clip0_1003_18">
<rect width="42.8" height="62" fill="white"/>
</clipPath>
</defs>
</svg>
