<svg viewBox="0 0 116 55" fill="none" xmlns="http://www.w3.org/2000/svg">
<path d="M87.1 37.2998V44.1998H90.4C91.7 44.1998 92.7 43.8998 93.5 43.1998C94.3 42.4998 94.7 41.5998 94.7 40.4998C94.7 39.4998 94.3 38.6998 93.6 38.0998C92.9 37.4998 91.8 37.1998 90.5 37.1998H87.1V37.2998ZM99.9 54.6998H96.6L93 49.2998C92.3 48.1998 91.6 47.4998 91.1 47.0998C90.5 46.6998 89.8 46.4998 89 46.4998H87V54.6998H84.2V35.0998H90.7C92.8 35.0998 94.4 35.5998 95.6 36.4998C96.8 37.3998 97.4 38.6998 97.4 40.3998C97.4 43.0998 95.8 44.8998 92.6 45.6998V45.7998C93.2 45.9998 93.7 46.3998 94.1 46.7998C94.5 47.1998 95.1 47.8998 95.8 48.9998L99.9 54.6998ZM63.9 44.8998C63.9 47.2998 64.6 49.1998 65.9 50.5998C67.2 51.9998 68.9 52.6998 71.1 52.6998C73.4 52.6998 75.2 51.9998 76.5 50.5998C77.8 49.1998 78.5 47.2998 78.5 44.7998C78.5 42.2998 77.9 40.2998 76.6 38.8998C75.3 37.4998 73.6 36.7998 71.4 36.7998C69.2 36.7998 67.4 37.4998 66.1 38.9998C64.6 40.6998 63.9 42.5998 63.9 44.8998ZM61 45.0998C61 41.8998 61.9 39.3998 63.8 37.5998C65.7 35.6998 68.2 34.7998 71.4 34.7998C74.4 34.7998 76.8 35.6998 78.6 37.4998C80.4 39.2998 81.3 41.6998 81.3 44.5998C81.3 47.7998 80.4 50.2998 78.5 52.1998C76.6 54.0998 74.2 54.9998 71 54.9998C68 54.9998 65.5 54.0998 63.7 52.2998C61.9 50.3998 61 47.9998 61 45.0998ZM60.6 37.2998H54.4V54.5998H51.6V37.2998H45.4V35.0998H60.5V37.2998H60.6ZM27.3 44.8998C27.3 47.2998 28 49.1998 29.3 50.5998C30.6 51.9998 32.3 52.6998 34.5 52.6998C36.8 52.6998 38.6 51.9998 39.9 50.5998C41.2 49.1998 41.9 47.2998 41.9 44.7998C41.9 42.2998 41.3 40.2998 40 38.8998C38.7 37.4998 37 36.7998 34.8 36.7998C32.6 36.7998 30.8 37.4998 29.5 38.9998C28 40.6998 27.3 42.5998 27.3 44.8998ZM24.4 45.0998C24.4 41.8998 25.3 39.3998 27.2 37.5998C29.1 35.6998 31.6 34.7998 34.8 34.7998C37.8 34.7998 40.2 35.6998 42 37.4998C43.8 39.2998 44.7 41.6998 44.7 44.5998C44.7 47.7998 43.8 50.2998 41.9 52.1998C40 54.0998 37.6 54.9998 34.4 54.9998C31.4 54.9998 28.9 54.0998 27.1 52.2998C25.4 50.3998 24.4 47.9998 24.4 45.0998ZM19.4 54.6998V41.6998C19.4 40.5998 19.5 39.2998 19.6 37.7998H19.5C19.3 38.6998 19 39.3998 18.9 39.7998L11.8 54.6998H10.3L3.3 39.9998C3.1 39.6998 2.9 38.9998 2.7 37.8998H2.5C2.6 38.7998 2.6 40.0998 2.6 41.8998V54.7998H0V35.0998H3.7L10 48.4998C10.5 49.4998 10.8 50.2998 11 50.8998H11.1C11.6 49.6998 11.9 48.8998 12.1 48.3998L18.5 34.9998H22.1V54.5998H19.4V54.6998ZM102 50.8998C102.6 51.3998 103.5 51.7998 104.6 52.1998C105.7 52.4998 106.7 52.6998 107.6 52.6998C110.5 52.6998 112 51.6998 112 49.7998C112 49.2998 111.8 48.7998 111.5 48.3998C111.2 47.9998 110.8 47.5998 110.2 47.2998C109.7 46.9998 108.6 46.4998 107.1 45.7998C105 44.7998 103.6 43.9998 103 43.0998C102.3 42.2998 102 41.2998 102 40.2998C102 38.6998 102.7 37.4998 104.1 36.4998C105.5 35.5998 107.3 35.0998 109.4 35.0998C111.5 35.0998 113 35.2998 114 35.7998V38.4998C112.7 37.6998 111.2 37.2998 109.2 37.2998C107.9 37.2998 106.9 37.4998 106.1 37.9998C105.3 38.4998 104.9 39.1998 104.9 39.9998C104.9 40.7998 105.2 41.3998 105.7 41.8998C106.3 42.3998 107.5 42.9998 109.3 43.8998C111.3 44.7998 112.8 45.6998 113.6 46.5998C114.4 47.4998 114.8 48.4998 114.8 49.5998C114.8 51.2998 114.1 52.5998 112.8 53.4998C111.5 54.3998 109.6 54.7998 107.3 54.7998C106.5 54.7998 105.5 54.6998 104.4 54.4998C103.3 54.2998 102.5 53.9998 102 53.6998V50.8998Z" fill="black"/>
<path fill-rule="evenodd" clip-rule="evenodd" d="M31.9996 0.599609C28.9996 0.599609 25.9996 0.599609 22.9996 0.599609C22.2996 0.599609 22.1996 0.599609 22.1996 1.39961V19.7996C22.1996 20.9996 21.0996 22.4996 19.3996 22.4996L13.6996 22.5996C12.0996 22.5996 10.6996 21.3996 10.6996 19.5996V17.7996C10.6996 17.3996 10.5996 17.1996 10.1996 17.1996H0.599609C0.199609 17.1996 0.0996094 17.3996 0.0996094 17.7996V20.0996C0.0996094 24.2996 3.99961 28.8996 9.29961 28.8996H23.0996C28.6996 28.8996 32.6996 24.7996 32.6996 19.5996V1.49961C32.7996 0.799609 32.5996 0.599609 31.9996 0.599609Z" fill="#CC000E"/>
<path fill-rule="evenodd" clip-rule="evenodd" d="M96.2997 0C105 0 112.4 4.1 115.2 9.8C115.7 10.9 115 10.9 114.4 10.9H104.2C103.6 10.9 103.3 10.7 103 10.2C101.5 8.3 99.0997 7.1 96.3997 7.1C91.7997 7.1 88.0996 10.6 88.0996 14.8C88.0996 19 91.7997 22.5 96.3997 22.5C99.0997 22.5 101.5 21.3 103 19.5C103.4 19 103.7 18.8 104.3 18.8C112.5 18.8 112.9 18.8 114.6 18.8C115.3 18.8 115.8 19 115.4 19.8C112.6 25.6 105.2 29.7 96.3997 29.7C85.2997 29.7 76.2997 23 76.2997 14.8C76.1997 6.7 85.1997 0 96.2997 0Z" fill="#CC000E"/>
<path fill-rule="evenodd" clip-rule="evenodd" d="M54.8995 10.2998L43.8995 28.6998C43.6995 29.0998 43.5995 29.0998 43.2995 29.0998H33.3995C32.9995 29.0998 32.7995 28.8998 33.0995 28.2998L49.0995 2.0998C49.7995 0.999805 50.1995 0.799805 51.2995 0.799805H59.6995C60.9995 0.799805 61.1995 0.899805 61.8995 2.0998L77.5995 28.0998C78.1995 29.0998 78.1995 29.0998 76.7995 29.0998H68.3995C67.2995 29.0998 67.0995 28.8998 66.6995 28.1998L64.3995 24.3998H50.1995C49.2995 24.3998 48.9995 24.4998 49.3995 23.7998L52.2995 18.8998C52.6995 18.0998 52.7995 18.1998 53.7995 18.1998H60.6995L55.9995 10.2998C55.6995 9.4998 55.1995 9.5998 54.8995 10.2998Z" fill="#CC000E"/>
</svg>
