<svg width="110" height="21" viewBox="0 0 110 21" fill="none" xmlns="http://www.w3.org/2000/svg">
    <g clip-path="url(#clip0_35362:173174)">
        <path d="M19.9579 1.23475L19.3559 2.14704C23.4077 3.83125 25.0284 6.87218 25.0284 10.147C25.0284 11.7845 24.5885 13.2581 23.7318 13.2581C20.9303 13.2581 14.9105 13.2581 13.1278 13.2581C11.6923 13.2581 11.2524 12.7435 11.9007 11.4336C13.0583 9.11779 16.5313 4.69674 18.6845 2.03008C19.0086 1.63242 19.2633 1.02423 18.1288 0.720135C16.9712 0.416041 15.1189 0.27569 13.5445 0.27569C5.55673 0.299082 0 4.64996 0 10.2874C0 15.457 4.81583 20.2991 13.5214 20.2991C17.3648 20.2991 22.088 19.1997 24.7506 16.1353H22.4584C19.8421 18.5213 16.4618 19.0593 13.5445 19.0593C6.52915 19.0593 2.08377 15.3634 2.08377 10.2874C2.08377 5.58563 7.10798 1.37511 13.4519 1.37511C14.216 1.37511 14.4706 1.53885 13.6603 2.5447C12.0396 4.57978 9.14544 8.62657 7.77941 10.9891C6.32077 13.5155 7.80257 15.5739 11.0903 15.5739C13.4056 15.5739 21.7175 15.5739 24.3801 15.5739C25.1905 15.5739 25.6767 15.1061 26.1398 14.2406C26.5334 13.5622 27.1122 12.1587 27.1122 10.2874C27.1122 6.47452 24.2875 2.96575 19.9579 1.23475Z" fill="black"/>
        <path d="M106.62 9.53881C104.698 9.53881 100.299 9.53881 97.6132 9.53881C97.9141 8.36922 98.794 7.5739 100.484 7.5739C102.475 7.5739 109.097 7.5739 109.097 7.5739V5.60899C109.097 5.60899 104.605 5.60899 99.9285 5.60899C94.6959 5.60899 93.4688 9.35168 93.4688 11.4803C93.4688 11.4803 102.73 11.4803 104.629 11.4803C106.157 11.4803 106.157 13.5622 104.675 13.5622C103.147 13.5622 92.3574 13.5622 92.3574 13.5622V5.60899H88.6529V13.5622C88.6529 13.5622 84.5317 13.5622 82.4942 13.5622C80.8504 13.5622 80.1558 12.7669 80.1558 11.5271C80.1558 10.03 80.1558 5.60899 80.1558 5.60899H74.2054L68.8803 9.0008L64.296 5.60899C59.1097 5.60899 59.1328 5.60899 51.0987 5.60899C47.2785 5.60899 44.5696 7.8546 44.2454 10.685H46.7228C45.7272 11.34 44.9632 12.416 44.5233 13.5856C40.7262 13.5856 37.5774 13.5856 36.7207 13.5856C35.2389 13.5856 34.5675 12.8137 34.5675 11.3634C34.5675 10.4043 34.5675 5.60899 34.5675 5.60899H30.8398C30.8398 5.60899 30.8398 8.22887 30.8398 10.4979C30.8398 13.609 32.5069 15.5505 36.304 15.5505C39.4991 15.5505 62.3048 15.5505 62.3048 15.5505L67.6531 12.1587L72.2374 15.5739H77.7247L70.5704 10.2874L76.405 6.61484C76.405 7.90139 76.405 10.4979 76.405 12.2055C76.405 13.9365 78.6277 15.5973 80.642 15.5973C83.2583 15.5973 102.267 15.5973 106.62 15.5973C111.135 15.5739 111.111 9.53881 106.62 9.53881ZM61.6334 13.609C61.6334 13.609 55.3357 13.609 49.015 13.609C49.1539 12.533 49.6864 11.4803 51.4229 11.4803C54.5254 11.4803 59.2486 11.4803 59.2486 11.4803V9.53881H48.8297C49.015 8.74349 49.8253 7.59729 51.7007 7.59729C54.8032 7.59729 59.9663 7.59729 59.9663 7.59729V6.52127L65.9167 10.8955L61.6334 13.609Z" fill="black"/>
    </g>
    <defs>
        <clipPath id="clip0_35362:173174">
            <rect width="110" height="20" fill="white" transform="translate(0 0.299007)"/>
        </clipPath>
    </defs>
</svg>
