<svg width="43" height="62" viewBox="0 0 43 62" fill="none" xmlns="http://www.w3.org/2000/svg">
<g clip-path="url(#clip0_2026_9)">
<path opacity="0.2" d="M35 58.4C35 60.4 28.8 62 21.2 62C13.6 62 7.40002 60.4 7.40002 58.4C7.40002 56.4 13.6 54.8 21.2 54.8C28.8 54.7 35 56.4 35 58.4Z" fill="#05141F"/>
<path d="M21.4 0C9.6 0 0 9.6 0 21.4C0 34 21.4 58.5 21.4 58.5C21.4 58.5 42.8 35 42.8 21.4C42.8 9.6 33.2 0 21.4 0ZM21.4 33.7C14.1 33.7 8.2 27.8 8.2 20.5C8.2 13.2 14.1 7.3 21.4 7.3C28.7 7.3 34.6 13.2 34.6 20.5C34.6 27.8 28.7 33.7 21.4 33.7Z" fill="#010101"/>
<path d="M21.7 38.4C30.9232 38.4 38.4 30.9232 38.4 21.7C38.4 12.4768 30.9232 5 21.7 5C12.4768 5 5 12.4768 5 21.7C5 30.9232 12.4768 38.4 21.7 38.4Z" fill="white"/>
<mask id="mask0_2026_9" style="mask-type:luminance" maskUnits="userSpaceOnUse" x="6" y="19" width="31" height="6">
<path d="M37 19H6V24.6364H37V19Z" fill="white"/>
</mask>
<g mask="url(#mask0_2026_9)">
<path d="M11.6245 19.2641L11.4548 19.5212C12.5967 19.9959 13.0535 20.8529 13.0535 21.7758C13.0535 22.2372 12.9295 22.6525 12.6881 22.6525C11.8985 22.6525 10.2021 22.6525 9.69965 22.6525C9.2951 22.6525 9.17113 22.5075 9.35383 22.1384C9.68007 21.4857 10.6588 20.2398 11.2656 19.4883C11.357 19.3762 11.4287 19.2048 11.109 19.1191C10.7828 19.0334 10.2608 18.9939 9.81709 18.9939C7.56599 19.0004 6 20.2266 6 21.8153C6 23.2722 7.35719 24.6368 9.81058 24.6368C10.8937 24.6368 12.2248 24.327 12.9752 23.4634H12.3292C11.5919 24.1358 10.6392 24.2874 9.81709 24.2874C7.84003 24.2874 6.58724 23.2458 6.58724 21.8153C6.58724 20.4903 8.00316 19.3037 9.79099 19.3037C10.0063 19.3037 10.0781 19.3498 9.84972 19.6333C9.39298 20.2068 8.57735 21.3473 8.19238 22.0131C7.78131 22.7251 8.19891 23.3052 9.12545 23.3052C9.77794 23.3052 12.1204 23.3052 12.8708 23.3052C13.0991 23.3052 13.2362 23.1733 13.3667 22.9294C13.4776 22.7382 13.6407 22.3427 13.6407 21.8153C13.6407 20.7408 12.8447 19.752 11.6245 19.2641Z" fill="black"/>
<path d="M36.0475 21.6039C35.5059 21.6039 34.2662 21.6039 33.5092 21.6039C33.594 21.2743 33.842 21.0502 34.3183 21.0502C34.8794 21.0502 36.7456 21.0502 36.7456 21.0502V20.4965C36.7456 20.4965 35.4797 20.4965 34.1617 20.4965C32.6871 20.4965 32.3413 21.5512 32.3413 22.1511C32.3413 22.1511 34.9513 22.1511 35.4864 22.1511C35.917 22.1511 35.917 22.7378 35.4994 22.7378C35.0688 22.7378 32.0281 22.7378 32.0281 22.7378V20.4965H30.9841V22.7378C30.9841 22.7378 29.8226 22.7378 29.2484 22.7378C28.7852 22.7378 28.5894 22.5137 28.5894 22.1643C28.5894 21.7424 28.5894 20.4965 28.5894 20.4965H26.9125L25.4118 21.4523L24.1199 20.4965C22.6583 20.4965 22.6648 20.4965 20.4006 20.4965C19.324 20.4965 18.5606 21.1293 18.4692 21.927H19.1674C18.8868 22.1116 18.6715 22.4148 18.5475 22.7444C17.4775 22.7444 16.5901 22.7444 16.3486 22.7444C15.931 22.7444 15.7418 22.5269 15.7418 22.1181C15.7418 21.8479 15.7418 20.4965 15.7418 20.4965H14.6913C14.6913 20.4965 14.6913 21.2348 14.6913 21.8742C14.6913 22.751 15.1611 23.2981 16.2312 23.2981C17.1316 23.2981 23.5587 23.2981 23.5587 23.2981L25.0659 22.3423L26.3579 23.3047H27.9043L25.8881 21.8149L27.5324 20.7799C27.5324 21.1425 27.5324 21.8742 27.5324 22.3555C27.5324 22.8433 28.1588 23.3113 28.7265 23.3113C29.4638 23.3113 34.8208 23.3113 36.0475 23.3113C37.3199 23.3047 37.3132 21.6039 36.0475 21.6039ZM23.3695 22.751C23.3695 22.751 21.5947 22.751 19.8134 22.751C19.8525 22.4478 20.0026 22.1511 20.492 22.1511C21.3663 22.1511 22.6974 22.1511 22.6974 22.1511V21.6039H19.7612C19.8134 21.3798 20.0417 21.0568 20.5703 21.0568C21.4446 21.0568 22.8997 21.0568 22.8997 21.0568V20.7535L24.5766 21.9863L23.3695 22.751Z" fill="black"/>
</g>
</g>
<defs>
<clipPath id="clip0_2026_9">
<rect width="42.8" height="62" fill="white"/>
</clipPath>
</defs>
</svg>
