<svg width="68" height="61" viewBox="0 0 68 61" fill="none" xmlns="http://www.w3.org/2000/svg">
<path d="M34.0853 46.4176C34.6668 46.4391 35.2655 46.6868 35.7593 47.1889C36.7483 48.1918 36.7563 49.6227 35.9266 50.4654L32.1312 54.3046L32.1259 54.3086C31.2909 55.1513 29.885 55.1378 28.9 54.139C27.911 53.1361 27.9017 51.7133 28.7367 50.8665C28.7699 50.8369 28.8044 50.8019 28.8402 50.7615L32.4963 47.057C32.5095 47.0489 32.5188 47.0395 32.5268 47.026C32.9463 46.6074 33.5092 46.3947 34.084 46.4162L34.0853 46.4176ZM28.7725 41.029C29.354 41.0505 29.9554 41.3036 30.4505 41.8017C31.4395 42.8045 31.4435 44.2341 30.6098 45.0822L26.906 48.8352C26.8808 48.8608 26.8503 48.8904 26.8237 48.9227C25.9887 49.7641 24.5722 49.7546 23.5846 48.7518C22.5995 47.7529 22.5916 46.3274 23.4253 45.486L27.1729 41.6845C27.1861 41.6724 27.1981 41.659 27.2114 41.6455C27.6295 41.2215 28.1924 41.0115 28.7739 41.029H28.7725ZM23.4545 35.6417C24.0359 35.6633 24.6373 35.9164 25.1325 36.4185C26.1215 37.4213 26.1255 38.8442 25.2918 39.6896L21.5441 43.4884C21.5309 43.5032 21.5189 43.5153 21.5056 43.5287C20.6706 44.3755 19.2542 44.3714 18.2665 43.3672C17.2815 42.3643 17.2735 40.9334 18.1072 40.0907L21.8986 36.2529C22.3115 35.8289 22.8757 35.6202 23.4558 35.6417H23.4545ZM18.1417 30.2585C18.7231 30.2801 19.3192 30.5332 19.8144 31.0299C20.7954 32.0247 20.8074 33.43 20.0042 34.2754C19.9909 34.2848 19.983 34.2929 19.975 34.3023L16.2354 38.0931C16.2221 38.1106 16.2062 38.1281 16.1876 38.1456C15.3526 38.9869 13.9467 38.9829 12.9564 37.98C12.0629 37.0767 11.9753 35.8248 12.582 34.966C12.8064 34.8314 12.9869 34.6294 13.1037 34.3898L16.5832 30.8656C17.0013 30.443 17.5602 30.237 18.1404 30.2599L18.1417 30.2585ZM22.6035 8.3432e-05C22.2504 0.00546798 21.9145 0.149505 21.6663 0.401232L0.399269 21.9435C-0.130415 22.4765 -0.13307 23.3434 0.385994 23.8846L10.0637 33.8702C9.04414 35.7885 9.4185 38.2882 11.0354 39.9292C12.0736 40.9792 13.4595 41.5082 14.8162 41.4826C14.795 42.8611 15.3167 44.2651 16.3522 45.3164C17.3903 46.3691 18.7763 46.8954 20.1303 46.8739C20.1078 48.2483 20.6295 49.6483 21.6663 50.6996C22.7018 51.7523 24.0877 52.284 25.4471 52.2571C25.4245 53.6342 25.9409 55.0342 26.983 56.0869C28.6385 57.7628 31.1674 58.1155 33.0777 57.0036L34.6575 58.6001C36.589 60.5601 39.7738 60.4241 41.7306 58.4426C42.4275 57.7359 42.8868 56.8717 43.1112 55.9684C44.9644 56.8232 47.2756 56.4126 48.8209 54.8471C49.6373 54.0232 50.1272 52.98 50.2958 51.9084C51.9698 52.3177 53.8376 51.821 55.1479 50.4896C55.9656 49.6658 56.4595 48.6225 56.6241 47.5443C58.2928 47.9535 60.1606 47.4608 61.4722 46.1308C63.0387 44.5464 63.4649 42.1907 62.5648 40.2805C62.371 39.8659 62.1002 39.4836 61.7829 39.1296C61.7391 39.0677 61.6926 39.0111 61.6408 38.96L47.7111 24.8471C47.4562 24.5846 47.1084 24.4338 46.7433 24.4338C45.5246 24.4392 44.9272 25.9348 45.7968 26.7976L59.7186 40.9065C59.8858 41.0761 60.0199 41.2645 60.1142 41.4692C60.4978 42.2809 60.3518 43.3847 59.5593 44.183C58.5756 45.1858 57.1564 45.1899 56.3241 44.3445C56.2033 44.222 56.0586 44.1211 55.8979 44.0511C55.7506 43.8236 55.5833 43.6149 55.3948 43.4143C55.3696 43.3793 55.3391 43.3484 55.3085 43.3188L45.2113 33.0962C44.9578 32.827 44.6047 32.6735 44.2396 32.6735C43.0169 32.6735 42.4142 34.1798 43.2931 35.0427L53.3889 45.268C54.2253 46.1147 54.2199 47.5456 53.2309 48.5445C52.2419 49.5473 50.8255 49.5568 49.9957 48.7141C49.8696 48.5741 49.7143 48.461 49.547 48.3829C49.405 48.1689 49.247 47.9737 49.0691 47.7812C49.0439 47.7475 49.0147 47.7166 48.9882 47.6856L39.8906 38.4821C39.637 38.2156 39.2839 38.0634 38.9188 38.0634C37.6962 38.0634 37.0935 39.5684 37.9723 40.4273L47.0632 49.6362C47.8983 50.4789 47.889 51.9058 46.8986 52.9032C45.9096 53.9061 44.4985 53.9155 43.6687 53.0742C43.4444 52.8467 43.1523 52.704 42.843 52.6717C42.6147 52.1656 42.304 51.6904 41.8912 51.2758C41.6376 51.0065 41.2845 50.8571 40.9194 50.8571C39.7008 50.8625 39.1034 52.3581 39.9729 53.2209C40.8079 54.0636 40.7933 55.4946 39.8096 56.4974C38.8193 57.5003 37.4094 57.5043 36.5731 56.659L35.1142 55.1782L37.8422 52.4173C39.7738 50.4587 39.637 47.2252 37.6789 45.2451C36.5943 44.1453 35.1752 43.7576 33.7587 43.8316C33.8331 42.4007 33.4454 40.9563 32.3622 39.8578C31.2776 38.7621 29.8585 38.373 28.442 38.4471C28.5163 37.0121 28.1327 35.5677 27.0481 34.4733C25.9688 33.3748 24.5417 32.9858 23.1252 33.0598C23.1996 31.6289 22.8159 30.1832 21.7313 29.0861C20.7543 28.094 19.4692 27.5676 18.1868 27.5272C16.9044 27.4882 15.626 27.9432 14.6596 28.9218L11.8386 31.7783L3.27337 22.9329L22.6208 3.31966L32.0768 12.9041L25.455 19.6146C25.4245 19.6443 25.3913 19.6779 25.3608 19.7183C23.5381 21.6823 23.7001 24.8309 25.6197 26.7774C27.5472 28.7266 30.6537 28.8922 32.5945 27.0399C32.6277 27.0103 32.6635 26.978 32.6927 26.9484L38.5312 21.0281C39.6105 21.6042 40.707 22.2585 41.8606 22.2113C43.5041 22.1413 45.0693 21.6406 46.1632 20.5314C47.0486 19.6537 46.4114 18.1312 45.1781 18.1675C44.825 18.1756 44.4892 18.325 44.2436 18.5808C43.8811 18.9483 42.8284 19.4154 41.7452 19.4585C40.6606 19.5083 39.6211 19.1893 39.0264 18.5808C38.4927 18.0437 37.6351 18.0437 37.1041 18.5808L30.7745 24.9992C29.9434 25.8459 28.523 25.8311 27.5393 24.8323C26.5489 23.8294 26.5463 22.4079 27.3747 21.5625L42.5496 6.19231C42.5656 6.17481 42.5788 6.15866 42.5974 6.13981L45.3799 3.321L64.7141 22.9208L58.4335 29.2907C57.8919 29.8224 57.8866 30.7041 58.4163 31.2453C58.9499 31.7891 59.8181 31.7891 60.3478 31.2453L67.5975 23.8994C68.1338 23.3623 68.1338 22.4806 67.5975 21.9448L46.3331 0.401232C46.0742 0.138735 45.7185 -0.00395498 45.3521 8.3432e-05C45.0003 0.00546798 44.6644 0.149505 44.4095 0.401232L36.1324 8.79035C36.1231 8.80382 36.1098 8.81324 36.1018 8.82401L34.003 10.9536L23.5832 0.401232C23.327 0.138735 22.9699 -0.00395498 22.6035 8.3432e-05Z" fill="black"/>
</svg>
