<svg width="46" height="61" viewBox="0 0 46 61" fill="none" xmlns="http://www.w3.org/2000/svg">
<path d="M43.3714 15.6526H36.8V13.0439C36.8 5.73939 30.7543 0.000152588 23 0.000152588C15.2457 0.000152588 9.2 5.73939 9.2 13.0439V15.6526H2.62857C1.18286 15.6526 0 16.8266 0 18.2614V57.3926C0 58.8274 1.18286 60.0013 2.62857 60.0013H43.3714C44.8171 60.0013 46 58.8274 46 57.3926V18.2614C46 16.8266 44.8183 15.6526 43.3726 15.6526H43.3714ZM11.8286 13.0439C11.8286 7.1742 16.7571 2.6089 23 2.6089C29.2429 2.6089 34.1714 7.1742 34.1714 13.0439V15.6526H11.8286V13.0439ZM43.3714 57.3926H2.62857V18.2614H43.3714V57.3926ZM15.1143 35.2182C12.2229 35.2182 9.85714 32.8704 9.85714 30.0007C9.85714 27.1311 12.2229 24.7832 15.1143 24.7832C18.0057 24.7832 20.3714 27.1311 20.3714 30.0007C20.3714 32.8704 18.0057 35.2182 15.1143 35.2182ZM15.1143 27.392C13.6686 27.392 12.4857 28.5659 12.4857 30.0007C12.4857 31.4355 13.6686 32.6095 15.1143 32.6095C16.56 32.6095 17.7429 31.4355 17.7429 30.0007C17.7429 28.5659 16.56 27.392 15.1143 27.392ZM30.8857 50.8707C27.9943 50.8707 25.6286 48.5228 25.6286 45.6532C25.6286 42.7836 27.9943 40.4357 30.8857 40.4357C33.7771 40.4357 36.1429 42.7836 36.1429 45.6532C36.1429 48.5228 33.7771 50.8707 30.8857 50.8707ZM30.8857 43.0445C29.44 43.0445 28.2571 44.2184 28.2571 45.6532C28.2571 47.088 29.44 48.262 30.8857 48.262C32.3314 48.262 33.5143 47.088 33.5143 45.6532C33.5143 44.2184 32.3314 43.0445 30.8857 43.0445ZM11.8286 50.2185C11.5 50.2185 11.1714 50.0881 10.9086 49.8272C10.3829 49.3055 10.3829 48.5228 10.9086 48.0011L33.2514 25.8267C33.7771 25.305 34.5657 25.305 35.0914 25.8267C35.6171 26.3485 35.6171 27.1311 35.0914 27.6529L12.7486 49.8272C12.4857 50.0881 12.1571 50.2185 11.8286 50.2185Z" fill="#221F20"/>
</svg>
