<svg id="Layer_1" data-name="Layer 1" xmlns="http://www.w3.org/2000/svg" viewBox="0 0 208.49 64.83"><defs><style>.cls-1{fill:#b6000d;}</style></defs><title>diler-kia-samara-21</title><path d="M.07,0H8.59V16.68L25.14,0H36L14.15,22.24,36.2,44.91h-11l-16.62-17v17H.07Z"/><path d="M74.54,44.91H66.32V10.69L51,44.91H39.33V0h8.21V34.22L62.86,0H74.54Z"/><path d="M106,34.1H90.51L87.12,44.91H78.47L93.05,0h10.5l14.51,44.91h-8.65ZM92.8,27h10.93L98.3,9.7Z"/><path d="M47.32,56.3a1.92,1.92,0,1,0,1.91,1.92A1.92,1.92,0,0,0,47.32,56.3Z"/><path d="M146.22,56.3a1.92,1.92,0,1,0,1.91,1.92A1.92,1.92,0,0,0,146.22,56.3Z"/><path d="M4.62,59.83v1.31c0,1.58-.79,2.48-2.31,2.48S0,62.72,0,61.14V56a2.16,2.16,0,0,1,2.31-2.47A2.16,2.16,0,0,1,4.62,56v1H3.15v-1c0-.71-.31-1-.8-1s-.8.27-.8,1v5.32c0,.7.31.95.8.95s.8-.25.8-.95V59.83Z"/><path d="M11.06,63.5H9.5l-.27-1.78H7.33L7.06,63.5H5.64l1.58-9.85H9.49ZM7.53,60.38H9l-.75-5Z"/><path d="M15.55,60.65l1.06-7h2.15V63.5H17.3V56.44L16.23,63.5H14.76l-1.15-7v7H12.26V53.65h2.15Z"/><path d="M25.39,63.5H23.82l-.26-1.78h-1.9l-.27,1.78H20l1.57-9.85h2.27Zm-3.54-3.12h1.5l-.75-5Z"/><path d="M31.18,56.08v1.29c0,1.57-.76,2.43-2.3,2.43h-.74v3.7H26.59V53.65h2.29C30.42,53.65,31.18,54.51,31.18,56.08Zm-3-1v3.33h.74c.49,0,.76-.22.76-.93V56c0-.71-.27-.93-.76-.93Z"/><path d="M37.4,63.5H35.84l-.27-1.78h-1.9l-.26,1.78H32l1.58-9.85h2.27Zm-3.53-3.12h1.49l-.74-5Z"/><path d="M58.87,63.5H57.33V53.65h1.54v4.22h1.76V53.65h1.58V63.5H60.63V59.28H58.87Z"/><path d="M68.84,63.5H67.28L67,61.72h-1.9l-.27,1.78H63.42L65,53.65h2.27Zm-3.53-3.12H66.8l-.75-5Z"/><path d="M76,60.65l1.06-7h2.15V63.5H77.75V56.44L76.68,63.5H75.21l-1.15-7v7H72.71V53.65h2.15Z"/><path d="M80.7,56a2.35,2.35,0,1,1,4.7,0v5.13a2.35,2.35,0,1,1-4.7,0Zm1.55,5.23c0,.7.31,1,.8,1s.8-.27.8-1V55.92c0-.71-.31-1-.8-1s-.8.27-.8,1Z"/><path d="M91.38,59.83v1.31c0,1.58-.79,2.48-2.31,2.48s-2.31-.9-2.31-2.48V56a2.32,2.32,0,1,1,4.62,0v1H89.92v-1c0-.71-.31-1-.81-1s-.8.27-.8,1v5.32c0,.7.31.95.8.95s.81-.25.81-.95V59.83Z"/><path d="M94.84,59.58l-.48.9v3H92.81V53.65h1.55v4.29l2-4.29h1.55L95.78,58l2.16,5.46H96.35Z"/><path d="M99,56a2.35,2.35,0,1,1,4.7,0v5.13a2.35,2.35,0,1,1-4.7,0Zm1.54,5.23c0,.7.31,1,.81,1s.8-.27.8-1V55.92c0-.71-.31-1-.8-1s-.81.27-.81,1Z"/><path d="M109.83,55.92v.35a1.93,1.93,0,0,1-1,2A2,2,0,0,1,110,60.36v.81a2.09,2.09,0,0,1-2.35,2.33H105.2V53.65h2.33C109.14,53.65,109.83,54.4,109.83,55.92Zm-3.09-.86v2.6h.61c.58,0,.93-.25.93-1v-.55c0-.7-.24-1-.79-1Zm0,4v3h.89c.52,0,.8-.24.8-1v-.85c0-.92-.29-1.2-1-1.2Z"/><path d="M115.89,59.83v1.31c0,1.58-.79,2.48-2.31,2.48s-2.31-.9-2.31-2.48V56a2.32,2.32,0,1,1,4.62,0v1h-1.46v-1c0-.71-.31-1-.8-1s-.81.27-.81,1v5.32c0,.7.31.95.81.95s.8-.25.8-.95V59.83Z"/><path d="M119.35,59.58l-.48.9v3h-1.54V53.65h1.54v4.29l2-4.29h1.55L120.3,58l2.15,5.46h-1.59Z"/><path d="M123.52,56a2.35,2.35,0,1,1,4.7,0v5.13a2.35,2.35,0,1,1-4.7,0Zm1.54,5.23c0,.7.31,1,.81,1s.8-.27.8-1V55.92c0-.71-.31-1-.8-1s-.81.27-.81,1Z"/><path d="M133,60.65l1-7h2.16V63.5h-1.47V56.44l-1.07,7.06H132.2l-1.16-7v7h-1.35V53.65h2.16Z"/><path d="M159.81,60.65l1.05-7H163V63.5h-1.47V56.44l-1.07,7.06H159l-1.16-7v7h-1.35V53.65h2.16Z"/><path d="M166.18,57.8h2.13v1.41h-2.13V62.1h2.68v1.4h-4.23V53.65h4.23v1.41h-2.68Z"/><path d="M175.47,53.65l-1.62,4.79,1.73,5.06H174l-1.27-3.9-1.28,3.9H170l1.73-5.06-1.62-4.79h1.61l1.17,3.63L174,53.65Z"/><path d="M179.83,56.07c0-.89-.31-1.13-.8-1.13s-.82.27-.82,1v.8h-1.42V56c0-1.58.76-2.45,2.28-2.45A2.16,2.16,0,0,1,181.38,56v.26a1.94,1.94,0,0,1-1.08,2,2,2,0,0,1,1.08,2.06v.78c0,1.58-.79,2.48-2.31,2.48s-2.31-.9-2.31-2.48V60.06h1.47v1.18c0,.7.31,1,.8,1s.8-.24.8-1.11v-.78c0-.91-.31-1.25-1-1.25h-.38V57.66h.46c.58,0,.93-.25.93-1Z"/><path d="M187.92,63.5h-1.56l-.27-1.78h-1.9l-.26,1.78H182.5l1.58-9.85h2.27Zm-3.53-3.12h1.49l-.74-5Z"/><path d="M193.76,55.92v.35a1.93,1.93,0,0,1-1,2,2,2,0,0,1,1.16,2.11v.81a2.09,2.09,0,0,1-2.35,2.33h-2.44V53.65h2.34C193.07,53.65,193.76,54.4,193.76,55.92Zm-3.08-.86v2.6h.6c.58,0,.93-.25.93-1v-.55c0-.7-.24-1-.78-1Zm0,4v3h.89c.52,0,.8-.24.8-1v-.85c0-.92-.3-1.2-1-1.2Z"/><path d="M195.21,56a2.35,2.35,0,1,1,4.7,0v5.13a2.35,2.35,0,1,1-4.7,0Zm1.55,5.23c0,.7.31,1,.8,1s.8-.27.8-1V55.92c0-.71-.31-1-.8-1s-.8.27-.8,1Z"/><path d="M205.88,64.83V63.5h-3.31v1.33h-1.51V62.12h.61a2,2,0,0,0,.38-1.28l.35-7.19h4.34v8.47h.67v2.71Zm-2.31-4a1.71,1.71,0,0,1-.44,1.31h2V55.06h-1.31Z"/><polygon class="cls-1" points="142.42 35.45 145.56 35.45 145.56 29.83 144.15 29.83 144.15 12.2 140.87 12.2 140.87 29.77 137.21 29.77 137.21 12.2 133.99 12.2 133.99 32.7 142.42 32.7 142.42 35.45"/><polygon class="cls-1" points="156.83 29.77 151.27 29.77 151.27 23.77 155.69 23.77 155.69 20.84 151.27 20.84 151.27 15.13 156.83 15.13 156.83 12.2 148.04 12.2 148.04 32.7 156.83 32.7 156.83 29.77"/><polygon class="cls-1" points="162.78 23.92 166.44 23.92 166.44 32.7 169.72 32.7 169.72 12.2 166.44 12.2 166.44 20.99 162.78 20.99 162.78 12.2 159.55 12.2 159.55 32.7 162.78 32.7 162.78 23.92"/><polygon class="cls-1" points="175.22 32.7 178.44 32.7 178.44 15.13 181.81 15.13 181.81 12.2 171.85 12.2 171.85 15.13 175.22 15.13 175.22 32.7"/><path class="cls-1" d="M187.17,25h1.52c3.22,0,4.8-1.79,4.8-5.07V17.27c0-3.28-1.58-5.07-4.8-5.07H184V32.7h3.22Zm0-9.87h1.52c1,0,1.58.47,1.58,1.93v3.08c0,1.46-.56,1.93-1.58,1.93h-1.52Z"/><path class="cls-1" d="M195.34,6.55C186.9,2.32,175.68,0,163.74,0s-23.15,2.32-31.6,6.55S119,16.43,119,22.45s4.67,11.67,13.15,15.91,19.67,6.55,31.6,6.55,23.16-2.33,31.6-6.55,13.15-9.89,13.15-15.91S203.82,10.79,195.34,6.55Zm-31.6-3.72c21.78,0,39.5,8.8,39.5,19.62s-17.72,19.63-39.5,19.63-39.5-8.81-39.5-19.63S142,2.83,163.74,2.83Z"/></svg>