<svg id="Layer_1" data-name="Layer 1" xmlns="http://www.w3.org/2000/svg" viewBox="0 0 208.49 64.83"><defs><style>.cls-1{fill:#b6000d;}</style></defs><title>diler-kia-samara</title><path d="M.07,0H8.59V16.68L25.14,0H36L14.15,22.24,36.2,44.91h-11l-16.62-17v17H.07Z"/><path d="M74.54,44.91H66.32V10.69L51,44.91H39.33V0h8.21V34.22L62.86,0H74.54Z"/><path d="M106,34.1H90.51L87.12,44.91H78.47L93.05,0h10.5l14.51,44.91h-8.65ZM92.8,27h10.93L98.3,9.7Z"/><polygon class="cls-1" points="142.42 35.45 145.56 35.45 145.56 29.83 144.15 29.83 144.15 12.2 140.87 12.2 140.87 29.77 137.21 29.77 137.21 12.2 133.99 12.2 133.99 32.7 142.42 32.7 142.42 35.45"/><polygon class="cls-1" points="156.83 29.77 151.27 29.77 151.27 23.77 155.69 23.77 155.69 20.84 151.27 20.84 151.27 15.13 156.83 15.13 156.83 12.2 148.04 12.2 148.04 32.7 156.83 32.7 156.83 29.77"/><polygon class="cls-1" points="162.78 23.92 166.44 23.92 166.44 32.7 169.72 32.7 169.72 12.2 166.44 12.2 166.44 20.99 162.78 20.99 162.78 12.2 159.55 12.2 159.55 32.7 162.78 32.7 162.78 23.92"/><polygon class="cls-1" points="175.22 32.7 178.44 32.7 178.44 15.13 181.81 15.13 181.81 12.2 171.85 12.2 171.85 15.13 175.22 15.13 175.22 32.7"/><path class="cls-1" d="M187.17,25h1.52c3.22,0,4.8-1.79,4.8-5.07V17.27c0-3.28-1.58-5.07-4.8-5.07H184V32.7h3.22Zm0-9.87h1.52c1,0,1.58.47,1.58,1.93v3.08c0,1.46-.56,1.93-1.58,1.93h-1.52Z"/><path class="cls-1" d="M195.34,6.55C186.9,2.32,175.68,0,163.74,0s-23.15,2.32-31.6,6.55S119,16.43,119,22.45s4.67,11.67,13.15,15.91,19.67,6.55,31.6,6.55,23.16-2.33,31.6-6.55,13.15-9.89,13.15-15.91S203.82,10.79,195.34,6.55Zm-31.6-3.72c21.78,0,39.5,8.8,39.5,19.62s-17.72,19.63-39.5,19.63-39.5-8.81-39.5-19.63S142,2.83,163.74,2.83Z"/><path d="M1,60V63.8H.07V55.28H1v3.84H3.11V55.28h.95V63.8H3.11V60Z"/><path d="M6.3,62.09,6,63.8H5.09l1.64-8.52H8.1L9.73,63.8h-1l-.33-1.71Zm.12-.82h1.9l-1-4.92Z"/><path d="M15.08,60V63.8h-.95V55.28h.95v3.84h2.09V55.28h.95V63.8h-.95V60Z"/><path d="M19.32,57.34c0-1.31.65-2.15,1.95-2.15s2,.84,2,2.15v4.41c0,1.29-.64,2.14-2,2.14s-1.95-.85-1.95-2.14Zm.94,4.45c0,.78.33,1.24,1,1.24s1-.46,1-1.24v-4.5c0-.77-.31-1.23-1-1.23s-1,.46-1,1.23Z"/><path d="M26.35,55.28c1.33,0,1.85.63,1.85,1.89v.4c0,.9-.26,1.46-1,1.69.83.23,1.15.89,1.15,1.83v.72a1.75,1.75,0,0,1-2,2h-2V55.28Zm-.23,3.62c.75,0,1.14-.25,1.14-1.14v-.5c0-.75-.25-1.12-.94-1.12h-.93V58.9Zm.28,4c.69,0,1-.37,1-1.16V61c0-1-.38-1.27-1.2-1.27h-.82v3.18Z"/><path d="M29.44,57.34c0-1.31.64-2.15,1.95-2.15s2,.84,2,2.15v4.41a1.87,1.87,0,0,1-2,2.14c-1.31,0-1.95-.85-1.95-2.14Zm.94,4.45c0,.78.32,1.24,1,1.24s1-.46,1-1.24v-4.5c0-.77-.32-1.23-1-1.23s-1,.46-1,1.23Z"/><path d="M37.11,61.93c-.29,1.28-.73,2-2.28,1.89V63c.73,0,1.06-.19,1.22-.84l.19-.56-2-6.28h.95l.87,3,.58,2.14.5-2.14.77-3h1Z"/><path d="M41.8,55.28c1.34,0,1.91.79,1.91,2.08v1c0,1.36-.63,2.06-2,2.06h-.84V63.8h-1V55.28Zm-.08,4.31c.71,0,1.05-.33,1.05-1.14V57.31c0-.78-.28-1.17-1-1.17h-.92v3.45Z"/><path d="M47,59.87,45.74,63.8h-1V55.28h.84v6.36l.76-2.35,1.36-4h1.06V63.8h-.85V57Z"/><path d="M53.84,65V63.8H50.12V55.28h.94v7.66h2.09V55.28h1V63h.64v2Z"/><path d="M57.33,60.1l-.5.84V63.8h-.95V55.28h.95V59.4l2.26-4.12h1L57.9,59.16l2.23,4.64h-1Z"/><path d="M61.09,57.34c0-1.31.64-2.15,1.95-2.15s2,.84,2,2.15v4.41a1.87,1.87,0,0,1-2,2.14c-1.31,0-1.95-.85-1.95-2.14ZM62,61.79c0,.78.33,1.24,1,1.24s1-.46,1-1.24v-4.5c0-.77-.32-1.23-1-1.23s-1,.46-1,1.23Z"/><path d="M68.52,59.7l-1.33,4.1h-1V55.28H67v6.36l.79-2.46,1.33-3.9h1.06V63.8h-.85V57Zm1-6.16a1.15,1.15,0,0,1-1.31,1.19,1.18,1.18,0,0,1-1.32-1.19h.6c0,.47.32.62.72.62S69,54,69,53.54Z"/><path d="M85.59,60V63.8h-1V55.28h1v3.84h2.1V55.28h1V63.8h-1V60Z"/><path d="M90.88,62.09l-.33,1.71h-.88l1.63-8.52h1.38l1.63,8.52h-1L93,62.09Zm.12-.82h1.9l-1-4.92Z"/><path d="M101.85,63.79h-.92L99.52,57V63.8h-.83V55.28H100l1.4,6.81,1.35-6.81h1.33V63.8h-.9V57Z"/><path d="M105.3,57.34c0-1.31.65-2.15,2-2.15s2,.84,2,2.15v4.41c0,1.29-.64,2.14-2,2.14s-2-.85-2-2.14Zm.94,4.45c0,.78.33,1.24,1,1.24s1-.46,1-1.24v-4.5c0-.77-.32-1.23-1-1.23s-1,.46-1,1.23Z"/><path d="M114.18,57.34v.76h-.9v-.81c0-.77-.31-1.23-1-1.23s-1,.46-1,1.23v4.5c0,.77.32,1.24,1,1.24s1-.47,1-1.24v-1.1h.9v1.06c0,1.29-.61,2.14-1.93,2.14s-1.91-.85-1.91-2.14V57.34c0-1.29.61-2.15,1.91-2.15S114.18,56.05,114.18,57.34Z"/><path d="M116.79,60.1l-.5.84V63.8h-.94V55.28h.94V59.4l2.27-4.12h1l-2.15,3.88,2.23,4.64h-1Z"/><path d="M120.56,57.34c0-1.31.64-2.15,1.94-2.15s2,.84,2,2.15v4.41a1.87,1.87,0,0,1-2,2.14c-1.3,0-1.94-.85-1.94-2.14Zm.93,4.45c0,.78.33,1.24,1,1.24s1-.46,1-1.24v-4.5c0-.77-.31-1.23-1-1.23s-1,.46-1,1.23Z"/><path d="M127.58,55.28c1.33,0,1.85.63,1.85,1.89v.4c0,.9-.25,1.46-1,1.69.83.23,1.15.89,1.15,1.83v.72a1.75,1.75,0,0,1-2,2h-2V55.28Zm-.23,3.62c.75,0,1.14-.25,1.14-1.14v-.5c0-.75-.25-1.12-.93-1.12h-.94V58.9Zm.28,4c.69,0,1-.37,1-1.16V61c0-1-.38-1.27-1.19-1.27h-.83v3.18Z"/><path d="M134.51,57.34v.76h-.9v-.81c0-.77-.31-1.23-1-1.23s-1,.46-1,1.23v4.5c0,.77.32,1.24,1,1.24s1-.47,1-1.24v-1.1h.9v1.06c0,1.29-.61,2.14-1.93,2.14s-1.91-.85-1.91-2.14V57.34c0-1.29.61-2.15,1.91-2.15S134.51,56.05,134.51,57.34Z"/><path d="M137.12,60.1l-.5.84V63.8h-1V55.28h1V59.4l2.27-4.12h1l-2.15,3.88,2.22,4.64h-1Z"/><path d="M140.88,57.34c0-1.31.65-2.15,2-2.15s2,.84,2,2.15v4.41c0,1.29-.64,2.14-2,2.14s-2-.85-2-2.14Zm.94,4.45c0,.78.33,1.24,1,1.24s1-.46,1-1.24v-4.5c0-.77-.31-1.23-1-1.23s-1,.46-1,1.23Z"/><path d="M149.14,63.79h-.91L146.81,57V63.8H146V55.28h1.33l1.4,6.81,1.35-6.81h1.33V63.8h-.9V57Z"/><path d="M169,63.79H168L166.63,57V63.8h-.83V55.28h1.33l1.4,6.81,1.35-6.81h1.33V63.8h-.9V57Z"/><path d="M175.52,59.05v.86h-2.09v3H176v.86h-3.5V55.28H176v.86h-2.56v2.91Z"/><path d="M179.29,60.13l-1.42,3.67H177l1.72-4.39-1.61-4.13h1l1.32,3.41,1.32-3.41h.89L180,59.41l1.7,4.39h-1Z"/><path d="M186.56,57.34v.22a1.69,1.69,0,0,1-1.05,1.76,1.67,1.67,0,0,1,1.05,1.76v.67c0,1.29-.61,2.14-1.92,2.14s-1.92-.85-1.92-2.14v-.83h.89v.87c0,.77.32,1.24,1,1.24s1-.46,1-1.31v-.67c0-.83-.38-1.26-1.1-1.26h-.4v-.86h.45a1,1,0,0,0,1.05-1.17v-.39c0-.87-.31-1.31-1-1.31s-1,.46-1,1.23v.57h-.88v-.54c0-1.3.6-2.13,1.91-2.13S186.56,56.05,186.56,57.34Z"/><path d="M188.75,62.09l-.33,1.71h-.88l1.63-8.52h1.38l1.63,8.52h-1l-.32-1.71Zm.12-.82h1.9l-1-4.92Z"/><path d="M195.14,55.28c1.33,0,1.85.63,1.85,1.89v.4c0,.9-.25,1.46-1,1.69.83.23,1.15.89,1.15,1.83v.72a1.75,1.75,0,0,1-1.95,2h-2V55.28Zm-.23,3.62c.75,0,1.14-.25,1.14-1.14v-.5c0-.75-.25-1.12-.93-1.12h-.94V58.9Zm.28,4c.69,0,1-.37,1-1.16V61c0-1-.38-1.27-1.19-1.27h-.83v3.18Z"/><path d="M198.23,57.34c0-1.31.65-2.15,2-2.15s2,.84,2,2.15v4.41c0,1.29-.64,2.14-2,2.14s-2-.85-2-2.14Zm.94,4.45c0,.78.33,1.24,1,1.24s1-.46,1-1.24v-4.5c0-.77-.32-1.23-1-1.23s-1,.46-1,1.23Z"/><path d="M207.55,65V63.8h-3.49V65h-.91V63h.55a1.86,1.86,0,0,0,.38-1.24l.32-6.44h3.43V63h.64v2ZM205,61.71a1.82,1.82,0,0,1-.39,1.25h2.25V56.14h-1.58Z"/><path d="M158.72,57.69a1.92,1.92,0,1,0,1.92,1.92A1.92,1.92,0,0,0,158.72,57.69Z"/><path d="M77.47,57.69a1.92,1.92,0,1,0,1.92,1.92A1.92,1.92,0,0,0,77.47,57.69Z"/></svg>