<svg id="Layer_1" data-name="Layer 1" xmlns="http://www.w3.org/2000/svg" viewBox="0 0 144.45 45"><defs><style>.cls-1{fill:#b6000d;}</style></defs><title>diler-kia-samara</title><path d="M0,0H5.91V11.56L17.38,0h7.53L9.76,15.41,25,31.12H17.42L5.91,19.31V31.12H0Z"/><path d="M51.61,31.12H45.92V7.41L35.3,31.12H27.21V0h5.7V23.72L43.52,0h8.09Z"/><path d="M73.43,23.63H62.69l-2.36,7.49h-6L64.44,0h7.28L81.78,31.12h-6Zm-9.16-4.92h7.58l-3.77-12Z"/><polygon class="cls-1" points="98.66 24.57 100.83 24.57 100.83 20.68 99.86 20.68 99.86 8.46 97.59 8.46 97.59 20.64 95.05 20.64 95.05 8.46 92.82 8.46 92.82 22.66 98.66 22.66 98.66 24.57"/><polygon class="cls-1" points="108.65 20.64 104.79 20.64 104.79 16.47 107.86 16.47 107.86 14.45 104.79 14.45 104.79 10.49 108.65 10.49 108.65 8.46 102.56 8.46 102.56 22.66 108.65 22.66 108.65 20.64"/><polygon class="cls-1" points="112.77 16.58 115.31 16.58 115.31 22.66 117.58 22.66 117.58 8.46 115.31 8.46 115.31 14.55 112.77 14.55 112.77 8.46 110.53 8.46 110.53 22.66 112.77 22.66 112.77 16.58"/><polygon class="cls-1" points="121.39 22.66 123.63 22.66 123.63 10.49 125.96 10.49 125.96 8.46 119.06 8.46 119.06 10.49 121.39 10.49 121.39 22.66"/><path class="cls-1" d="M129.67,17.33h1.06c2.23,0,3.33-1.24,3.33-3.51V12c0-2.27-1.1-3.51-3.33-3.51h-3.29v14.2h2.23Zm0-6.84h1.06c.71,0,1.09.32,1.09,1.34V14c0,1-.38,1.34-1.09,1.34h-1.06Z"/><path class="cls-1" d="M135.34,4.54C129.49,1.61,121.71,0,113.44,0s-16,1.61-21.9,4.54-9.12,6.85-9.12,11,3.24,8.09,9.12,11,13.63,4.54,21.9,4.54,16.05-1.61,21.9-4.54,9.11-6.85,9.11-11S141.21,7.48,135.34,4.54ZM113.44,2c15.09,0,27.38,6.1,27.38,13.6s-12.29,13.6-27.38,13.6-27.38-6.1-27.38-13.6S98.34,2,113.44,2Z"/><path d="M54,40a1.33,1.33,0,1,0,1.33,1.33A1.34,1.34,0,0,0,54,40Z"/><path d="M110.13,40a1.33,1.33,0,1,0,1.33,1.33A1.34,1.34,0,0,0,110.13,40Z"/><path d="M.91,44.22H0V38.4H.91v2.49H2V38.4h.93v5.82H2V41.73h-1Z"/><path d="M6.71,44.22H5.79l-.16-1.06H4.51l-.16,1.06H3.51l.93-5.82H5.78ZM4.63,42.37h.88l-.44-2.94Z"/><path d="M10.67,44.22H9.76V38.4h.91v2.49h1V38.4h.93v5.82h-.93V41.73h-1Z"/><path d="M13.44,39.8a1.3,1.3,0,0,1,1.39-1.47,1.29,1.29,0,0,1,1.38,1.47v3a1.29,1.29,0,0,1-1.38,1.47,1.3,1.3,0,0,1-1.39-1.47Zm.91,3.08c0,.42.18.57.48.57s.47-.15.47-.57V39.74c0-.42-.18-.57-.47-.57s-.48.15-.48.57Z"/><path d="M19.74,39.74V40a1.13,1.13,0,0,1-.59,1.17,1.18,1.18,0,0,1,.69,1.25v.47a1.24,1.24,0,0,1-1.39,1.38H17V38.4h1.38C19.34,38.4,19.74,38.84,19.74,39.74Zm-1.82-.51v1.54h.36c.34,0,.55-.15.55-.62v-.32c0-.42-.14-.6-.47-.6Zm0,2.37v1.79h.53c.31,0,.47-.14.47-.58v-.5c0-.54-.17-.71-.59-.71Z"/><path d="M20.52,39.8a1.39,1.39,0,1,1,2.77,0v3a1.39,1.39,0,1,1-2.77,0Zm.91,3.08c0,.42.18.57.47.57s.48-.15.48-.57V39.74c0-.42-.19-.57-.48-.57s-.47.15-.47.57Z"/><path d="M26.12,42.74c-.22,1-.58,1.57-1.85,1.49v-.82c.47,0,.73,0,.81-.47v0L23.82,38.4h.91l.5,2,.28,1.36.21-1.35.42-2h1Z"/><path d="M30.39,39.84v.75C30.39,41.53,30,42,29,42H28.6v2.19h-.92V38.4H29C30,38.4,30.39,38.91,30.39,39.84Zm-1.79-.61v2H29c.29,0,.45-.13.45-.55v-.87c0-.42-.16-.55-.45-.55Z"/><path d="M32,44.22H31V38.4h.82v3.68l.33-1.28.75-2.4h1v5.82H33.1v-4.1l-.37,1.43Z"/><path d="M34.78,38.4h.91v5h1v-5h.93v5h.4V45h-.89v-.78H34.78Z"/><path d="M40,41.9l-.28.53v1.79h-.91V38.4h.91v2.54l1.2-2.54h.91L40.52,41l1.27,3.23h-.94Z"/><path d="M42.34,39.8a1.39,1.39,0,1,1,2.77,0v3a1.39,1.39,0,1,1-2.77,0Zm.91,3.08c0,.42.18.57.48.57s.47-.15.47-.57V39.74c0-.42-.18-.57-.47-.57s-.48.15-.48.57Z"/><path d="M46.85,44.22h-.94V38.4h.81v3.68l.34-1.28.74-2.4h1v5.82H48v-4.1l-.38,1.43Zm.94-7.12c0,.31-.17.39-.42.39S47,37.41,47,37.1h-.56a1,1,0,0,0,1.92,0Z"/><path d="M59.57,44.22h-.92V38.4h.92v2.49h1V38.4h.93v5.82h-.93V41.73h-1Z"/><path d="M65.37,44.22h-.93l-.15-1.06H63.16L63,44.22h-.84l.93-5.82h1.34Zm-2.09-1.85h.88l-.44-2.94Z"/><path d="M70.35,42.53,71,38.4h1.27v5.82h-.86V40.05l-.63,4.17h-.87L69.2,40.1v4.12h-.8V38.4h1.27Z"/><path d="M73,39.8a1.39,1.39,0,1,1,2.77,0v3a1.39,1.39,0,1,1-2.77,0ZM74,42.88c0,.42.18.57.48.57s.47-.15.47-.57V39.74c0-.42-.18-.57-.47-.57s-.48.15-.48.57Z"/><path d="M79.26,42.05v.77c0,.93-.46,1.47-1.36,1.47a1.28,1.28,0,0,1-1.37-1.47v-3a1.28,1.28,0,0,1,1.37-1.47c.9,0,1.36.54,1.36,1.47v.56H78.4v-.62c0-.42-.19-.57-.48-.57s-.47.15-.47.57v3.14c0,.42.18.57.47.57s.48-.15.48-.57v-.83Z"/><path d="M81.22,41.9l-.28.53v1.79H80V38.4h.92v2.54l1.19-2.54h.92L81.78,41l1.27,3.23h-.94Z"/><path d="M83.6,39.8a1.39,1.39,0,1,1,2.77,0v3a1.39,1.39,0,1,1-2.77,0Zm.91,3.08c0,.42.18.57.47.57s.48-.15.48-.57V39.74c0-.42-.19-.57-.48-.57s-.47.15-.47.57Z"/><path d="M89.9,39.74V40a1.13,1.13,0,0,1-.59,1.17A1.18,1.18,0,0,1,90,42.37v.47a1.23,1.23,0,0,1-1.38,1.38H87.17V38.4h1.38C89.5,38.4,89.9,38.84,89.9,39.74Zm-1.82-.51v1.54h.36c.34,0,.55-.15.55-.62v-.32c0-.42-.14-.6-.47-.6Zm0,2.37v1.79h.53c.3,0,.47-.14.47-.58v-.5c0-.54-.17-.71-.59-.71Z"/><path d="M93.4,42.05v.77c0,.93-.47,1.47-1.36,1.47a1.28,1.28,0,0,1-1.37-1.47v-3A1.28,1.28,0,0,1,92,38.33c.89,0,1.36.54,1.36,1.47v.56h-.87v-.62c0-.42-.18-.57-.47-.57s-.47.15-.47.57v3.14c0,.42.18.57.47.57s.47-.15.47-.57v-.83Z"/><path d="M95.36,41.9l-.28.53v1.79h-.92V38.4h.92v2.54l1.19-2.54h.92L95.92,41l1.27,3.23h-.94Z"/><path d="M97.73,39.8a1.39,1.39,0,1,1,2.78,0v3a1.39,1.39,0,1,1-2.78,0Zm.92,3.08c0,.42.18.57.47.57s.48-.15.48-.57V39.74c0-.42-.19-.57-.48-.57s-.47.15-.47.57Z"/><path d="M103.24,42.53l.63-4.13h1.27v5.82h-.87V40.05l-.63,4.17h-.86l-.68-4.12v4.12h-.8V38.4h1.27Z"/><path d="M116.92,42.53l.62-4.13h1.27v5.82H118V40.05l-.64,4.17h-.86l-.68-4.12v4.12H115V38.4h1.27Z"/><path d="M120.6,40.85h1.25v.83H120.6v1.71h1.57v.83h-2.49V38.4h2.49v.83H120.6Z"/><path d="M126,38.4l-1,2.83,1,3h-1l-.75-2.3-.76,2.3h-.85l1-3-1-2.83h1l.69,2.15.71-2.15Z"/><path d="M128.49,39.83c0-.52-.19-.66-.48-.66s-.48.15-.48.57v.47h-.84v-.43c0-.93.45-1.45,1.35-1.45s1.36.54,1.36,1.47V40a1.12,1.12,0,0,1-.64,1.19,1.2,1.2,0,0,1,.64,1.23v.45c0,.93-.46,1.47-1.36,1.47s-1.36-.54-1.36-1.47v-.64h.86v.7c0,.42.18.57.47.57s.48-.14.48-.65v-.46c0-.54-.19-.74-.6-.74h-.23v-.83h.28c.34,0,.55-.15.55-.62Z"/><path d="M133.18,44.22h-.92l-.16-1.06H131l-.16,1.06H130l.93-5.82h1.34Zm-2.08-1.85H132l-.44-2.94Z"/><path d="M136.55,39.74V40a1.15,1.15,0,0,1-.59,1.17,1.18,1.18,0,0,1,.68,1.25v.47a1.24,1.24,0,0,1-1.39,1.38h-1.44V38.4h1.38C136.14,38.4,136.55,38.84,136.55,39.74Zm-1.82-.51v1.54h.35c.34,0,.55-.15.55-.62v-.32c0-.42-.14-.6-.46-.6Zm0,2.37v1.79h.52c.31,0,.47-.14.47-.58v-.5c0-.54-.17-.71-.59-.71Z"/><path d="M137.32,39.8a1.39,1.39,0,1,1,2.77,0v3a1.39,1.39,0,1,1-2.77,0Zm.91,3.08c0,.42.18.57.47.57s.48-.15.48-.57V39.74c0-.42-.18-.57-.48-.57s-.47.15-.47.57Z"/><path d="M143.53,45v-.78h-1.95V45h-.89V43.4h.36a1.26,1.26,0,0,0,.22-.75l.21-4.25H144v5h.4V45Zm-1.36-2.37a1,1,0,0,1-.26.77h1.2V39.23h-.77Z"/></svg>