<svg id="Layer_1" data-name="Layer 1" xmlns="http://www.w3.org/2000/svg" xmlns:xlink="http://www.w3.org/1999/xlink" viewBox="0 0 512 512"><defs><style>.cls-1{fill:url(#linear-gradient);}.cls-2{fill:#aa0505;}.cls-3{fill:url(#linear-gradient-2);}.cls-4{fill:#a90505;}.cls-5{fill:url(#linear-gradient-3);}</style><linearGradient id="linear-gradient" x1="-2694.01" y1="984.59" x2="-2694.01" y2="975.61" gradientTransform="matrix(14.18, 0, 0, -14.81, 38562.3, 14774.17)" gradientUnits="userSpaceOnUse"><stop offset="0" stop-color="#fff"/><stop offset="1"/></linearGradient><linearGradient id="linear-gradient-2" x1="-2241.1" y1="984.67" x2="-2241.1" y2="975.69" gradientTransform="matrix(4.62, 0, 0, -14.81, 10609.14, 14774.02)" xlink:href="#linear-gradient"/><linearGradient id="linear-gradient-3" x1="-2702.34" y1="984.67" x2="-2702.34" y2="975.69" gradientTransform="matrix(13.85, 0, 0, -14.81, 37576.34, 14774.02)" xlink:href="#linear-gradient"/></defs><title>KIA-logo-only-1x1</title><g id="Welcome"><g id="_2017-06-01-KIA_Main" data-name="2017-06-01-KIA_Main"><g id="Group-16"><g id="Page-1"><g id="Fill-6"><path id="path-2" class="cls-1" d="M337.63,190.21v5.16h2.84a3.89,3.89,0,0,1,4.14,3.87h0a6.28,6.28,0,0,1-.39,2h0L304.48,321.69a1.29,1.29,0,0,0,.22,1.15h0a1,1,0,0,0,.86.42h31a2.73,2.73,0,0,0,2.29-1.79h0l26.42-84.35a2.91,2.91,0,0,1,2.73-2.3h0a2.89,2.89,0,0,1,2.7,2.24h0l26.67,84.31a2.84,2.84,0,0,0,2.34,1.88h31a.9.9,0,0,0,.83-.39h0a1.42,1.42,0,0,0,.25-1.13h0L388.67,191.16c-.22-.47-.63-1-2.37-1H337.63Z"/><path id="path-2-2" data-name="path-2" class="cls-2" d="M337.63,190.21v5.16h2.84a3.89,3.89,0,0,1,4.14,3.87h0a6.28,6.28,0,0,1-.39,2h0L304.48,321.69a1.29,1.29,0,0,0,.22,1.15h0a1,1,0,0,0,.86.42h31a2.73,2.73,0,0,0,2.29-1.79h0l26.42-84.35a2.91,2.91,0,0,1,2.73-2.3h0a2.89,2.89,0,0,1,2.7,2.24h0l26.67,84.31a2.84,2.84,0,0,0,2.34,1.88h31a.9.9,0,0,0,.83-.39h0a1.42,1.42,0,0,0,.25-1.13h0L388.67,191.16c-.22-.47-.63-1-2.37-1H337.63Z"/></g><g id="Fill-3"><path id="path-3" class="cls-3" d="M244.1,322a1.32,1.32,0,0,1-1.32-1.34V198.32a4.17,4.17,0,0,0-4.14-4.23h-3.15v-5.16h40.17a1.34,1.34,0,0,1,1.32,1.38V320.64a1.32,1.32,0,0,1-1.32,1.34Z"/><path id="path-3-2" data-name="path-3" class="cls-2" d="M244.1,322a1.32,1.32,0,0,1-1.32-1.34V198.32a4.17,4.17,0,0,0-4.14-4.23h-3.15v-5.16h40.17a1.34,1.34,0,0,1,1.32,1.38V320.64a1.32,1.32,0,0,1-1.32,1.34Z"/></g><path class="cls-4" d="M256,125.75C114.63,125.75,0,184.07,0,256H0c0,71.94,114.62,130.26,256,130.26h0c141.38,0,256-58.32,256-130.26h0C512,184.07,397.39,125.75,256,125.75ZM27.28,256c0-64.41,102.39-116.61,228.71-116.61h0c126.34,0,228.73,52.19,228.73,116.61h0c0,64.44-102.4,116.64-228.73,116.64h0C129.67,372.62,27.28,320.43,27.28,256Z"/><g id="Fill-8"><path id="path-4" class="cls-5" d="M178.2,322a5.24,5.24,0,0,1-3.67-2.47l-36.3-51.67a3.67,3.67,0,0,0-3.15-1.94c-1.44,0-2.9,1-2.9,3.28v51.45a1.32,1.32,0,0,1-1.32,1.34H100.18a1.34,1.34,0,0,1-1.32-1.34V198.32a4.17,4.17,0,0,0-4.14-4.23H91.27v-5.16h39.59a1.36,1.36,0,0,1,1.32,1.38v43.43a2.85,2.85,0,0,0,2.9,3,4.1,4.1,0,0,0,3.32-2.18l30-43.1a5.42,5.42,0,0,1,3.73-2.5h34.59a1.14,1.14,0,0,1,.91.62,1.3,1.3,0,0,1,0,1.23l-38.57,58-.05.08a5.58,5.58,0,0,0-.75,2.47,4.45,4.45,0,0,0,1,2.63c3,4.29,45.86,65.83,46,66a1.37,1.37,0,0,1,.22,1.4,1.25,1.25,0,0,1-.91.67Z"/><path id="path-4-2" data-name="path-4" class="cls-2" d="M178.2,322a5.24,5.24,0,0,1-3.67-2.47l-36.3-51.67a3.67,3.67,0,0,0-3.15-1.94c-1.44,0-2.9,1-2.9,3.28v51.45a1.32,1.32,0,0,1-1.32,1.34H100.18a1.34,1.34,0,0,1-1.32-1.34V198.32a4.17,4.17,0,0,0-4.14-4.23H91.27v-5.16h39.59a1.36,1.36,0,0,1,1.32,1.38v43.43a2.85,2.85,0,0,0,2.9,3,4.1,4.1,0,0,0,3.32-2.18l30-43.1a5.42,5.42,0,0,1,3.73-2.5h34.59a1.14,1.14,0,0,1,.91.62,1.3,1.3,0,0,1,0,1.23l-38.57,58-.05.08a5.58,5.58,0,0,0-.75,2.47,4.45,4.45,0,0,0,1,2.63c3,4.29,45.86,65.83,46,66a1.37,1.37,0,0,1,.22,1.4,1.25,1.25,0,0,1-.91.67Z"/></g></g></g></g></g></svg>