<svg data-v-5ad6d5dc="" viewBox="0 0 1160 265" fill="none" xmlns="http://www.w3.org/2000/svg" preserveAspectRatio="xMidYMid" class="site-header__top-logo-img-svg"><path data-v-5ad6d5dc="" d="M676.218 234.43c0 2.134.597 3.298 1.991 3.298.996 0 1.793-.388 2.789-.97L1040.32 9.202c6.38-4.074 12.15-6.208 20.72-6.208h79.08c12.15 0 20.31 7.954 20.31 19.787v146.854c0 17.654-3.98 27.936-20.31 37.442l-95.81 56.064c-1.2.776-2.39 1.164-3.19 1.164-1.19 0-2.19-.776-2.19-4.074V88.74c0-1.94-.6-3.298-1.99-3.298-1 0-1.79.388-2.79.97L771.427 252.665c-7.37 4.656-13.345 6.014-20.117 6.014H577.024c-12.15 0-20.316-7.954-20.316-19.787V27.437c0-1.552-.797-2.91-1.992-2.91-.996 0-1.793.388-2.789.97l-173.289 101.46c-1.793.97-2.191 1.94-2.191 2.716 0 .776.199 1.358 1.593 2.522l123.693 120.47c1.593 1.552 2.788 2.91 2.788 4.074 0 1.358-1.792 2.134-3.983 2.134H388.597c-8.764 0-15.537-1.358-20.317-6.014l-75.092-73.136c-.797-.776-1.394-1.164-2.191-1.164-.598 0-1.594.388-2.39.776l-125.486 73.524c-7.569 4.462-12.748 5.82-20.317 5.82H27.278c-12.15 0-20.317-7.954-20.317-19.787V94.754c0-17.848 3.984-27.936 20.317-37.442L123.683.86c.996-.582 1.793-.776 2.589-.776 1.395 0 2.191 1.552 2.191 4.656V197.57c0 1.94.598 2.91 1.992 2.91.797 0 1.793-.582 2.789-1.164L458.908 8.62c7.769-4.462 12.549-5.82 21.512-5.82h175.282c12.15 0 20.316 7.954 20.316 19.787l.2 211.843z" fill="currentColor"></path></svg>