<svg width="43" height="62" viewBox="0 0 43 62" fill="none" xmlns="http://www.w3.org/2000/svg">
<g clip-path="url(#clip0_2006_226)">
<path opacity="0.2" d="M35 58.4C35 60.4 28.8 62 21.2 62C13.6 62 7.40002 60.4 7.40002 58.4C7.40002 56.4 13.6 54.8 21.2 54.8C28.8 54.7 35 56.4 35 58.4Z" fill="#05141F"/>
<path d="M21.4 0C9.6 0 0 9.6 0 21.4C0 34 21.4 58.5 21.4 58.5C21.4 58.5 42.8 35 42.8 21.4C42.8 9.6 33.2 0 21.4 0ZM21.4 33.7C14.1 33.7 8.2 27.8 8.2 20.5C8.2 13.2 14.1 7.3 21.4 7.3C28.7 7.3 34.6 13.2 34.6 20.5C34.6 27.8 28.7 33.7 21.4 33.7Z" fill="#010101"/>
<path d="M21.7 38.4C30.9232 38.4 38.4 30.9232 38.4 21.7C38.4 12.4768 30.9232 5 21.7 5C12.4768 5 5 12.4768 5 21.7C5 30.9232 12.4768 38.4 21.7 38.4Z" fill="white"/>
<path d="M10.7551 17.4689C10.7547 17.4675 10.7544 17.4661 10.754 17.4647L10.7574 17.4661C10.7566 17.467 10.7558 17.468 10.7551 17.4689ZM10.7551 17.4689C9.80325 18.6219 9.26248 19.9476 9.26248 21.3542C9.26248 25.6445 14.2869 29.1606 20.6587 29.4656C19.1236 28.5626 17.9839 25.2416 17.9839 21.2831V21.0472C14.0589 20.52 11.1611 19.1362 10.7551 17.4689ZM21.5 11.8826C13.4918 11.8826 7 16.0187 7 21.1216C7 26.2244 13.4918 30.3605 21.5 30.3605C29.5082 30.3605 36 26.2244 36 21.1216C36 16.0187 29.5082 11.8826 21.5 11.8826ZM19.4272 21.2007C20.0976 21.2516 20.7908 21.2784 21.5 21.2784C22.2092 21.2784 22.9017 21.2516 23.5728 21.2007C23.4776 24.1369 22.586 26.4382 21.5 26.4382C20.414 26.4382 19.5224 24.1335 19.4272 21.2007ZM25.0141 21.0498C29.0316 20.5135 31.9758 19.0736 32.2667 17.3541C33.2797 18.536 33.8575 19.9015 33.8575 21.3575C33.8575 25.678 28.7627 29.2115 22.3272 29.4743C23.8691 28.58 25.0087 25.251 25.0087 21.2858V21.0498H25.0141ZM22.7536 13.4124C26.7697 13.6135 29.8481 14.7859 29.8481 16.1977C29.8481 17.3508 27.7947 18.3429 24.8545 18.7773C24.5374 16.307 23.7591 14.3294 22.7536 13.4124ZM23.4809 18.9342C22.8448 18.9865 22.1804 19.0139 21.4966 19.0139C20.8129 19.0139 20.1485 18.9865 19.5124 18.9342C19.7805 16.606 20.5669 14.9193 21.4966 14.9193C22.4264 14.9193 23.2135 16.6067 23.4809 18.9342ZM18.1395 18.7773C15.1992 18.3416 13.1459 17.3501 13.1459 16.1977C13.1459 15.7211 13.4965 15.2726 14.1153 14.8791C14.8728 14.5007 15.6619 14.1889 16.4736 13.9473C17.7099 13.6463 18.9726 13.4667 20.2437 13.411C19.2436 14.3294 18.4632 16.307 18.1428 18.7773H18.1395Z" fill="#383838"/>
<path d="M10.7551 17.4689C10.7547 17.4675 10.7544 17.4661 10.754 17.4647L10.7574 17.4661C10.7566 17.467 10.7558 17.468 10.7551 17.4689ZM10.7551 17.4689C9.80325 18.6219 9.26248 19.9476 9.26248 21.3542C9.26248 25.6445 14.2869 29.1606 20.6587 29.4656C19.1236 28.5626 17.9839 25.2416 17.9839 21.2831V21.0472C14.0589 20.52 11.1611 19.1362 10.7551 17.4689ZM21.5 11.8826C13.4918 11.8826 7 16.0187 7 21.1216C7 26.2244 13.4918 30.3605 21.5 30.3605C29.5082 30.3605 36 26.2244 36 21.1216C36 16.0187 29.5082 11.8826 21.5 11.8826ZM19.4272 21.2007C20.0976 21.2516 20.7908 21.2784 21.5 21.2784C22.2092 21.2784 22.9017 21.2516 23.5728 21.2007C23.4776 24.1369 22.586 26.4382 21.5 26.4382C20.414 26.4382 19.5224 24.1335 19.4272 21.2007ZM25.0141 21.0498C29.0316 20.5135 31.9758 19.0736 32.2667 17.3541C33.2797 18.536 33.8575 19.9015 33.8575 21.3575C33.8575 25.678 28.7627 29.2115 22.3272 29.4743C23.8691 28.58 25.0087 25.251 25.0087 21.2858V21.0498H25.0141ZM22.7536 13.4124C26.7697 13.6135 29.8481 14.7859 29.8481 16.1977C29.8481 17.3508 27.7947 18.3429 24.8545 18.7773C24.5374 16.307 23.7591 14.3294 22.7536 13.4124ZM23.4809 18.9342C22.8448 18.9865 22.1804 19.0139 21.4966 19.0139C20.8129 19.0139 20.1485 18.9865 19.5124 18.9342C19.7805 16.606 20.5669 14.9193 21.4966 14.9193C22.4264 14.9193 23.2135 16.6067 23.4809 18.9342ZM18.1395 18.7773C15.1992 18.3416 13.1459 17.3501 13.1459 16.1977C13.1459 15.7211 13.4965 15.2726 14.1153 14.8791C14.8728 14.5007 15.6619 14.1889 16.4736 13.9473C17.7099 13.6463 18.9726 13.4667 20.2437 13.411C19.2436 14.3294 18.4632 16.307 18.1428 18.7773H18.1395Z" stroke="#000001"/>
</g>
<defs>
<clipPath id="clip0_2006_226">
<rect width="42.8" height="62" fill="white"/>
</clipPath>
</defs>
</svg>
